<svg xmlns="http://www.w3.org/2000/svg" viewBox="0 0 656.74 658.48" class="lifecycle-overlay">
    <defs>
        <style>
            .lifecycle-path{fill:#eff7f3;}
        </style>
    </defs>
    <g>
        <path class="lifecycle-path" d="M237.78,567.07a89.58,89.58,0,1,1,89.58,89.58,89.58,89.58,0,0,1-89.58-89.58h0m181.08,0a91.41,91.41,0,1,0-91.4,91.41,91.41,91.41,0,0,0,91.4-91.41"/>
        <path class="lifecycle-path" d="M91.41,239.64A89.58,89.58,0,1,1,1.83,329.22a89.59,89.59,0,0,1,89.58-89.58h0m0,181.05A91.41,91.41,0,1,0,0,329.29a91.4,91.4,0,0,0,91.41,91.4"/>
        <path class="lifecycle-path" d="M327.36,1.77a89.58,89.58,0,1,1-89.58,89.57h0A89.58,89.58,0,0,1,327.36,1.77m0,181A91.41,91.41,0,1,0,236,91.41a91.4,91.4,0,0,0,91.4,91.4h0"/>
        <path class="lifecycle-path" d="M475.66,329.22a89.58,89.58,0,1,1,89.61,89.55h0a89.58,89.58,0,0,1-89.57-89.55m181.08,0a91.41,91.41,0,1,0-91.4,91.41h0a91.41,91.41,0,0,0,91.4-91.41"/>
        <path class="lifecycle-path" d="M238.73,549.32c-49.26-20.8-91.91-58.09-117.28-102.34l-1.23.72c25.53,44.51,68.52,82,117.94,103Z"/>
        <path class="lifecycle-path" d="M210.24,122.93l-.7-1.23A240.12,240.12,0,0,0,106.25,239.36l1.33.54a238.58,238.58,0,0,1,102.66-117"/>
        <path class="lifecycle-path" d="M534.38,210.55A240.09,240.09,0,0,0,417.19,108.11l-.53,1.33a238.78,238.78,0,0,1,116.62,101.8Z"/>
        <path class="lifecycle-path" d="M549.1,417.44l-1.32-.5A238.68,238.68,0,0,1,446.6,534.26l.73,1.23a240,240,0,0,0,101.77-118"/>
        <path class="lifecycle-path" d="M539.71,196.24a.72.72,0,0,0-.79-.65.73.73,0,0,0-.6.43l-4.85,14.15-14.4-3.59a.66.66,0,0,0-.83.43.14.14,0,0,0,0,.07.69.69,0,0,0,.49.85h0l15.76,3.94,5.26-15.26v-.25"/>
        <path class="lifecycle-path" d="M461.7,540.25a.75.75,0,0,0-.47-.67l-14.06-4.75,3.62-14.4a.72.72,0,0,0-1.38-.35l-3.94,15.76,15.28,5.26a.76.76,0,0,0,.92-.44v-.25"/>
        <path class="lifecycle-path" d="M136.45,450.51a.66.66,0,0,0-.52-.78h-.05l-15.76-3.94-5.26,15.29a.72.72,0,0,0,.44.91.75.75,0,0,0,.91-.44L121,447.48l14.4,3.63a.76.76,0,0,0,.89-.54v-.15"/>
        <path class="lifecycle-path" d="M211.34,121.7l-15.29-5.27a.71.71,0,0,0-.47,1.33h0l14.06,4.85L206,137a.73.73,0,0,0,.67.78.74.74,0,0,0,.72-.43Z"/>
    </g>
</svg>