<svg id="Layer_1" data-name="Layer 1" xmlns="http://www.w3.org/2000/svg" viewBox="0 0 420.32 157.53"><defs><style>.cls-1,.cls-2{fill:#cccdc4;}.cls-2{fill-rule:evenodd;}</style></defs><title>habitat-logo</title><path class="cls-1" d="M29.8,0l-.52.19L30,.07Z"/><path class="cls-1" d="M28.74.08c-.9-.32-1.59.63-2.18.42.1,0,.05.09.15.13Z"/><path class="cls-1" d="M25.48.58c.31,0,.56,0,.48-.13a2.19,2.19,0,0,0-.51,0,4.87,4.87,0,0,0-.55.06,2.91,2.91,0,0,0-.59.19A4.17,4.17,0,0,1,25.48.58Z"/><path class="cls-1" d="M34.38,81.76c-.08-3.52-.21-7-.37-10.58V23.6c.17-2.74.36-5.54.3-8.36l-.14.2A15.08,15.08,0,0,0,34,11.25v-.89a2.35,2.35,0,0,1,.2-.82l0,.22A3.11,3.11,0,0,0,34,8V5.19a4.24,4.24,0,0,0-.32-1.61,2.55,2.55,0,0,0-.38-.71,3.5,3.5,0,0,0-.8-.83c-.28-.23-.49-.42-.43-.63.75.38-1.07-.86.72-.12A3.59,3.59,0,0,0,31.14.63C30.45.55,29.9.67,30,.82c-.1.18-.38.34-.44.5H24.06V43.91H14.38A3.4,3.4,0,0,1,11.61,43a3.81,3.81,0,0,0,3,.8L18,43.76c-.14,0-.19.08-.33.1a7.37,7.37,0,0,1,1.4-.19c.13,0-.14.1-.29.12a13,13,0,0,0,2.57.1l2.6-.12A5.47,5.47,0,0,1,24,42.49c0-.54-.18-.77-.29-.47-.09-7-.15-14.53-.42-21.68,0-.34.14-.4.26-.31-.28-3-.36-6.16-.37-9.3,0-3.39.08-6.8.12-10.18h.09c.08-.05,0-.08-.2-.11-.05.17-.09.52-.18-.18l0,0H23c0,.82,0,1.88,0,2.52,0,.47.07.92.1,1.36a11.36,11.36,0,0,1,0,2.67l-.14-.23c-.09,1.32.36.27.18,1.64-.12.54-.18-.13-.19.12a78.76,78.76,0,0,0,.27,8.41c-.31.66,0,3-.3,4.07a6.89,6.89,0,0,0,.29,1.74c-.06,3.51-.05,7.06,0,10.62,0,3.3.07,6.61.1,9.94l-7.87,0c-1.18.14-2.45.31-3.22-.29s-.72-2-.66-3.33c.07-2.71.2-5.53.1-8.33,0,0,.05,0,.06,0a64.7,64.7,0,0,1-.14-6.68l-.25-1.85c.14-3.52.21-7.07.25-10.63,0-3.77,0-7.56.05-11.36H6.28A15.34,15.34,0,0,0,3.84.78,4.27,4.27,0,0,0,1.48,2.06,4.57,4.57,0,0,0,.37,4.49C.26,5.43.33,6.09.3,6.9l0,4.64C.1,26.71-.32,40,.46,54.77c-.06,0-.09.1-.12-.29.12,4.27-.09,8.15,0,12.17l-.06,0C.8,76.61.25,87.34.77,97v1.31l10.37,0c0-4.26,0-8.71-.05-13.19S11,76.28,11,71.94l.12,0c-.08-3.08-.07-6.12,0-9.15s.11-5.85.17-8.79l5.23.08H22a2.16,2.16,0,0,1,1.68,2.47l0,3.87q.11,3.9.2,7.83.11,3.11.16,6.19v7.88c0,.51,0,1,0,1.53a57.74,57.74,0,0,0-.1,7c0,1.08.09,2.17.14,3.27v4h6.8c1.05.08,2.05.14,3.34.19,0-1.43.11-2.87.16-4.3l.07-4.09C34.47,87.19,34.44,84.47,34.38,81.76ZM11.58,43a2.39,2.39,0,0,1-.34-.58,2.59,2.59,0,0,0,.34.58Zm-.48-1c0,.07,0,.15.07.22A1.87,1.87,0,0,1,11.1,42ZM1,15.05V17.5A20,20,0,0,1,1,15.05Zm0,3.5v.73c0-.29,0-.57,0-.87Zm0,5.13v6.76a34.7,34.7,0,0,1,0-6.76Zm0,8v.54s0,0-.08,0Z"/><path class="cls-1" d="M18.75,43.78h0C18.59,43.8,18.65,43.8,18.75,43.78Z"/><path class="cls-1" d="M155.39,59.81l-.07,0,.19.1Z"/><path class="cls-1" d="M155.82,60.5s.09,0,.13,0l-.55-.4C155.08,60.24,156,60.38,155.82,60.5Z"/><path class="cls-1" d="M155.76,60.61c-.13.16.13.22.22.26C155.78,60.81,156,60.58,155.76,60.61Z"/><path class="cls-1" d="M155.39,16.25l-.07,0,.19.1Z"/><path class="cls-1" d="M155.82,16.93s.09,0,.13,0l-.55-.39C155.08,16.68,156,16.82,155.82,16.93Z"/><path class="cls-1" d="M155.76,17.05c-.13.16.13.22.22.26C155.78,17.25,156,17,155.76,17.05Z"/><path class="cls-1" d="M167.7,57.1a4.58,4.58,0,0,1,.14.53l.07-.17Q167.81,57.27,167.7,57.1Z"/><path class="cls-1" d="M167.13,55.43c0,.07-.08,0-.1.12a9.16,9.16,0,0,1,.75,1.19C168,56.09,167,55.82,167.13,55.43Z"/><path class="cls-1" d="M166.63,54.34c.26.1.23.89.46.71A.74.74,0,0,0,166.63,54.34Z"/><path class="cls-1" d="M167.09,57.6c-.18-.06-.35-.22-.5-.25a8.15,8.15,0,0,0-5.66-7.63c5.8-1.8,5.67-7.89,5.67-7.89V26.71c.05,1.39.11,2.79.16,4.22,0-.08-.09-.11-.11-.19a2.27,2.27,0,0,1,.18.81c0,.07-.1-.08-.11-.17-.34,1.1.21,3.23-.05,3.92,0,.31.18.44.29.27,0,2,.09,4.14.14,6.26a9.84,9.84,0,0,1-2.16,6.31c-.17.13-.27.09-.32,0a10,10,0,0,1-.69.79l-.39.33a1,1,0,0,1-.14.15,2,2,0,0,1-.51.34,2.32,2.32,0,0,1,.57.22l.12.07.2.14a4.48,4.48,0,0,1,.75.63,8.55,8.55,0,0,1,2.09,3.2c.2.08,0-.44.28-.13-.36-1.32-1.42-1.94-2.05-2.94h.21c-.6-.66-.37.13-.93-.6-.22-.3.18-.09.05-.19l-.34-.23-.08,0-.1-.05-.25-.08c.05,0,0-.08.1-.27a.64.64,0,0,0,.2,0c.2-.12.39-.25.58-.39a7.71,7.71,0,0,1,1.14-.91c.24-.44.52-.83.46-1.09a9.4,9.4,0,0,0,1.58-4.43c.09-1.65,0-2.95,0-4.45-.05-2.91-.12-5.84-.11-8.78-.59-2.74.12-6-.08-9.29,0,0,0,0,.05,0h0a21.84,21.84,0,0,1-.14-3.88L167,15.18a13.67,13.67,0,0,0-.52-5.86,12.45,12.45,0,0,0-3.23-5.09,12.89,12.89,0,0,0-5.25-3A22,22,0,0,0,152,.6l-8-.17L140.15.37h-4.8c0,1.09,0,2.18,0,3.27,0,.78.06,1.55.08,2.33.08,1.57.18,3.15.33,4.76-.06,0-.09.06-.12-.16.12,2.48-.09,4.73,0,7.06h-.06c.49,5.79-.06,12,.46,17.62-.05,6.78,0,14.46.16,21.64l-.12,0c.25,5.75-.38,11.31-.19,17-.19,4.12.21,8.39.35,12.62v4.57l0,.89a26.9,26.9,0,0,0,0,6v.2h6.13a68.82,68.82,0,0,0,10.25.4,14.84,14.84,0,0,0,5.24-.8,11.85,11.85,0,0,0,1.68-.82,12.36,12.36,0,0,0,7-11v-14a35.79,35.79,0,0,0,.3-4.85l-.14.12a5.3,5.3,0,0,0-.16-2.44v-.51a.86.86,0,0,1,.2-.48l0,.13c.16-.32,0-.7-.23-1V60.18a1.31,1.31,0,0,0,0-.28v-.75c0-.22.11-.38.33-.39,0,.42.29-.66.45.28C167.45,58.77,167.41,57.48,167.09,57.6ZM154.6,12.11c.36.42.6.89.93,1.26l.1-.12c-.1.33.32.44.52.6l.09.19a.38.38,0,0,1-.13.22l0,0c-.12.13.09.2.3.25a6.26,6.26,0,0,1,.23,1.28c0,.06-.13.1-.3.12,0-.13-.29.22-.46-.06a.3.3,0,0,0,.16.4.32.32,0,0,0,.14,0c.18,0,.35.07.5.09V28.49c-.06-.47-.11-.95-.16-1.43,0,0,.09,0,.11.06s-.2-.18-.18-.28.1,0,.11.06c.34-.37-.21-1.1,0-1.33a.21.21,0,0,0-.28-.1h0a34.23,34.23,0,0,0-.42-4.29c0-.07.14-.08.26-.06a7.32,7.32,0,0,1-.25-3.71c-.14-.05-.15.12-.3,0-.18.4.35.73.09,1.09l-.14-.05c-.09.26.35.05.17.32-.12.11-.18,0-.19,0a3.37,3.37,0,0,0,.27,1.66c-.3.13,0,.6-.3.81.12.14.09.29.3.34-.16,1.95.13,3.94.11,5.94.59.94-.12,2.06.08,3.17h-.06a2.58,2.58,0,0,1,.14,1.32l.25.37c-.52,2.57-.12,5.31-.4,7.83a4.51,4.51,0,0,1-1.61,3.12,8.45,8.45,0,0,1-3.42,1.27c0-.06,0-.09.06-.11-.85.12-1.61-.1-2.4,0V44.5a7.5,7.5,0,0,1-1.14.18,7.32,7.32,0,0,1-.81,0,12.1,12.1,0,0,0-.24-3.18c0-2.32,0-4.93-.15-7.38h.11c-.25-2,.38-3.85.19-5.81a19.41,19.41,0,0,0-.35-4.3V22.51l0-.3a3.21,3.21,0,0,0,0-2V18a8,8,0,0,0,.41-3.33,16.66,16.66,0,0,0-.22-1.71c-.06-.3-.12-.6-.19-.93v-.78h5.4A5.65,5.65,0,0,1,154.6,12.11Zm.4,31.81h.12L155,44s0,0,0-.07Zm.3-.21a1.44,1.44,0,0,1,.54-.86l.13-.15a4.43,4.43,0,0,1-.67,1Zm1.13-2.34a.73.73,0,0,1,.07-.29,2.46,2.46,0,0,1-.07.29Zm-.08.29v0Zm-1.69,45.75s0,0,0,0h.1Zm2-15.32c-.06-.47-.12-1-.16-1.44,0,0,.08,0,.1.07s-.2-.18-.18-.28.1,0,.11.06c.35-.38-.21-1.1.05-1.34a.2.2,0,0,0-.26-.11l0,0a34.39,34.39,0,0,0-.42-4.3c.05-.07.14-.08.26-.06a7.27,7.27,0,0,1-.24-3.73c-.15,0-.16.13-.31,0-.18.4.36.73.09,1.09l-.14,0c-.09.26.35,0,.17.32-.12.11-.18,0-.19,0a3.32,3.32,0,0,0,.28,1.67c-.31.13,0,.6-.3.8.11.15.09.29.29.35-.16,2,.13,4,.11,6,.59.94-.12,2.06.08,3.18h-.06a2.59,2.59,0,0,1,.14,1.32l.25.37c-.53,2.57-.11,5.35-.4,7.85A3.69,3.69,0,0,1,154,86.71a12.38,12.38,0,0,1-3.62,1.07s0-.09.05-.11c-.84.12-1.61-.09-2.41,0v-.06a6.44,6.44,0,0,1-1.45.22,15.7,15.7,0,0,0-.25-3.69c.05-2.32,0-5-.15-7.4h.12c-.25-2,.37-3.86.18-5.82a19.45,19.45,0,0,0-.34-4.31V65.08c0-.1,0-.2,0-.3a3.24,3.24,0,0,0,0-2V60.58a11,11,0,0,0,0-6v-.28h5.39a5.28,5.28,0,0,1,3.45,1.1c.31.48.47,1,.76,1.42l.11-.1c-.14.32.24.48.42.67a2,2,0,0,1,.07.26.37.37,0,0,1-.13.15l0,0c-.13.13.07.21.28.29a8,8,0,0,1,.16,1.3.4.4,0,0,1-.3.11c0-.14-.29.22-.46-.08-.07.09,0,.49.3.46s.35.07.5.08Zm-.22,12.73a1.09,1.09,0,0,1,0,.17A.84.84,0,0,1,156.42,84.82Zm-.14.47a.57.57,0,0,1,0,.14.91.91,0,0,0,0-.17Zm-.46,1a4.14,4.14,0,0,1-.86,1,1.47,1.47,0,0,1,.67-.8c.06,0,.12-.11.19-.16ZM150,1.32h-1.42A6.74,6.74,0,0,1,150,1.32Zm-2,0h-.43l.51-.06Zm-3,0H141a12.27,12.27,0,0,1,3.92,0Zm-4.62,0H140a.22.22,0,0,0,0-.08Z"/><path class="cls-1" d="M166.72,31.38v0C166.7,31.3,166.7,31.33,166.72,31.38Z"/><path class="cls-1" d="M211.93,0l-.26.19L212,.07Z"/><path class="cls-1" d="M211.41.08c-.45-.32-.78.63-1.08.42,0,0,0,.09.08.13Z"/><path class="cls-1" d="M210,.45a.54.54,0,0,0-.64.21C209.54.46,210.12.73,210,.45Z"/><path class="cls-1" d="M216,64.33V60.46c0-.25,0-.51,0-.76a19.05,19.05,0,0,0,0-5.06V49.29a64.26,64.26,0,0,0,0-14.8V11.1a23.67,23.67,0,0,0,.3-4.12l-.14.1A3.69,3.69,0,0,0,216,5a3.27,3.27,0,0,0,0-.44.88.88,0,0,1,.11-.42l.06.1c.1-.32-.2-.6-.5-.78h0a3.6,3.6,0,0,0-1.36-1.53,1,1,0,0,0-.34-.2l-.35-.13c-.3-.1-.55-.19-.51-.5.39.08-.58-.42.36-.37-.25-.2-1.53-.24-1.4.1a3.36,3.36,0,0,0-.21.5h-5.74V25.84c-.06-1.18-.12-2.36-.16-3.58,0,.07.08.1.11.17a1.87,1.87,0,0,1-.19-.69c.05-.06.1.07.12.14.34-.93-.22-2.73,0-3.32,0-.26-.18-.37-.29-.23-.08-3.45-.15-7.15-.42-10.67,0-.17.14-.2.26-.15a22.68,22.68,0,0,1-.33-3.07l0-1.56,0-2.43,3.91.1c.12-.14-.31-.15,0-.3a3.63,3.63,0,0,0-1.39.07l-.33.06-.56,0a5.75,5.75,0,0,1-1.17-.07l.1-.14c-.83-.06-.55.11-.63.18a1.22,1.22,0,0,1,0,.63c-.12.39-.18-.24-.19,0l0,2.88a9.41,9.41,0,0,0,.25,2c-.31.32,0,1.48-.3,2,.11.35.09.72.29.85-.16,4.86.13,9.82.11,14.79.59,2.33-.12,5.12.08,7.89h-.06a15.65,15.65,0,0,1,.14,3.28l.25.92c-.51,6.47-.15,13.07-.36,19.65-.15,7.47-.58,14,.2,21.28,0,0-.09,0-.11-.14.12,2.1-.09,4,0,6h-.06q.3,3.77.22,7.53c0,1.27,0,2.53,0,3.77l.07,1.84a2.56,2.56,0,0,0,.7,1.8,3,3,0,0,0,2.2,1c.81,0,1.59,0,2.41,0l5.18,0c0-2.87-.1-5.9-.15-8.84l.12,0c-.25-4.88.37-9.59.19-14.45C216.57,71.54,216.18,67.92,216,64.33ZM206.09,57v1.2a4.38,4.38,0,0,1,0-1.2Zm0,1.73v.36c0-.14,0-.28-.05-.43Zm0,2.52v3.33a8.48,8.48,0,0,1,0-3.33Zm0,3.92v.27a.11.11,0,0,0-.08,0Z"/><path class="cls-1" d="M206,21.88v0C206,22,206,21.93,206,21.88Z"/><path class="cls-1" d="M290.81,8.51c-.55,1.25-2.07,2.63-5.25,2.63h-7.74a2.54,2.54,0,0,0-2.49,2.35V98.11h-7.06c-2.35,0-2.76-1.38-2.76-2.07V11.14h-14V4.36a3.07,3.07,0,0,1,3.05-3h39.54Z"/><path class="cls-1" d="M290.81,8.51c-.55,1.25-2.07,2.63-5.25,2.63h-7.74a2.54,2.54,0,0,0-2.49,2.35V98.11h-7.06c-2.35,0-2.76-1.38-2.76-2.07V11.14h-14V4.36a3.07,3.07,0,0,1,3.05-3h39.54Z"/><path class="cls-1" d="M292,9l.11-.09,0-.38Z"/><path class="cls-1" d="M292.47,6.87c-.06,0-.1,0-.16,0l0,1.4C292.8,7.91,292.12,7.12,292.47,6.87Z"/><path class="cls-1" d="M292.68,6.55a.78.78,0,0,0,.14-.84C292.93,6,292.38,6.53,292.68,6.55Z"/><path class="cls-1" d="M255.7.57h.15A.25.25,0,0,0,255.7.57Z"/><path class="cls-1" d="M251.68,9.9l.21.07a16.56,16.56,0,0,1-.16-3.3l0-1.73a5.13,5.13,0,0,1,.16-1.61l0,.15A2.94,2.94,0,0,1,255,1.57l4.13-.12,8.32-.3c-.08,0-.11.09-.21.11a3.08,3.08,0,0,1,.89-.19c.08.05-.09.1-.19.12,1.2.34,3.52-.22,4.27.05.34,0,.49-.18.3-.29C277,.86,281.72.8,286.24.53c.22,0,.26.14.2.25a37.58,37.58,0,0,1,3.82-.31l2,0h3.23q-1.22,2.52-2.43,5c.07.2.31-.3.29.12A6.6,6.6,0,0,0,294,3.91a10.9,10.9,0,0,1,.42-1.13,10.77,10.77,0,0,1,.7-1.35l.08.18c.7-1.34-.17-.3.32-1.2l-.29,0c-.45-.12.4-.18.13-.19-4,.06-5-.07-6.87.27-.42-.3-1.92,0-2.58-.3-.46.12-.92.09-1.1.29-6.24-.16-12.63.14-19,.12-3,.59-6.58-.12-10.14.08a0,0,0,0,1,0-.06l-.95.09A4.38,4.38,0,0,0,253.5.9a4,4,0,0,0-2,1.58,3.47,3.47,0,0,0-.24,1.35c-.17,1.3-.16,2.43-.22,3.66L251,9.31l0,2.44,13.92,0-.06,3.4c-.15,9.6-.57,18,.2,27.37-.05,0-.08.06-.11-.18.12,2.7-.1,5.16,0,7.7h-.06c.49,6.31-.06,13.13.47,19.21-.06,7.4,0,15.78.14,23.61l-.11,0c.06,1.2,0,2.36.1,3.57a2.07,2.07,0,0,0,1.08,1.43,4,4,0,0,0,1.76.4l3.51.11,3.89.09,0-2.59,0-2.25c.27-6.43-.67-13.23-.31-19.72.57-4-.66-9.28-.07-13,.9-7.75.33-15.26-.21-23,.32-7.15-.5-14.28.15-21.2a15.18,15.18,0,0,1-.1-2.52,2.75,2.75,0,0,1,1.05-2.38,2.32,2.32,0,0,1,1.21-.47,11.69,11.69,0,0,1,1.32.08c.91.07,1.82.09,2.73.07l-.13-.15c1.31.44,2.92-.62,3.73,0l-.13,0c.71.34,1.58-.8,2-.49l.08-.17c.78-.2.13.17.76.09.23-.09,0-.3.49-.37.17.3.65.07,1.06-.23s.74-.65,1-.42c-.36.38.8-.39.06.57a2.54,2.54,0,0,0,.76-.84c.22-.4.28-.8.11-.79-.27-.26-.32-.85-.9-.22a2.15,2.15,0,0,1,.14.26c-.35.1-.22.11-.42.08-.64.76-1,.51-1.64.7a0,0,0,0,1,0,0h0c-.27.48-1,.53-1.37.54l-.17-.11c-.24-.24-1.07.68-.81.16-2.15.16-4.84.13-7.35.15a4.2,4.2,0,0,1-1.06.11c-.48,0-.78.17-.41.28a2.17,2.17,0,0,0-1.95.63,3.21,3.21,0,0,0-1,1.93.2.2,0,0,1,0-.23,1.79,1.79,0,0,0-.2.67,1.67,1.67,0,0,0,0,.38,2.61,2.61,0,0,0,.13.63,1.69,1.69,0,0,1-.13,1.42c.47.2-.15,2.31.4,3-.1.16-.2.21-.28.16,0,2.3-.17,4.83-.2,6.77.4,1.66-.18,4,.38,5.44a21.58,21.58,0,0,0-.13,4.75l-.07-.16a27.74,27.74,0,0,0,.42,5.46c-.54.55-.43,1.36-.6,2.16.25,1.25.17,3.76.4,5.65-.25.29.1,1.57-.26,1.67a83.8,83.8,0,0,1-.07,17.56l0-.08c.2.73.63,1.58.89,2.33,0,.07-.1.07-.09-.09.06,1-.29,2-.22,3-.06,0-.06,0-.12-.17.16,1-.29,2,0,3.15l-.1.06.13.73c-.12,0-.3,0-.26-.43,0,3.43,0,6.91.11,10.41q.14,4.94.27,9.9l-2.46,0h-3.13l.34-.11c-.59.06-1.2.16-1.7.17,0-.06.09-.08.16-.1-1-.18-1.63-.6-1.7-1.4-.05-1.14-.12-2.28-.1-3.38.06,0,.18.34.24,0-.32-1.63.42-2.62-.25-3.44a.13.13,0,0,1,.17-.06.18.18,0,0,1,.07.1c-.23-4.53-.21-9.18-.1-13.74-.61-3.8-.06-8-.55-12l.13,0c-.43-5.11,0-10.53-.06-15.83,0-2.2-.09-3.69-.1-5.9l.15-.05c-.58-3.73.52-7.83-.12-11.7l.21.26c-.32-.6.11-2.34-.43-2.11l.16-.69c-.72-2.64.33-4.8-.13-8l.13.21a9.52,9.52,0,0,1-.06-2.5c0,.1.05.05.09.26a15,15,0,0,0,.21-3.14l-.08-1.61-.1-1.77c-.84,0-1.59.07-2.28.07l.32-.25c-1.37.29-3.89,0-5.7.15l.11-.11-.91.16,0-.23c-1,0-1.9,0-2.84.06l-2.62.12Z"/><path class="cls-1" d="M268,1.19h0C267.86,1.21,267.89,1.21,268,1.19Z"/><path class="cls-1" d="M288.23,9.59l.23-.06S288.3,9.57,288.23,9.59Z"/><path class="cls-1" d="M402.76,68.6h0s0,0,0-.07Z"/><path class="cls-1" d="M377.38,10.08a18.41,18.41,0,0,0,.16-3.4l0-1.73a3.6,3.6,0,0,1,.26-1.75l-.12.12a3.36,3.36,0,0,1,3.56-2.26l4.13.12,3.91.14h31.08l-3.21,6.94c.15,0,.23.16.17.6l-.31.05c.06.39,0,.26.07.46-.74,1-.72,1.33-1.47,2,0,0,0,0,0,0a9.21,9.21,0,0,0-1.92.57l-.17.17c-.27.35-1.45-.41-1,.05C410,12,407.53,12,405,12a3.44,3.44,0,0,0-1-.1c-.26,0-.46,0-.29-.21a5,5,0,0,0-.77.88,2.65,2.65,0,0,0-.37,1,.08.08,0,0,0,.08-.07v0c0,.19.09,0,.12.24a1.7,1.7,0,0,1,0,.39,2.8,2.8,0,0,1-.12.63,1.66,1.66,0,0,0,.12,1.41c-.46.2.15,2.31-.4,3,.1.16.2.22.28.16,0,2.3.18,4.83.2,6.77-.41,1.66.18,4-.38,5.44a20.42,20.42,0,0,1,.13,4.75l.07-.16a26.44,26.44,0,0,1-.42,5.47c.54.55.44,1.35.6,2.16-.24,1.24-.17,3.75-.39,5.64.24.3-.11,1.57.25,1.67a84.38,84.38,0,0,0,.07,17.55c-.2.72-.61,1.54-.86,2.26,0,.08.09.07.09-.09-.07,1,.28,2,.22,3,.06,0,.06,0,.12-.17-.16,1,.28,2,0,3.15l.11.07-.14.72c.12,0,.3,0,.26-.43.05,3.43,0,6.91-.11,10.41l-.15,5.27-.06,2.64-.06,3.3-3.78,0h-3.12l.33.12c-.59-.08-1.16-.1-1.84-.25,0,.06.1.1.19.14a3.25,3.25,0,0,1-2-.64,2.55,2.55,0,0,1-1-2c.05-1.15.12-2.28.1-3.38-.06,0-.17.34-.24,0,.33-1.63-.42-2.61.26-3.43a.13.13,0,0,0-.17-.06.12.12,0,0,0-.07.1c.22-4.53.21-9.18.1-13.74.61-3.81.06-8.06.54-12h-.12c.42-5.11,0-10.53.06-15.82-.05-2.2.09-3.69.1-5.9l-.16-.06c.58-3.72-.52-7.82.12-11.7l-.21.27c.3-.57,0-2.11.36-2.12v-.34l-.09-.34c0-.15.06-.28.09-.42V22.88a14.45,14.45,0,0,1,0-2.79v-.46l-.08.13c0-.26.05-.53.08-.79V17.42c0-.05,0-.11,0-.16s-.06,0-.09.26a15,15,0,0,1-.21-3.14c0-.53.05-1.07.07-1.62l.1-1.48c-.59,0-1.28-.07-2-.07l.32.24c-1.37-.28-3.89,0-5.69-.15l.11.12-.91-.16,0,.22c-1,0-1.9,0-2.83-.06l-3-.11,0-1.39Zm38.55-.19a4,4,0,0,1-.54.37l.1,0a2,2,0,0,0,.44-.32Zm-2.79,1.31.14.14c.87-.12.07-.19.7-.4.24-.06.18.28.65,0-.05-.25.23-.4.57-.57a7,7,0,0,1-3,.74C412.58,11.28,412.93,11.44,413.14,11.2Zm-2.43-.06h-.56a2.62,2.62,0,0,0,.56,0Zm-9.1,5.52a16.35,16.35,0,0,0,.1-2.52,2.86,2.86,0,0,1,.66-2.35,2.76,2.76,0,0,0-.86,1.7v28c.08-1.21.17-2.42.25-3.64-.32-7.14.5-14.27-.15-21.19Zm-.07,44.2,0-.33v6.88a31.17,31.17,0,0,0,0-6.55Zm0,14v5c.05-1.68.06-3.34,0-5Z"/><path class="cls-1" d="M415.57,11.32c0,.06-.19.14-.29.19A1.81,1.81,0,0,0,415.57,11.32Z"/><path class="cls-2" d="M338.17,99.91a.57.57,0,0,1,0,.22A.22.22,0,0,0,338.17,99.91Z"/><path class="cls-2" d="M335.35,99.2v0S335.4,99.21,335.35,99.2Z"/><path class="cls-2" d="M338.13,100.13l0,.05S338.13,100.15,338.13,100.13Z"/><path class="cls-2" d="M340,85.65c.12,0-.14-.18-.25-.15S339.89,85.67,340,85.65Z"/><path class="cls-2" d="M339.88,86.6c-.19.05.05.54.06.55C340.18,87.71,340.13,86.55,339.88,86.6Z"/><path class="cls-2" d="M339.77,87.76c-.11,0,.14.17.25.15S339.89,87.73,339.77,87.76Z"/><path class="cls-2" d="M339.92,89.06c.06,0-.14-.12-.25-.1S339.81,89.09,339.92,89.06Z"/><path class="cls-2" d="M339.57,90.17c-.45.1.25.25.26.25S339.57,90.17,339.57,90.17Z"/><path class="cls-2" d="M339.43,91c-.06,0,.14.12.24.1S339.54,91,339.43,91Z"/><path class="cls-2" d="M339.74,91.73c.06,0-.14-.13-.24-.1S339.63,91.75,339.74,91.73Z"/><path class="cls-2" d="M339.35,92.43c-.06,0,0,.13,0,.15C339.51,93,339.65,92.37,339.35,92.43Z"/><path class="cls-2" d="M339.23,93.44c-.12,0,.13.17.25.15S339.34,93.41,339.23,93.44Z"/><path class="cls-2" d="M339.37,94.74c.06,0-.13-.12-.24-.1S339.26,94.77,339.37,94.74Z"/><path class="cls-2" d="M339.15,95.26h0Z"/><path class="cls-2" d="M339.13,96.76c-.12,0,.13.17.25.14S339.24,96.73,339.13,96.76Z"/><path class="cls-2" d="M338.4,98.62c.3-.07-.52-.4-.29-.45C337.6,98.28,338.4,98.62,338.4,98.62Z"/><path class="cls-2" d="M338.51,101.78c.15,0-.14-.22-.26-.2S338.39,101.81,338.51,101.78Z"/><path class="cls-2" d="M338.29,101.88c-.45.1.25.26.26.25S338.29,101.88,338.29,101.88Z"/><path class="cls-2" d="M337.66,98.32c-.11,0,.14.17.25.15S337.78,98.29,337.66,98.32Z"/><path class="cls-2" d="M337.72,101c-.15,0,.14.23.26.2S337.84,101,337.72,101Z"/><path class="cls-2" d="M337.4,100.18c-.06,0,0,.13,0,.15C337.56,100.78,337.69,100.12,337.4,100.18Z"/><path class="cls-2" d="M337.56,104.16h0Z"/><path class="cls-2" d="M337.8,106c.43-.1-.38-.9-.33-.9C336.9,105.18,337.91,105.93,337.8,106Z"/><path class="cls-2" d="M337.11,104c.12,0-.13-.18-.25-.15S337,104,337.11,104Z"/><path class="cls-2" d="M337.14,104.2c.06,0-.14-.12-.24-.1S337,104.23,337.14,104.2Z"/><path class="cls-2" d="M336.34,101.19c-.08,0,0,.17,0,.2C336.52,102,336.64,101.12,336.34,101.19Z"/><path class="cls-2" d="M336.26,102.55c-.53,0-.18.25,0,.25S336.69,102.53,336.26,102.55Z"/><path class="cls-2" d="M335.94,101.79c-.06,0,.14.13.25.1S336.05,101.77,335.94,101.79Z"/><path class="cls-2" d="M335.66,101.35c-.15,0,.14.22.25.2S335.78,101.32,335.66,101.35Z"/><path class="cls-2" d="M335.55,102.5c-.15,0,.14.23.26.2S335.67,102.47,335.55,102.5Z"/><path class="cls-2" d="M335.41,103.3c-.12,0,.13.18.25.15S335.52,103.28,335.41,103.3Z"/><path class="cls-2" d="M334.56,104.07c-.5,0,.24.36.25.15C334.81,104.17,334.79,104.06,334.56,104.07Z"/><path class="cls-2" d="M334.76,103.81c.13,0-.26-.25-.26-.25C334.05,103.66,334.75,103.81,334.76,103.81Z"/><path class="cls-2" d="M334.59,104.62h0Z"/><path class="cls-2" d="M334.4,104.77c-.12,0,.13.17.25.15S334.52,104.74,334.4,104.77Z"/><path class="cls-2" d="M333.51,100.9c-.12,0,.13.17.25.15S333.62,100.88,333.51,100.9Z"/><path class="cls-2" d="M333.59,101.55l0,0h0Z"/><path class="cls-2" d="M332.52,94c-.06,0,.14.12.25.1S332.62,94,332.52,94Z"/><path class="cls-2" d="M332.56,94.43c-.07,0-.12.61.28.4C333.07,94.7,332.72,94.43,332.56,94.43Z"/><path class="cls-2" d="M332.42,95.28c.06,0-.23.51.05.45S333,95.35,332.42,95.28Z"/><path class="cls-2" d="M332.48,95.83s-.34.13-.21.16C332.72,96.08,332.93,95.83,332.48,95.83Z"/><path class="cls-2" d="M332.54,96.28h0Z"/><path class="cls-2" d="M333.4,104.38h0Z"/><path class="cls-2" d="M332.67,97.49c.06,0-.14-.12-.25-.1S332.56,97.52,332.67,97.49Z"/><path class="cls-2" d="M333.67,106.58c.06,0-.14-.13-.25-.1S333.56,106.61,333.67,106.58Z"/><path class="cls-2" d="M332.39,97.09c.06,0-.14-.12-.24-.1S332.28,97.12,332.39,97.09Z"/><path class="cls-2" d="M332.23,97.74c-.7.16.59,1.05.35,1.1C333.12,98.73,332.07,97.78,332.23,97.74Z"/><path class="cls-2" d="M331.92,30.25c-.58.11-.07,1.12-.07,1.12C332.19,31.31,331.66,30.3,331.92,30.25Z"/><path class="cls-2" d="M330.89,34.77c.77-.14.32-3.17.67-3.23C330.62,31.71,331.36,34.69,330.89,34.77Z"/><path class="cls-2" d="M330.6,34.94c-.13,0,0,.44.13.42S330.74,34.91,330.6,34.94Z"/><path class="cls-2" d="M330.41,35.64c-.09,0-.12.4-.13.47C330.12,37.26,330.69,35.59,330.41,35.64Z"/><path class="cls-2" d="M330.08,36.81c-.07,0,0,.33.16.31S330.2,36.79,330.08,36.81Z"/><path class="cls-2" d="M328,44.2c-.07,0,0,.33.16.3S328.13,44.18,328,44.2Z"/><path class="cls-2" d="M335.84,14.52s.77-2,.81-2C336.16,12.56,335.75,14.19,335.84,14.52Z"/><path class="cls-2" d="M334,23c.07,0,0-.33-.15-.31S333.83,23,334,23Z"/><path class="cls-2" d="M333.33,24.32c-.09,0-.12.4-.13.47C333.05,25.93,333.62,24.26,333.33,24.32Z"/><path class="cls-2" d="M332.52,27.25c-.21,0-.36,1.25-.36,1.29C332,29.88,332.8,27.2,332.52,27.25Z"/><path class="cls-2" d="M327,46.82c-.42,1.5-.65,2.28-1,3.52a16.74,16.74,0,0,0-.24,1.71c.56-.1.84-3,.95-3.4s.69-3.46.73-3.47C327.24,45.23,327.14,46.43,327,46.82Z"/><path class="cls-2" d="M335.74,14.87c-.42.08-.42,1.49-.52,1.88s0,1.77-.27,1.82C335.8,18.42,335.27,15,335.74,14.87Z"/><path class="cls-2" d="M323.27,35.17c.14,0-.06-.65-.06-.65C322.7,34.61,323.26,35.18,323.27,35.17Z"/><path class="cls-2" d="M330.19,7.88c-.19,0-.39,1.36-.4,1.41C329.61,10.64,330.63,7.8,330.19,7.88Z"/><path class="cls-2" d="M329.56,11c.07,0,0-.32-.16-.3S329.43,11,329.56,11Z"/><path class="cls-2" d="M329.27,11.17c-.07,0-.09.3-.1.35C329,12.61,329.6,11.11,329.27,11.17Z"/><path class="cls-2" d="M328.86,13.46c.47-.08-.25-1.4.18-1.48C328.28,12.13,329.08,13.42,328.86,13.46Z"/><path class="cls-2" d="M328.21,15.81c.13,0,0-.45-.12-.42S328.08,15.84,328.21,15.81Z"/><path class="cls-2" d="M327.52,18.27c.07,0,0-.33-.16-.3S327.4,18.29,327.52,18.27Z"/><path class="cls-2" d="M327.35,18.86c.13,0,0-.45-.12-.43S327.23,18.88,327.35,18.86Z"/><path class="cls-2" d="M319,48.63c.08,0,0-.32-.15-.3S318.89,48.65,319,48.63Z"/><path class="cls-2" d="M318.82,49.34c.07,0,0-.33-.16-.3S318.7,49.36,318.82,49.34Z"/><path class="cls-2" d="M316.46,55.22s-.14,0,0,0Z"/><path class="cls-2" d="M306.71,75.24c.08,0,0-.32-.15-.29S306.6,75.27,306.71,75.24Z"/><path class="cls-2" d="M306.17,75.45c-.07,0,0,.33.16.3S306.29,75.43,306.17,75.45Z"/><path class="cls-2" d="M350.81,61.39c.19-.23-1.37-4.25-1.85-5.67-.75-2.22-1.55-4.14-2.07-5.61-3.21-9-4.43-16.5-7.53-24.26-1.05-2.62-.15.49.27,2.1a26.1,26.1,0,0,0,.92,2.84c1.18,4,2.16,7.48,3.12,10.94,1,3.75,2.67,7,3.8,10.77.24.81.58,3.38,1.35,5.61C348.92,58.4,350.54,61.72,350.81,61.39Z"/><path class="cls-2" d="M338.24,22.17c-.06.06.22.39.3.28S338.32,22.06,338.24,22.17Z"/><path class="cls-2" d="M351.56,63.54a5.75,5.75,0,0,1,.19.65C352.12,64.79,352.33,65.09,351.56,63.54Z"/><path class="cls-2" d="M338.69,6.13a1.81,1.81,0,0,1,.47.77C339.23,6.67,339.17,6.4,338.69,6.13Z"/><path class="cls-2" d="M342.28,17.26a1,1,0,0,0,0-.3A.75.75,0,0,0,342.28,17.26Z"/><path class="cls-2" d="M337.17,13.76c-.05.07.22.39.31.28S337.26,13.65,337.17,13.76Z"/><path class="cls-2" d="M342.75,34.92c.05-.07-.22-.39-.31-.29S342.66,35,342.75,34.92Z"/><path class="cls-2" d="M340.2,24.37c1,.56-.08-1.06-.47-1C339.64,23.43,340.3,24.42,340.2,24.37Z"/><path class="cls-2" d="M339.57,22.72c-.05.06.22.39.31.28S339.66,22.61,339.57,22.72Z"/><path class="cls-2" d="M339.71,22.32c.37-.45-.42-.8-.43-.79S339.71,22.32,339.71,22.32Z"/><path class="cls-2" d="M339.47,21.3c.1-.11-.26-.57-.35-.45S339.37,21.42,339.47,21.3Z"/><path class="cls-2" d="M343.9,39.68c-.06.06.22.39.3.28S344,39.57,343.9,39.68Z"/><path class="cls-2" d="M344.08,39.45c.09-.12-.25-.56-.35-.45S344,39.57,344.08,39.45Z"/><path class="cls-2" d="M345.49,44.33c.06-.06-.22-.39-.3-.28S345.41,44.44,345.49,44.33Z"/><path class="cls-2" d="M338.22,15.12c-.13.15.29.74.39.62S338.31,15,338.22,15.12Z"/><path class="cls-2" d="M337.19,8.47a.31.31,0,0,1,0,.23A.27.27,0,0,0,337.19,8.47Z"/><path class="cls-2" d="M347.3,49.83c.12-.16-.29-.75-.39-.63S347.2,50,347.3,49.83Z"/><path class="cls-2" d="M348.06,52c.05-.06-.22-.39-.31-.28S348,52.09,348.06,52Z"/><path class="cls-2" d="M338.59,6.7c0-.06-.1-.45-.12-.51C338,4.68,338.35,7,338.59,6.7Z"/><path class="cls-2" d="M337.49,2.11c.05-.07-.22-.39-.31-.29S337.39,2.21,337.49,2.11Z"/><path class="cls-2" d="M355.54,76.07c-.05.07.22.39.31.29S355.63,76,355.54,76.07Z"/><path class="cls-2" d="M338.79,5.56c0-.06-.22-.39-.3-.28S338.71,5.67,338.79,5.56Z"/><path class="cls-2" d="M340.72,11.57c-.12.15.3.74.4.62S340.82,11.45,340.72,11.57Z"/><path class="cls-2" d="M340.87,11.17c0-.06-.1-.45-.13-.51C340.28,9.15,340.63,11.47,340.87,11.17Z"/><path class="cls-2" d="M342.36,16.38c.07-.08-.13-.58-.16-.68C341.61,13.66,342.12,16.69,342.36,16.38Z"/><path class="cls-2" d="M341.71,13.66c.05-.06-.22-.39-.31-.28S341.62,13.77,341.71,13.66Z"/><path class="cls-2" d="M344.6,22.68c.36-.46-.42-.8-.43-.8S344.6,22.68,344.6,22.68Z"/><path class="cls-2" d="M344.27,21.31c.1-.11-.26-.57-.35-.45S344.18,21.43,344.27,21.31Z"/><path class="cls-2" d="M343.77,19.07l0,0Z"/><path class="cls-2" d="M345.5,26.42c-.05.06.22.39.31.28S345.59,26.31,345.5,26.42Z"/><path class="cls-2" d="M345.3,25.57c-.1.12.25.57.34.45S345.39,25.45,345.3,25.57Z"/><path class="cls-2" d="M345.13,24.89c-.1.11.26.56.35.45S345.23,24.77,345.13,24.89Z"/><path class="cls-2" d="M345.19,24.15c.05-.06-.1-.45-.12-.51C344.61,22.12,345,24.44,345.19,24.15Z"/><path class="cls-2" d="M347.06,30.9a8.51,8.51,0,0,0-.49-2C345.94,27,346.74,31.29,347.06,30.9Z"/><path class="cls-2" d="M347.35,32.08c-.46.57.66,2,.92,2.84C348.59,34.41,347.17,32.3,347.35,32.08Z"/><path class="cls-2" d="M349.25,39c-.1.11.26.56.35.45S349.35,38.89,349.25,39Z"/><path class="cls-2" d="M349.4,38.6c.36-.44-1-3.24-1.13-3.68C347.77,35.6,349.8,38.11,349.4,38.6Z"/><path class="cls-2" d="M350.94,44c.15-.19-.44-1.81-.46-1.87C349.86,40.29,350.73,44.25,350.94,44Z"/><path class="cls-2" d="M351.78,46.49c.2.07-.49-1.89-.37-1.54C350.74,42.83,351.19,46.26,351.78,46.49Z"/><path class="cls-2" d="M352.45,48.3c.42-.52-.6-1.47-.59-1.47C351.61,47.13,352.64,48.07,352.45,48.3Z"/><path class="cls-2" d="M358.3,81.09c1.12-.44,3.65-1.46,3.63-1.44,1.19-1.18.26-4.53-.35-6.42-1.63-5-4.39-10.49-5.68-14.62a31.12,31.12,0,0,0-1.34-3.76c.3.66-.21.34-.37-.31s.46-.06.46-.12c0-1-.92-2.37-1.36-3.63-.71-2-1.1-2.88-.55-1.3,1.2,3.45-1.06-2.32-1-2.09-.59-1.78-1.41-4.3-1.88-5.84l-.37-1.2a1.12,1.12,0,0,0,.31,0,.9.9,0,0,0,.22-.06c.46-.77-.33-.37-.59-.09-1.73-5.72-4.14-14.1-5.83-19.57-.27-.89-1.15-2.57-1.33-3.33,0,.37,0,.94,0,.95-.62-.93-.51-2.48-.9-3.74-.52-1.69-1.54-5.83-2.26-7.57a1.18,1.18,0,0,1-.4.48c.28-.29-.46-.46-.35-.32a9.91,9.91,0,0,1-.81-2.25V4.74c.05-.32.11-.6.16-.83.06.07.13.1.16.07s0-.26-.11-.4a1.43,1.43,0,0,0-.67-1.53c.15.13-.17.51-.35.4a.32.32,0,0,1-.15-.34c.05,0,.09,0,.11,0s-.25-.57-.35-.45a.11.11,0,0,0,0,.11c-.51-.15-1.94-.75-1.64-.74-.79,0,.4.65-.27.94.3-.13-.91-.67-1-.7.17.06-.48.09-.73,0-.08,0-.44-.35-.66-.22-.4.22,0,1.48-.05,1.9-.38,5.43-2.73,9.94-3.79,15.26-.55,2.74-2,5.24-2.49,8a110.59,110.59,0,0,1-5.12,18.29c-1.06,2.83-1.56,5.91-2.69,8.72-2.37,5.9-5.09,13-8.57,18.47-1,1.56-2.42,2.9-2.9,4.32-.1.3-.54,2.46,1.16,2.79.28,0-.06-.16.25,0s0,.2.41.26c.85.12.95.7,2.07,1.28a1.92,1.92,0,0,0,.71.19l0,0,.54.22h0c-.18,0-.82-.2-1,.26s.16.36.15.93c0,.3-.35.08-.16.94.24,1,1.12.57,1.79.64a16.32,16.32,0,0,0,2.42.17c.8,0,1.64,0,2.26-.07.45-.06.6-.32.86-.5s.17.3.31.23.2-.43.31-.48c.3-.11.71-.35.94-.26s.15.51.31.46.44-.61.7-.72c.73-.3,1.66.2,1.87.18-.08,0-.2-.17-.08-.23a4.83,4.83,0,0,1,3.12-.1c.12,0,.19.41.31.46s.1-.44.16-.47.14.44.23.46c2,.39,3.92,1,5.7,1.25-.1,1.1.76,2.43.83,3.11.12,1.2-.12,2.65-.06,3.72a1.68,1.68,0,0,1,.07.7c-.07.25-.67.32-.41.46s.72-.39.7,0c.75.27-.24.49,0,0-.49,0-.58.81-.57,1.17,0-.12.2.72.32.75-.08,0,.37-.83.44-.2.18,1.62-.07,3.92-.07,5.77,0,.38-.07.82.36,1.1.07,0,.64-.11.69-.1.6.12.07.5.07.7,0,.47-.6,1.89.49,2.26.41.14.46,0,.2-.25-.74-.21.24-.43,0,0,.75-.26-.27-1.12-.15-1.41.05-.13.68-.21.18-.45-.11,0-.58,0-.48-.15s.86-.11.91-.2-.48-.06-.48-.15.6-.39.69-.62a.46.46,0,0,0,.45.46h0c-.32,0,.43-.55.41-.45,0-.12-.45-.16-.49-.25s.48-.77.34-1.21c-.05-.14-.3-.43-.32-.7.06,1.53-.31-.36.19-.4-.12,0,.3,1.15.38,1.3.46.94.15,2.86.17,3.72,0,0,.17,1.09.58,1,.59-.13-.27-1.47-.19-1.71s-.34-1.38,0-2c.16-.28.25-.16.21-.15.54-.19.77,0,.82.13v-.15a1.94,1.94,0,0,1,.15.37c.16.9.24,0,.18-.5,0-.09-.15-1-.34-1a.27.27,0,0,0-.2.23.34.34,0,0,0-.26-.17c-.09,0,0,1-.61.85s-.11-1-.12-1.1-.2-.76.38-.86c.29-.05-.32.52.5.35.37-.07-.27-.3.17-.6.1-.07.4,0,.45-.15a.73.73,0,0,0-.34-1c.27.16-.56.2-.68.15s0-.35.42-.35c0,0,.46.11.48.1.28-.2-.13-.58-.1-.9.1-.87.29-2.1.37-3a2.32,2.32,0,0,1,.12-1c.12-.2.25-.18.19-.4s-.29-.77-.12-1.11c0-.08.43-.17.44-.25.09-.74-.19-1.53.22-2.22s-.42-1.31,0-1.76c.07-.06.42,0,.45-.15a1.31,1.31,0,0,0,.07-.44,16.59,16.59,0,0,0,5.92,0,6.51,6.51,0,0,1,1.25,0c.2,0,.42-.44.62-.49.42,0,.83,0,1.25,0,1.63-.18,3.43-.13,5-.38,1.4-.23,2.83.3,4.06-.36.21-.11-.13-.21.16-.47.59-.54.82.15.86-.49,0,.23-.37-.24-.31-.23-.38-.06-.34,0-.63-.21-.11-.09-.58-.12-.54-.22.22-.58.34,0,.54,0a2.51,2.51,0,0,0,1.1-.5C359.18,81.11,357.39,82,358.3,81.09ZM337.48,96.66c.12,0,.37.13.25.15S337.36,96.69,337.48,96.66ZM358,83.13c0,.11-.14.3-.16.24S358,83.07,358,83.13Zm-1.78-3.68s-.21.07-.23,0C355.86,79.16,356.9,79.34,356.19,79.45Zm0-.72v0h0Zm.16,0c0-.13.22-.2.49-.23,0,.1.05.22.07.33-.25,0-.48.66-.56-.1Zm.34.59c.05,0,.15-.29.25-.38q.06.24.12.51c-.17,0-.32,0-.37-.13s0,0,0-.14a.32.32,0,0,0,0,.14Zm-3.37-27.47c.09-.11.44.34.34.45s-.44-.33-.35-.45Zm-.05,15.75c.1-.12.51.47.39.62s-.51-.47-.39-.62Zm-.08-.34c-.1.12-.45-.33-.35-.45s.44.33.35.45Zm-.43-4.77c0,.06.17.45.12.51-.24.3-.58-2-.12-.51Zm-1.83-2.6c.09-.12.44.34.35.45s-.44-.33-.35-.45Zm-1.58-7.55c-.09.12-.44-.33-.35-.45s.45.34.35.46Zm-.59-1.47c.09-.12.44.34.35.45s-.45-.33-.35-.45Zm-.93-2.83c.1-.12.45.33.35.45s-.44-.33-.35-.45Zm-.9-2.86,0,0v0Zm.15.7c.73,0,0,1,0,0-.68.15,0-.76,0,0Zm-1.77-5.32c.09-.11.36.22.31.28S345.26,40.64,345.31,40.58Zm-1.5-5.22s1,1,.59,1.48c.2-.24-.83-1.17-.59-1.48Zm.19-.23c-.1.12-.45-.33-.35-.45s.45.34.35.45Zm-.56-1.29c.1-.12.51.47.39.62s-.51-.48-.38-.63Zm-.12-.51Zm-.72-4s.8.34.43.8c0,0-.53-.68-.43-.8Zm.6,3.47c-.1.11-.45-.34-.35-.46s.45.33.35.45ZM342.27,30c-.15.19,1.27,1.31.72,2,.31-.38-1.05-1.57-.71-2Zm-.53-6.19c.09-.11.36.22.31.28s-.35-.22-.31-.29Zm-.44-1.88c-.05,0-.52-.24-.35-.45S341.93,22.18,341.3,21.91Zm0,2.16s-.54-.67-.44-.79.8.34.43.79Zm-.26-1ZM341,20.55c-.1.12-.45-.34-.35-.45s.44.33.35.45Zm-.27,1.88c-.09.11-.36-.22-.31-.28s.36.22.31.28Zm.06-2.73c.13-.16-1.56-3.14-1.13-3.69-.19.25,1.7,3,1.13,3.69Zm-.43,1.2Zm.35-3.53Zm-.16-.68Zm-.58-2.38s.48,1.17.33,1.36-.87-2.67-.33-1.36Zm-.51-1.13c.09-.11.36.21.31.28s-.36-.23-.31-.29Zm-1.76-6.44,0,0,0,0a5.67,5.67,0,0,0,.1.57.26.26,0,0,0-.15,0c-.09,0-.56,2.73-.76,3.59a4.45,4.45,0,0,1-.22.57l-.09-.25a3.46,3.46,0,0,0-.11-.34c.2-.94.4-1.87.58-2.82a1.28,1.28,0,0,1,.17.42,2.34,2.34,0,0,0-.14-.58c.11-.59.22-1.19.33-1.81,0,0,.08,0,.1,0s0-.15-.06-.24.05-.33.08-.5c.11.78.14,1.14.17,1.39Zm-1.92-4.88Zm-11.94,53.9c.11,0,.22.29.15.3s-.23-.29-.16-.3ZM312.28,83.32c0-.12.26-.4.31-.24S312.33,83.48,312.28,83.32Zm2.36-5.2C314.61,78,314.69,78.27,314.64,78.12Zm2.5-.08h0v0Zm.31,0c0-.12.26-.4.31-.24s-.26.4-.31.24Zm1-.26C318.43,77.67,318.51,77.92,318.46,77.77Zm.63,0s-.22.07-.24,0c-.1-.3.94-.12.23,0Zm1.64-.28c-.07,0-1.1.26-1.17,0-.14-.39,2.27-.22,1.16,0Zm.54-.25c0-.11.14-.3.16-.24s-.13.3-.16.24Zm.55,0Zm4.83.33c-1-.19-3.45-.06-4.29-.11,0,0-.14-.33-.21-.28.26-.58,2.73-.31,3.1-.27a8.65,8.65,0,0,1,2.5.62c1,.46-.76.1-1.1,0Zm10.06-.07C336.68,77.36,336.76,77.61,336.71,77.46Zm.31,0c0,.12,1.47-.78,1.64-.28-.07-.21-1.44.9-1.64.28Zm.3,17.76c-.31,0,0-.1,0-.1.34,0,.17.08,0,.1Zm-2.63,3.73c-.31-.07.13-.14.41-.19a.36.36,0,0,0-.2-.06c.57,0,.44,0,.2.06.16.1.17.3-.4.19Zm-.7,0c.5.1.34.45.06.55s-.15-.57-.06-.55Zm-.09-.75c.12,0,.37.12.25.15s-.36-.13-.24-.15Zm1.43-4c.11,0,.37.12.25.15s-.36-.12-.25-.15Zm-.25-.15c.09,0,.23-.15.22-.15.37,0,.36.27-.22.15Zm.41-.34s0,0,0,0,0,0,0,0-.4-.32,0-.36c.23,0,0,.26,0,.36Zm-.38,2.75c0-.28-.26-.89.35-1.1a12.16,12.16,0,0,0,0,1.91c0,.07.58.53,0,.2-.25-.15-.35-.68-.34-1Zm.52-1.61c-.39.19-.42-.25-.26-.25-.08,0,.64.08.27.25Zm-2.33-2.14s-.72-.15-.26-.25C333,92.37,333.42,92.58,333.3,92.62Zm1.08,7.78c-.89.13-.24-.38-.29-.55s-.46-.13-.48-.15.15-.25.45-.1c-.1,0,.74.74.33.8Zm.3.55Zm.19-.35c-.33,0-.17-.09,0-.1.32,0,0,.1,0,.1Zm.72-.54a.57.57,0,0,0-.33-.22s-.19.06-.24,0c-.28,0-.15-.07,0,0h.24a1.77,1.77,0,0,0,.08-.6c-.23.07-1.28.15-.62,0H335a1.76,1.76,0,0,1,.4,0c0-.95,0-2.42.2-1,0,.22.29.41.29.5,0,.36-.25.94-.25,1.38Zm.4-8.46c-.11,0-.31-.09-.25-.1s.31.08.25.1Zm.55,5c-.11,0-.31-.09-.25-.1s.31.08.25.1Zm.7,0c-.12,0-.37-.12-.25-.15s.37.12.25.14Zm.1.9h0Zm0-1.71s-.1-.18,0-.2c.3-.07.19.81,0,.2Zm12.73-17.58c0-.11.14-.3.16-.24s-.14.3-.16.24Zm3.29-.06Zm.06,2.06c0-.11.19-.36.23-.24s-.19.36-.23.24Zm.47-2.11c0-.12.2-.36.23-.24s-.19.35-.23.24Zm.23,2.09C354.12,80.11,354.21,80.36,354.16,80.21Zm.08-2.34c0,.23.35-.22.32-.24-.54-.23-1.42.14-2.27.07s-2.15-.45-2.88-.15c-.13.06-.05.49-.23.48s-.33-.37-.55-.46c-1.2-.44-2.74.46-3.9.59a24.45,24.45,0,0,1-4.52-.34c-.3,0-2.32-.21-.78-.44,1.32-.2-.34-.41-.62-.45a4.55,4.55,0,0,0-2.5.31c-.51.2-1-.15-1.56-.19-.87-.06-1.73.37-2.57.31-3.13-.21-6.26-1.6-9-1.13-1.63.27-3.43.35-5.07.62a23.52,23.52,0,0,1-3.14,0,15.52,15.52,0,0,0,1.64-2.22,25.17,25.17,0,0,0,2.65-5.16,8.16,8.16,0,0,1,.36-1.19c0,.11.1.21.16.2s0-.33-.07-.4a3.15,3.15,0,0,1,.33-.53,3.52,3.52,0,0,0,.58-1.22c.05-.26-.3-.7-.21-1,0,0,1.32-.49.55-1.1,0,1-.79.16,0,0,1-1.39,1-3.13,1.5-4.5.09-.23.21.26.54-.22.14-.19.06-.47.2-.7a12.31,12.31,0,0,0,.69-2.46c0,.11-.05.24-.1.35a19,19,0,0,0,1.5-3.61c0-.15.3-1.23,0-1,0,0-.9,2.55-.94,2.5a16,16,0,0,1,.85-3c.65-1.89,2.29-7.1,3-9.13.35-.93.66-1.9.94-2.88-.09.5-.14.9-.16,1-.16.59-.49,3.32-.7,3.35.52-.1.82-2.92.92-3.28s.68-3.35.7-3.35a.29.29,0,0,0-.17.16c1.18-4.72,1.94-9.62,3.47-13.66.64-1.69.94-4.24,1.65-6.75.6-2.17,1.08-4.06,1.48-5.88a2,2,0,0,0,.17.52c-.12.29-.19.52,0,.52a4.91,4.91,0,0,0,.38.55c.21-.26,0-.49-.15-.63.83-.38.1-.54.17-.69s.23-.82.23-.82c.11-.42.29-1,.41-1.44.06.34.2.75.31.61s-.1-.44-.13-.51-.08-.26-.11-.34c.07-.24.45-1.27.21-1.55,0-.09.09-.13.17,0,.56,1,.11,2.27.25,3,.42,2.37,1.75,6.18,1.22,5.1-.27-.57-1.17-4.84-1.68-5,.29.08.37,2.33.68,3.8.24,1.15.78,2.21,1,3.17a32.06,32.06,0,0,1,.37,3.52c.23,1.71.76,4.07,1.48,4.14-.21,0,.07-.64.1-.57.37,1-.21.58-.21,1.14a18.23,18.23,0,0,0,.53,2.21c.14.56.43,2.05.19,1.77-.57-.7-.39-1.84-.57-2.39s-.9-2.22-.87-1.58a15.32,15.32,0,0,0,.43,2.78c.44,1.61,1.24,3.74,1.89,5.84,1.28,4.15,2.65,9,4.1,13a52.56,52.56,0,0,1,2.36,6.8c0-.11-.36.29-.37.45a9,9,0,0,0,.41,1.7c.64,2.08,1.77,5.55,2.65,8,.16.44,1.1,2.19.75,2.15s-.76-1.44-1-2.3a7.68,7.68,0,0,0-.8-1.21c-.21.26.63,1.8.84,2.49.8,2.55,1.39,4.09,2.28,6.46.63,1.66,1,3.34,1.36,3.63s.87-.09,1,.1c.49.86.1,1.38.27,2.1,0,.06,0,.16.06.29a5.24,5.24,0,0,1-1.48,0c-.11,0-.92.29-1-.2Zm1.17,2.3c0-.11.2-.36.23-.24s-.19.36-.23.25Zm.31-.24c.14-.44,1.3,0,1.4,0h0c0,.13.07.25.1.37a1.41,1.41,0,0,1-.54.11c-.07,0-1-.34-1-.44Z"/><path class="cls-2" d="M330.16,76.72c0,.09.27,0,.31,0C331.2,76.53,330.07,76.47,330.16,76.72Z"/><path class="cls-2" d="M331.33,76.92c0,.06.19-.13.16-.24S331.29,76.81,331.33,76.92Z"/><path class="cls-2" d="M333.2,76.63c-.17,0-1.62.1-1.56.28.17.51,1.28,0,1.64,0s1.56-.28,1.56-.28C334.68,76.1,333.68,76.62,333.2,76.63Z"/><path class="cls-2" d="M335.23,77c.06.19.83,0,.85,0C336.94,76.8,335.14,76.78,335.23,77Z"/><path class="cls-2" d="M340.29,77.59c0,.08.27,0,.31,0C341.33,77.4,340.21,77.33,340.29,77.59Z"/><path class="cls-2" d="M342,77.54c.05.15.35-.13.31-.24S342,77.42,342,77.54Z"/><path class="cls-2" d="M343.33,77.73c.05.15.35-.12.32-.24S343.29,77.61,343.33,77.73Z"/><path class="cls-2" d="M344,77.71c0,.06.2,0,.24,0C345,77.59,343.93,77.41,344,77.71Z"/><path class="cls-2" d="M344.58,77.7c0,.06.19-.13.16-.24S344.54,77.58,344.58,77.7Z"/><path class="cls-2" d="M344.81,77.69c.07.19.83,0,.86,0C346.53,77.45,344.73,77.43,344.81,77.69Z"/><path class="cls-2" d="M323.35,82.76l0,0,0,0Z"/><path class="cls-2" d="M318.6,83.37c0,.12.27-.13.23-.24S318.56,83.25,318.6,83.37Z"/><path class="cls-2" d="M74.82,30.73a1.73,1.73,0,0,0,0,.27A2.51,2.51,0,0,1,74.82,30.73Z"/><path class="cls-2" d="M63.32,76.81a1.22,1.22,0,0,0,.14-.33A2.33,2.33,0,0,0,63.32,76.81Z"/><path class="cls-2" d="M81.83,23.36c0-.06.1-.37.22-.77C82.1,21.77,82.1,21.35,81.83,23.36Z"/><path class="cls-2" d="M74.53,52.34c.07,0,0-.53-.08-.46S74.41,52.4,74.53,52.34Z"/><path class="cls-2" d="M74.28,53.14c.13-.07.12-.73,0-.66S74.15,53.21,74.28,53.14Z"/><path class="cls-2" d="M76,47.1c.07,0,0-.53-.08-.46S75.83,47.16,76,47.1Z"/><path class="cls-2" d="M77.48,40.8c.18-.09.19-.93,0-.86S77.34,40.87,77.48,40.8Z"/><path class="cls-2" d="M78.21,37.75c.08,0,.05-.53-.07-.46S78.09,37.82,78.21,37.75Z"/><path class="cls-2" d="M60.21,93.11a2.47,2.47,0,0,0-.19.6C59.54,95.53,60.55,92.94,60.21,93.11Z"/><path class="cls-2" d="M59.46,92.66c-.17.09-.18.93,0,.86S59.6,92.59,59.46,92.66Z"/><path class="cls-2" d="M59.68,90.54c-.07,0,0,.53.08.46S59.81,90.48,59.68,90.54Z"/><path class="cls-2" d="M61.52,83.25c.18-.09.19-.93,0-.86S61.39,83.32,61.52,83.25Z"/><path class="cls-2" d="M61.2,83.58a2.2,2.2,0,0,0-.19.6C60.53,86,61.54,83.41,61.2,83.58Z"/><path class="cls-2" d="M62.93,77.35c-.1.05-.22.68-.25.8C62,80.58,63.28,77.17,62.93,77.35Z"/><path class="cls-2" d="M62,81c.08,0,0-.52-.07-.46S61.88,81.06,62,81Z"/><path class="cls-2" d="M64.69,69.59c-.53.27-.12,1.07-.11,1.06S64.69,69.59,64.69,69.59Z"/><path class="cls-2" d="M64.21,71.85c.13-.07.12-.73,0-.66S64.07,71.92,64.21,71.85Z"/><path class="cls-2" d="M63.38,73.77l0,0,0,0Z"/><path class="cls-2" d="M66.06,65.21c.08,0,0-.52-.07-.46S65.94,65.28,66.06,65.21Z"/><path class="cls-2" d="M65.75,66.21c.13-.07.11-.73,0-.66S65.62,66.28,65.75,66.21Z"/><path class="cls-2" d="M65.5,67c.13-.07.12-.73,0-.66S65.37,67.07,65.5,67Z"/><path class="cls-2" d="M65.05,67.74a2.47,2.47,0,0,0-.19.6C64.38,70.16,65.39,67.56,65.05,67.74Z"/><path class="cls-2" d="M67.34,59.71a14.11,14.11,0,0,0-.75,2.39C66.06,64.35,67.8,59.48,67.34,59.71Z"/><path class="cls-2" d="M68.64,54.87c-.53.35-.61,3.32-.86,3.45C68.44,58,68.36,55.91,68.64,54.87Z"/><path class="cls-2" d="M70.12,49.43c-.14.07-.12.73,0,.66S70.25,49.36,70.12,49.43Z"/><path class="cls-2" d="M69.81,50.43c-.53.26-1.06,3.89-1.17,4.44C69.39,54.44,69.23,50.72,69.81,50.43Z"/><path class="cls-2" d="M71.6,44a10.52,10.52,0,0,0-.69,2.19C70.39,48.43,71.89,43.84,71.6,44Z"/><path class="cls-2" d="M72.33,40.94c-.1-.18-.67,2.23-.56,1.79C71.11,45.31,72.65,41.5,72.33,40.94Z"/><path class="cls-2" d="M72.82,38.69c-.6.31-.36,1.85-.36,1.85C72.81,40.36,72.55,38.83,72.82,38.69Z"/><path class="cls-2" d="M95.11,59c.06-.07-.12-.52-.15-.61C94.47,57,94.92,59.18,95.11,59Z"/><path class="cls-2" d="M93.09,49c.14-.16-.4-1.61-.41-1.67C92.1,45.69,92.9,49.21,93.09,49Z"/><path class="cls-2" d="M91.27,39c.06-.08-.12-.53-.15-.61C90.63,37,91.08,39.21,91.27,39Z"/><path class="cls-2" d="M90.44,35.65c.11-.13-.26-.66-.35-.56S90.35,35.76,90.44,35.65Z"/><path class="cls-2" d="M90,33c.11-.13-.27-.66-.36-.56S89.92,33.13,90,33Z"/><path class="cls-2" d="M89.67,31.66c0-.05-.09-.4-.11-.46C89.14,29.85,89.46,31.91,89.67,31.66Z"/><path class="cls-2" d="M89.13,30.34c0,.05.2.35.28.25S89.21,30.24,89.13,30.34Z"/><path class="cls-2" d="M89.3,30.14c.14-.17-.4-1.62-.41-1.67C88.31,26.84,89.11,30.36,89.3,30.14Z"/><path class="cls-2" d="M106.22,80.08c.09-.1-.23-.51-.32-.41S106.14,80.18,106.22,80.08Z"/><path class="cls-2" d="M110.48,96.28c-.68-.14-1-.21-1.16-.26v0s0,0,0,0a3,3,0,0,0-.6-.06c.12,0,.31.15.11.21a1.21,1.21,0,0,1-.73,0c.15-.1.07-.48.43-.56s.23.68.9.11,0-2.3-.24-3.64-.52-3-1-4.75c-.39-1.57-.74-3.2-1.09-4.4a5.12,5.12,0,0,0-.82-1.57c-.15-.26.18-.4.06-.66s-.48-.3-.57-.5a7.44,7.44,0,0,1-.65-1.78c0-.35.37-.4.26-.7s-.74-.72-1-1.22a15.33,15.33,0,0,1-.69-3.68c0,.14,0,.43-.17.2a20.86,20.86,0,0,1-1.5-6.07c0-.23.28-.45.26-.7s-.43-.11-.48-.21.32-.36.3-.55c-.76-5.33-1.16-10.55-2.16-14.91-.32-1.4-.51-2.44-.7-3.69C99,45,98.12,43.13,98,41.71c0-.11.35-.26.3-.55-.87-4.93-1.69-10.5-3.22-14.81-.32-.9-.37-1.59-.6-2.43-.11-.4-.58-.72-.71-1.11-.26-.75-.37-1.64-.6-2.43-.9-3.13-1.68-6.67-2.61-9.66-.83-2.68-1-5.58-2.15-7.84-.2-.38-.13.3-.49-.2-.74-1-.25-1.64-.82-1.57.2,0,0,.76-.06.65A3.3,3.3,0,0,1,87.17,3c0,.24.16,1.16.06,1.11-.61-.3-.17-.66-.26-1.06-.06-.18-.12-.36-.19-.54a2,2,0,0,0,.1-1,5.36,5.36,0,0,0-.6-.1C86.15,1.19,86.05,1,86,1s0,.19,0,.37C84.84,1.23,82.83,1,82.86,1c-1.54.58-2.68,4.55-3.26,6.86-1.52,6.08-2.44,13.3-3.73,18.28a46.41,46.41,0,0,0-1.05,4.64c.13-.84.34-.23.1.53s-.37-.2-.4-.13c-.5,1-.61,3-1,4.51-.59,2.51-.75,3.6-.3,1.65,1-4.23-.48,3-.4,2.72-.53,2.18-1.29,5.24-1.78,7.1l-.38,1.44a1.23,1.23,0,0,0-.26-.12l-.2-.06c-.77.55,0,.57.4.42-1,4-2.42,9-3.73,13.8a.2.2,0,0,0-.15.06s.07.05.1.15c-.94,3.45-1.84,6.77-2.55,9.51-.28,1.07-.54,3.29-.82,4.18.19-.39.49-1,.49-1a3.63,3.63,0,0,1-.09.65l-.06,0a.81.81,0,0,0,0,.22c-.28,1.09-.91,2.3-1.22,3.49-.21.78-.56,2-.93,3.29a1.49,1.49,0,0,0-.27.76.43.43,0,0,0,0,.11c-.34,1.17-.67,2.37-.92,3.39h0c-.47,0-.16.16-.06.28v.06c-.1,0-.34,0-.34.07a.7.7,0,0,0,.21.47c0,.18-.07.34-.1.49-.11-.15-.21-.3-.33-.45a.36.36,0,0,0-.45,0c.07-.06,0,.22,0,.2.2.3.4.6.54.86a1.5,1.5,0,0,0,.11.63,1.36,1.36,0,0,1,0-.45l.09.18a3.24,3.24,0,0,0,.13.33h0c-.27,1-.08.66.08.19l.18.38c-.37,1.43-.89,3-.15,1.21l.33-.83a19.23,19.23,0,0,0,1.62,2.58l.07.09a1.72,1.72,0,0,0-1,.18c-.26.26-.11.78-.25.83-.66.2-.92-.27-1.41-.31s-2.3-.27-2.49,0c0,0,.27,4.07.25,4,.54,1.34,2.88,1.39,4.22,1.34,3.54-.13,7.62-1.13,10.54-1.21a13.56,13.56,0,0,0,2.84-.23c-.69.2-.37-.24.12-.21s0,.41,0,.43c.62.21,1.71-.2,2.6-.25,1.46-.1,2.07-.23,1-.15-2.46.16,1.71-.33,1.54-.33,1.27,0,3.05-.12,4.13-.14l.85,0a.9.9,0,0,0,0,.28,1.48,1.48,0,0,0,0,.21c.41.6.31-.19.17-.49,2.66,0,6.12,0,9.28,0,0,.07.11.13.16.19s-.06.08,0,.12S95,98,95,98a1.24,1.24,0,0,0,1,.48c.91-.14-.1-.24.34-.66a.44.44,0,0,1,.16-.1l2.77,0c.63,0,1.88-.35,2.4-.31l-.61-.21c.72-.3,1.7.19,2.59.17,1.19,0,4.06.16,5.32,0a1.19,1.19,0,0,1-.23-.48c.14.35.43-.37.24-.2C109.28,96.29,112.11,96.62,110.48,96.28ZM66.92,94.14,66.81,94h0c.09,0,.16,0,.19,0S67,94.1,66.92,94.14Zm-.42-.74a10.93,10.93,0,0,0-.45-1.58,26.46,26.46,0,0,0-1.73-3.5,3.38,3.38,0,0,1-.24-.41,13.94,13.94,0,0,1,3.78,5.41C67.38,93.34,66.93,93.36,66.5,93.4ZM64,92.73c-.06.07-.38.14-.31.06S64.05,92.66,64,92.73ZM74.67,54.39s0,0,0,0-.08.34-.13.26Zm.41,0C75.05,54.27,75.13,54.49,75.08,54.36Zm.33-.06s-.11.07-.12,0c-.09-.26.48-.18.12,0Zm.83-.38s-.55.31-.61.12c-.12-.35,1.18-.37.61-.12Zm.32-.49c0,.1,0,.28-.06.23s0-.28.06-.23Zm.23.17C76.76,53.52,76.83,53.73,76.79,53.6Zm7.88-.86C84.65,52.66,84.72,52.88,84.67,52.74Zm7.22-.51c0,.1,0,.28,0,.22s0-.27.06-.22ZM105.21,95a1.59,1.59,0,0,1,.13-.13.2.2,0,0,0-.06.15ZM87.65,92.85h.16a.22.22,0,0,1-.08.13S87.74,92.89,87.65,92.85ZM65.36,80.93a.85.85,0,0,0,.13-.54c0,.09.09.17.12.26l.21.54-.08.1C65.29,81.41,65.79,80.84,65.36,80.93Zm0-.79c-.12.19-.12.77,0,.8h0c.2-.06-.26.42-.44.5h-.1c.17-.54.3-1.08.42-1.61ZM72.63,85c-.63-1.5-2.15-2.52-2.74-3.93-.42-1-.74-2.9-1.75-3.16.07,0-.18.33-.07.29-.46.17-1.08-1-1.18-1.09-.55-.33-.34.2-.25.4.35.8.07.44-.39-.21-.07-.1-.15-.25-.25-.42.26-.66.57-1.3.86-1.91l.06.1c.32.45.3,1.06.56,1.53,1,1.85,3,3.18,4.19,5.35a16.89,16.89,0,0,1,.8,1.66,2.08,2.08,0,0,1-.2-.36c.1-.08-.21,0-.21.06a4.25,4.25,0,0,0,1.17,2.21c.26.72.51,1.44.77,2.15-.45-.88-1-1.73-1.37-2.67ZM67.37,69.55c.12-.06.14.43.07.47S67.29,69.59,67.37,69.55Zm1.2.73a.07.07,0,0,1-.06,0c0-.14,0-.28.07-.41a.64.64,0,0,1,0,.2,1.42,1.42,0,0,0,0,.2Zm-.22.69v-.08s0,0,0,.08Zm-.26-1.63a4.91,4.91,0,0,1,.15-.51s0,.09.06.15l.06.15C68.24,69.27,68.08,69.4,68.09,69.34Zm-.18.6s0,1-.11,1.06S67.38,70.21,67.91,69.94Zm-.38,1.2h0l0,0ZM66.18,74a2.61,2.61,0,0,0,.17.28c0,.09,0,.17-.08.19s-.13-.26-.09-.48ZM69,70.3a4.14,4.14,0,0,0-.38-.72,1,1,0,0,0-.14-.76c.07.06,0,.2-.11.31l-.12-.31c.21-.49.38-.07.62-.54A8.4,8.4,0,0,0,69.31,67l.18.3c-.16.84-.31,1.91-.07,1.4.14-.3.27-.6.38-.88l.64,1c0,.13,0,.26-.08.39l-.16.88L70,70c.08,0,.14.11.15.22s0,.09,0,.12a.22.22,0,0,1-.19.14c-.59,0,0-.79-.68-.65.19-.05,0,1.23-.29.42ZM96.43,93.59s0,0,0,0h0Zm.17-1.23h-.12c-.19-.26-.7-.64-.83-.85s-1-.94-.75-1.21C94.66,90.56,96.55,91.71,96.6,92.36ZM95.19,90c.13-.15-1.56-1.07-1.17-1.51-.08.08,1.48,1.14,1.17,1.5ZM90.07,79.6a67.33,67.33,0,0,1-2.67-7.82,99.92,99.92,0,0,0,4,9.28c1.38,2.8,2.61,5.66,3.95,8.5C93.6,86.28,91.71,83,90.07,79.6Zm-5.49,1.47s-.13-.28-.07-.35c.24-.22.33,1.37.07.35ZM84,75.71c-.09.09-.33-.09-.24-.18s.33.1.24.18Zm2.79,9.81c-.71-.66.08-1,0,0,.71.66-.07,1,0,0Zm-.65-1.31c.2-.18.34,1.1.06.35,0,0-.12-.29-.06-.35ZM86.13,84c-.11.11-.7-1-.62-1.13s.23.38.32.61.92-.06.31.52ZM85.38,79c-.16,0-.46-.09-.19-.35l.09.06c0,.1.06.19.1.29Zm-.47-.79s-.13-.28-.07-.34.34,1.1.07.34Zm.25,3.8c.7.53-.08,1,0,0-.67-.21.1-.93,0,0Zm2.12,2a7.52,7.52,0,0,1-.54-1.31c-.06-.2-.24-.56-.17-.72.35.74.73,1.48,1.09,2.22-.21-.22-.5-.45-.38-.19Zm.16.26a1.16,1.16,0,0,1-.12-.2l.12.2Zm-3.18-3.78s-.13-.29-.06-.35.34,1.11.06.35ZM86.6,92.32a.12.12,0,0,1,0-.17h0c-.07.06,0,.12.15.18ZM71.54,71.12c-.08-.22-.53-.37-.62-.46-.34-.35-.28-.48-.58-.56l.31-1c.34.52.68,1,1,1.53h-.09c.11,0,.18,1.1,0,.46Zm1.18.34c-.68-1-1.27-2-1.86-3,.06-.23.13-.46.2-.69.93,1.43,1.9,2.86,2.7,4,.12.17.25.67.46.8.39.25,1.14.4.56-.34-.73-.21.27-.56,0,0,1.2.74,1.49,2.42,2.44,3.41.33.35.66.09.32-.26a6.88,6.88,0,0,1-1-1.67c-.25-.58.46-.14.67.22s.3,1.15.87,1.34-.3-.58-.46-.81-.7-1.76,0-1c.21.24.53.73.85,1.16.29.82.6,1.64.93,2.45l-.21,0c0,.17-.21.76-.12.72-.29.14-.68-.85-1-.19s-.7,0-.87,0c-1.28-1.72-3.32-3.28-4.28-5.06a2.09,2.09,0,0,1-.14-.3l.08.12c.87,1.18.38-.07-.14-.84Zm.35-8.08a27.56,27.56,0,0,1,1.8,3.06,22.68,22.68,0,0,1,3,6.19c.12.36.24.72.35,1.08-.43-.86-.78-1.87-1.32-2.78-1.17-2-2.43-4.39-3.77-6.3-.35-.5-.63-1-.89-1.41l.12-.41a3.35,3.35,0,0,1,.74.56Zm1.54,8.17c0,.09-.42.08-.38,0s.43-.07.39,0Zm-2.75-8.93-.06-.11.08.05ZM87,91.87c.14-.12-1.22-.18-.8-.54C86.07,91.4,87.28,91.58,87,91.87Zm-1.19-1.54c-2.13-1.49-2.45-4-3.13-6.25.17.34.33.68.5,1a10.86,10.86,0,0,0,1.08,2.75,16,16,0,0,1,1.55,2.5c.14.16.28.27.44.45C86.9,91.61,85.43,90.69,85.76,90.33ZM71.48,59.25h0S71.35,59.32,71.48,59.25Zm-1,7.54h0l.3.47-.15.72c-.17-.3-.34-.6-.52-.9.08-.2.14-.38.2-.55Zm13.61,20.6a6.24,6.24,0,0,1-.62-1.62,7.24,7.24,0,0,0,1.36,2.46c.26.24-.21-.59.12-.51s.07.82.4,1,.18-.47.34-.42c.45.15,0,.65.59,1,.11-.88-.23-1.24-.37-2.08-.46.1-.17-.51-.33-.7-.43-.23-.45-.86-.65-1.31-.55-1.22.85,1,.65,1.31.45-.09.17.52.33.7,1,1,1.24,3.19,2.43,4.29,1,.94.39-.59.19-1.29-.29-1-1-1.42-1.11-2.7-.19-2,1.34,3.35,1.61.81.14-1.33-1-1.59-1-3,0-.7.07.05.26.26l.14.11c1.12,2.2,2.26,4.4,3.38,6.63l-4.24,0C86.53,90.66,85.11,89.15,84.07,87.39Zm4.6.25c.09-.09.33.09.24.17S88.58,87.72,88.67,87.64Zm7.85,6.14c.08,0,.1-.09,0-.12h0c0-.13-.23-1.19.21-.47.64,1,.44.15.22-.4l0,.06c.16.31.3.64.45,1-.13.2-.05.25.1.23l0,0a1.19,1.19,0,0,0-.63.21c-.14-.21-.26-.4-.34-.54Zm1.21.85a1.24,1.24,0,0,0,.1.2c-.13.11-.29.18-.41,0a1.77,1.77,0,0,1,.31-.15ZM91.89,78.5c0,.23.62.32.27.63.09.12.16.17.25.29.47.63-.46.23-.25-.29,0-.22-.63-.31-.27-.63C91.11,78,92,77.74,91.89,78.5ZM87.31,59.15c0,.31,0,.42-.38,0l0,0ZM88.68,70.1c.64,1.66,1.32,3.33,2.07,5.19.14.36.32,1.38.36,1.37-.54.13-.54-1.2-.59-1.31-.74-1.85-1.36-3.68-2-5.51ZM91,76.81c-.14.15.76.13.56.33,0,0-.88,0-.56-.33Zm.23.58c.19-.19.85.67.34.39,0,0-.45-.27-.34-.39Zm1.93,3.48c.55.72-.45.24-.29-.33-.09-.11-.16-.17-.25-.29-.48-.63.45-.23.25.29.09.11.19.2.29.33Zm.21.88c-.09-.09-.33-.2-.25-.29s1,1,.25.29Zm-3-8.5-.81-2a28.63,28.63,0,0,1,2.76,4.05c2.16,4.06,3.42,8.93,5.45,12.87.27.53.51,1.06.74,1.6a178.5,178.5,0,0,1-8.14-16.49Zm3-9.27c.35.3,1.1.58,1.27.78v0a.08.08,0,0,1,0,.11.16.16,0,0,0,0-.07c.11.18.22.36.34.54a2.09,2.09,0,0,1,.42.68c.47.75.94,1.5,1.39,2.26.07.36.14.73.21,1.08-.5-1-1-2-1.38-2.85l-.22-.49L95,65.37a.88.88,0,0,0-.45-.23c.23,0,.61,1.34.87,1.79s.65,1.15,1,1.7c-.36-.47-.74-.94-1.11-1.41C94.64,66.13,94,65.05,93.34,64Zm12.6,29.7h0c-.17-.37-.26-.51,0,0Zm-.22.91a.18.18,0,0,1,.16-.1c.25,0,.32.65.4.71l-.48-.1c0-.16,0-.33-.08-.51ZM99,73c-.23-.47-.46-.95-.71-1.43-.12-.22-.25-.45-.39-.68s-.13-.6-.18-.87A24,24,0,0,1,99,72.58L99,73Zm-2.15-9.55c0-1.12.11-.47.26.42C97.07,63.72,97,63.58,96.89,63.44Zm-3-9.61,0,.16s-.05.07-.06,0a.31.31,0,0,1,0-.19Zm0-1.79c0,.05,0,.09-.07,0a.4.4,0,0,1,0-.19Zm.69,5.27a1.82,1.82,0,0,1,.57-.13c.26,1.54.47,3.09.67,4.63a31.43,31.43,0,0,1-2.34-4.06.41.41,0,0,0,0-.09,8,8,0,0,0,1.15-.35Zm-3.52,1.31s.07-.07.11-.15a10.05,10.05,0,0,1,.64,1.16,22.07,22.07,0,0,0,1,2c-.28-.28-1-.58-.93-.63-.41.4,1.12.82,1,.94a.12.12,0,0,0,0-.1c.18.34.37.67.56,1-.29-.27-1-.56-.91-.61-.41.4,1.12.82,1,.94a.13.13,0,0,0,0-.1l.74,1.22c-.47-.35-1.23-.69-1.08-.83a.25.25,0,0,0-.09.19c-1-1.62-2-3.24-2.84-4.88l.1,0a.62.62,0,0,1,.32-.09,4.4,4.4,0,0,0,.38.75c.33.43.11-.18.06-.25s-.17-.25-.36-.5A.69.69,0,0,0,91.08,58.62ZM89.93,59c.24.46.49.93.75,1.4h-.1c.12,0,.35,1.49,0,.61-.11-.3-.61-.56-.72-.7-.53-.65-.31-.74-1.06-1,.18,0,.36.63,0,.62s-.34-.46-.44-.74A4.67,4.67,0,0,0,89.93,59Zm-1.83.22c.07.4,0,1.13-.35.3a3.31,3.31,0,0,0-.15-.33Zm-1.87-.51s.1.39.17.4l.36,0a6.39,6.39,0,0,1,.39,1.06s0,0,0,.11a.2.2,0,0,0,0-.11c-.06,0-.33.16-.6.39,0,.14,0,.37-.29.34l-.07,0c-.26.23-.38.35,0,0-.45-.2-.53-1.36-1-2,.39-.09.75-.39,1.06-.24Zm-1.39-6c0,.1.69-.81.83-.37C85.61,52.16,85,53.25,84.84,52.71Zm-.59,6.19c.14.63,1,1.13.87,2,0,.21-.56.67-.56.88,0,1.22,1.12,2.82,1.65,3.67.4.64.48,1.44.82,2.1.07.14.16.28.24.41A145.72,145.72,0,0,0,97.87,92.2c-.72-1.26-1.53-2.47-2.15-3.6-3.51-6.3-6-13.08-8.73-19.54-.26-.64-.63-1.27-.86-1.94-.28-.84-.25-1.77-1.11-2.23.16.5.33,1,.49,1.48-.34-.67-.8-1.38-.74-1.07s.1.47.16.7c.13.43.26.86.4,1.3.6,1.68,1.44,3.32,2,5a71.32,71.32,0,0,0,3,8.19c.92,1.93,2,3.74,2.79,5.75.23.4.44.7.7,1.14,1.16,2-1-.63-.7-1.14-3.77-5-4.85-11.19-7.09-16.79-.28-.72-.54-1.46-.77-2.19-.15-.43-.29-.86-.4-1.3s-.29-1-.44-1.5l.14.17c.38.52.31.25.16,0,.1.07.24.14.23.23.38-.28-.19-.34-.18-.53-.1.07-.13.12-.13.17-.1-.13-.2-.22-.26-.16-.06-.21-.12-.43-.19-.64l.14.17a1.88,1.88,0,0,0,.22.26.8.8,0,0,0,.21.2c.16-.39-.12-.47-.22-.38-.1-.21-.3-.48-.39-.38L84,62.92c0,.08.14.17.16.2.65.89,0-.53-.18-.3v0l-.21-.63a3.58,3.58,0,0,0,.26.29c.55.52-.18-.8-.37-.61-.07-.19-.13-.38-.2-.56.26.14.59.23.53.3.18-.21-.37-.39-.64-.57-.17-.42-.34-.83-.53-1.22.16.24.36.48.37.5.67.77-.31-1.2-.56-.91v0c-.11-.22-.24-.44-.37-.65v0a4.83,4.83,0,0,0,1.56.13A3,3,0,0,1,84.25,58.9Zm-4.87-5.36a15.72,15.72,0,0,0-2.28.22s-.11-.29-.14-.24c.07-.54,1.4-.47,1.6-.47a3.21,3.21,0,0,1,1.39.38C80.55,53.77,79.56,53.57,79.38,53.54Zm-1.33,4.35a.38.38,0,0,0,0,.1,3.74,3.74,0,0,0,.12.45.91.91,0,0,0-.16-.11,2.21,2.21,0,0,0-.32-.19,1.1,1.1,0,0,1,.35-.26ZM71.38,60l-.18.12c0-.1,0-.2.09-.22S71.36,59.88,71.38,60Zm-1.7,5.74,0-.09.18.29a4.34,4.34,0,0,0-.2.5l-.14-.24ZM66,74.79a7,7,0,0,0-.32,1.5,3.59,3.59,0,0,0-.25-.33C65.51,75.38,65.69,74.92,66,74.79Zm-1.17,4.45Zm-.19.6c0,.22-.21.83-.43,1.58l-.12.06c.4-1.44.65-2.38.55-1.65ZM65.8,93.45c0-.17.12-.27.31-.09l.06.06Zm6-.24c0-.06,0-.15.18-.28-.21.2,0,.17.27.11A4.35,4.35,0,0,0,71.76,93.21Zm.67-.3c-.06,0,.14-.16.14-.16a.18.18,0,0,1,.19.12l-.38.11c.1,0,.14-.07.05-.06Zm1.3-.28h0a2,2,0,0,1,0-.35,1.32,1.32,0,0,0,.08-.65c-.18-1.2.4.58.78.43s0-1.47,0-1.53c0-.27.26-.09.22-.45l-.09-.44a17.52,17.52,0,0,0,.76,1.64,13.35,13.35,0,0,1,.62,1.39A12.77,12.77,0,0,0,74,92.58l-.26,0Zm13.76.87c0-.17.05-.42.26-.2.44.46.35-.14.22-.36l0-.09c1.41,0,2.79.07,4.17.05l.25.49c-.6,0-1.23.07-1.85.08-1,0-2,0-3,0Zm10,1.7s.06,0,.07,0a.07.07,0,0,1,0,.09Zm1.42-1c-.08-.17-.15-.35-.24-.52h0c.1.18.19.36.29.53ZM102,95.46l0,0h0s0,0,0,0Zm2-.1h.24l0,.1h-.36a.28.28,0,0,1,.09-.1Zm1,0h.11l0,.1H105s0-.06,0-.09Zm.22.1,0-.1h.14c.06.09.15.12.28,0h.05l0,.12h-.48Zm.6-.1a4.71,4.71,0,0,0,.53,0c0,.07.06.14.08.2l-.6,0Zm1.32-.12c0-.37,0-.63,0-.82h0a5.21,5.21,0,0,0,.19.89.05.05,0,0,0,0,.08l0,0a1.47,1.47,0,0,0,.25.48l-.48-.22a2.08,2.08,0,0,0,0-.43Zm1.55-3.42c.09-.11.47.42.35.56s-.47-.42-.35-.55Zm-1.13-6.31,0,0,0,0ZM92.79,46Zm-.15-.6c.08-.1-1.36-2.7-1-3.14C91.49,42.45,93.08,44.87,92.64,45.41ZM88.11,3.27c.08-.1.33.2.28.25S88.06,3.33,88.11,3.27Zm-.5,9.44c-.09.1-.4-.3-.32-.41s.4.31.32.41Zm-.34-1.37Zm-.18,8.08c.08-.1.32.2.28.25s-.33-.19-.29-.25ZM85.62,7.72s0,0,0,.06c-.14-.44-.21-1.19.09-.23,0,.06.15.4.11.45a0,0,0,0,1-.05,0C85.74,7.87,85.7,7.67,85.62,7.72ZM85,11.29c.06-.22.11-.43.17-.63.11.44.18.89,0,1,.1-.08,0-.26-.15-.4ZM85,7.4h0a3.82,3.82,0,0,1,.21-.46c.09.15.09.3-.2.45Zm.23,4.44c.08-.1.4.3.32.41s-.41-.31-.32-.41ZM85.69,6l.09-.23.15-.46a6.58,6.58,0,0,1,.31,1,11,11,0,0,1,.07,2.07c-.35-.15-.53-1.6-.62-2.33Zm.66,2.49c.08-.1.4.3.32.4s-.4-.31-.32-.41Zm.17-5,.06-.23c0,.19,0,.29-.06.22ZM82.83,17.34c.14-.08.13.77,0,.86S82.66,17.42,82.83,17.34Zm-.17,1.25c.13-.06.15.59,0,.66S82.52,18.66,82.66,18.59Zm-2.29,5.19a2.47,2.47,0,0,1,.19-.6C80.9,23,79.89,25.6,80.37,23.78Zm-.06,3c.13-.07.14.59,0,.66s-.15-.59,0-.66Zm-2.94,9.36c.13-.07.15.59,0,.66S77.24,36.25,77.37,36.18ZM77,37.37c.13-.07.15.59,0,.66s-.14-.59,0-.66Zm-.86,3.45c.13-.07.15.59,0,.66s-.14-.59,0-.66Zm-.6,3.31c.6.23-.45.77,0,0-.53-.42.56-1,0,0Zm-.24.8h0l0,0Zm1.15-2.26a81.59,81.59,0,0,1,2-8.35c0,.11.43-.1.53-.28a12.41,12.41,0,0,0,.62-2c.66-2.5,1.7-6.73,2.39-9.74.12-.56.37-2.89.61-2.66s-.21,1.92-.5,2.94a12.08,12.08,0,0,0-.06,1.7c.3-.16.52-2.22.73-3.05.79-3.08,1.2-5,1.83-7.95.11-.52.23-1,.35-1.52.21,1.05.74,2.39,1,3.76.38,1.94.59,4.31,1.19,5.67.1.24.45,0,.52.35s-.18.72-.15,1.16c.15,2.43,1.65,5.26,2.29,7.49.68,2.39,1.22,5.91,1.76,8.9.11.58.87,4.58,0,1.61-.77-2.52-.2.76-.11,1.31a19.54,19.54,0,0,0,1.4,4.81,15.43,15.43,0,0,1,.55,3.08,16,16,0,0,0,.45,1.68l-.3.1-.6-1.83c-.22.27.06,1.1.36,1.92a.92.92,0,0,1-.29,0c-.53,0-1.19-.24-1.54.08-.06.06,0,.45-.07.45S91.11,52,91,52c-.68-.32-1.4.61-2,.81a7.86,7.86,0,0,1-2.42,0c-.16,0-1.25,0-.46-.34s-.23-.34-.38-.35a1.52,1.52,0,0,0-1.28.45c-.25.22-.55-.06-.85,0-.46,0-.87.46-1.32.47-1.68,0-3.49-1-4.9-.36-.78.34-1.65.55-2.45.87.3-1.06.6-2.12.9-3.16,1.27-4.47,1.84-8.77,3-13.26.26-1,1.42-3.83,2.06-6.57.08-.35.68-4.69.3-4.5s-1.3,5.16-1.72,6.9c-.65,2.72-1.1,5.15-1.51,7-1.14,5-2.41,9.5-3.65,13.81a6.77,6.77,0,0,1-.7.08c1-3.74,2-7.62,2.8-11.1Zm-2.34-8.83c.13-.06.15.59,0,.66S74,33.92,74.11,33.84Zm-.23,16.32c.13-.06.15.43.08.46s-.15-.41-.08-.45ZM63.61,80.84s.28-1.48.5-1.59S63.3,82.49,63.61,80.84Zm-3.37,8a1.17,1.17,0,0,1,.38-.17l0,0c-.26.21.21.76.14.42a1.9,1.9,0,0,1,0,.58A9,9,0,0,0,60.24,88.87Zm2.16,4.19c-.5-.9-1-1.83-1.37-2.78l.14-.34,0,0,0,0a1.59,1.59,0,0,1,.08-.18,34.63,34.63,0,0,0,2,3.24c.07.1.06.41.2.46s.87,0,.56-.35c-.57,0,.36-.44,0,0a.91.91,0,0,1,.56.46l-.34,0,0,0c.08-.09-.3,0-.37,0h0c-.44,0-.86.05-1.24.06A1.66,1.66,0,0,0,62.4,93.06Zm4.1,1.15s0-.11.13-.16l.1.11.06,0c-.11.05-.25.07-.29,0Zm.71-.17c0-.11.3-.3.36-.19s-.3.3-.35.19Zm.6-.17a.35.35,0,0,1,.18-.16l0,.08c0,.06,0,.12,0,.19-.17,0-.28,0-.25-.11Zm4.24.28c-.06-.11.3-.3.36-.19s-.3.3-.36.19Zm4.15-.57A4.27,4.27,0,0,0,75,93.5c-.77,0-1.81,0-2.87.1,0,0,0,0,0,0,.94,0,2.64-.2,3.37-.23l.86-.06c.1.26.2.52.29.77l-.23,0c.07,0-.11-.39-.22-.44Zm.58,4.7c0-.11.3-.3.36-.19s-.3.3-.35.19ZM89,94.37h-.18l-.09,0s0,0,0,0l0,0a.3.3,0,0,1-.12-.13c.12.22.92-.43,1.07-.14A1.58,1.58,0,0,1,89,94.37Zm.79-.09c-.06-.12.3-.31.36-.19s-.31.29-.36.18Zm.47,0c-.06-.12.4-.33.48-.18s-.41.32-.48.17Zm.83-.16Zm.36,0c-.06-.11.3-.3.36-.19s-.31.3-.37.19Zm.58,0c.1.18.4.06.7-.07,0,.07.07.13.1.19-.3.13-.63.2-.8-.12Zm8.74,1.42a.8.8,0,0,0,.18-.27l.38-.07c.1.1.19.2.29.29a2.71,2.71,0,0,1-.85,0Zm1.14.3Zm2.12.14-.3,0a1.43,1.43,0,0,1,0-.22c.41,0,.77.11.25.18Zm.59,0a0,0,0,0,1,0,0l.1,0s0-.08.08-.17,0,0,0,0-.21.24-.24.18Z"/><path class="cls-2" d="M109.52,97.07a1,1,0,0,1-.59.2C109.06,97.39,109.25,97.41,109.52,97.07Z"/><path class="cls-2" d="M101.83,97.4a.46.46,0,0,0-.2-.05A.73.73,0,0,0,101.83,97.4Z"/><path class="cls-2" d="M90.14,93.24c0,.06.29-.09.24-.2S90.08,93.13,90.14,93.24Z"/><path class="cls-2" d="M109.78,96c.06.11.41-.07.36-.18S109.72,95.91,109.78,96Z"/><path class="cls-2" d="M111.19,96.12s.31,0,.36,0C112.61,96.13,111.05,95.83,111.19,96.12Z"/><path class="cls-2" d="M112.84,96.23c-.06-.11-.41.08-.36.19S112.9,96.34,112.84,96.23Z"/><path class="cls-2" d="M109.17,96.83c0,.06.3,0,.35,0C110.59,96.84,109,96.55,109.17,96.83Z"/><path class="cls-2" d="M111.05,97c.08.14.54-.07.48-.18S111,96.84,111.05,97Z"/><path class="cls-2" d="M112.35,97c0,.06.29-.09.24-.2S112.3,96.94,112.35,97Z"/><path class="cls-2" d="M61.08,93.85c0-.06-.29.09-.24.2S61.14,94,61.08,93.85Z"/><path class="cls-2" d="M109.86,97.3c0,.06.3-.09.24-.2S109.81,97.2,109.86,97.3Z"/><path class="cls-2" d="M105.13,97.62c.08.15.54-.06.48-.18S105.07,97.51,105.13,97.62Z"/><path class="cls-2" d="M105.84,97.67s.31,0,.35,0C107.26,97.68,105.69,97.39,105.84,97.67Z"/><path class="cls-2" d="M102.18,97.64c0,.08.4,0,.47,0C104.08,97.68,102,97.35,102.18,97.64Z"/><path class="cls-2" d="M104.06,97.76c0,.07.3-.09.25-.2S104,97.66,104.06,97.76Z"/><path class="cls-2" d="M97.69,98c.22.43.6-.17.59-.18S97.69,98,97.69,98Z"/><path class="cls-2" d="M98.63,98c.06.11.42-.08.36-.19S98.57,97.93,98.63,98Z"/><path class="cls-2" d="M96.62,98.12s.31,0,.35,0C98,98.13,96.47,97.83,96.62,98.12Z"/><path class="cls-2" d="M91.9,98c.08.15,1.37.1,1.42.09C94.62,98,91.71,97.63,91.9,98Z"/><path class="cls-2" d="M89.07,98c.27.41,1.9-.29,2-.08C90.8,97.42,89.68,98,89.07,98Z"/><path class="cls-2" d="M85.88,98c.06.11.42-.08.36-.19S85.82,97.93,85.88,98Z"/><path class="cls-2" d="M86.47,98.08c.22.43,2.28,0,2.6,0C88.72,97.43,86.72,98.56,86.47,98.08Z"/><path class="cls-2" d="M82.69,98c.09.18,1.26.09,1.3.09C85.29,98,82.57,97.79,82.69,98Z"/><path class="cls-2" d="M80.92,98.13c-.09.16,1.31.07,1.06.07C83.48,98.16,81.18,97.68,80.92,98.13Z"/><path class="cls-2" d="M79.62,98.26c.25.5,1.06-.15,1.07-.14C80.53,97.82,79.73,98.48,79.62,98.26Z"/><path class="cls-2" d="M80.83,52.43v0S80.83,52.41,80.83,52.43Z"/><path class="cls-2" d="M81.13,52.56c0,.07.15,0,.17,0C81.66,52.31,81.06,52.33,81.13,52.56Z"/><path class="cls-2" d="M81.83,52.43c0-.06-.09.13,0,.22S81.86,52.52,81.83,52.43Z"/><path class="cls-2" d="M82.8,52.46c.12,0,.79-.37.79-.37-.14-.42-.6.12-.86.16-.09,0-.84.21-.79.37C82.09,53.07,82.6,52.49,82.8,52.46Z"/><path class="cls-2" d="M84.3,52.39c.43-.26-.53-.14-.45.08S84.29,52.39,84.3,52.39Z"/><path class="cls-2" d="M86.75,52.56c.36-.21-.24-.19-.17,0C86.61,52.67,86.72,52.58,86.75,52.56Z"/><path class="cls-2" d="M87.62,52.19c0-.14-.17.13-.14.24S87.65,52.29,87.62,52.19Z"/><path class="cls-2" d="M88.34,52.26c0-.13-.17.14-.14.24S88.38,52.37,88.34,52.26Z"/><path class="cls-2" d="M88.69,52.41c.36-.15-.2-.24-.12,0C88.59,52.48,88.68,52.42,88.69,52.41Z"/><path class="cls-2" d="M88.86,52.38s.09-.13,0-.23S88.83,52.29,88.86,52.38Z"/><path class="cls-2" d="M89,52.36c.06.16.44-.08.45-.09C89.86,52,88.91,52.13,89,52.36Z"/><path class="cls-2" d="M59.81,88.29l0,0Z"/><path class="cls-2" d="M71.24,82c-.06-.1-.78-1-.86-1-.37.36.54.86.67,1.07s.92.9.86,1C72.28,82.73,71.43,82.33,71.24,82Z"/><path class="cls-2" d="M63.81,76.15a.32.32,0,0,1,.08-.2C63.63,76.16,63.66,76.2,63.81,76.15Z"/><path class="cls-2" d="M74.37,92.12s-.17-.06-.24,0S74.3,92.19,74.37,92.12Z"/><path class="cls-2" d="M74.22,92.27c-.08.08.19.11.27,0S74.29,92.19,74.22,92.27Z"/><path class="cls-2" d="M86.16,60.87h0c.1-.1.23-.21.36-.32s0-.06,0-.1Z"/><path class="cls-2" d="M75.32,73c.07-.12-.4-.16-.45-.07S75.27,73.11,75.32,73Z"/><path class="cls-2" d="M79.21,77s0,0,0,0S79.22,77,79.21,77Z"/><path class="cls-2" d="M89.18,88.17c-.06.06,0,.3.07.34C89.52,89.27,89.38,88,89.18,88.17Z"/><path class="cls-2" d="M88.63,89.9l0,0h0Z"/><path class="cls-2" d="M86.7,89.48c-.35.34.27.36.28.36S86.7,89.48,86.7,89.48Z"/><path class="cls-2" d="M87,90.86h0Z"/><path class="cls-2" d="M86.62,90.17c-.12.11.16.36.25.27S86.71,90.08,86.62,90.17Z"/><path class="cls-2" d="M82.56,58.88c-.29.33.42.3.42.29S82.56,58.88,82.56,58.88Z"/><path class="cls-2" d="M84.78,63.68c.1-.1-.27-.17-.35-.09S84.71,63.75,84.78,63.68Z"/><path class="cls-2" d="M91.14,59.75c-.4.39,1.17.87,1,1C92.49,60.43,91.06,59.83,91.14,59.75Z"/><path class="cls-1" d="M207.79,157V135a.3.3,0,0,1,.28-.32h.65a.3.3,0,0,1,.33.27v22a.31.31,0,0,1-.29.32h-.65a.3.3,0,0,1-.32-.29Z"/><path class="cls-1" d="M221,136.31a1.2,1.2,0,0,1,1.25-1.16h0a1.18,1.18,0,0,1,1.25,1.1s0,0,0,.06a1.21,1.21,0,0,1-1.18,1.23h-.08a1.23,1.23,0,0,1-1.29-1.16Zm.64,20.64V141.4a.31.31,0,0,1,.29-.32h.65a.3.3,0,0,1,.32.28V157a.31.31,0,0,1-.28.32H222a.31.31,0,0,1-.32-.29Z"/><path class="cls-1" d="M237.64,140v1a.14.14,0,0,0,.13.13h3.9a.3.3,0,0,1,.32.28,0,0,0,0,1,0,0v.52a.29.29,0,0,1-.27.32h-3.95a.15.15,0,0,0-.13.13V157a.29.29,0,0,1-.28.32h-.65a.3.3,0,0,1-.32-.29,0,0,0,0,1,0,0V142.37a.15.15,0,0,0-.13-.13h-2.1a.29.29,0,0,1-.32-.27v-.57a.29.29,0,0,1,.27-.32h2.15a.13.13,0,0,0,.13-.13v-1c0-3.45,1-5.22,4.64-5.22h.78a.3.3,0,0,1,.32.28v.52a.31.31,0,0,1-.28.33h-.75C238.26,135.83,237.64,137.28,237.64,140Z"/><path class="cls-1" d="M261.63,153.53a.27.27,0,0,1,.32-.22l.07,0,.42.13a.3.3,0,0,1,.24.35.19.19,0,0,1,0,.07,5.89,5.89,0,0,1-5.74,3.65,5.74,5.74,0,0,1-5.8-4.16,17.16,17.16,0,0,1-.35-4.23,18.8,18.8,0,0,1,.26-4,6.13,6.13,0,0,1,11.83.32,15.86,15.86,0,0,1,.19,3.64.31.31,0,0,1-.27.36H252.15a.12.12,0,0,0-.13.1v0a15.35,15.35,0,0,0,.16,3.1,4.53,4.53,0,0,0,4.8,3.67A4.79,4.79,0,0,0,261.63,153.53Zm-9.44-8a18.45,18.45,0,0,0-.17,2.78.14.14,0,0,0,.11.13h9.53a.12.12,0,0,0,.13-.11v0a14.41,14.41,0,0,0-.16-2.71,4.56,4.56,0,0,0-4.74-3.68,4.5,4.5,0,0,0-4.71,3.61Z"/><path class="cls-2" d="M172.54,149.83c1.22-.81,1-.74.33-.38s-1.84,1-2.56,1.43a21.5,21.5,0,0,1-2.84,1.32,10.53,10.53,0,0,1-3.42.61h-.6a1.11,1.11,0,0,1-.26,0c-.08,0,0,0,.29,0a16.63,16.63,0,0,0,2.43-.3,9.3,9.3,0,0,0,2.18-.72c.18-.09.22-.13.08-.11s-.47.12-1.06.26-1.18.25-1.71.32l-.4.07-.4,0-.38,0-.39,0-.4,0-.4,0h-.41l-.39,0a3.11,3.11,0,0,1-1.55-.66l-.27-.24-.1-.11s0,0,.13.12a3.47,3.47,0,0,0,.88.54l.08,0,.16,0,.21.05.21,0,.17,0h.09s0,0-.22-.05a.64.64,0,0,0,.2,0h1.23a10.36,10.36,0,0,0,1.12-.11c-.34.05-.34,0-.17,0a17.82,17.82,0,0,0,2.15-.44l.34-.1.34-.12a5.33,5.33,0,0,0,.64-.25l.53-.24a3.69,3.69,0,0,0,.4-.2l.23-.13.76-.42c-.08,0-.71.37-1.43.7a11.56,11.56,0,0,1-2,.73,3.88,3.88,0,0,1-.49.11l-.24.06-.25,0-.5.08-.5.06-.51,0-.5,0h-1a3,3,0,0,1-1.56-.57,4.27,4.27,0,0,1-1.18-1.32,4.7,4.7,0,0,1-.57-3.46,3.64,3.64,0,0,1,.77-1.53,4.22,4.22,0,0,1,1.38-1.06l.21-.1.1-.05.1,0,.44-.16.45-.13.23-.06.24,0,.47-.08.48-.05.24,0H165a10.7,10.7,0,0,1,3.8.61l.23.08.22.09.44.19c.29.14.58.27.86.44a12.74,12.74,0,0,1,1.62,1.09c.52.4,1,.85,1.5,1.31s1,.94,1.45,1.44,1.07,1.13,1.23,1.32-.06,0-.9-.87c-.53-.55-1-1.09-1.56-1.6s-1-1-1.59-1.42c-.27-.23-.55-.43-.83-.63s-.57-.39-.87-.55-.29-.18-.44-.25l-.46-.22c-.15-.08-.31-.13-.46-.2l-.23-.1-.24-.09-.48-.15-.49-.13-.24-.06-.25,0-.5-.08a11.85,11.85,0,0,0-2.06-.1,9.34,9.34,0,0,0-2,.26l-.49.13-.47.18a5.46,5.46,0,0,0-.86.46,2.72,2.72,0,0,0-.42.34l-.11.11-.11.11-.1.12a1,1,0,0,0-.09.13l-.16.23-.11.2-.07.13,0,.05,0,0,.07-.09a.8.8,0,0,1,.09-.14l0-.08.07-.09.16-.19.2-.2.23-.21.26-.21a6.44,6.44,0,0,1,.63-.36,5.79,5.79,0,0,1,.68-.29l.08,0,.09,0,.18,0,.32-.09.58-.11.13,0h.13l.27,0c.17,0,.35,0,.53,0l.54,0h.54a10.89,10.89,0,0,1,2.12.27l.51.14c.17,0,.33.11.5.16l.25.08.24.1c.16.07.33.13.48.21a12,12,0,0,1,1.83,1.07,24.37,24.37,0,0,1,3.25,2.92c1,1.07,2.08,2.2,3.28,3.23a14.94,14.94,0,0,0,1.75,1.33,11.46,11.46,0,0,0,2.06,1.06l.27.11.28.09.57.18a11.36,11.36,0,0,0,1.16.24,12.42,12.42,0,0,0,2.36.13l.6-.06.3,0,.3-.06.3-.05.29-.07.59-.17a7.8,7.8,0,0,0,2.18-1.13,6.4,6.4,0,0,0,1.64-1.8,6.87,6.87,0,0,0,.86-2.2,6.48,6.48,0,0,0-.12-2.84A6.59,6.59,0,0,0,192,143.9a7.18,7.18,0,0,0-2.23-1.71l-.3-.16-.32-.13-.31-.12-.16-.06-.16-.05-.63-.18-.63-.13-.27-.05-.28,0-.59-.05h-.59c-.21,0-.41,0-.62,0a9.1,9.1,0,0,0-2.13.46,13.3,13.3,0,0,0-2,.83,18.75,18.75,0,0,0-2,1.23c-.24.15-.72.5-1.16.83a6.17,6.17,0,0,0-.93.76c-.12.16.3.3.33.86,0,.2-.32.69-.28.77a1.54,1.54,0,0,0,.6.13,4,4,0,0,0,.6,0c-.32.1.89-.45.71-.36.93-.5,1.85-1.18,2.83-1.82q.72-.48,1.5-.9a6.5,6.5,0,0,1,1.59-.6l.2,0,.19,0,.2,0H186l.23,0,.44,0,.44.08.23,0,.21.06.43.13a6.28,6.28,0,0,1,1.59.81,5,5,0,0,1,1.21,1.26,4.51,4.51,0,0,1,.6,1.39,4.39,4.39,0,0,1-1.58,4.46,5.57,5.57,0,0,1-1.55.85l-.43.13-.22.06-.23,0-.45.08-.46,0a2.36,2.36,0,0,1-.46,0h-.47l-.46,0a3.57,3.57,0,0,1-.46,0l-.45-.07c-.15,0-.3-.07-.45-.1s-.57-.16-.86-.26a8.77,8.77,0,0,1-1.61-.76,9.06,9.06,0,0,1-.77-.49l-.36-.27-.19-.13-.18-.15A29.58,29.58,0,0,1,177,148c-.91-.93-1.83-1.89-2.85-2.78l-.39-.34-.4-.32c-.27-.22-.55-.42-.83-.62a14.34,14.34,0,0,0-1.81-1.07c-.32-.16-.65-.29-1-.42s-.34-.12-.5-.18l-.51-.17a13.27,13.27,0,0,0-2.07-.4l-.53,0-.52,0h-1.05l-.52,0-.52,0-.27,0-.26.05-.53.1-.52.13-.26.08a2.67,2.67,0,0,0-.26.09l-.51.19-.5.24a6.28,6.28,0,0,0-1.79,1.4,5.41,5.41,0,0,0-1.09,2,5.86,5.86,0,0,0-.2,2.24,6.63,6.63,0,0,0,2,4.13,5,5,0,0,0,1.86,1.11,4.67,4.67,0,0,0,1,.2h.49l.4,0c.37,0,0,0-.39,0h-.17l-.17,0-.28,0c-.15,0-.2-.06-.06-.06l.56,0,.7,0c.25,0,.51,0,.76,0l.36,0,.33-.05c.45-.08.23-.09,0-.08s-.65,0-.52,0l.28,0,.27,0,.58,0a6.06,6.06,0,0,0,.67-.1,7.27,7.27,0,0,0,.8-.22c-.87.14-1.58.21-2.31.27l-.55,0-.58,0h-.79l-.18,0a1.5,1.5,0,0,1-.37-.05.82.82,0,0,1-.35,0,3,3,0,0,1-.5-.17l-.26-.13-.25-.15-.22-.15a1.37,1.37,0,0,1-.2-.13,4,4,0,0,1-1.23-1.18,6.61,6.61,0,0,1-.84-1.68,6.69,6.69,0,0,1-.2-.77c0-.13,0-.15,0-.08s.06.23.11.45a6.92,6.92,0,0,0,.28.76,6.19,6.19,0,0,0,1,1.66,5.73,5.73,0,0,0,.54.56c.11.09.22.18.32.28a2,2,0,0,1,.31.13l.2.13.24.12a2,2,0,0,0,.25.13l.27.11a2.83,2.83,0,0,0,.5.13l.15,0h.49l.62,0h.32l.33,0,.68-.06a13.55,13.55,0,0,0,2.9-.58,14.73,14.73,0,0,0,2.78-1.24C171.05,150.8,171.83,150.29,172.54,149.83Zm-9.64,2.33c-.05,0,.06,0,.24,0h.59c.37,0,.57,0-.27,0A3.49,3.49,0,0,1,162.9,152.16Zm-1.45-.22s.3,0,.33.06-.05,0-.13,0a.36.36,0,0,1-.2-.06Zm-.86-.48s0,0,.13,0l.11.07.07.05s-.06,0-.14,0a.66.66,0,0,1-.17-.12Zm4.86.85s.08-.05.22-.09a1.36,1.36,0,0,1,.35-.07s-.08.06-.22.1a1,1,0,0,1-.35.05ZM159,149.39c0-.1,0-.1,0,0l.15.33c.13.27.31.59.33.66a1,1,0,0,0-.08-.11l-.16-.28-.1-.17-.08-.19-.09-.18-.07-.18-.11-.26c0-.06,0-.09,0-.07a.79.79,0,0,0,.06.22l.08.25a2.82,2.82,0,0,0,.14.35,5,5,0,0,1-.44-2,1,1,0,0,1,0-.24v-.23c0-.15,0-.29,0-.43a1.21,1.21,0,0,1,.05-.18l0-.17,0-.15c0-.05,0-.09,0-.13a3.73,3.73,0,0,1,.4-.83,1.49,1.49,0,0,1,.41-.49s0,0,0,.09l-.09.11a.79.79,0,0,0-.12.15c-.07.12-.17.24-.24.36L159,146a4.5,4.5,0,0,0-.24,1l0,.34,0,.31v.32a2.43,2.43,0,0,0,0,.38l0,.23c0,.08,0,.17.05.26S158.9,149.18,159,149.39Zm.84,2.14a3.42,3.42,0,0,1-.44-.49l-.16-.2a1.3,1.3,0,0,1-.11-.19,1.53,1.53,0,0,1-.13-.25.19.19,0,0,1,0-.1s0,0,.07.08l.15.23a1.42,1.42,0,0,1,.11.18l.15.21c.1.16.24.32.39.52s.35.31.51.42l.21.15.17.11a2.2,2.2,0,0,1,.31.21s-.13,0-.34-.15l-.19-.11-.2-.16a3.48,3.48,0,0,1-.47-.47Zm6.79-8.42-.43,0a4.07,4.07,0,0,1-.5,0l.1,0a1,1,0,0,1,.25,0,1.15,1.15,0,0,1,.58.09Zm-8.27,5.55s0,.08.09.28a.75.75,0,0,1,0,.16l0,.17a3.18,3.18,0,0,0,.1.33l.12.38a.31.31,0,0,1-.06-.13l-.08-.17-.05-.13,0-.14c0-.06-.07-.22-.11-.39a2.25,2.25,0,0,1-.06-.36Zm20.43,3.5c0,.05-.17-.11-.47-.35s-.65-.57-.95-.87c-.6-.6-1-1-.21-.27l.26.24.52.48.29.26.27.23a3.83,3.83,0,0,1,.29.28Zm-10.35-8.68s0,0,0,0l-.23,0-.31-.09-.33-.09c-.41-.08-.63-.16.22,0A4.33,4.33,0,0,1,168.41,143.48Zm-10.09,3.26a2.35,2.35,0,0,0,0,.65,1.09,1.09,0,0,1,0,.31,1.23,1.23,0,0,1-.08.39s0-.12-.05-.36a4.79,4.79,0,0,1,.06-.93,1.09,1.09,0,0,1,.05-.26l.06-.26c0-.16.11-.32.16-.46a2.68,2.68,0,0,1,.17-.34,1.74,1.74,0,0,1,.11-.18c.07-.07.07-.06,0,0s-.1.2-.19.36l-.06.13-.05.14-.11.28C158.4,146.43,158.35,146.61,158.32,146.74Zm1.8-2.85a1.81,1.81,0,0,1,.3-.25,2.29,2.29,0,0,1,.27-.17,1.11,1.11,0,0,1,.36-.13s0,0-.13.11l-.31.16-.22.12-.27.16c-.33.28-.55.53-.71.68s-.23.26-.25.26,0-.1.17-.28l.13-.14.17-.16a4.41,4.41,0,0,1,.49-.36Zm13.09,2.4c0,.08-.43-.26-.47-.34s.42.26.46.34Zm-10.06-3.59c.06,0-.1.05-.35.09l-.19,0-.2.05-.4.09a2,2,0,0,0-.3.08l-.11,0a4.55,4.55,0,0,1,.8-.23A3.68,3.68,0,0,1,163.15,142.7Zm1.54-.15a6.61,6.61,0,0,1-1,.08h-.39a3.08,3.08,0,0,1,.61-.07l.16,0h.24a2.17,2.17,0,0,1,.36,0Z"/><path class="cls-2" d="M160.91,151.21c0-.08.35.24.65.37l.18.09.08,0-.1,0-.14,0-.19-.1-.1-.06-.16-.1A.72.72,0,0,1,160.91,151.21Z"/><path class="cls-2" d="M160,150.19c0-.08.27.36.5.63a2.2,2.2,0,0,1,.2.23l-.08-.07-.11-.1a1.36,1.36,0,0,1-.16-.17l-.08-.1-.12-.16-.11-.16A.3.3,0,0,1,160,150.19Z"/><path class="cls-2" d="M159.38,148.88c0-.1.14.36.25.67a1.06,1.06,0,0,1,.09.25l-.06-.1a2.75,2.75,0,0,1-.15-.36A2.42,2.42,0,0,1,159.38,148.88Z"/><path class="cls-2" d="M159.23,147.32s0,.07,0,.24v.27c0,.1,0,.2,0,.29,0,.36,0,.56-.05-.18,0-.05,0-.19,0-.33A1.45,1.45,0,0,1,159.23,147.32Z"/><path class="cls-2" d="M159.51,146.13s0,0,0,0l-.05.15-.09.22c0,.08,0,.16-.07.23a2.1,2.1,0,0,0-.07.26.24.24,0,0,1,0-.12l.09-.36a2,2,0,0,1,.09-.22A.4.4,0,0,1,159.51,146.13Z"/><path class="cls-2" d="M166.93,151.88a5.77,5.77,0,0,1,.91-.32c.4-.14.63-.2-.19.11A4.89,4.89,0,0,1,166.93,151.88Z"/><path class="cls-2" d="M169.9,150.71a3.12,3.12,0,0,1,.94-.53C170.93,150.16,170.72,150.34,169.9,150.71Z"/><path class="cls-2" d="M169.9,150.71a4.27,4.27,0,0,1-1.35.67A7.71,7.71,0,0,1,169.9,150.71Z"/><path class="cls-2" d="M167.48,152.62l.44-.19a3,3,0,0,1,.5-.19l-.09.06a1.74,1.74,0,0,1-.85.32Z"/><path class="cls-2" d="M166.7,153c-.73.07-.85,0-.7,0l1-.18.3-.06.26-.06.29,0s0,0-.2.09l-.36.11Z"/><path class="cls-2" d="M168.81,152.23c-.05,0,.1-.09.28-.19a2,2,0,0,1,.44-.2c.05,0-.1.1-.27.2A2.53,2.53,0,0,1,168.81,152.23Z"/></svg>