<svg id="Group_83" data-name="Group 83" xmlns="http://www.w3.org/2000/svg" viewBox="0 0 273.71 102.58"><defs><style>.cls-1,.cls-2{fill:#7fb8b8;}.cls-2{fill-rule:evenodd;}</style></defs><title>habitat-logo-blue</title><g id="Group_59" data-name="Group 59"><g id="Group_50" data-name="Group 50"><path id="Path_10" data-name="Path 10" class="cls-1" d="M19.41,0l-.34.13.47-.08Z"/><path id="Path_11" data-name="Path 11" class="cls-1" d="M18.71.05c-.59-.2-1,.41-1.42.28.07,0,0,.06.1.08Z"/><path id="Path_12" data-name="Path 12" class="cls-1" d="M16.6.38c.2,0,.36,0,.31-.09a1.22,1.22,0,0,0-.33,0,2.2,2.2,0,0,0-.36,0,1.46,1.46,0,0,0-.39.12A2.48,2.48,0,0,1,16.6.38Z"/><path id="Path_13" data-name="Path 13" class="cls-1" d="M22.39,53.24c-.05-2.29-.14-4.59-.24-6.89v-31c.11-1.78.23-3.61.2-5.45l-.09.14a10.4,10.4,0,0,0-.1-2.73V6.75a1.42,1.42,0,0,1,.12-.54l0,.15a2,2,0,0,0-.15-1.17V3.38a2.7,2.7,0,0,0-.21-1,1.63,1.63,0,0,0-.25-.47,2,2,0,0,0-.52-.53c-.18-.16-.32-.28-.28-.42.49.25-.7-.56.47-.07A2.26,2.26,0,0,0,20.28.41c-.45-.06-.81,0-.74.12s-.25.22-.28.32H15.67V28.59H9.37A2.2,2.2,0,0,1,7.56,28a2.51,2.51,0,0,0,2,.52l2.17-.05c-.09,0-.12.06-.21.07a4.53,4.53,0,0,1,.91-.12c.08,0-.09.06-.19.08a8.46,8.46,0,0,0,1.67.06l1.7-.08a3.28,3.28,0,0,1,0-.83c0-.35-.12-.5-.19-.31,0-4.57-.1-9.46-.27-14.11,0-.23.09-.27.17-.2-.18-2-.24-4-.24-6.06,0-2.21.05-4.43.08-6.63h.05c.06,0,0,0-.13-.07S15,.62,15,.16h0c0,.53,0,1.22,0,1.64l.06.88a7.24,7.24,0,0,1,0,1.74l-.09-.15c-.06.86.23.18.11,1.07-.07.35-.11-.09-.12.08a52.61,52.61,0,0,0,.18,5.47c-.2.43,0,2-.2,2.66a4,4,0,0,0,.19,1.13c0,2.29,0,4.6,0,6.92q0,3.21.07,6.47l-5.13,0a2.94,2.94,0,0,1-2.1-.19c-.5-.4-.46-1.29-.43-2.16,0-1.77.14-3.6.07-5.43,0,0,0,0,0,0A39.48,39.48,0,0,1,7.5,16l-.17-1.2c.09-2.3.14-4.6.17-6.92s0-4.93,0-7.4H4.09A9.41,9.41,0,0,0,2.5.51,2.72,2.72,0,0,0,1,1.34,2.91,2.91,0,0,0,.24,2.92C.17,3.53.22,4,.2,4.49l0,3C.06,17.39-.21,26.05.3,35.66c0,0-.06.07-.08-.18.08,2.78-.06,5.3,0,7.92h0c.32,6.5,0,13.49.3,19.77V64H7.25c0-2.78,0-5.67,0-8.59s0-5.77-.08-8.6l.08,0c0-2,0-4,0-6s.07-3.81.11-5.72l3.4,0h3.6a1.4,1.4,0,0,1,1.1,1.6c0,.84,0,1.68,0,2.52.05,1.69.09,3.39.14,5.1,0,1.34.07,2.69.1,4v5.13c0,.33,0,.67,0,1a36.05,36.05,0,0,0-.07,4.53l.09,2.13v2.62H20.1c.69,0,1.34.09,2.17.12l.11-2.8.05-2.66C22.44,56.78,22.43,55,22.39,53.24ZM7.54,28a1.45,1.45,0,0,1-.22-.38A1.63,1.63,0,0,0,7.54,28Zm-.31-.64a.57.57,0,0,0,0,.14A.57.57,0,0,1,7.23,27.35ZM.63,9.8v1.59A14.06,14.06,0,0,1,.63,9.8Zm0,2.28v.48L.6,12Zm0,3.34v4.4a23.1,23.1,0,0,1,0-4.4Zm0,5.18V21H.58Z"/><path id="Path_14" data-name="Path 14" class="cls-1" d="M12.21,28.51h0Z"/></g><g id="Group_51" data-name="Group 51"><path id="Path_15" data-name="Path 15" class="cls-1" d="M101.19,39l0,0,.13.06Z"/><path id="Path_16" data-name="Path 16" class="cls-1" d="M101.46,39.39s.07,0,.09,0l-.36-.26C101,39.23,101.6,39.32,101.46,39.39Z"/><path id="Path_17" data-name="Path 17" class="cls-1" d="M101.43,39.47c-.08.1.09.14.14.17C101.44,39.6,101.61,39.45,101.43,39.47Z"/><path id="Path_18" data-name="Path 18" class="cls-1" d="M101.19,10.58l0,0,.13.07Z"/><path id="Path_19" data-name="Path 19" class="cls-1" d="M101.46,11l.09,0-.36-.26C101,10.86,101.6,11,101.46,11Z"/><path id="Path_20" data-name="Path 20" class="cls-1" d="M101.43,11.1c-.08.1.09.15.14.17C101.44,11.24,101.61,11.08,101.43,11.1Z"/><path id="Path_21" data-name="Path 21" class="cls-1" d="M109.2,37.19a3.37,3.37,0,0,1,.1.34l0-.11A1.28,1.28,0,0,0,109.2,37.19Z"/><path id="Path_22" data-name="Path 22" class="cls-1" d="M108.83,36.09s0,0-.06.08a7.85,7.85,0,0,1,.49.78C109.42,36.52,108.75,36.35,108.83,36.09Z"/><path id="Path_23" data-name="Path 23" class="cls-1" d="M108.51,35.39c.17.06.15.57.3.46A.47.47,0,0,0,108.51,35.39Z"/><path id="Path_24" data-name="Path 24" class="cls-1" d="M108.81,37.51c-.12,0-.23-.15-.33-.17a5.32,5.32,0,0,0-3.69-5,5.38,5.38,0,0,0,3.69-5.13V17.39c0,.91.08,1.82.1,2.75,0-.05,0-.07-.07-.12a1.58,1.58,0,0,1,.12.52c0,.05-.06-.05-.07-.11-.22.72.14,2.1,0,2.55,0,.2.12.29.19.18,0,1.33.06,2.7.09,4.08a6.47,6.47,0,0,1-1.41,4.11c-.11.09-.18,0-.21,0-.14.17-.29.35-.45.51l-.25.22a.76.76,0,0,1-.09.09,1.11,1.11,0,0,1-.34.22,2.5,2.5,0,0,1,.38.15l.08,0,.12.09a3.17,3.17,0,0,1,.49.4,5.71,5.71,0,0,1,1.37,2.09c.13.06,0-.28.18-.08-.23-.86-.93-1.27-1.34-1.92h.14c-.39-.43-.24.09-.6-.39-.14-.2.12-.06,0-.12l-.22-.16c-.06,0,0,0,0,0l-.07,0-.16-.05s0,0,.06-.18a.34.34,0,0,0,.14,0A3,3,0,0,0,107,32a4.63,4.63,0,0,1,.74-.6c.16-.29.34-.54.3-.71a6.23,6.23,0,0,0,1-2.89c0-1.07,0-1.92,0-2.9,0-1.9-.08-3.8-.07-5.71-.39-1.78.07-3.93-.06-6h0a13.29,13.29,0,0,1-.09-2.52l-.17-.7a8.81,8.81,0,0,0-.33-3.82,8.18,8.18,0,0,0-2.1-3.32,8.62,8.62,0,0,0-3.42-2A14.5,14.5,0,0,0,99,.39L93.78.28,91.27.23H88.14l0,2.14c0,.5,0,1,0,1.52,0,1,.12,2.05.21,3.1,0,0-.05,0-.07-.11.08,1.61-.06,3.08,0,4.6h0c.32,3.77,0,7.84.3,11.47,0,4.42,0,9.42.1,14.09h-.08c.17,3.75-.24,7.36-.12,11.1-.12,2.68.14,5.46.23,8.22v3c0,.19,0,.39,0,.58a17.27,17.27,0,0,0,0,3.87v.13h4a45.1,45.1,0,0,0,6.67.26,9.7,9.7,0,0,0,3.42-.52,7.31,7.31,0,0,0,1.09-.53A8.08,8.08,0,0,0,108.49,56V46.84a22.26,22.26,0,0,0,.2-3.16l-.1.07a3.26,3.26,0,0,0-.1-1.58v-.34a.54.54,0,0,1,.13-.3l0,.08c.11-.21,0-.45-.15-.68V39.19a.54.54,0,0,0,0-.18v-.49c0-.14.07-.25.21-.26,0,.28.2-.43.3.19C109,38.27,109,37.43,108.81,37.51ZM100.67,7.88c.24.28.39.58.61.82l.06-.07c-.06.21.21.28.34.39l.06.13a.22.22,0,0,1-.08.13l0,0c-.07.09.06.13.19.17a3.91,3.91,0,0,1,.15.83s-.08.07-.2.08-.18.14-.3,0a.19.19,0,0,0,.1.26.12.12,0,0,0,.1,0l.33.06v7.91c0-.3-.08-.61-.1-.93,0,0,0,0,.07,0s-.14-.12-.13-.18a.08.08,0,0,1,.08,0c.22-.24-.14-.72,0-.87a.13.13,0,0,0-.18-.06h0a21.77,21.77,0,0,0-.27-2.79c0-.05.09-.05.17,0a4.74,4.74,0,0,1-.16-2.42c-.1,0-.1.09-.2,0-.12.26.23.48.06.71l-.09,0c-.06.17.23,0,.11.21s-.12,0-.12,0a2.11,2.11,0,0,0,.18,1.08c-.2.09,0,.39-.2.53.07.09.05.19.18.22-.1,1.27.09,2.57.08,3.87.38.61-.08,1.34,0,2.06h0a1.69,1.69,0,0,1,.1.86l.16.24c-.35,1.68-.08,3.46-.26,5.1a3,3,0,0,1-1,2,5.8,5.8,0,0,1-2.23.83s0-.06,0-.08c-.55.08-1-.06-1.57,0v0a4.57,4.57,0,0,1-.74.12,4.71,4.71,0,0,1-.53,0A8.08,8.08,0,0,0,95.29,27c0-1.5,0-3.2-.1-4.8h.07c-.16-1.27.25-2.5.12-3.78a12.6,12.6,0,0,0-.22-2.8v-1c0-.07,0-.13,0-.2a2.06,2.06,0,0,0,0-1.32v-1.4a5.28,5.28,0,0,0,.27-2.16,10.4,10.4,0,0,0-.15-1.12l-.12-.6V7.34h3.51A3.8,3.8,0,0,1,100.67,7.88Zm.26,20.72H101l-.05.06a.13.13,0,0,0,0,0Zm.2-.14a1,1,0,0,1,.35-.56l.09-.1A2.92,2.92,0,0,1,101.13,28.46Zm.74-1.52a.41.41,0,0,1,0-.19A1.8,1.8,0,0,0,101.87,26.94Zm-.05.19v0Zm-1.1,29.79s0,0,0,0h.06ZM102,47c0-.31-.07-.62-.1-.94,0,0,.06,0,.07,0s-.13-.12-.12-.18.07,0,.08,0c.22-.25-.14-.72,0-.87a.14.14,0,0,0-.18-.07h0a22.1,22.1,0,0,0-.27-2.8s.09-.05.17,0a4.63,4.63,0,0,1-.16-2.42c-.1,0-.1.08-.2,0-.12.26.23.48.06.71l-.09,0c-.06.17.23,0,.11.21s-.12,0-.12,0a2.15,2.15,0,0,0,.17,1.09c-.2.08,0,.39-.2.52.08.1.06.19.19.23-.1,1.27.09,2.57.08,3.88.38.61-.08,1.34,0,2.07h0a1.58,1.58,0,0,1,.09.86l.17.24c-.35,1.68-.08,3.48-.27,5.11a2.41,2.41,0,0,1-1.22,1.85,8.45,8.45,0,0,1-2.36.7s0-.06,0-.08c-.56.08-1.06-.06-1.58,0v0a5,5,0,0,1-.94.14,10.14,10.14,0,0,0-.16-2.4c0-1.52,0-3.22-.1-4.82h.07c-.16-1.28.25-2.52.13-3.79a13.17,13.17,0,0,0-.23-2.81v-1c0-.07,0-.13,0-.2a2.09,2.09,0,0,0,0-1.33v-1.4a7.06,7.06,0,0,0,0-3.92v-.18h3.51a3.46,3.46,0,0,1,2.25.71c.2.31.3.65.49.93l.07-.07c-.09.2.16.32.28.43s0,.12,0,.17a.27.27,0,0,1-.08.1l0,0c-.09.09,0,.14.18.19a4.81,4.81,0,0,1,.1.84s-.08.06-.2.07-.19.15-.3,0c0,.05,0,.31.19.3l.33,0Zm-.14,8.28,0,.11,0-.11Zm-.09.31,0,.09a.41.41,0,0,0,0-.11Zm-.3.62a2.59,2.59,0,0,1-.56.63.94.94,0,0,1,.44-.52ZM97.65.86h-.92A3.54,3.54,0,0,1,97.65.86Zm-1.32,0h-.28l.33,0Zm-1.94,0H91.83a7.85,7.85,0,0,1,2.56,0Zm-3,0h-.2s0,0,0-.06Z"/><path id="Path_25" data-name="Path 25" class="cls-1" d="M108.56,20.44v0S108.56,20.4,108.56,20.44Z"/></g><g id="Group_52" data-name="Group 52"><path id="Path_26" data-name="Path 26" class="cls-1" d="M138,0l-.17.13.23-.08Z"/><path id="Path_27" data-name="Path 27" class="cls-1" d="M137.67.05c-.29-.2-.51.41-.7.28,0,0,0,.06.05.08Z"/><path id="Path_28" data-name="Path 28" class="cls-1" d="M136.78.29a.35.35,0,0,0-.42.14C136.45.3,136.83.47,136.78.29Z"/><path id="Path_29" data-name="Path 29" class="cls-1" d="M140.68,41.89V39.37c0-.16,0-.33,0-.49a12.57,12.57,0,0,0,0-3.3V32.1a42,42,0,0,0,0-9.64V7.23a16.12,16.12,0,0,0,.2-2.68l-.09.06a2.39,2.39,0,0,0-.11-1.35,1.43,1.43,0,0,0,0-.29.64.64,0,0,1,.07-.27l0,.06c.07-.2-.13-.39-.32-.5h0a2.33,2.33,0,0,0-.89-1,.67.67,0,0,0-.22-.13L139.09,1c-.2-.06-.36-.12-.34-.33.26.06-.37-.27.24-.24-.16-.13-1-.16-.92.07s-.11.22-.13.32H134.2v16c0-.77-.07-1.54-.1-2.33,0,0,.06.06.07.11a1.21,1.21,0,0,1-.12-.45s.06,0,.08.09c.22-.61-.14-1.78,0-2.16,0-.17-.12-.25-.19-.15-.06-2.25-.1-4.66-.27-6.95,0-.11.09-.13.17-.1a14.92,14.92,0,0,1-.22-2l0-1V.29l2.55.07c.08-.1-.2-.1,0-.2a2.49,2.49,0,0,0-.9,0l-.21,0-.36,0a4.08,4.08,0,0,1-.78,0l.07-.1c-.55,0-.36.07-.41.12a.82.82,0,0,1,0,.41c-.08.25-.12-.16-.12,0,0,.62,0,1.25,0,1.87a6,6,0,0,0,.15,1.33c-.2.21,0,1-.2,1.3.08.23.06.47.19.56-.1,3.16.09,6.39.08,9.63.38,1.52-.08,3.33.05,5.13,0,0,0,0,0,0h0a9.6,9.6,0,0,1,.09,2.14l.17.6c-.34,4.21-.1,8.51-.24,12.8a106.69,106.69,0,0,0,.13,13.85s-.05,0-.07-.09c.08,1.37-.06,2.61,0,3.9h0a47.28,47.28,0,0,1,.14,4.91c0,.82,0,1.64,0,2.45l0,1.2a1.58,1.58,0,0,0,.45,1.17,1.93,1.93,0,0,0,1.44.64c.53,0,1,0,1.56,0h3.38c0-1.88-.07-3.85-.1-5.76h.07c-.16-3.17.25-6.24.13-9.41C141,46.59,140.78,44.23,140.68,41.89Zm-6.48-4.78v.79A3.48,3.48,0,0,1,134.2,37.11Zm0,1.13v.23l0-.28Zm0,1.64v2.17a5.66,5.66,0,0,1,0-2.17Zm0,2.55v.18h0Z"/><path id="Path_30" data-name="Path 30" class="cls-1" d="M134.12,14.25h0S134.13,14.28,134.12,14.25Z"/></g><g id="Group_55" data-name="Group 55"><path id="Path_31" data-name="Path 31" class="cls-1" d="M189.37,5.54C189,6.35,188,7.25,186,7.25h-5a1.67,1.67,0,0,0-1.62,1.53V63.89H174.7c-1.53,0-1.8-.9-1.8-1.35V7.25h-9.1V2.84a2,2,0,0,1,2-2h25.76Z"/><g id="Group_54" data-name="Group 54"><path id="Path_32" data-name="Path 32" class="cls-1" d="M189.37,5.54C189,6.35,188,7.25,186,7.25h-5a1.67,1.67,0,0,0-1.62,1.53V63.89H174.7c-1.53,0-1.8-.9-1.8-1.35V7.25h-9.1V2.84a2,2,0,0,1,2-2h25.76Z"/><g id="Group_53" data-name="Group 53"><path id="Path_33" data-name="Path 33" class="cls-1" d="M190.11,5.89l.08-.06,0-.25Z"/><path id="Path_34" data-name="Path 34" class="cls-1" d="M190.45,4.47s-.06,0-.1,0l0,.91C190.67,5.15,190.23,4.64,190.45,4.47Z"/><path id="Path_35" data-name="Path 35" class="cls-1" d="M190.59,4.26a.51.51,0,0,0,.09-.54C190.75,3.88,190.39,4.25,190.59,4.26Z"/><path id="Path_36" data-name="Path 36" class="cls-1" d="M166.51.37h0Z"/><path id="Path_37" data-name="Path 37" class="cls-1" d="M163.89,6.45l.14,0a10.21,10.21,0,0,1-.1-2.14l0-1.13a3.38,3.38,0,0,1,.1-1.05l0,.1a1.93,1.93,0,0,1,2-1.25L168.75,1l5.42-.2c-.06,0-.08.05-.14.07a1.94,1.94,0,0,1,.58-.12s-.06.06-.12.08c.78.22,2.29-.15,2.78,0,.22,0,.32-.11.19-.18,2.9-.06,6-.1,8.94-.28.14,0,.17.09.13.17C187.35.4,188.18.33,189,.3l1.31,0,2.11,0c-.53,1.08-1.06,2.17-1.58,3.25,0,.13.2-.2.18.08a3.9,3.9,0,0,0,.44-1.08,5.8,5.8,0,0,1,.28-.73,6.67,6.67,0,0,1,.46-.88l0,.11c.46-.87-.1-.19.22-.78l-.19,0c-.3-.07.26-.11.08-.12a25.69,25.69,0,0,0-4.47.18c-.27-.2-1.25,0-1.68-.2-.3.08-.6.06-.72.19-4.06-.11-8.22.09-12.39.07-1.95.39-4.28-.07-6.6.06a0,0,0,0,1,0,0l-.62.06a2.83,2.83,0,0,0-.81.15,2.64,2.64,0,0,0-1.31,1,2.37,2.37,0,0,0-.16.88c-.11.85-.1,1.58-.14,2.38l0,1.19,0,1.58,9.07,0,0,2.22a173.67,173.67,0,0,0,.13,17.82s-.06,0-.07-.12c.08,1.76-.06,3.36,0,5h0c.31,4.11-.05,8.55.3,12.51,0,4.82,0,10.27.1,15.37h-.08c.05.78,0,1.53.07,2.32a1.35,1.35,0,0,0,.7.94,2.64,2.64,0,0,0,1.14.26l2.29.07,2.53.06V62.44l0-1.46c.18-4.19-.44-8.62-.2-12.84.37-2.62-.43-6,0-8.5a79.75,79.75,0,0,0-.15-15c.21-4.66-.32-9.3.1-13.8a11.38,11.38,0,0,1-.06-1.65,1.78,1.78,0,0,1,.68-1.54,1.43,1.43,0,0,1,.79-.3,8.12,8.12,0,0,1,.86,0,17.63,17.63,0,0,0,1.78,0l-.09-.1c.86.29,1.9-.4,2.44,0l-.09,0c.46.22,1-.52,1.3-.32l0-.11c.51-.13.08.11.5.06.15-.06,0-.19.32-.24.11.2.42,0,.69-.15s.49-.42.68-.27c-.24.24.52-.26,0,.37a1.83,1.83,0,0,0,.49-.55c.14-.26.18-.52.07-.52-.17-.17-.2-.55-.58-.14l.09.17c-.23.07-.14.07-.27,0-.42.49-.68.33-1.07.46,0,0,0,0,0,0h0c-.17.32-.64.35-.89.35l-.11-.07c-.16-.15-.7.45-.53.11-1.4.1-3.15.08-4.78.09a2.32,2.32,0,0,1-.69.07c-.32,0-.52.12-.27.19a1.39,1.39,0,0,0-1.27.41,2.13,2.13,0,0,0-.66,1.26.15.15,0,0,1,0-.16,1.17,1.17,0,0,0-.13.44,1.1,1.1,0,0,0,0,.25,1.86,1.86,0,0,0,.08.41,1.1,1.1,0,0,1-.08.92c.3.13-.1,1.51.26,2-.07.1-.13.14-.18.1,0,1.5-.12,3.15-.13,4.41.26,1.08-.12,2.62.24,3.55a13.88,13.88,0,0,0-.08,3.09l0-.1a17.74,17.74,0,0,0,.27,3.56c-.35.35-.28.88-.39,1.4.16.81.11,2.45.26,3.68-.16.19.07,1-.16,1.08a55.37,55.37,0,0,1-.05,11.44l0-.07c.13.48.41,1,.58,1.52,0,0-.06,0-.06-.06.05.67-.19,1.3-.14,2,0,0,0,0-.08-.12a17.7,17.7,0,0,0,0,2.06l-.07,0,.09.48c-.08,0-.19,0-.17-.29,0,2.24,0,4.5.07,6.78s.12,4.29.18,6.45l-1.6,0h-2l.22-.08c-.38,0-.79.1-1.11.11,0,0,.06-.05.11-.06-.64-.12-1.06-.39-1.11-.91,0-.74-.08-1.48-.06-2.2,0,0,.11.22.15,0-.21-1.06.28-1.7-.16-2.24a.08.08,0,0,1,.11,0,.07.07,0,0,1,0,.06c-.14-2.95-.13-6-.06-8.95-.4-2.47,0-5.24-.36-7.81h.08c-.27-3.33,0-6.86,0-10.31,0-1.43-.06-2.4-.07-3.84l.1,0c-.38-2.42.34-5.1-.08-7.62l.14.17c-.21-.39.07-1.53-.29-1.38L173,18c-.47-1.72.22-3.13-.09-5.23l.09.13a5.86,5.86,0,0,1,0-1.62c0,.06,0,0,.06.17a10,10,0,0,0,.13-2.05l0-1L173,7.16c-.55,0-1,0-1.49,0l.21-.16c-.89.19-2.53,0-3.7.1l.07-.07-.6.1V7c-.63,0-1.24,0-1.85,0l-1.71.08Z"/><path id="Path_38" data-name="Path 38" class="cls-1" d="M174.49.78h0S174.45.79,174.49.78Z"/><path id="Path_39" data-name="Path 39" class="cls-1" d="M187.69,6.25l.15,0S187.74,6.23,187.69,6.25Z"/></g></g></g><g id="Group_56" data-name="Group 56"><path id="Path_40" data-name="Path 40" class="cls-1" d="M262.27,44.67h0a.08.08,0,0,1,0-.05Z"/><path id="Path_41" data-name="Path 41" class="cls-1" d="M245.75,6.57a12.7,12.7,0,0,0,.1-2.22l0-1.13A2.23,2.23,0,0,1,246,2.08l-.08.08A2.19,2.19,0,0,1,248.23.69l2.69.08,2.55.09h20.24l-2.09,4.52c.09,0,.15.1.11.39l-.2,0c0,.25,0,.17,0,.3-.48.64-.47.86-1,1.27,0,0,0,0,0,0a6.66,6.66,0,0,0-1.25.37l-.11.12c-.18.23-.94-.27-.67,0-1.56,0-3.2-.07-4.87-.07a3,3,0,0,0-.66-.07c-.17,0-.3,0-.19-.13a3.93,3.93,0,0,0-.5.57,1.64,1.64,0,0,0-.23.64.05.05,0,0,0,.05-.05h0c0,.13.06,0,.07.16a1.06,1.06,0,0,1,0,.25,1.86,1.86,0,0,1-.08.41,1.1,1.1,0,0,0,.08.92c-.3.13.1,1.51-.26,2,.07.1.13.13.18.1,0,1.5.12,3.14.13,4.41-.26,1.08.12,2.61-.24,3.54a13.89,13.89,0,0,1,.08,3.09l0-.1a18.39,18.39,0,0,1-.28,3.56c.35.36.29.88.4,1.41-.17.81-.12,2.44-.26,3.68.16.19-.07,1,.16,1.08a55.27,55.27,0,0,0,0,11.43c-.14.47-.4,1-.57,1.47,0,0,.06,0,.06-.06,0,.68.19,1.31.15,2,0,0,0,0,.07-.11a17.53,17.53,0,0,1,0,2l.06,0-.09.47c.08,0,.2,0,.17-.28,0,2.23,0,4.5-.07,6.78L262,60.45l-.05,1.72,0,2.15-2.47,0h-2l.22.07c-.39-.05-.76-.07-1.2-.16,0,0,.06.07.12.09a2.08,2.08,0,0,1-1.29-.42,1.62,1.62,0,0,1-.61-1.33c0-.75.08-1.48.06-2.2,0,0-.11.22-.15,0,.21-1.06-.28-1.7.16-2.23a.08.08,0,0,0-.11,0,.08.08,0,0,0,0,.06c.14-2.95.13-6,.06-8.95.4-2.47,0-5.24.36-7.81h-.08c.27-3.32,0-6.85,0-10.3,0-1.44.07-2.4.07-3.84l-.1,0c.38-2.42-.34-5.09.08-7.62l-.14.18c.2-.37,0-1.38.23-1.38v-.23l0-.22c0-.09,0-.18,0-.27V14.9a10.94,10.94,0,0,1,0-1.81v-.3l0,.08c0-.17,0-.34,0-.52v-1a.34.34,0,0,0,0-.1c0,.06,0,0-.06.17a10,10,0,0,1-.13-2c0-.35,0-.7,0-1.06l.07-1c-.39,0-.83,0-1.3,0l.21.16c-.9-.19-2.54,0-3.71-.1l.07.07-.6-.1v.15c-.63,0-1.24,0-1.85,0l-1.92-.08,0-.9Zm25.1-.13c-.11.09-.23.17-.35.25l.07,0a1.86,1.86,0,0,0,.28-.21ZM269,7.29l.09.1c.57-.08.05-.13.46-.27.15,0,.11.19.42,0,0-.16.15-.26.37-.37a4.39,4.39,0,0,1-1.95.48c.25.12.48.22.61.06Zm-1.58,0h-.37a1.15,1.15,0,0,0,.37,0Zm-5.93,3.6a10,10,0,0,0,.07-1.64A1.85,1.85,0,0,1,262,7.68a1.8,1.8,0,0,0-.56,1.11V27c.05-.79.11-1.58.16-2.37-.21-4.65.33-9.3-.1-13.8Zm0,28.79c0-.07,0-.15,0-.22v4.49a19.76,19.76,0,0,0,0-4.28Zm0,9.13V52c0-1.1,0-2.18,0-3.25Z"/><path id="Path_42" data-name="Path 42" class="cls-1" d="M270.61,7.37s-.12.09-.18.13Z"/></g><g id="Group_57" data-name="Group 57"><path id="Path_43" data-name="Path 43" class="cls-2" d="M220.22,65.06l0,.14A.17.17,0,0,0,220.22,65.06Z"/><path id="Path_44" data-name="Path 44" class="cls-2" d="M218.38,64.6v0S218.41,64.61,218.38,64.6Z"/><path id="Path_45" data-name="Path 45" class="cls-2" d="M220.18,65.2s0,0,0,0S220.18,65.22,220.18,65.2Z"/><path id="Path_46" data-name="Path 46" class="cls-2" d="M221.41,55.77c.08,0-.09-.11-.16-.1S221.33,55.79,221.41,55.77Z"/><path id="Path_47" data-name="Path 47" class="cls-2" d="M221.32,56.39c-.12,0,0,.35,0,.36C221.52,57.11,221.49,56.36,221.32,56.39Z"/><path id="Path_48" data-name="Path 48" class="cls-2" d="M221.26,57.15c-.08,0,.08.11.16.1S221.33,57.13,221.26,57.15Z"/><path id="Path_49" data-name="Path 49" class="cls-2" d="M221.35,58s-.09-.08-.16-.07S221.28,58,221.35,58Z"/><path id="Path_50" data-name="Path 50" class="cls-2" d="M221.12,58.72c-.3.06.17.16.17.16S221.12,58.72,221.12,58.72Z"/><path id="Path_51" data-name="Path 51" class="cls-2" d="M221,59.27s.09.08.16.07S221.1,59.26,221,59.27Z"/><path id="Path_52" data-name="Path 52" class="cls-2" d="M221.23,59.73c.05,0-.08-.08-.15-.06S221.16,59.75,221.23,59.73Z"/><path id="Path_53" data-name="Path 53" class="cls-2" d="M221,60.19s0,.09,0,.1C221.08,60.58,221.17,60.15,221,60.19Z"/><path id="Path_54" data-name="Path 54" class="cls-2" d="M220.9,60.85c-.07,0,.09.11.16.1S221,60.83,220.9,60.85Z"/><path id="Path_56" data-name="Path 56" class="cls-2" d="M221,61.7s-.08-.09-.15-.07S220.93,61.71,221,61.7Z"/><path id="Path_57" data-name="Path 57" class="cls-2" d="M220.85,62h0Z"/><path id="Path_58" data-name="Path 58" class="cls-2" d="M220.83,63c-.07,0,.09.12.17.1S220.91,63,220.83,63Z"/><path id="Path_60" data-name="Path 60" class="cls-2" d="M220.36,64.22c.2,0-.34-.26-.19-.29C219.84,64,220.37,64.22,220.36,64.22Z"/><path id="Path_61" data-name="Path 61" class="cls-2" d="M220.43,66.28c.11,0-.08-.15-.16-.13S220.36,66.3,220.43,66.28Z"/><path id="Path_62" data-name="Path 62" class="cls-2" d="M220.29,66.34c-.3.07.16.17.17.17S220.29,66.34,220.29,66.34Z"/><path id="Path_63" data-name="Path 63" class="cls-2" d="M219.88,64c-.07,0,.09.12.16.1S220,64,219.88,64Z"/><path id="Path_64" data-name="Path 64" class="cls-2" d="M219.92,65.76c-.1,0,.09.14.17.13S220,65.74,219.92,65.76Z"/><path id="Path_66" data-name="Path 66" class="cls-2" d="M219.71,65.24s0,.08,0,.1C219.81,65.63,219.9,65.19,219.71,65.24Z"/><path id="Path_67" data-name="Path 67" class="cls-2" d="M219.82,67.83h0Z"/><path id="Path_68" data-name="Path 68" class="cls-2" d="M220,69c.28-.07-.24-.58-.21-.59C219.39,68.49,220,69,220,69Z"/><path id="Path_69" data-name="Path 69" class="cls-2" d="M219.52,67.69c.08,0-.08-.11-.16-.1S219.45,67.71,219.52,67.69Z"/><path id="Path_70" data-name="Path 70" class="cls-2" d="M219.54,67.85c.05,0-.08-.08-.15-.06S219.47,67.87,219.54,67.85Z"/><path id="Path_71" data-name="Path 71" class="cls-2" d="M219,65.89c-.05,0,0,.12,0,.13C219.14,66.42,219.22,65.85,219,65.89Z"/><path id="Path_72" data-name="Path 72" class="cls-2" d="M219,66.78c-.35,0-.12.16,0,.16S219.25,66.77,219,66.78Z"/><path id="Path_74" data-name="Path 74" class="cls-2" d="M218.76,66.29s.09.08.16.06S218.84,66.27,218.76,66.29Z"/><path id="Path_75" data-name="Path 75" class="cls-2" d="M218.58,66c-.1,0,.09.15.16.13S218.66,66,218.58,66Z"/><path id="Path_76" data-name="Path 76" class="cls-2" d="M218.51,66.75c-.1,0,.09.14.16.13S218.59,66.73,218.51,66.75Z"/><path id="Path_77" data-name="Path 77" class="cls-2" d="M218.41,67.27c-.07,0,.09.11.17.1S218.49,67.25,218.41,67.27Z"/><path id="Path_79" data-name="Path 79" class="cls-2" d="M217.86,67.77c-.33,0,.15.23.16.1S218,67.76,217.86,67.77Z"/><path id="Path_80" data-name="Path 80" class="cls-2" d="M218,67.6c.09,0-.17-.16-.17-.16C217.53,67.5,218,67.6,218,67.6Z"/><path id="Path_81" data-name="Path 81" class="cls-2" d="M217.88,68.13h0Z"/><path id="Path_82" data-name="Path 82" class="cls-2" d="M217.76,68.22c-.08,0,.08.12.16.1S217.83,68.21,217.76,68.22Z"/><path id="Path_83" data-name="Path 83" class="cls-2" d="M217.18,65.7c-.08,0,.08.12.16.1S217.25,65.69,217.18,65.7Z"/><path id="Path_85" data-name="Path 85" class="cls-2" d="M217.23,66.13h0Z"/><path id="Path_86" data-name="Path 86" class="cls-2" d="M216.53,61.23s.09.08.16.06S216.6,61.21,216.53,61.23Z"/><path id="Path_87" data-name="Path 87" class="cls-2" d="M216.56,61.49c-.05,0-.08.4.18.26S216.66,61.49,216.56,61.49Z"/><path id="Path_89" data-name="Path 89" class="cls-2" d="M216.47,62.05s-.15.33,0,.29S216.82,62.09,216.47,62.05Z"/><path id="Path_90" data-name="Path 90" class="cls-2" d="M216.51,62.41s-.22.08-.14.1C216.66,62.56,216.8,62.4,216.51,62.41Z"/><path id="Path_91" data-name="Path 91" class="cls-2" d="M216.54,62.7s0,0,0,0Z"/><path id="Path_94" data-name="Path 94" class="cls-2" d="M216.63,63.48s-.09-.08-.16-.06S216.56,63.5,216.63,63.48Z"/><path id="Path_95" data-name="Path 95" class="cls-2" d="M217.28,69.4s-.09-.08-.16-.06S217.21,69.42,217.28,69.4Z"/><path id="Path_96" data-name="Path 96" class="cls-2" d="M216.45,63.22s-.09-.08-.16-.06S216.38,63.24,216.45,63.22Z"/><path id="Path_97" data-name="Path 97" class="cls-2" d="M216.34,63.65c-.45.1.39.68.23.72C216.93,64.29,216.24,63.67,216.34,63.65Z"/><path id="Path_98" data-name="Path 98" class="cls-2" d="M216.14,19.7c-.38.07,0,.73,0,.73C216.32,20.39,216,19.73,216.14,19.7Z"/><path id="Path_99" data-name="Path 99" class="cls-2" d="M215.47,22.64c.5-.09.2-2.06.44-2.1C215.3,20.65,215.78,22.59,215.47,22.64Z"/><path id="Path_100" data-name="Path 100" class="cls-2" d="M215.29,22.75c-.09,0,0,.29.08.28S215.37,22.73,215.29,22.75Z"/><path id="Path_101" data-name="Path 101" class="cls-2" d="M215.16,23.21c-.06,0-.08.26-.09.3C215,24.26,215.34,23.18,215.16,23.21Z"/><path id="Path_102" data-name="Path 102" class="cls-2" d="M214.94,24s0,.22.1.2S215,24,214.94,24Z"/><path id="Path_103" data-name="Path 103" class="cls-2" d="M213.6,28.78s0,.22.1.2S213.67,28.77,213.6,28.78Z"/><path id="Path_105" data-name="Path 105" class="cls-2" d="M218.69,9.45s.51-1.32.54-1.32C218.9,8.18,218.63,9.24,218.69,9.45Z"/><path id="Path_106" data-name="Path 106" class="cls-2" d="M217.47,15s0-.21-.1-.2S217.39,15,217.47,15Z"/><path id="Path_108" data-name="Path 108" class="cls-2" d="M217.07,15.83c-.06,0-.08.26-.09.31C216.88,16.89,217.25,15.8,217.07,15.83Z"/><path id="Path_110" data-name="Path 110" class="cls-2" d="M216.53,17.74c-.14,0-.23.82-.23.84C216.18,19.46,216.71,17.71,216.53,17.74Z"/><path id="Path_111" data-name="Path 111" class="cls-2" d="M213,30.49c-.27,1-.43,1.48-.64,2.29a10.41,10.41,0,0,0-.16,1.12c.37-.07.55-2,.63-2.22s.44-2.25.47-2.26C213.09,29.45,213,30.23,213,30.49Z"/><path id="Path_112" data-name="Path 112" class="cls-2" d="M218.63,9.68c-.27.05-.27,1-.34,1.22s0,1.16-.18,1.19C218.67,12,218.32,9.74,218.63,9.68Z"/><path id="Path_114" data-name="Path 114" class="cls-2" d="M210.51,22.91c.09,0,0-.43,0-.43C210.14,22.54,210.5,22.91,210.51,22.91Z"/><path id="Path_118" data-name="Path 118" class="cls-2" d="M215,5.13c-.11,0-.25.89-.25.92C214.64,6.93,215.3,5.08,215,5.13Z"/><path id="Path_119" data-name="Path 119" class="cls-2" d="M214.6,7.16c.05,0,0-.21-.1-.2S214.52,7.18,214.6,7.16Z"/><path id="Path_120" data-name="Path 120" class="cls-2" d="M214.42,7.27s-.06.2-.07.23C214.22,8.21,214.63,7.23,214.42,7.27Z"/><path id="Path_121" data-name="Path 121" class="cls-2" d="M214.15,8.77c.3-.06-.16-.91.12-1C213.77,7.9,214.29,8.74,214.15,8.77Z"/><path id="Path_122" data-name="Path 122" class="cls-2" d="M213.73,10.29c.08,0,0-.29-.08-.27S213.64,10.31,213.73,10.29Z"/><path id="Path_124" data-name="Path 124" class="cls-2" d="M213.28,11.9s0-.22-.1-.2S213.2,11.91,213.28,11.9Z"/><path id="Path_125" data-name="Path 125" class="cls-2" d="M213.17,12.28c.09,0,0-.29-.08-.28S213.09,12.29,213.17,12.28Z"/><path id="Path_127" data-name="Path 127" class="cls-2" d="M207.74,31.67s0-.21-.1-.2S207.66,31.68,207.74,31.67Z"/><path id="Path_128" data-name="Path 128" class="cls-2" d="M207.61,32.13s0-.22-.1-.2S207.53,32.14,207.61,32.13Z"/><path id="Path_133" data-name="Path 133" class="cls-2" d="M199.73,49c.05,0,0-.22-.1-.2S199.65,49,199.73,49Z"/><path id="Path_134" data-name="Path 134" class="cls-2" d="M199.38,49.14s0,.21.1.2S199.45,49.12,199.38,49.14Z"/><path id="Path_135" data-name="Path 135" class="cls-2" d="M228.44,40a27.06,27.06,0,0,0-1.2-3.7c-.49-1.44-1-2.7-1.35-3.65-2.09-5.86-2.88-10.75-4.9-15.8-.68-1.71-.1.32.18,1.37a15.34,15.34,0,0,0,.6,1.85c.76,2.6,1.4,4.87,2,7.12.67,2.45,1.73,4.58,2.47,7a37,37,0,0,0,.88,3.66C227.21,38,228.27,40.19,228.44,40Z"/><path id="Path_136" data-name="Path 136" class="cls-2" d="M220.26,14.43c0,.05.14.26.2.19S220.31,14.36,220.26,14.43Z"/><path id="Path_139" data-name="Path 139" class="cls-2" d="M228.93,41.38a4.12,4.12,0,0,1,.12.42C229.3,42.19,229.43,42.38,228.93,41.38Z"/><path id="Path_140" data-name="Path 140" class="cls-2" d="M220.55,4a1.12,1.12,0,0,1,.3.5C220.9,4.34,220.86,4.17,220.55,4Z"/><path id="Path_141" data-name="Path 141" class="cls-2" d="M222.89,11.24a.66.66,0,0,0,0-.2A.45.45,0,0,0,222.89,11.24Z"/><path id="Path_142" data-name="Path 142" class="cls-2" d="M219.56,9s.15.26.2.19S219.62,8.89,219.56,9Z"/><path id="Path_143" data-name="Path 143" class="cls-2" d="M223.19,22.74s-.14-.26-.2-.19S223.14,22.81,223.19,22.74Z"/><path id="Path_144" data-name="Path 144" class="cls-2" d="M221.54,15.87c.62.36-.06-.69-.31-.63C221.17,15.26,221.6,15.9,221.54,15.87Z"/><path id="Path_145" data-name="Path 145" class="cls-2" d="M221.12,14.8s.15.25.2.18S221.18,14.72,221.12,14.8Z"/><path id="Path_146" data-name="Path 146" class="cls-2" d="M221.22,14.54c.24-.3-.28-.53-.28-.52S221.22,14.54,221.22,14.54Z"/><path id="Path_147" data-name="Path 147" class="cls-2" d="M221.06,13.87c.06-.08-.17-.37-.23-.3S221,14,221.06,13.87Z"/><path id="Path_148" data-name="Path 148" class="cls-2" d="M223.94,25.84s.15.25.2.18S224,25.77,223.94,25.84Z"/><path id="Path_149" data-name="Path 149" class="cls-2" d="M224.06,25.69c.06-.08-.16-.37-.23-.29S224,25.76,224.06,25.69Z"/><path id="Path_150" data-name="Path 150" class="cls-2" d="M225,28.86s-.14-.25-.2-.18S224.93,28.94,225,28.86Z"/><path id="Path_151" data-name="Path 151" class="cls-2" d="M220.24,9.84c-.08.1.19.49.26.41S220.31,9.77,220.24,9.84Z"/><path id="Path_154" data-name="Path 154" class="cls-2" d="M219.58,5.51a.22.22,0,0,1,0,.16A.22.22,0,0,0,219.58,5.51Z"/><path id="Path_155" data-name="Path 155" class="cls-2" d="M226.16,32.45c.08-.1-.19-.49-.26-.41S226.1,32.52,226.16,32.45Z"/><path id="Path_156" data-name="Path 156" class="cls-2" d="M226.65,33.84s-.14-.25-.2-.18S226.59,33.92,226.65,33.84Z"/><path id="Path_158" data-name="Path 158" class="cls-2" d="M220.49,4.36a1.44,1.44,0,0,0-.08-.33C220.11,3,220.33,4.55,220.49,4.36Z"/><path id="Path_159" data-name="Path 159" class="cls-2" d="M219.76,1.37s-.14-.25-.19-.18S219.71,1.44,219.76,1.37Z"/><path id="Path_161" data-name="Path 161" class="cls-2" d="M231.53,49.54s.14.25.2.18S231.58,49.47,231.53,49.54Z"/><path id="Path_162" data-name="Path 162" class="cls-2" d="M220.62,3.62s-.14-.25-.2-.18S220.56,3.69,220.62,3.62Z"/><path id="Path_163" data-name="Path 163" class="cls-2" d="M221.87,7.53c-.07.1.2.48.26.4S221.94,7.45,221.87,7.53Z"/><path id="Path_164" data-name="Path 164" class="cls-2" d="M222,7.27s-.07-.29-.08-.33C221.59,6,221.81,7.47,222,7.27Z"/><path id="Path_165" data-name="Path 165" class="cls-2" d="M222.94,10.67c.05-.06-.09-.38-.1-.44C222.45,8.9,222.79,10.87,222.94,10.67Z"/><path id="Path_167" data-name="Path 167" class="cls-2" d="M222.52,8.9s-.15-.26-.2-.19S222.46,9,222.52,8.9Z"/><path id="Path_168" data-name="Path 168" class="cls-2" d="M224.4,14.76c.24-.3-.28-.52-.28-.51S224.4,14.76,224.4,14.76Z"/><path id="Path_169" data-name="Path 169" class="cls-2" d="M224.19,13.88c.06-.08-.17-.37-.23-.3S224.12,14,224.19,13.88Z"/><path id="Path_170" data-name="Path 170" class="cls-2" d="M223.86,12.41l0,0Z"/><path id="Path_171" data-name="Path 171" class="cls-2" d="M225,17.2c0,.05.14.26.2.19S225,17.14,225,17.2Z"/><path id="Path_172" data-name="Path 172" class="cls-2" d="M224.85,16.65c-.06.07.17.37.23.29S224.91,16.57,224.85,16.65Z"/><path id="Path_173" data-name="Path 173" class="cls-2" d="M224.75,16.21c-.07.07.16.37.22.29S224.81,16.13,224.75,16.21Z"/><path id="Path_174" data-name="Path 174" class="cls-2" d="M224.79,15.72s-.07-.29-.08-.33C224.41,14.41,224.63,15.92,224.79,15.72Z"/><path id="Path_175" data-name="Path 175" class="cls-2" d="M226,20.12a5.49,5.49,0,0,0-.32-1.33C225.27,17.59,225.79,20.38,226,20.12Z"/><path id="Path_176" data-name="Path 176" class="cls-2" d="M226.19,20.89c-.3.37.43,1.28.6,1.85C227,22.41,226.07,21,226.19,20.89Z"/><path id="Path_177" data-name="Path 177" class="cls-2" d="M227.43,25.4c-.06.08.17.37.23.3S227.49,25.32,227.43,25.4Z"/><path id="Path_178" data-name="Path 178" class="cls-2" d="M227.52,25.14c.24-.29-.62-2.11-.73-2.4C226.46,23.19,227.79,24.82,227.52,25.14Z"/><path id="Path_179" data-name="Path 179" class="cls-2" d="M228.53,28.65c.1-.13-.29-1.19-.3-1.22C227.82,26.24,228.39,28.81,228.53,28.65Z"/><path id="Path_180" data-name="Path 180" class="cls-2" d="M229.08,30.27c.13.05-.32-1.23-.24-1C228.4,27.89,228.69,30.12,229.08,30.27Z"/><path id="Path_181" data-name="Path 181" class="cls-2" d="M229.51,31.45c.28-.34-.39-1-.38-1C229,30.69,229.64,31.3,229.51,31.45Z"/><path id="Path_182" data-name="Path 182" class="cls-2" d="M233.32,52.8c.73-.28,2.38-.95,2.36-.93.78-.77.18-2.95-.22-4.19-1.06-3.25-2.86-6.83-3.7-9.51a20.33,20.33,0,0,0-.87-2.45c.19.43-.14.22-.24-.2s.3,0,.29-.08a11.54,11.54,0,0,0-.88-2.36c-.46-1.33-.72-1.88-.36-.85.78,2.24-.69-1.52-.64-1.37-.39-1.16-.92-2.8-1.23-3.8-.08-.24-.16-.51-.24-.78a.64.64,0,0,0,.2,0l.15,0c.3-.5-.22-.24-.39-.06-1.12-3.72-2.7-9.18-3.79-12.75-.18-.57-.75-1.67-.87-2.16,0,.24,0,.61,0,.62a10.86,10.86,0,0,1-.59-2.44c-.34-1.1-1-3.8-1.47-4.93a.76.76,0,0,1-.27.32c.19-.19-.29-.3-.22-.21a6.56,6.56,0,0,1-.53-1.46V3.09c0-.21.07-.39.1-.54,0,0,.08.07.11,0s0-.16-.07-.26a1,1,0,0,0-.44-1c.1.08-.11.34-.23.26a.2.2,0,0,1-.1-.22s.06,0,.07,0-.16-.37-.22-.3a.11.11,0,0,0,0,.08c-.34-.09-1.27-.48-1.07-.47-.51,0,.26.42-.17.61.19-.09-.6-.44-.66-.46.11,0-.31.06-.48,0s-.29-.22-.44-.13,0,1,0,1.23c-.24,3.54-1.77,6.48-2.47,9.94-.35,1.79-1.27,3.41-1.62,5.22A71.1,71.1,0,0,1,208.8,29c-.69,1.85-1,3.85-1.75,5.68-1.54,3.84-3.31,8.5-5.58,12a16.65,16.65,0,0,0-1.89,2.81c-.07.2-.35,1.61.75,1.82.19,0,0-.1.17,0s0,.13.27.17c.55.08.61.46,1.34.83a1.25,1.25,0,0,0,.46.12l0,0,.35.14h0c-.12,0-.54-.13-.66.17s.1.24.1.6c0,.2-.23.05-.1.61s.73.37,1.17.42a10.36,10.36,0,0,0,1.57.11c.53,0,1.07,0,1.48,0s.39-.2.56-.32.11.2.2.15.13-.28.2-.31.46-.23.61-.17.1.33.2.3.28-.4.46-.47c.47-.2,1.08.13,1.21.11,0,0-.13-.1,0-.15a3.21,3.21,0,0,1,2-.06c.08,0,.13.27.2.3s.07-.28.1-.3.09.28.16.3c1.29.25,2.55.63,3.71.81-.07.72.49,1.58.54,2,.08.78-.08,1.73,0,2.42a1.19,1.19,0,0,1,.05.46c-.05.16-.44.21-.27.3s.46-.25.46,0c.48.17-.16.32,0,0-.32,0-.39.52-.38.76,0-.08.14.47.2.48s.25-.54.29-.13c.12,1.06,0,2.56,0,3.76,0,.25,0,.53.23.72.05,0,.42-.07.45-.06.39.07,0,.32,0,.45,0,.3-.39,1.23.31,1.47.28.1.3,0,.14-.16-.48-.14.15-.28,0,0,.49-.17-.18-.73-.1-.92s.44-.13.12-.29c-.07,0-.38,0-.32-.1s.56-.07.6-.13-.31,0-.32-.1.39-.26.45-.4a.31.31,0,0,0,.3.3h0c-.2,0,.29-.37.27-.3s-.29-.11-.32-.17.32-.5.22-.78c0-.1-.2-.29-.2-.46,0,1-.2-.23.12-.26-.08,0,.2.74.25.85a7,7,0,0,1,.11,2.42s.11.71.38.65-.18-1-.12-1.11-.23-.9,0-1.31c.11-.19.17-.11.15-.1.35-.12.5,0,.53.08V65l.1.23c.1.59.15,0,.11-.32,0-.06-.1-.65-.22-.62a.16.16,0,0,0-.13.14.23.23,0,0,0-.17-.11c-.05,0,0,.69-.4.56s-.07-.65-.08-.72-.13-.5.25-.56c.19,0-.2.34.33.23.23,0-.18-.2.11-.39.06,0,.26,0,.29-.1a.48.48,0,0,0-.22-.62c.18.1-.36.13-.45.1s0-.23.28-.24c0,0,.3.08.31.07.18-.13-.08-.38-.06-.59.06-.56.19-1.37.24-2a1.6,1.6,0,0,1,.07-.69c.08-.13.17-.12.13-.26s-.19-.5-.08-.72c0,0,.28-.12.28-.17.06-.48-.12-1,.15-1.44s-.27-.85,0-1.14c0,0,.27,0,.29-.1a1,1,0,0,0,0-.29,10.6,10.6,0,0,0,3.85,0,4.39,4.39,0,0,1,.81,0c.14,0,.27-.29.41-.32a7.3,7.3,0,0,1,.81,0c1.06-.12,2.24-.09,3.25-.25s1.84.19,2.64-.23c.14-.07-.08-.14.1-.31.39-.35.54.1.56-.32,0,.15-.23-.15-.2-.14-.24,0-.22,0-.4-.14s-.38-.08-.36-.15c.14-.37.22,0,.36,0A1.48,1.48,0,0,0,234,53C233.9,52.82,232.73,53.37,233.32,52.8ZM219.76,63c.08,0,.24.08.17.09S219.69,63,219.76,63Zm13.35-8.82c0,.07-.09.2-.1.16s.08-.2.1-.16ZM232,51.73s-.14.05-.15,0,.61-.07.15,0Zm0-.46h0Zm.1,0c0-.09.14-.13.32-.15a2.25,2.25,0,0,0,0,.22c-.17,0-.31.43-.37-.07Zm.22.38s.1-.19.16-.25c0,.11,0,.22.08.33s-.2,0-.24-.08,0,0,0-.09a.2.2,0,0,0,0,.09Zm-2.2-17.88c.06-.08.29.21.23.29s-.29-.22-.23-.29ZM230,44c.06-.08.33.31.25.41S230,44.13,230,44Zm0-.22c-.06.08-.29-.22-.23-.29s.29.22.23.29Zm-.28-3.11s.11.3.08.34-.38-1.32-.08-.34ZM228.52,39c.06-.07.28.22.22.29s-.28-.21-.22-.29Zm-1-4.91c-.06.07-.29-.22-.23-.3s.3.22.24.3Zm-.39-1c.06-.08.29.22.23.29s-.28-.21-.22-.29Zm-.6-1.85c.06-.07.29.22.23.3s-.29-.22-.22-.29Zm-.59-1.86v0h0Zm.1.46c.48,0,0,.63,0,0-.44.1,0-.49,0,0Zm-1.15-3.47c.06-.07.24.14.2.18S224.83,26.47,224.86,26.42Zm-1-3.4s.66.62.39,1c.12-.15-.55-.75-.39-.95Zm.12-.15c-.06.08-.29-.22-.23-.29s.29.22.23.3Zm-.36-.85c.06-.08.33.31.25.41s-.33-.3-.25-.4Zm-.08-.33Zm-.47-2.59s.52.22.28.52c0,0-.35-.43-.28-.51Zm.39,2.26c-.06.07-.29-.22-.23-.3s.29.23.23.3Zm-.6-1.85c-.1.12.82.85.47,1.29.2-.24-.69-1-.47-1.28Zm-.35-4c.06-.07.23.14.2.18s-.23-.13-.2-.17Zm-.29-1.22s-.34-.16-.23-.3.64.48.23.31Zm0,1.41s-.34-.44-.28-.52.52.23.28.52Zm-.16-.66ZM222,13.37c-.06.08-.29-.22-.22-.29s.29.22.22.3Zm-.17,1.23c-.06.07-.23-.15-.2-.19s.23.15.2.19Zm0-1.78c.08-.11-1-2.05-.74-2.4-.13.16,1.11,1.95.74,2.41Zm-.28.78Zm.23-2.3C221.8,11.36,221.92,11.2,221.85,11.3Zm-.11-.44Zm-.37-1.54s.31.76.21.89S221,8.46,221.37,9.32ZM221,8.58c.06-.07.24.14.2.18s-.23-.14-.2-.18Zm-1.14-4.19,0,0,0,0a2.38,2.38,0,0,0,.06.37h-.1s-.36,1.78-.5,2.34a1.66,1.66,0,0,1-.14.37c0-.07-.05-.14-.05-.16a2.32,2.32,0,0,0-.08-.22c.14-.61.26-1.22.38-1.84a1,1,0,0,1,.11.28,1.24,1.24,0,0,0-.09-.38c.07-.38.14-.78.21-1.18,0,0,.05,0,.07,0a.23.23,0,0,0,0-.16l.06-.32c.07.5.09.74.11.9Zm-1.26-3.18Zm-7.78,35.1c.08,0,.15.19.1.2s-.14-.19-.09-.2Zm-7.5,17.95c0-.08.17-.26.2-.16s-.16.26-.2.16Zm1.54-3.39Zm1.62,0h0v0Zm.2,0c0-.07.18-.25.2-.15s-.16.26-.19.15Zm.67-.17C207.35,50.58,207.41,50.74,207.38,50.64Zm.4,0s-.14,0-.15,0c-.06-.19.61-.07.15,0Zm1.07-.18s-.71.17-.76,0,1.48-.15.76,0Zm.35-.16c0-.07.09-.21.1-.16s-.08.2-.09.15Zm.36,0Zm3.15.21a26.9,26.9,0,0,0-2.79-.07s-.1-.22-.14-.18c.17-.39,1.77-.2,2-.18a5.35,5.35,0,0,1,1.62.4c.68.3-.49.06-.71,0Zm6.55-.05Zm.2,0c0,.07,1-.51,1.07-.19,0-.13-.93.59-1.07.19Zm.2,11.56c-.2,0,0-.07,0-.07.22,0,.11.06,0,.07ZM218,64.43c-.21-.05.08-.09.26-.13a.28.28,0,0,0-.13,0c.37,0,.29,0,.13,0,.11.07.11.2-.26.13Zm-.46,0c.32.06.22.3,0,.36s-.1-.38,0-.36Zm-.06-.49c.08,0,.24.08.17.1s-.24-.09-.17-.1Zm.93-2.63c.08,0,.24.08.17.1s-.24-.08-.17-.1Zm-.16-.1c.06,0,.15-.1.14-.1.24,0,.24.18-.14.11Zm.27-.22s0,0,0,0,0,0,0,0-.26-.21,0-.24,0,.18,0,.25Zm-.25,1.79c0-.18-.17-.58.23-.72a7.46,7.46,0,0,0,0,1.25s.38.34,0,.13a.83.83,0,0,1-.22-.65Zm.34-1c-.26.12-.27-.17-.17-.17-.06,0,.42.06.17.17ZM217,60.31s-.47-.1-.17-.17c0,0,.25.15.17.17Zm.71,5.06c-.59.09-.16-.24-.19-.36s-.3-.08-.32-.1.1-.15.3-.06c-.07,0,.48.49.21.53Zm.19.36Zm.13-.23c-.22,0-.11-.06,0-.06s0,.07,0,.07Zm.46-.35a.34.34,0,0,0-.21-.14s-.12,0-.16,0-.1-.05,0,0h.16a1.74,1.74,0,0,0,.05-.39c-.15,0-.83.1-.41,0h.16a1,1,0,0,1,.25,0c0-.62,0-1.58.13-.67,0,.14.19.27.19.32,0,.24-.16.62-.16.91Zm.26-5.51c-.07,0-.2,0-.16-.06s.2.06.16.07Zm.36,3.27c-.07,0-.2-.06-.16-.06s.2.06.16.07Zm.45,0c-.07,0-.23-.08-.16-.1s.24.09.17.1Zm.07.59h0Zm0-1.11s-.07-.12,0-.13.13.53,0,.13ZM228,50.94c0-.07.09-.2.1-.15s-.09.19-.1.15Zm2.14,0Zm0,1.34c0-.07.12-.23.15-.15s-.13.23-.15.16Zm.3-1.37c0-.08.13-.24.16-.16s-.13.24-.15.16Zm.15,1.36Zm.06-1.52c0,.15.23-.15.2-.16-.35-.15-.92.09-1.47,0a5.19,5.19,0,0,0-1.88-.1c-.09,0,0,.32-.16.31s-.21-.24-.35-.29c-.78-.29-1.79.3-2.54.38a16,16,0,0,1-2.94-.22c-.2,0-1.52-.14-.51-.29.85-.13-.23-.27-.4-.29a2.93,2.93,0,0,0-1.63.2c-.33.13-.65-.1-1-.12-.57,0-1.13.24-1.68.2-2-.14-4.07-1-5.88-.74-1.06.18-2.24.23-3.31.4a15.42,15.42,0,0,1-2,0,9.52,9.52,0,0,0,1.07-1.45,16.42,16.42,0,0,0,1.73-3.36,5.23,5.23,0,0,1,.23-.77c0,.07.06.14.1.13s0-.21-.05-.26.14-.24.22-.35a2.07,2.07,0,0,0,.38-.79c0-.17-.2-.46-.14-.63s.86-.31.36-.71c0,.62-.51.1,0,0a12.1,12.1,0,0,0,1-2.94c0-.14.13.18.35-.13.09-.13,0-.32.13-.46a9.08,9.08,0,0,0,.45-1.6c0,.07,0,.15-.07.23a12,12,0,0,0,1-2.35c0-.1.19-.8,0-.66,0,0-.58,1.66-.61,1.63a11.41,11.41,0,0,1,.55-2c.43-1.23,1.49-4.63,2-5.94.23-.61.43-1.24.62-1.88-.06.33-.1.59-.11.63a16.54,16.54,0,0,1-.45,2.18c.34-.06.53-1.91.6-2.14s.45-2.18.45-2.18-.07,0-.11.1a85.27,85.27,0,0,1,2.26-8.9c.41-1.1.61-2.76,1.07-4.4.4-1.41.7-2.64,1-3.83a1.35,1.35,0,0,0,.11.34c-.08.19-.12.34,0,.34a2.31,2.31,0,0,0,.25.36c.13-.17,0-.32-.1-.41.54-.25.07-.35.11-.45s.15-.53.15-.53c.07-.28.19-.65.27-.94,0,.22.12.49.2.4S220,6.06,220,6s-.06-.17-.08-.23.29-.82.14-1c0-.06.06-.08.11,0,.36.64.07,1.48.16,2,.28,1.55,1.14,4,.8,3.33-.18-.37-.76-3.15-1.09-3.25a14,14,0,0,1,.44,2.49c.16.75.51,1.44.66,2.07a21.94,21.94,0,0,1,.24,2.29c.15,1.11.49,2.65,1,2.69-.14,0,.05-.42.07-.37.24.68-.14.38-.14.74a12.24,12.24,0,0,0,.35,1.45c.09.35.27,1.33.12,1.14-.37-.45-.25-1.2-.37-1.55s-.59-1.45-.56-1a8.53,8.53,0,0,0,.28,1.81c.28,1.05.8,2.43,1.22,3.8.84,2.7,1.73,5.87,2.68,8.49a34.59,34.59,0,0,1,1.53,4.43c0-.07-.24.19-.24.3a5.29,5.29,0,0,0,.27,1.11c.41,1.35,1.15,3.61,1.72,5.2.1.29.72,1.43.49,1.4s-.5-.94-.65-1.5a5.13,5.13,0,0,0-.52-.79c-.14.17.41,1.17.55,1.62.52,1.66.9,2.67,1.48,4.21a12.41,12.41,0,0,0,.88,2.36c.26.19.57-.06.64.07.33.56.07.9.18,1.37,0,0,0,.11,0,.19a3.43,3.43,0,0,1-1,0c-.09,0-.62.2-.67-.12Zm.76,1.5c0-.08.12-.24.15-.16s-.13.24-.16.16Zm.2-.16c.1-.29.84,0,.91,0h0c0,.09,0,.17.07.24a.84.84,0,0,1-.35.07c-.05,0-.68-.21-.66-.28Z"/><path id="Path_184" data-name="Path 184" class="cls-2" d="M215,50s.17,0,.2,0C215.68,49.84,214.94,49.79,215,50Z"/><path id="Path_185" data-name="Path 185" class="cls-2" d="M215.76,50.09s.12-.09.1-.16S215.73,50,215.76,50.09Z"/><path id="Path_186" data-name="Path 186" class="cls-2" d="M217,49.9c-.11,0-1.06.06-1,.18.11.34.83,0,1.07,0s1-.19,1-.18C217.94,49.55,217.29,49.89,217,49.9Z"/><path id="Path_187" data-name="Path 187" class="cls-2" d="M218.3,50.16c0,.13.54,0,.55,0C219.41,50,218.24,50,218.3,50.16Z"/><path id="Path_188" data-name="Path 188" class="cls-2" d="M221.6,50.52c0,.06.17,0,.2,0C222.28,50.4,221.54,50.36,221.6,50.52Z"/><path id="Path_189" data-name="Path 189" class="cls-2" d="M222.71,50.49c0,.1.23-.08.2-.16S222.69,50.41,222.71,50.49Z"/><path id="Path_190" data-name="Path 190" class="cls-2" d="M223.57,50.62c0,.1.23-.08.2-.16S223.55,50.54,223.57,50.62Z"/><path id="Path_191" data-name="Path 191" class="cls-2" d="M224,50.6s.13,0,.15,0C224.64,50.52,224,50.41,224,50.6Z"/><path id="Path_192" data-name="Path 192" class="cls-2" d="M224.39,50.59s.12-.08.1-.15S224.36,50.52,224.39,50.59Z"/><path id="Path_193" data-name="Path 193" class="cls-2" d="M224.54,50.59c0,.12.54,0,.56,0C225.66,50.43,224.49,50.42,224.54,50.59Z"/><path id="Path_194" data-name="Path 194" class="cls-2" d="M210.57,53.89v0Z"/><path id="Path_195" data-name="Path 195" class="cls-2" d="M207.47,54.29c0,.07.17-.08.15-.16S207.44,54.21,207.47,54.29Z"/></g><g id="Group_58" data-name="Group 58"><path id="Path_196" data-name="Path 196" class="cls-2" d="M48.72,20a.79.79,0,0,0,0,.17A1.28,1.28,0,0,1,48.72,20Z"/><path id="Path_197" data-name="Path 197" class="cls-2" d="M41.23,50a.58.58,0,0,0,.1-.21A1.36,1.36,0,0,0,41.23,50Z"/><path id="Path_198" data-name="Path 198" class="cls-2" d="M53.29,15.21a4.5,4.5,0,0,1,.14-.5C53.46,14.17,53.47,13.9,53.29,15.21Z"/><path id="Path_199" data-name="Path 199" class="cls-2" d="M48.54,34.08s0-.34-.06-.3S48.45,34.12,48.54,34.08Z"/><path id="Path_200" data-name="Path 200" class="cls-2" d="M48.37,34.6c.09,0,.08-.47,0-.43S48.29,34.65,48.37,34.6Z"/><path id="Path_201" data-name="Path 201" class="cls-2" d="M49.46,30.67s0-.34-.05-.3S49.38,30.71,49.46,30.67Z"/><path id="Path_203" data-name="Path 203" class="cls-2" d="M50.45,26.57c.12-.06.12-.61,0-.56S50.36,26.62,50.45,26.57Z"/><path id="Path_204" data-name="Path 204" class="cls-2" d="M50.93,24.58s0-.34,0-.3S50.85,24.62,50.93,24.58Z"/><path id="Path_206" data-name="Path 206" class="cls-2" d="M39.21,60.63a1.46,1.46,0,0,0-.12.39C38.77,62.21,39.43,60.52,39.21,60.63Z"/><path id="Path_207" data-name="Path 207" class="cls-2" d="M38.72,60.34c-.11.06-.12.6,0,.56S38.81,60.29,38.72,60.34Z"/><path id="Path_209" data-name="Path 209" class="cls-2" d="M38.86,59s0,.34,0,.3S39,58.92,38.86,59Z"/><path id="Path_210" data-name="Path 210" class="cls-2" d="M40.07,54.21c.11-.06.12-.6,0-.56S40,54.26,40.07,54.21Z"/><path id="Path_211" data-name="Path 211" class="cls-2" d="M39.85,54.43a1.27,1.27,0,0,0-.12.39C39.41,56,40.07,54.31,39.85,54.43Z"/><path id="Path_212" data-name="Path 212" class="cls-2" d="M41,50.37c-.07,0-.14.44-.16.52C40.38,52.48,41.21,50.25,41,50.37Z"/><path id="Path_214" data-name="Path 214" class="cls-2" d="M40.38,52.74s0-.34-.05-.3S40.3,52.78,40.38,52.74Z"/><path id="Path_215" data-name="Path 215" class="cls-2" d="M42.13,45.32c-.35.17-.08.69-.08.69S42.13,45.32,42.13,45.32Z"/><path id="Path_216" data-name="Path 216" class="cls-2" d="M41.81,46.79c.09,0,.08-.48,0-.43S41.72,46.83,41.81,46.79Z"/><path id="Path_217" data-name="Path 217" class="cls-2" d="M41.27,48h0Z"/><path id="Path_218" data-name="Path 218" class="cls-2" d="M43,42.47s0-.34-.05-.3S42.94,42.51,43,42.47Z"/><path id="Path_219" data-name="Path 219" class="cls-2" d="M42.82,43.12c.08,0,.07-.48,0-.43S42.73,43.16,42.82,43.12Z"/><path id="Path_220" data-name="Path 220" class="cls-2" d="M42.65,43.63c.09-.05.08-.47,0-.43S42.57,43.68,42.65,43.63Z"/><path id="Path_221" data-name="Path 221" class="cls-2" d="M42.36,44.11a1.36,1.36,0,0,0-.12.39C41.92,45.69,42.58,44,42.36,44.11Z"/><path id="Path_222" data-name="Path 222" class="cls-2" d="M43.85,38.88a8.81,8.81,0,0,0-.49,1.56C43,41.91,44.15,38.73,43.85,38.88Z"/><path id="Path_223" data-name="Path 223" class="cls-2" d="M44.7,35.73c-.34.23-.4,2.16-.56,2.25C44.56,37.76,44.51,36.41,44.7,35.73Z"/><path id="Path_224" data-name="Path 224" class="cls-2" d="M45.66,32.19c-.09,0-.08.47,0,.43S45.75,32.14,45.66,32.19Z"/><path id="Path_225" data-name="Path 225" class="cls-2" d="M45.46,32.84c-.34.17-.69,2.53-.77,2.89C45.18,35.45,45.08,33,45.46,32.84Z"/><path id="Path_226" data-name="Path 226" class="cls-2" d="M46.62,28.65a6.32,6.32,0,0,0-.44,1.42C45.83,31.54,46.82,28.55,46.62,28.65Z"/><path id="Path_227" data-name="Path 227" class="cls-2" d="M47.1,26.66c-.07-.12-.43,1.45-.36,1.17C46.31,29.51,47.31,27,47.1,26.66Z"/><path id="Path_228" data-name="Path 228" class="cls-2" d="M47.42,25.19c-.39.2-.23,1.21-.24,1.21C47.41,26.28,47.24,25.28,47.42,25.19Z"/><path id="Path_230" data-name="Path 230" class="cls-2" d="M61.94,38.39s-.08-.34-.1-.39C61.52,37.09,61.81,38.54,61.94,38.39Z"/><path id="Path_231" data-name="Path 231" class="cls-2" d="M60.62,31.9c.09-.1-.26-1-.27-1.08C60,29.75,60.5,32.05,60.62,31.9Z"/><path id="Path_232" data-name="Path 232" class="cls-2" d="M59.43,25.39c0-.05-.08-.34-.1-.4C59,24.09,59.31,25.53,59.43,25.39Z"/><path id="Path_233" data-name="Path 233" class="cls-2" d="M58.9,23.22c.07-.09-.18-.44-.24-.37S58.84,23.28,58.9,23.22Z"/><path id="Path_234" data-name="Path 234" class="cls-2" d="M58.61,21.5c.08-.08-.17-.43-.23-.36S58.56,21.57,58.61,21.5Z"/><path id="Path_235" data-name="Path 235" class="cls-2" d="M58.4,20.61s-.07-.26-.08-.3C58.05,19.44,58.25,20.78,58.4,20.61Z"/><path id="Path_236" data-name="Path 236" class="cls-2" d="M58,19.76s.13.22.18.16S58.09,19.7,58,19.76Z"/><path id="Path_237" data-name="Path 237" class="cls-2" d="M58.15,19.62c.09-.1-.26-1.05-.27-1.08C57.51,17.48,58,19.77,58.15,19.62Z"/><path id="Path_239" data-name="Path 239" class="cls-2" d="M69.17,52.15c.06-.07-.15-.34-.21-.27S69.12,52.21,69.17,52.15Z"/><path id="Path_240" data-name="Path 240" class="cls-2" d="M71.94,62.7l-.75-.17v0s0,0,0,0a1.72,1.72,0,0,0-.39,0c.07,0,.2.1.07.14a.79.79,0,0,1-.48,0c.1-.06,0-.31.28-.36s.15.44.59.07,0-1.5-.16-2.37-.34-1.92-.63-3.1c-.25-1-.48-2.08-.7-2.86a3.22,3.22,0,0,0-.54-1c-.1-.17.12-.27,0-.43s-.31-.2-.37-.33a4.76,4.76,0,0,1-.43-1.16c0-.23.25-.26.17-.45s-.48-.48-.62-.8a9.7,9.7,0,0,1-.45-2.4c0,.1,0,.29-.11.13a13.45,13.45,0,0,1-1-4c0-.15.18-.3.17-.46s-.28-.07-.32-.13.21-.24.2-.36c-.5-3.47-.76-6.87-1.41-9.71-.21-.91-.33-1.59-.45-2.4-.18-1.23-.78-2.44-.83-3.36,0-.08.23-.17.19-.36a63.6,63.6,0,0,0-2.1-9.65c-.2-.59-.24-1-.39-1.58-.07-.26-.37-.47-.46-.72-.17-.49-.24-1.07-.39-1.58-.58-2-1.09-4.35-1.7-6.29-.54-1.75-.67-3.64-1.4-5.1-.13-.26-.08.2-.32-.14-.48-.68-.16-1.07-.54-1,.14,0,0,.49,0,.43a2.26,2.26,0,0,1,.06.82c0,.15.1.75,0,.72-.4-.19-.1-.43-.17-.69a2.42,2.42,0,0,0-.12-.35A1.35,1.35,0,0,0,56.58,1L56.19.94C56.1.77,56,.66,56,.67a.38.38,0,0,0,0,.24C55.25.8,53.94.62,54,.61c-1,.38-1.75,3-2.12,4.47-1,4-1.6,8.65-2.43,11.9q-.42,1.5-.69,3c.09-.56.22-.16.07.34s-.24-.13-.27-.08a20.94,20.94,0,0,0-.63,2.93c-.38,1.64-.49,2.34-.19,1.08.64-2.76-.31,1.95-.26,1.77-.35,1.41-.85,3.41-1.16,4.62-.08.3-.17.61-.25.94a.53.53,0,0,0-.17-.08l-.13,0c-.5.35,0,.37.26.27-.69,2.59-1.58,5.86-2.43,9a.11.11,0,0,0-.1,0s0,0,.06.1c-.61,2.25-1.2,4.41-1.66,6.2-.18.69-.35,2.14-.54,2.72.13-.26.32-.64.32-.66a2,2,0,0,1,0,.43h0a.38.38,0,0,0,0,.15c-.19.71-.6,1.5-.8,2.27-.14.51-.36,1.29-.6,2.14a1,1,0,0,0-.17.5.17.17,0,0,0,0,.07c-.22.76-.44,1.54-.6,2.21h0c-.31,0-.11.1,0,.18v0c-.06,0-.22,0-.22,0a.48.48,0,0,0,.13.32l-.06.31a3.15,3.15,0,0,0-.22-.29.24.24,0,0,0-.3,0s0,.14,0,.13c.13.2.26.39.35.56a.84.84,0,0,0,.08.41.57.57,0,0,1,0-.29l0,.11.09.21h0c-.17.65,0,.43,0,.13l.12.24c-.24.93-.58,2-.1.79.08-.22.15-.39.21-.54A12.18,12.18,0,0,0,40.59,61a.15.15,0,0,0,0,.06,1.17,1.17,0,0,0-.63.12c-.17.17-.07.51-.16.54-.43.14-.6-.17-.92-.2s-1.5-.17-1.62,0c0,0,.17,2.66.17,2.63.35.88,1.87.91,2.74.88,2.31-.09,5-.74,6.86-.79a9.56,9.56,0,0,0,1.85-.15c-.45.13-.24-.16.08-.14s0,.27,0,.28a6.42,6.42,0,0,0,1.7-.16c1-.07,1.36-.15.62-.1-1.6.1,1.11-.22,1-.21.83,0,2-.09,2.7-.1h.55a.55.55,0,0,0,0,.18V64c.26.39.2-.13.11-.32,1.73,0,4,0,6,0l.11.12a.07.07,0,0,0,0,.08s0,0,.09,0a.82.82,0,0,0,.63.32c.59-.09-.06-.16.22-.43a.41.41,0,0,1,.11-.07h1.8c.41,0,1.22-.23,1.56-.21l-.4-.13c.47-.2,1.11.12,1.69.11.77,0,2.65.1,3.47,0a.77.77,0,0,1-.16-.31c.1.22.29-.24.16-.13C71.16,62.7,73,62.92,71.94,62.7ZM43.58,61.3l-.08-.09h0a.1.1,0,0,1,.12,0S43.61,61.28,43.58,61.3Zm-.27-.48a9.32,9.32,0,0,0-.3-1,17.71,17.71,0,0,0-1.12-2.27c-.06-.09-.11-.18-.16-.27a9.14,9.14,0,0,1,2.46,3.52Zm-1.64-.44s-.25.09-.21,0S41.71,60.34,41.67,60.38Zm7-25s0,0,0,0,0,.22-.08.17Zm.48-.06s-.07,0-.08,0,.31-.11.08,0Zm.54-.25s-.36.2-.4.08S50,35,49.65,35.11Zm.2-.32c0,.06,0,.18,0,.15s0-.18,0-.14Zm.16.11S50,35,50,34.9Zm5.13-.56Zm4.7-.33c0,.06,0,.18,0,.15s0-.18,0-.15Zm8.67,27.83a.34.34,0,0,1,.09-.08.11.11,0,0,0,0,.09ZM57.08,60.46h.1a.15.15,0,0,1-.06.09C57.17,60.52,57.13,60.49,57.08,60.46ZM42.57,52.7a.6.6,0,0,0,.08-.35l.08.17c0,.11.09.23.13.35l0,.06C42.51,53,42.84,52.64,42.57,52.7Zm0-.51c-.08.11-.08.5,0,.52h0c.13,0-.17.28-.29.33h-.07c.11-.35.2-.7.28-1l.12.2Zm4.74,3.17c-.41-1-1.4-1.64-1.79-2.56-.27-.65-.48-1.89-1.14-2.06.05,0-.12.22,0,.19-.3.12-.71-.66-.77-.7-.36-.22-.22.12-.17.26.23.51,0,.28-.25-.15L43,50.07c.17-.43.37-.84.56-1.24l0,.06c.21.29.2.69.36,1,.65,1.21,1.93,2.07,2.73,3.48a12,12,0,0,1,.52,1.09,1.36,1.36,0,0,1-.13-.24c.07,0-.14,0-.14,0a2.75,2.75,0,0,0,.77,1.44c.17.47.33.94.5,1.4A18.93,18.93,0,0,1,47.3,55.36ZM43.87,45.29c.08,0,.1.28.05.3S43.82,45.32,43.87,45.29Zm.78.47s0,0,0,0a2.56,2.56,0,0,0,0-.27.68.68,0,0,1,0,.14Zm-.14.46v-.06S44.52,46.19,44.51,46.22Zm-.17-1.06a3.37,3.37,0,0,1,.1-.34l0,.1a1,1,0,0,0,0,.1C44.44,45.11,44.34,45.19,44.34,45.16Zm-.12.39s0,.64-.07.69-.27-.52.07-.69Zm-.24.77h0l0,0Zm-.88,1.86a1.74,1.74,0,0,0,.11.18.27.27,0,0,1-.05.13c-.06,0-.09-.17-.06-.31Zm1.83-2.4a2.08,2.08,0,0,0-.24-.47.64.64,0,0,0-.09-.5s0,.13-.08.21a1.27,1.27,0,0,0-.07-.21c.13-.32.24,0,.4-.35a6.55,6.55,0,0,0,.29-.85l.11.19c-.1.55-.2,1.25,0,.91s.18-.39.26-.57l.41.66c0,.08,0,.16,0,.25,0,.25-.08.44-.1.57H45.6s.09.07.1.14,0,0,0,.08a.13.13,0,0,1-.12.08c-.39,0,0-.51-.45-.42.12,0,0,.81-.19.29ZM62.8,61a0,0,0,0,0,0,0h0Zm.1-.81h-.07c-.13-.17-.46-.41-.55-.55s-.64-.61-.48-.79C61.64,59,62.87,59.72,62.9,60.14ZM62,58.58c.08-.1-1-.69-.76-1C61.17,57.65,62.19,58.34,62,58.58Zm-3.33-6.75a42.38,42.38,0,0,1-1.74-5.09q1.14,3.09,2.58,6c.9,1.82,1.7,3.68,2.57,5.53-1.12-2.13-2.35-4.24-3.41-6.49Zm-3.58,1s-.08-.18,0-.22.21.89,0,.22Zm-.35-3.49c-.06.06-.21-.06-.15-.11s.21.06.15.11Zm1.82,6.39c-.46-.43.05-.67,0,0,.46.43-.06.67,0,0Zm-.42-.85c.13-.12.22.72,0,.22,0,0-.09-.18-.05-.22Zm0-.17c-.08.07-.46-.62-.4-.74s.14.25.2.4.59,0,.19.34Zm-.5-3.21c-.1,0-.3-.07-.12-.23l.06,0Zm-.3-.52s-.08-.18,0-.22.21.72,0,.22Zm.17,2.48c.45.34-.06.63,0,0-.45-.14.05-.61,0,0Zm1.37,1.27a5.64,5.64,0,0,1-.35-.85c0-.13-.16-.37-.11-.48.23.49.47,1,.71,1.45-.15-.14-.33-.29-.25-.12Zm.1.17a1.05,1.05,0,0,0-.08-.13l.08.13Zm-2.07-2.47s-.08-.18,0-.22.22.72,0,.22Zm1.53,7.73a.08.08,0,0,1,0-.11h0c-.05,0,0,.08.1.12ZM46.59,46.31c-.05-.14-.34-.24-.4-.3-.22-.23-.18-.32-.38-.37L46,45c.22.34.44.67.67,1h-.06C46.69,46,46.74,46.73,46.59,46.31Zm.77.22c-.44-.65-.83-1.32-1.21-2,0-.15.09-.3.13-.45C46.89,45,47.51,46,48,46.69c.08.11.16.44.3.52s.74.26.37-.22c-.48-.14.17-.36,0,0,.78.48,1,1.58,1.58,2.22.22.23.44.06.22-.17A4.31,4.31,0,0,1,49.86,48c-.17-.38.3-.09.43.14s.2.76.57.88-.19-.38-.3-.53-.46-1.14,0-.63c.14.15.34.47.55.75.19.53.39,1.06.6,1.6l-.14,0c0,.12-.13.5-.07.47-.19.09-.44-.55-.67-.12s-.45,0-.56,0c-.84-1.11-2.17-2.13-2.79-3.29L47.4,47l.05.08c.56.77.24,0-.1-.55Zm.23-5.26a18.85,18.85,0,0,1,1.17,2,14.76,14.76,0,0,1,1.94,4c.07.23.15.46.23.7-.28-.56-.51-1.22-.86-1.82-.76-1.3-1.58-2.85-2.46-4.1-.23-.32-.41-.63-.58-.91l.08-.27A1.92,1.92,0,0,1,47.59,41.27Zm1,5.32c0,.06-.28,0-.25,0S48.62,46.53,48.59,46.59ZM46.8,40.78l0-.08.05,0Zm9.82,19c.09-.08-.79-.12-.52-.36-.05.05.74.17.52.36Zm-.77-1c-1.39-1-1.6-2.59-2-4.07.11.22.22.43.32.65a7.17,7.17,0,0,0,.7,1.78,9.91,9.91,0,0,1,1,1.64c.09.1.18.18.29.29.46.54-.5-.06-.28-.29Zm-9.3-20.24h0s-.09.05,0,0Zm-.66,4.9h0c-.08,0,0,0,0,0l.2.3c0,.16-.07.32-.1.47l-.34-.58.13-.36Zm8.86,13.42a4,4,0,0,1-.4-1.06,4.81,4.81,0,0,0,.88,1.6c.17.15-.13-.38.08-.33s0,.53.26.68.12-.31.22-.28c.29.1,0,.42.38.63.08-.57-.14-.81-.24-1.36-.3.06-.11-.33-.21-.45-.28-.15-.3-.56-.43-.85-.35-.8.56.66.43.85.29-.06.11.33.21.45.67.62.81,2.08,1.59,2.79s.25-.38.12-.84c-.19-.64-.64-.91-.72-1.75-.13-1.28.87,2.18,1,.53.09-.87-.63-1-.62-1.93,0-.45,0,0,.17.18l.09.07c.73,1.43,1.47,2.86,2.2,4.31-1,0-1.88,0-2.76,0C56.35,59,55.43,58.06,54.75,56.91Zm3,.16c0-.06.21.06.15.11s-.22-.06-.16-.11Zm5.11,4s.06,0,0-.08h0c0-.08-.15-.77.14-.3.42.69.28.1.14-.26l0,0c.1.2.2.42.29.64-.08.13,0,.17.07.16v0a.83.83,0,0,0-.41.13,4,4,0,0,1-.23-.35Zm.78.56s0,.08.07.13-.19.11-.27,0l.2-.1Zm-3.8-10.5c0,.14.41.2.18.41l.16.18c.31.41-.3.16-.16-.18,0-.15-.41-.2-.18-.41-.51-.35.09-.51,0,0Zm-3-12.6c0,.2,0,.27-.24,0l0,0Zm.9,7.13c.41,1.08.86,2.17,1.34,3.38.1.23.21.9.24.89C59,50,59,49.14,59,49.07c-.49-1.2-.89-2.4-1.33-3.59l.12.17ZM59.25,50c-.1.1.49.09.36.22s-.59,0-.37-.22Zm.15.38c.12-.12.55.44.21.25,0,0-.3-.17-.22-.25Zm1.25,2.27c.36.47-.3.16-.19-.22l-.16-.18c-.31-.41.3-.16.16.18l.18.22Zm.14.57c-.06-.05-.22-.13-.17-.18s.62.61.16.18Zm-1.95-5.53-.53-1.34A18.91,18.91,0,0,1,60.11,49c1.4,2.65,2.23,5.82,3.55,8.38.18.35.33.7.48,1A115,115,0,0,1,58.83,47.7Zm1.95-6.05c.23.2.72.37.82.51v0a0,0,0,0,1,0,.07l0,0c.08.11.15.23.22.34a1.31,1.31,0,0,1,.28.45c.3.49.61,1,.9,1.47,0,.24.09.47.14.71-.33-.66-.64-1.28-.9-1.87-.05-.11-.1-.21-.14-.31l-.28-.45a.61.61,0,0,0-.29-.14c.15,0,.4.87.56,1.16s.43.75.63,1.11L62,43.77C61.63,43.07,61.21,42.36,60.79,41.66ZM69,61h0C68.86,60.77,68.8,60.68,69,61Zm-.14.59a.11.11,0,0,1,.1-.06c.16,0,.2.43.25.47l-.31-.07C68.88,61.83,68.86,61.71,68.85,61.59ZM64.5,47.53c-.15-.3-.3-.62-.47-.93a5.05,5.05,0,0,0-.25-.45c0-.2-.08-.39-.12-.56a16.9,16.9,0,0,1,.78,1.67Zm-1.4-6.22c0-.73.07-.31.17.27-.06-.09-.12-.18-.17-.27Zm-2-6.26,0,.11s0,0,0,0A.17.17,0,0,1,61.12,35.05Zm0-1.16s0,0,0,0a.25.25,0,0,1,0-.12Zm.44,3.43a1.25,1.25,0,0,1,.37-.09c.17,1,.3,2,.44,3a20.3,20.3,0,0,1-1.52-2.64l0-.07a3.81,3.81,0,0,0,.75-.22Zm-2.29.85s0,0,.07-.09a5.52,5.52,0,0,1,.42.75c.18.44.4.88.63,1.33-.18-.19-.64-.38-.61-.42-.27.26.73.54.65.62a.09.09,0,0,0,0-.07l.37.65c-.19-.18-.63-.37-.6-.4-.27.26.73.54.65.61a.07.07,0,0,0,0-.06l.48.79c-.3-.23-.8-.45-.7-.54a.16.16,0,0,0-.06.12c-.64-1.05-1.27-2.11-1.85-3.18l.06,0a.57.57,0,0,1,.22-.07,2.23,2.23,0,0,0,.24.49c.22.28.08-.11,0-.16s-.11-.16-.23-.33a.44.44,0,0,0,.16,0Zm-.75.23.49.92H59c.08,0,.23,1,0,.4-.07-.2-.4-.37-.47-.46-.34-.42-.2-.48-.69-.62.12,0,.23.4,0,.4s-.22-.3-.28-.48a3.08,3.08,0,0,0,1-.16Zm-1.19.15c0,.26,0,.74-.23.2a1.47,1.47,0,0,0-.1-.22l.33,0Zm-1.22-.33s.06.25.12.25l.23,0a4.78,4.78,0,0,1,.25.69s0,0,0,.08a.11.11,0,0,0,0-.08s-.22.1-.39.26c0,.09,0,.24-.19.22h-.05c-.16.15-.24.23,0,0-.3-.13-.35-.88-.64-1.27.26-.06.49-.25.69-.15Zm-.9-3.89c0,.06.44-.53.54-.25,0-.11-.42.6-.54.25Zm-.39,4c.09.41.65.73.57,1.3,0,.14-.36.44-.37.58a5.47,5.47,0,0,0,1.08,2.39c.26.42.31.94.53,1.37,0,.09.1.18.16.27A95.65,95.65,0,0,0,63.73,60c-.48-.82-1-1.61-1.4-2.34A118.68,118.68,0,0,1,56.65,45c-.18-.41-.41-.82-.56-1.26s-.17-1.15-.73-1.45c.1.32.21.64.32,1-.22-.44-.52-.9-.48-.7s.06.3.1.45.17.57.26.85c.39,1.09.94,2.16,1.32,3.28a46.08,46.08,0,0,0,2,5.33c.6,1.26,1.33,2.44,1.82,3.75.15.26.28.45.45.74.75,1.3-.63-.41-.45-.74C58.22,53,57.52,48.9,56.06,45.25c-.19-.47-.35-.94-.5-1.42A8.34,8.34,0,0,1,55.3,43c-.1-.32-.19-.65-.28-1a.65.65,0,0,0,.09.11c.25.34.2.16.1,0,.06,0,.15.09.15.15.25-.19-.12-.22-.12-.35-.06.05-.08.08-.08.11s-.13-.14-.17-.1l-.12-.41.09.11a1.15,1.15,0,0,0,.14.17.53.53,0,0,0,.14.12c.1-.25-.08-.3-.15-.24-.06-.14-.19-.32-.25-.25,0-.15-.09-.29-.13-.44,0,.05.09.11.1.13.41.58,0-.34-.13-.2v0c0-.14-.08-.28-.13-.41a1.45,1.45,0,0,0,.17.18c.36.34-.12-.52-.24-.4,0-.12-.09-.24-.13-.36.17.09.38.15.34.2.12-.14-.24-.26-.41-.38s-.23-.53-.35-.79a3.27,3.27,0,0,0,.25.32c.43.5-.2-.78-.37-.59v0l-.24-.43h0a3.18,3.18,0,0,0,1,.07Zm-3.17-3.49a8.15,8.15,0,0,0-1.48.14s-.08-.19-.1-.16c0-.35.92-.31,1-.3a2,2,0,0,1,.9.24C52.45,35,51.81,34.89,51.69,34.87Zm-.86,2.82a.09.09,0,0,0,0,.07c0,.1.05.2.07.3L50.8,38l-.21-.12a.81.81,0,0,1,.24-.17ZM46.48,39l-.11.08c0-.07,0-.13.05-.14s0,0,.06.06Zm-1.1,3.74,0-.06.11.19a2.52,2.52,0,0,0-.13.33l-.09-.16c0-.1.06-.21.09-.3Zm-2.44,5.93a4.61,4.61,0,0,0-.2,1,1.77,1.77,0,0,0-.16-.22C42.66,49.09,42.78,48.79,42.94,48.71Zm-.76,2.89Zm-.12.39a10.45,10.45,0,0,1-.28,1l-.08,0c.26-1,.42-1.56.36-1.08Zm.79,8.87c0-.11.07-.18.2-.06l0,0Zm3.88-.16s0-.1.12-.18c-.14.13,0,.11.18.07a1.46,1.46,0,0,0-.3.11Zm.43-.19s.1-.11.1-.11a.12.12,0,0,1,.12.08l-.24.07c.06,0,.09,0,0,0Zm.85-.18v-.25a.75.75,0,0,0,.05-.42c-.11-.78.27.38.51.28s0-.95,0-1,.17,0,.14-.29a1.27,1.27,0,0,0-.06-.28c.16.36.32.72.5,1.06a7.3,7.3,0,0,1,.41.9,9.32,9.32,0,0,0-1.4,0l-.17,0Zm9,.56c0-.11,0-.27.17-.13.29.3.23-.09.15-.23l0-.06c.92,0,1.82,0,2.72,0l.16.32c-.39,0-.8,0-1.2,0l-2,0ZM63.46,62h0a.13.13,0,0,1,0,.06Zm.92-.68L64.23,61h0l.18.35Zm2,.85,0,0h0l0,0Zm1.33-.06h.16a.64.64,0,0,1,0,.07h-.24l.07-.08Zm.66,0h.07l0,.06h-.1a.15.15,0,0,0,0-.07Zm.15.06,0-.06h.09c0,.06.1.08.18,0h0l0,.08-.31,0Zm.39-.06.34,0a1.12,1.12,0,0,1,0,.13l-.39,0Zm.85-.08c0-.24,0-.41,0-.53h0a2.85,2.85,0,0,0,.12.58s0,0,0,0h0a.88.88,0,0,0,.16.32l-.31-.15a1.38,1.38,0,0,0,0-.29Zm1-2.23c.06-.07.3.28.23.36s-.3-.28-.23-.36Zm-.73-4.11v0l0,0ZM60.32,29.56c.06-.06-.88-1.75-.64-2-.1.12.94,1.7.65,2.05ZM57.38,2.13c0-.06.21.13.18.17S57.35,2.17,57.38,2.13Zm-.33,6.15c-.06.06-.27-.2-.21-.27S57.1,8.21,57.05,8.28Zm-.34,4.37c0-.07.21.13.18.16S56.68,12.68,56.71,12.65ZM55.76,5s0,0,0,0c-.1-.28-.14-.77,0-.14a1,1,0,0,1,.08.3h0C55.84,5.13,55.81,5,55.76,5Zm-.39,2.33c0-.14.07-.28.1-.41.08.29.12.58,0,.67C55.53,7.56,55.45,7.44,55.37,7.35Zm0-2.54h0a2,2,0,0,1,.14-.3c.05.11.05.2-.14.3Zm.15,2.9c.06-.07.26.2.21.26S55.43,7.77,55.49,7.71Zm.31-3.78.06-.15c0-.06.06-.17.1-.3a4.48,4.48,0,0,1,.2.62,6.75,6.75,0,0,1,.05,1.35c-.23-.1-.35-1-.41-1.53Zm.43,1.62c.06-.07.27.2.21.26s-.26-.2-.21-.27Zm.11-3.27a.83.83,0,0,0,0-.15c0,.13,0,.19,0,.14Zm-2.4,9c.09,0,.08.5,0,.56s-.08-.5,0-.56Zm-.11.82c.08,0,.1.39,0,.43S53.74,12.15,53.83,12.11Zm-1.49,3.38a1.27,1.27,0,0,1,.12-.39c.22-.12-.44,1.57-.12.39Zm-.05,2c.09,0,.1.38,0,.43s-.09-.39,0-.44Zm-1.9,6.09c.09,0,.1.38,0,.43S50.3,23.6,50.39,23.56Zm-.24.78c.08-.05.1.38,0,.43s-.1-.39,0-.43Zm-.56,2.24c.08,0,.1.39,0,.43s-.11-.38,0-.43Zm-.39,2.16c.39.15-.29.5,0,0-.35-.28.35-.64,0,0Zm-.16.52h0Zm.75-1.48a52.82,52.82,0,0,1,1.27-5.43c0,.07.28-.07.34-.18a8.52,8.52,0,0,0,.41-1.3c.43-1.63,1.11-4.38,1.55-6.35.09-.36.25-1.88.4-1.73s-.13,1.25-.32,1.92a6.7,6.7,0,0,0,0,1.1c.2-.1.34-1.44.48-2,.51-2,.78-3.26,1.19-5.18.07-.34.15-.67.23-1,.13.68.48,1.56.65,2.45a21.88,21.88,0,0,0,.77,3.68c.07.16.3,0,.34.24s-.11.46-.1.75c.1,1.59,1.08,3.43,1.49,4.88s.8,3.84,1.15,5.79c.07.38.57,3,0,1.05-.5-1.64-.14.5-.08.86a12.78,12.78,0,0,0,.92,3.13,10.34,10.34,0,0,1,.35,2,10.52,10.52,0,0,0,.3,1.1,1.52,1.52,0,0,0-.2.06l-.39-1.2c-.15.18,0,.72.23,1.25l-.18,0c-.35,0-.78-.16-1,0-.05,0,0,.29-.05.29s-.14-.2-.22-.24c-.45-.21-.91.4-1.3.52a5.23,5.23,0,0,1-1.58,0c-.1,0-.82,0-.3-.23s-.15-.22-.25-.23a1,1,0,0,0-.83.3c-.16.14-.36,0-.55,0s-.57.3-.86.3c-1.09,0-2.27-.64-3.19-.24-.51.23-1.08.36-1.6.57.19-.69.39-1.38.58-2.06.83-2.91,1.2-5.71,2-8.63.17-.64.92-2.5,1.34-4.28.05-.23.45-3.06.2-2.93a40.91,40.91,0,0,0-1.12,4.49c-.43,1.77-.72,3.35-1,4.53-.74,3.27-1.57,6.19-2.37,9-.14,0-.3,0-.46.06.66-2.42,1.33-4.95,1.84-7.22ZM48.27,22c.08,0,.1.39,0,.43s-.11-.38,0-.43Zm-.16,10.63c.09,0,.1.28,0,.3s-.1-.28,0-.3Zm-6.69,20s.19-1,.33-1S41.22,53.72,41.42,52.64Zm-2.19,5.23a.71.71,0,0,1,.25-.11v0c-.16.13.14.5.09.27a1.53,1.53,0,0,1,0,.37A6.16,6.16,0,0,0,39.23,57.87Zm1.41,2.73c-.33-.59-.63-1.19-.9-1.81l.09-.22h0l.05-.12a21.63,21.63,0,0,0,1.29,2.11c0,.06,0,.27.13.3s.57,0,.36-.23c-.37,0,.24-.28,0,0a.65.65,0,0,1,.37.3l-.22,0,0,0c.05-.06-.2,0-.24,0h0c-.29,0-.56,0-.81,0a1.17,1.17,0,0,0-.14-.41Zm2.67.75s0-.07.08-.1l.07.07,0,0c-.08,0-.17,0-.19,0Zm.46-.11c0-.07.2-.2.24-.12s-.2.19-.24.12Zm.39-.11a.17.17,0,0,1,.12-.1s0,0,0,0a.27.27,0,0,1,0,.12c-.11,0-.18,0-.16-.07Zm2.76.18c0-.07.2-.2.24-.12s-.2.2-.24.12Zm2.7-.37a2.78,2.78,0,0,0-.76,0c-.5,0-1.18,0-1.88.06a0,0,0,0,0,0,0c.62,0,1.72-.12,2.19-.15l.56,0,.2.51-.15,0s-.08-.25-.15-.28ZM50,64c0-.07.2-.2.24-.12s-.2.19-.24.12Zm7.94-2.54h-.12l-.06,0s0,0,0,0h0l-.08-.08c.08.14.6-.29.7-.09a1.24,1.24,0,0,1-.45.21Zm.51-.07c0-.08.2-.2.23-.13s-.19.2-.23.13Zm.31,0c0-.08.26-.21.31-.12s-.27.21-.31.12Zm.77-.09c0-.07.2-.2.23-.12s-.2.19-.23.12Zm.38,0c.06.12.26,0,.46,0l.06.12c-.2.08-.41.13-.52-.08Zm5.69.92a.66.66,0,0,0,.12-.17l.25-.05.19.19a1.78,1.78,0,0,1-.56,0Zm.74.2Zm1.38.09-.2,0,0-.15c.27,0,.5.08.17.13Zm.39,0s0,0,0,0a.08.08,0,0,0,.07,0s0-.05,0-.11h0c0,.06-.15.16-.17.12Z"/><path id="Path_241" data-name="Path 241" class="cls-2" d="M71.31,63.21a.62.62,0,0,1-.38.13C71,63.42,71.14,63.43,71.31,63.21Z"/><path id="Path_242" data-name="Path 242" class="cls-2" d="M66.31,63.43a.2.2,0,0,0-.13,0Z"/><path id="Path_243" data-name="Path 243" class="cls-2" d="M58.7,60.71s.19-.06.15-.12S58.67,60.65,58.7,60.71Z"/><path id="Path_244" data-name="Path 244" class="cls-2" d="M71.49,62.53c0,.07.27-.05.23-.12S71.45,62.46,71.49,62.53Z"/><path id="Path_245" data-name="Path 245" class="cls-2" d="M72.41,62.59s.2,0,.23,0C73.33,62.6,72.31,62.41,72.41,62.59Z"/><path id="Path_247" data-name="Path 247" class="cls-2" d="M73.48,62.66c0-.07-.27.05-.23.12S73.52,62.74,73.48,62.66Z"/><path id="Path_248" data-name="Path 248" class="cls-2" d="M71.09,63.06s.2,0,.23,0C72,63.06,71,62.87,71.09,63.06Z"/><path id="Path_249" data-name="Path 249" class="cls-2" d="M72.32,63.14c.05.09.35,0,.31-.12S72.28,63.06,72.32,63.14Z"/><path id="Path_250" data-name="Path 250" class="cls-2" d="M73.16,63.19s.19-.06.16-.13S73.13,63.13,73.16,63.19Z"/><path id="Path_252" data-name="Path 252" class="cls-2" d="M39.78,61.11s-.2.06-.16.13S39.81,61.18,39.78,61.11Z"/><path id="Path_253" data-name="Path 253" class="cls-2" d="M71.54,63.37s.19-.06.16-.13S71.51,63.29,71.54,63.37Z"/><path id="Path_254" data-name="Path 254" class="cls-2" d="M68.46,63.57c.05.1.35,0,.31-.12S68.42,63.5,68.46,63.57Z"/><path id="Path_255" data-name="Path 255" class="cls-2" d="M68.92,63.6s.2,0,.23,0C69.85,63.61,68.83,63.42,68.92,63.6Z"/><path id="Path_256" data-name="Path 256" class="cls-2" d="M66.54,63.58c0,.06.26,0,.31,0C67.78,63.61,66.44,63.39,66.54,63.58Z"/><path id="Path_258" data-name="Path 258" class="cls-2" d="M67.77,63.66s.19-.06.16-.12S67.73,63.6,67.77,63.66Z"/><path id="Path_259" data-name="Path 259" class="cls-2" d="M63.61,63.8c.15.28.39-.1.39-.11S63.61,63.8,63.61,63.8Z"/><path id="Path_260" data-name="Path 260" class="cls-2" d="M64.23,63.84c0,.07.27-.05.23-.12S64.19,63.77,64.23,63.84Z"/><path id="Path_262" data-name="Path 262" class="cls-2" d="M62.92,63.89s.2,0,.23,0C63.84,63.9,62.82,63.71,62.92,63.89Z"/><path id="Path_263" data-name="Path 263" class="cls-2" d="M59.85,63.83c0,.1.89.06.92.06C61.62,63.84,59.72,63.58,59.85,63.83Z"/><path id="Path_264" data-name="Path 264" class="cls-2" d="M58,63.84c.17.27,1.24-.19,1.31-.05C59.13,63.44,58.4,63.84,58,63.84Z"/><path id="Path_265" data-name="Path 265" class="cls-2" d="M55.93,63.84c0,.08.27-.05.23-.12S55.89,63.77,55.93,63.84Z"/><path id="Path_266" data-name="Path 266" class="cls-2" d="M56.31,63.87c.14.28,1.48,0,1.69,0C57.78,63.45,56.47,64.18,56.31,63.87Z"/><path id="Path_267" data-name="Path 267" class="cls-2" d="M53.85,63.84c.06.12.82.06.84.06C55.54,63.85,53.77,63.68,53.85,63.84Z"/><path id="Path_268" data-name="Path 268" class="cls-2" d="M52.7,63.9c-.06.1.85.05.69.05C54.36,63.92,52.86,63.61,52.7,63.9Z"/><path id="Path_269" data-name="Path 269" class="cls-2" d="M51.85,64c.16.33.69-.09.69-.09C52.44,63.7,51.92,64.13,51.85,64Z"/><path id="Path_270" data-name="Path 270" class="cls-2" d="M52.64,34.15v0S52.63,34.13,52.64,34.15Z"/><path id="Path_271" data-name="Path 271" class="cls-2" d="M52.83,34.23s.09,0,.11,0C53.18,34.07,52.79,34.08,52.83,34.23Z"/><path id="Path_272" data-name="Path 272" class="cls-2" d="M53.29,34.14s-.06.08,0,.15S53.3,34.2,53.29,34.14Z"/><path id="Path_273" data-name="Path 273" class="cls-2" d="M53.92,34.16c.08,0,.51-.24.51-.24-.09-.27-.39.08-.56.11s-.55.13-.51.24C53.46,34.56,53.79,34.18,53.92,34.16Z"/><path id="Path_274" data-name="Path 274" class="cls-2" d="M54.89,34.11c.28-.16-.34-.09-.29.06S54.89,34.12,54.89,34.11Z"/><path id="Path_275" data-name="Path 275" class="cls-2" d="M56.49,34.23c.24-.14-.15-.13-.11,0S56.47,34.24,56.49,34.23Z"/><path id="Path_276" data-name="Path 276" class="cls-2" d="M57.06,34c0-.09-.11.09-.09.16S57.08,34.05,57.06,34Z"/><path id="Path_277" data-name="Path 277" class="cls-2" d="M57.53,34c0-.08-.11.09-.09.16S57.55,34.1,57.53,34Z"/><path id="Path_278" data-name="Path 278" class="cls-2" d="M57.76,34.13c.23-.1-.14-.16-.08,0S57.75,34.13,57.76,34.13Z"/><path id="Path_279" data-name="Path 279" class="cls-2" d="M57.86,34.11s.06-.09,0-.15S57.84,34.05,57.86,34.11Z"/><path id="Path_280" data-name="Path 280" class="cls-2" d="M57.94,34.1c0,.1.29-.06.3-.06C58.52,33.87,57.9,34,57.94,34.1Z"/><path id="Path_281" data-name="Path 281" class="cls-2" d="M39,57.49s0,0,0,0S39,57.53,39,57.49Z"/><path id="Path_282" data-name="Path 282" class="cls-2" d="M46.39,53.41c0-.06-.51-.68-.56-.62-.24.23.35.56.44.69s.6.59.55.63C47.07,53.87,46.52,53.61,46.39,53.41Z"/><path id="Path_283" data-name="Path 283" class="cls-2" d="M41.55,49.59a.21.21,0,0,1,.05-.13C41.44,49.6,41.46,49.62,41.55,49.59Z"/><path id="Path_284" data-name="Path 284" class="cls-2" d="M48.43,60s-.12,0-.16,0S48.38,60,48.43,60Z"/><path id="Path_285" data-name="Path 285" class="cls-2" d="M48.33,60.09s.13.07.18,0S48.38,60,48.33,60.09Z"/><path id="Path_286" data-name="Path 286" class="cls-2" d="M56.1,39.64h0a2.51,2.51,0,0,1,.23-.21v-.06Z"/><path id="Path_287" data-name="Path 287" class="cls-2" d="M49.05,47.55c0-.08-.26-.11-.29,0S49,47.61,49.05,47.55Z"/><path id="Path_290" data-name="Path 290" class="cls-2" d="M51.58,50.15s0,0,0,0S51.59,50.14,51.58,50.15Z"/><path id="Path_291" data-name="Path 291" class="cls-2" d="M58.08,57.41s0,.2,0,.23C58.3,58.13,58.21,57.29,58.08,57.41Z"/><path id="Path_294" data-name="Path 294" class="cls-2" d="M57.71,58.54l0,0h0Z"/><path id="Path_295" data-name="Path 295" class="cls-2" d="M56.46,58.27c-.23.22.17.24.18.23S56.46,58.27,56.46,58.27Z"/><path id="Path_296" data-name="Path 296" class="cls-2" d="M56.63,59.17h0C56.57,59.23,56.62,59.18,56.63,59.17Z"/><path id="Path_298" data-name="Path 298" class="cls-2" d="M56.4,58.72c-.07.07.11.23.17.17S56.47,58.66,56.4,58.72Z"/><path id="Path_300" data-name="Path 300" class="cls-2" d="M53.76,38.34c-.19.22.27.2.28.19S53.76,38.34,53.76,38.34Z"/><path id="Path_301" data-name="Path 301" class="cls-2" d="M55.21,41.46c.06-.06-.18-.11-.23-.05S55.16,41.51,55.21,41.46Z"/><path id="Path_302" data-name="Path 302" class="cls-2" d="M59.35,38.91c-.26.25.76.56.67.65C60.23,39.35,59.3,39,59.35,38.91Z"/></g></g><g id="Group_62" data-name="Group 62"><g id="Group_60" data-name="Group 60"><path id="Path_303" data-name="Path 303" class="cls-1" d="M135.31,102.2V87.92a.2.2,0,0,1,.19-.21h.42a.21.21,0,0,1,.21.19v14.3a.2.2,0,0,1-.19.21h-.42a.19.19,0,0,1-.21-.19Z"/><path id="Path_304" data-name="Path 304" class="cls-1" d="M143.94,88.76a.78.78,0,0,1,.82-.75h0a.76.76,0,0,1,.81.71v0a.78.78,0,0,1-.76.8h-.06a.8.8,0,0,1-.84-.76Zm.42,13.44V92.08a.2.2,0,0,1,.19-.21H145a.21.21,0,0,1,.21.19V102.2a.2.2,0,0,1-.19.21h-.42a.19.19,0,0,1-.21-.19v0Z"/><path id="Path_305" data-name="Path 305" class="cls-1" d="M154.75,91.13v.66a.1.1,0,0,0,.08.09h2.55a.2.2,0,0,1,.21.19v.35a.2.2,0,0,1-.19.21h-2.57a.09.09,0,0,0-.08.08v9.49a.19.19,0,0,1-.19.21h-.42a.2.2,0,0,1-.21-.19V92.71a.08.08,0,0,0-.08-.08h-1.37a.21.21,0,0,1-.21-.19v-.36a.21.21,0,0,1,.19-.21h1.39a.09.09,0,0,0,.08-.08v-.67c0-2.25.63-3.4,3-3.4h.5a.19.19,0,0,1,.21.19v.33a.2.2,0,0,1-.19.21H157C155.15,88.45,154.75,89.39,154.75,91.13Z"/><path id="Path_306" data-name="Path 306" class="cls-1" d="M170.37,100a.19.19,0,0,1,.21-.14l0,0,.28.08a.21.21,0,0,1,.15.24.08.08,0,0,1,0,0,3.83,3.83,0,0,1-3.73,2.37,3.72,3.72,0,0,1-3.78-2.71,11,11,0,0,1-.24-2.75,12.4,12.4,0,0,1,.17-2.58,4,4,0,0,1,7.71.21,10.45,10.45,0,0,1,.12,2.37.2.2,0,0,1-.17.23H164.2a.1.1,0,0,0-.09.07v0a9.69,9.69,0,0,0,.11,2,3,3,0,0,0,3.13,2.4A3.12,3.12,0,0,0,170.37,100Zm-6.15-5.18a13.64,13.64,0,0,0-.11,1.81.08.08,0,0,0,.07.08h6.21a.1.1,0,0,0,.09-.07h0a10.39,10.39,0,0,0-.1-1.77,3,3,0,0,0-3.09-2.39,2.92,2.92,0,0,0-3.07,2.35Z"/></g><g id="Group_61" data-name="Group 61"><path id="Path_307" data-name="Path 307" class="cls-2" d="M112.35,97.57c.8-.53.67-.49.22-.25s-1.2.68-1.67.93a13.53,13.53,0,0,1-1.85.86,6.7,6.7,0,0,1-2.22.4h-.56s0,0,.19,0a12,12,0,0,0,1.58-.2,5.51,5.51,0,0,0,1.42-.47c.11,0,.15-.08.05-.07l-.69.17c-.4.09-.76.16-1.11.21l-.26,0-.26,0-.25,0-.25,0-.26,0h-.78a2,2,0,0,1-1-.43l-.18-.15-.06-.07s0,0,.08.07a2.57,2.57,0,0,0,.57.35l0,0,.11,0,.14,0h.25a0,0,0,0,0,.05,0l-.14,0,.12,0h.81c.24,0,.49,0,.73-.07-.22,0-.23,0-.11,0a11.56,11.56,0,0,0,1.4-.28l.22-.07.22-.08a4.09,4.09,0,0,0,.42-.16l.35-.16.25-.13.15-.08c.21-.12.48-.27.5-.27s-.46.23-.93.45a7.17,7.17,0,0,1-1.27.47,3,3,0,0,1-.32.08l-.16,0-.16,0-.32,0-.33,0-.33,0h-1a2,2,0,0,1-1-.36,2.89,2.89,0,0,1-.77-.86,3.08,3.08,0,0,1-.37-2.26,2.31,2.31,0,0,1,.5-1,2.78,2.78,0,0,1,.9-.69l.13-.06.07,0,.07,0,.28-.1.3-.08.15,0,.15,0,.31,0,.31,0,.16,0h.48a6.92,6.92,0,0,1,2.47.4l.15.05.15.06.28.12c.19.1.38.18.56.29a8.4,8.4,0,0,1,1,.71,13,13,0,0,1,1,.85c.32.3.63.62,1,.94s.7.74.8.86,0,0-.59-.57c-.34-.36-.68-.71-1-1s-.67-.63-1-.93l-.54-.41a4.15,4.15,0,0,0-.57-.35,2.09,2.09,0,0,0-.29-.16l-.3-.15-.3-.13-.15-.06-.15-.06-.31-.1-.32-.08-.16,0-.17,0-.32-.05a8.66,8.66,0,0,0-1.34-.07,5.92,5.92,0,0,0-1.33.18l-.32.08-.3.12a3,3,0,0,0-.56.3,1.93,1.93,0,0,0-.28.22.46.46,0,0,0-.07.07l-.07.08-.07.07-.06.08-.1.15-.07.13,0,.09v0s0,0,0,0l0,0,.06-.09,0-.06,0-.05.1-.13.12-.13.15-.13.17-.14a3.38,3.38,0,0,1,.41-.24,3.52,3.52,0,0,1,.45-.18l.05,0h.06l.11,0,.21-.06.38-.07.08,0h.09l.17,0c.12,0,.23,0,.35,0h.71a6.35,6.35,0,0,1,1.37.18l.34.08.32.11.16.05.16.07.32.14a7.56,7.56,0,0,1,1.19.7,14.61,14.61,0,0,1,2.11,1.9c.68.7,1.36,1.43,2.14,2.1a10.63,10.63,0,0,0,1.14.86,7.38,7.38,0,0,0,1.34.69l.18.07.18.06.37.12c.25.06.5.11.76.15a7.82,7.82,0,0,0,1.53.09l.39,0,.19,0,.2,0,.19,0,.19,0,.39-.11a5.31,5.31,0,0,0,1.42-.73,4.31,4.31,0,0,0,1.07-1.18,4.4,4.4,0,0,0,.56-1.43,4.27,4.27,0,0,0-.08-1.85,4.18,4.18,0,0,0-.89-1.66,4.63,4.63,0,0,0-1.45-1.12l-.2-.1-.2-.08-.2-.09-.1,0-.1,0-.41-.12-.42-.09-.17,0-.18,0-.38,0h-.39a2.64,2.64,0,0,0-.4,0,5.48,5.48,0,0,0-1.39.3,7.62,7.62,0,0,0-1.32.54,12.52,12.52,0,0,0-1.32.8l-.75.54a4.92,4.92,0,0,0-.61.5c-.07.1.2.2.22.56,0,.13-.21.45-.18.5a1,1,0,0,0,.39.09l.39,0c-.21.07.58-.29.46-.23.61-.33,1.21-.77,1.84-1.19a9.7,9.7,0,0,1,1-.58,4.23,4.23,0,0,1,1-.4l.13,0,.12,0h.85l.29,0,.29,0,.14,0,.14,0,.28.08a4.18,4.18,0,0,1,1,.53,3,3,0,0,1,.79.83,2.61,2.61,0,0,1,.4.9,2.87,2.87,0,0,1-1,2.9,3.66,3.66,0,0,1-1,.55l-.28.08-.14,0-.15,0-.29.05-.3,0a1.51,1.51,0,0,1-.3,0h-.3l-.3,0a1.53,1.53,0,0,1-.3,0l-.3,0-.29-.07a5.15,5.15,0,0,1-.56-.16,6.84,6.84,0,0,1-1.06-.5l-.5-.32-.25-.17-.12-.09-.12-.1a19.33,19.33,0,0,1-1.8-1.7c-.59-.6-1.19-1.23-1.86-1.81l-.25-.22-.26-.21c-.17-.14-.36-.27-.54-.4a10.77,10.77,0,0,0-1.18-.7c-.2-.1-.42-.18-.63-.27s-.22-.08-.33-.12l-.33-.11a8.7,8.7,0,0,0-1.35-.26l-.34,0-.34,0h-.68c-.11,0-.22,0-.34,0l-.34,0h-.17l-.17,0-.34.07a3.37,3.37,0,0,0-.34.09l-.17,0-.17.06-.34.13-.32.16a4,4,0,0,0-1.17.91,3.45,3.45,0,0,0-.71,1.32,3.8,3.8,0,0,0-.13,1.46,4.33,4.33,0,0,0,1.29,2.69,3.12,3.12,0,0,0,1.21.73,1.59,1.59,0,0,0,.33.08,1.88,1.88,0,0,0,.33,0h.57c.25,0,0,0-.25,0h-.22l-.19,0c-.1,0-.12,0,0,0s.21,0,.36,0H107l.21,0c.29-.06.16-.06,0-.06s-.42,0-.34,0l.18,0,.18,0,.38,0,.44-.06a3.34,3.34,0,0,0,.52-.14c-.57.09-1,.14-1.51.18l-.35,0h-1a1.18,1.18,0,0,1-.25,0,.54.54,0,0,1-.22,0,3.21,3.21,0,0,1-.33-.12l-.17-.09-.16-.09-.15-.1-.13-.09a2.67,2.67,0,0,1-.8-.77,4.26,4.26,0,0,1-.54-1.09,2.83,2.83,0,0,1-.13-.5c0-.08,0-.1,0,0s0,.15.07.29a4.24,4.24,0,0,0,.18.5,4.33,4.33,0,0,0,.67,1.08c.11.13.23.25.35.37a1.12,1.12,0,0,1,.2.18l.2.08.14.08.15.09.17.08.17.07a1.32,1.32,0,0,0,.33.08l.1,0h.92l.21,0,.45,0a8.8,8.8,0,0,0,1.89-.38,9.41,9.41,0,0,0,1.81-.8C111.38,98.2,111.89,97.87,112.35,97.57Zm-6.27,1.52s0,0,.15,0h.39c.25,0,.37,0-.17,0Zm-1-.14s.2,0,.22,0,0,0-.09,0a.33.33,0,0,1-.13,0Zm-.56-.32s0,0,.09,0l.07,0,0,0s0,0-.08,0l-.12-.08Zm3.17.55s.05,0,.14-.06a.85.85,0,0,1,.23,0s0,0-.14.06A.59.59,0,0,1,107.74,99.18Zm-4.22-1.9c0-.07,0-.06,0,0s.06.12.1.21.2.39.21.43l0-.07s-.06-.11-.1-.18l-.06-.11-.06-.12-.06-.12,0-.12L103.4,97s0-.06,0,0a.35.35,0,0,0,0,.14l0,.17.1.22a3.32,3.32,0,0,1-.29-1.28v-.31a1.26,1.26,0,0,1,0-.28.5.5,0,0,1,0-.12l0-.11,0-.1,0-.08a2.24,2.24,0,0,1,.26-.54,1,1,0,0,1,.27-.32s0,0,0,.06l-.06.07-.07.1a1.82,1.82,0,0,0-.15.23l-.11.22a2.69,2.69,0,0,0-.16.62l0,.22v.2a.74.74,0,0,0,0,.21,2.09,2.09,0,0,0,0,.25l0,.15a1.22,1.22,0,0,0,0,.17,3.2,3.2,0,0,0,.1.42Zm.55,1.39a2.81,2.81,0,0,1-.29-.31l-.1-.14a.75.75,0,0,1-.07-.12,1,1,0,0,1-.09-.16s0-.06,0-.06l0,0a.77.77,0,0,0,.1.15.75.75,0,0,0,.07.12l.09.14.26.34c.12.1.23.2.33.27l.14.1.11.07c.14.09.21.13.2.14s-.09,0-.22-.1l-.12-.07-.14-.11a2.13,2.13,0,0,1-.3-.3Zm4.42-5.48h-.29l-.32,0,.06,0,.16,0A.74.74,0,0,1,108.49,93.19ZM103.1,96.8s0,.06.06.19a.3.3,0,0,1,0,.1l0,.1c0,.08,0,.16.06.22a2.41,2.41,0,0,1,.08.25l0-.08,0-.12,0-.08,0-.1a1.78,1.78,0,0,1-.07-.25,1.57,1.57,0,0,1,0-.23Zm13.3,2.28s-.11-.07-.3-.22-.42-.37-.62-.57c-.39-.39-.64-.67-.13-.18l.16.16.35.32.18.16.18.15.19.18Zm-6.73-5.65h0l-.15,0-.2-.06-.21,0c-.27-.06-.42-.11.14,0l.46.14Zm-6.57,2.13a1.19,1.19,0,0,0,0,.42.67.67,0,0,1,0,.2.7.7,0,0,1,0,.25s0-.08,0-.23a3.08,3.08,0,0,1,0-.61,1,1,0,0,1,0-.17l0-.16c0-.11.07-.21.1-.3a1.24,1.24,0,0,1,.11-.23.75.75,0,0,1,.07-.12s0,0,0,0-.07.14-.12.24l0,.09,0,.09-.07.18c0,.13,0,.25-.07.34Zm1.17-1.86a1,1,0,0,1,.19-.16l.17-.12.24-.08s0,0-.09.07l-.2.11-.14.08-.18.1c-.21.18-.35.34-.46.44s-.15.17-.16.17,0-.06.11-.18l.08-.09.12-.11a2.62,2.62,0,0,1,.32-.23Zm8.52,1.56s-.28-.17-.31-.22.28.17.31.22Zm-6.55-2.33s-.07,0-.22,0l-.13,0-.13,0-.26.06-.2.06h-.07a2.29,2.29,0,0,1,.51-.15A2.89,2.89,0,0,1,106.24,92.93Zm1-.1a4.68,4.68,0,0,1-.64,0h-.26a2.57,2.57,0,0,1,.4,0H107a1,1,0,0,1,.24,0Z"/><path id="Path_308" data-name="Path 308" class="cls-2" d="M104.78,98.47s.23.15.42.24l.12.05.05,0-.06,0a.16.16,0,0,1-.09,0l-.12-.06-.07,0-.1-.07A.58.58,0,0,1,104.78,98.47Z"/><path id="Path_309" data-name="Path 309" class="cls-2" d="M104.17,97.8s.17.24.33.41l.13.15-.06,0-.07-.07-.1-.11-.05-.07a.44.44,0,0,1-.08-.1l-.07-.1Z"/><path id="Path_310" data-name="Path 310" class="cls-2" d="M103.79,97c0-.06.08.24.16.43l.06.17a.16.16,0,0,1,0-.07,1.6,1.6,0,0,1-.1-.23A1.11,1.11,0,0,1,103.79,97Z"/><path id="Path_311" data-name="Path 311" class="cls-2" d="M103.69,95.93s0,0,0,.16a.54.54,0,0,0,0,.18v.18c0,.24,0,.37,0-.11a1.55,1.55,0,0,1,0-.22A.68.68,0,0,1,103.69,95.93Z"/><path id="Path_312" data-name="Path 312" class="cls-2" d="M103.87,95.16s0,0,0,0a.26.26,0,0,1,0,.1,1.21,1.21,0,0,1,0,.14s0,.11-.05.16,0,.17,0,.16v-.08s0-.12.06-.23,0-.1,0-.14A.54.54,0,0,1,103.87,95.16Z"/><path id="Path_313" data-name="Path 313" class="cls-2" d="M108.7,98.91a4.19,4.19,0,0,1,.59-.22c.27-.09.42-.13-.12.08Z"/><path id="Path_314" data-name="Path 314" class="cls-2" d="M110.64,98.14a2.06,2.06,0,0,1,.61-.35C111.31,97.78,111.17,97.9,110.64,98.14Z"/><path id="Path_315" data-name="Path 315" class="cls-2" d="M110.64,98.14a2.77,2.77,0,0,1-.88.43A5.52,5.52,0,0,1,110.64,98.14Z"/><path id="Path_317" data-name="Path 317" class="cls-2" d="M109.06,99.38l.29-.12a2.52,2.52,0,0,1,.33-.13l-.06,0-.15.1A.87.87,0,0,1,109.06,99.38Z"/><path id="Path_319" data-name="Path 319" class="cls-2" d="M108.55,99.6c-.47.05-.55,0-.46,0s.39-.06.65-.12l.19,0,.17,0a.63.63,0,0,1,.19,0l-.13,0a1.63,1.63,0,0,1-.23.07Z"/><path id="Path_320" data-name="Path 320" class="cls-2" d="M109.92,99.13s.07-.06.19-.12a1,1,0,0,1,.28-.13s-.06.06-.17.12A1.14,1.14,0,0,1,109.92,99.13Z"/></g></g></svg>