<svg id="Logo_-_Wind" data-name="Logo - Wind" xmlns="http://www.w3.org/2000/svg" viewBox="0 0 297.12 110.88"><defs><style>.cls-1,.cls-2{fill:#302a2c;}.cls-2{fill-rule:evenodd;}</style></defs><title>habitat-logo-dark</title><g id="Group_59" data-name="Group 59"><g id="Group_50" data-name="Group 50"><path id="Path_10" data-name="Path 10" class="cls-1" d="M21.07,0,20.7.14l.51-.09Z"/><path id="Path_11" data-name="Path 11" class="cls-1" d="M20.31.05c-.64-.22-1.12.45-1.54.31.07,0,0,.06.11.09Z"/><path id="Path_12" data-name="Path 12" class="cls-1" d="M18,.41c.22,0,.4,0,.34-.1a1.45,1.45,0,0,0-.36,0,2.58,2.58,0,0,0-.39,0,2,2,0,0,0-.41.14A2.81,2.81,0,0,1,18,.41Z"/><path id="Path_13" data-name="Path 13" class="cls-1" d="M24.3,57.55q-.09-3.72-.26-7.45V16.61c.12-1.92.26-3.9.21-5.89l-.1.15a10.41,10.41,0,0,0-.1-2.95V7.29a1.4,1.4,0,0,1,.13-.57l0,.15A2.19,2.19,0,0,0,24,5.61v-2a3.11,3.11,0,0,0-.22-1.13,1.89,1.89,0,0,0-.28-.5A2.37,2.37,0,0,0,23,1.44c-.2-.16-.34-.3-.3-.45.53.27-.76-.6.5-.08A2.45,2.45,0,0,0,22,.45c-.49-.07-.88,0-.8.13-.07.12-.26.24-.3.35H17v30H10.17a2.38,2.38,0,0,1-2-.62,2.7,2.7,0,0,0,2.14.56l2.35-.05c-.1,0-.13.06-.23.08a4.63,4.63,0,0,1,1-.13c.09,0-.1.07-.21.08a9.21,9.21,0,0,0,1.82.07l1.84-.08a3.86,3.86,0,0,1,0-.9c0-.38-.12-.54-.2-.34-.06-4.93-.1-10.22-.3-15.25,0-.24.1-.28.19-.22-.2-2.14-.26-4.34-.26-6.54,0-2.39.06-4.79.08-7.17h.06c.07,0,0-.06-.14-.08s-.06.37-.13-.13h0c0,.57,0,1.32,0,1.77s.05.65.07,1a7.88,7.88,0,0,1,0,1.88l-.1-.17c-.06.93.25.19.12,1.16-.08.38-.12-.1-.13.08a58.44,58.44,0,0,0,.19,5.92c-.21.46,0,2.13-.21,2.87a4.22,4.22,0,0,0,.21,1.22c-.05,2.48,0,5,0,7.48,0,2.32.05,4.65.08,7l-5.57,0a3.3,3.3,0,0,1-2.27-.22c-.54-.44-.5-1.4-.47-2.34.06-1.91.15-3.89.08-5.87,0,0,0,0,0,0a46,46,0,0,1-.1-4.7L8,16c.1-2.48.15-5,.18-7.48,0-2.66,0-5.32,0-8H4.44A9.86,9.86,0,0,0,2.72.55a3,3,0,0,0-1.67.9A3.15,3.15,0,0,0,.26,3.16c-.07.66,0,1.13-.05,1.7l0,3.26c-.1,10.68-.41,20,.14,30.43,0,0-.06.07-.08-.2.09,3-.06,5.73,0,8.56h0c.35,7,0,14.58.33,21.37v.93H7.87c0-3,0-6.13,0-9.29s-.06-6.23-.09-9.29l.09,0c-.06-2.17,0-4.31,0-6.44L7.94,38l3.7,0h3.91a1.51,1.51,0,0,1,1.19,1.73c0,.91,0,1.82,0,2.73,0,1.83.1,3.66.15,5.51,0,1.45.08,2.9.11,4.36V58c0,.36,0,.72,0,1.08a39.91,39.91,0,0,0-.08,4.89c0,.77.07,1.54.1,2.3v2.84h4.82c.74,0,1.45.1,2.36.13,0-1,.07-2,.11-3l.05-2.88C24.36,61.37,24.34,59.46,24.3,57.55ZM8.18,30.25a1.52,1.52,0,0,1-.24-.41A2.33,2.33,0,0,0,8.18,30.25Zm-.34-.69c0,.05,0,.11,0,.16a.94.94,0,0,1,0-.16Zm-7.16-19v1.73A16.64,16.64,0,0,1,.68,10.59Zm0,2.47v.51c0-.2,0-.4,0-.61Zm0,3.61v4.76A25.23,25.23,0,0,1,.68,16.67Zm0,5.6v.38s0,0-.05,0Z"/><path id="Path_14" data-name="Path 14" class="cls-1" d="M13.25,30.82h0C13.14,30.83,13.18,30.83,13.25,30.82Z"/></g><g id="Group_51" data-name="Group 51"><path id="Path_15" data-name="Path 15" class="cls-1" d="M109.84,42.1l0,0,.14.07Z"/><path id="Path_16" data-name="Path 16" class="cls-1" d="M110.15,42.58l.09,0-.39-.28C109.63,42.4,110.29,42.5,110.15,42.58Z"/><path id="Path_17" data-name="Path 17" class="cls-1" d="M110.11,42.66c-.09.11.09.16.15.18C110.12,42.81,110.31,42.64,110.11,42.66Z"/><path id="Path_18" data-name="Path 18" class="cls-1" d="M109.84,11.44l0,0,.14.07Z"/><path id="Path_19" data-name="Path 19" class="cls-1" d="M110.15,11.92l.09,0-.39-.28C109.63,11.74,110.29,11.84,110.15,11.92Z"/><path id="Path_20" data-name="Path 20" class="cls-1" d="M110.11,12c-.09.11.09.16.15.18C110.12,12.14,110.31,12,110.11,12Z"/><path id="Path_21" data-name="Path 21" class="cls-1" d="M118.54,40.19a1.7,1.7,0,0,1,.1.37l0-.12A1.65,1.65,0,0,0,118.54,40.19Z"/><path id="Path_22" data-name="Path 22" class="cls-1" d="M118.14,39c0,.05-.06,0-.07.09a6.22,6.22,0,0,1,.53.84C118.78,39.48,118.05,39.3,118.14,39Z"/><path id="Path_23" data-name="Path 23" class="cls-1" d="M117.79,38.25c.19.07.16.62.32.5A.49.49,0,0,0,117.79,38.25Z"/><path id="Path_24" data-name="Path 24" class="cls-1" d="M118.11,40.54a3.7,3.7,0,0,0-.35-.17,5.75,5.75,0,0,0-4-5.37,5.82,5.82,0,0,0,4-5.55V18.8c0,1,.08,2,.11,3,0-.05-.06-.07-.08-.13a1.83,1.83,0,0,1,.14.57c0,.05-.07-.06-.09-.12-.24.78.16,2.27,0,2.76,0,.21.13.31.2.19,0,1.43.07,2.91.1,4.4a6.92,6.92,0,0,1-1.53,4.44c-.12.1-.2.07-.22,0a6.55,6.55,0,0,1-.49.56l-.27.23-.1.1a1.31,1.31,0,0,1-.37.24,1.76,1.76,0,0,1,.4.16l.09.05.14.1a3.75,3.75,0,0,1,.53.44A6,6,0,0,1,117.78,38c.14.06,0-.3.2-.09-.25-.92-1-1.36-1.45-2.07h.15c-.42-.46-.26.1-.66-.42-.15-.21.13-.06,0-.13l-.24-.17-.06,0-.07,0-.18-.06s0-.06.07-.19l.15,0a2.63,2.63,0,0,0,.4-.28,7,7,0,0,1,.8-.64c.18-.3.37-.58.33-.76A6.61,6.61,0,0,0,118.38,30c.06-1.16,0-2.08,0-3.14,0-2.05-.08-4.11-.07-6.17-.42-1.93.08-4.25-.07-6.54,0,0,0,0,0,0h0a14.67,14.67,0,0,1-.1-2.73l-.18-.75a9.61,9.61,0,0,0-.36-4.13A8.78,8.78,0,0,0,115.36,3,9,9,0,0,0,111.65.85a15.23,15.23,0,0,0-4.2-.43L101.81.3l-2.74,0H95.68l0,2.31.06,1.64c0,1.1.12,2.22.22,3.35,0,0-.06,0-.08-.11.09,1.74-.06,3.32,0,5h0c.35,4.07,0,8.47.33,12.4,0,4.78,0,10.18.11,15.23h-.09c.18,4-.26,8-.13,12-.13,2.89.15,5.9.25,8.87v3.22c0,.21,0,.42,0,.63a18.84,18.84,0,0,0,0,4.18v.14h4.33a48.71,48.71,0,0,0,7.24.28,10.39,10.39,0,0,0,3.71-.56,7.18,7.18,0,0,0,1.18-.58,8.68,8.68,0,0,0,4.94-7.71V50.63a24.35,24.35,0,0,0,.21-3.42l-.1.09a3.59,3.59,0,0,0-.11-1.72v-.36a.65.65,0,0,1,.14-.33l0,.09c.12-.23,0-.49-.16-.73V42.36a.67.67,0,0,0,0-.2v-.53c0-.15.08-.26.24-.28,0,.3.2-.46.31.2C118.37,41.37,118.34,40.46,118.11,40.54Zm-8.83-32c.26.3.43.63.66.89l.07-.08c-.07.22.23.3.37.42l.06.14a.24.24,0,0,1-.09.15l0,0c-.08.1.07.13.21.17a3.55,3.55,0,0,1,.16.91s-.08.07-.21.08-.2.15-.32,0a.22.22,0,0,0,.11.29.2.2,0,0,0,.11,0c.12,0,.24.05.35.06v8.56c0-.33-.09-.67-.12-1,0,0,.06,0,.08.05s-.15-.13-.13-.2.06,0,.08,0c.24-.27-.15-.78,0-.94a.13.13,0,0,0-.19-.07h0a21.91,21.91,0,0,0-.3-3,.22.22,0,0,1,.19,0,5,5,0,0,1-.18-2.61c-.1,0-.11.09-.21,0-.13.28.25.51.06.77l-.1,0c-.06.19.25,0,.12.23s-.12,0-.13,0a2.35,2.35,0,0,0,.19,1.17c-.22.09,0,.42-.22.57.09.1.07.2.21.24-.11,1.37.09,2.78.08,4.19.42.65-.08,1.44.06,2.22a0,0,0,0,1,0,0,1.75,1.75,0,0,1,.1.93l.18.26c-.37,1.81-.08,3.74-.28,5.52a3.19,3.19,0,0,1-1.14,2.19,6,6,0,0,1-2.41.89s0-.06,0-.08c-.6.09-1.14-.06-1.7,0v0a5.69,5.69,0,0,1-.81.13,5.44,5.44,0,0,1-.57,0,8.84,8.84,0,0,0-.17-2.24c0-1.63,0-3.47-.11-5.19h.08c-.17-1.38.27-2.71.13-4.08a13.38,13.38,0,0,0-.24-3v-1.1c0-.07,0-.14,0-.21a2.26,2.26,0,0,0,0-1.43V12.69a5.64,5.64,0,0,0,.29-2.34,9.37,9.37,0,0,0-.16-1.2c0-.22-.08-.43-.13-.66V7.94h3.82A4,4,0,0,1,109.28,8.52Zm.29,22.4h.08l-.05.06s0,0,0,0Zm.21-.15a1,1,0,0,1,.38-.6l.1-.11a3.1,3.1,0,0,1-.48.7Zm.8-1.64a.46.46,0,0,1,0-.21c0,.07,0,.13,0,.2Zm0,.2,0,.05a.06.06,0,0,0,0-.06Zm-1.2,32.2s0,0,0,0h.07Zm1.4-10.78c0-.34-.09-.67-.12-1l.08.05c0-.06-.15-.13-.13-.2s.06,0,.08,0c.24-.27-.15-.78,0-.94a.13.13,0,0,0-.19-.07h0a22.21,22.21,0,0,0-.3-3,.22.22,0,0,1,.19,0,5.07,5.07,0,0,1-.18-2.62c-.1,0-.11.09-.21,0-.13.28.25.52.06.77l-.1,0c-.06.18.25,0,.12.23s-.12,0-.13,0a2.37,2.37,0,0,0,.19,1.18c-.22.09,0,.42-.22.57.09.1.07.2.21.24-.11,1.38.09,2.79.08,4.2.42.66-.08,1.46.06,2.24h0a1.75,1.75,0,0,1,.1.93l.18.26c-.37,1.81-.08,3.76-.28,5.52a2.62,2.62,0,0,1-1.33,2,8.94,8.94,0,0,1-2.57.76s0-.07,0-.08c-.6.08-1.14-.07-1.7,0v-.05a4.5,4.5,0,0,1-1,.15,10.8,10.8,0,0,0-.17-2.6c0-1.63,0-3.48-.11-5.21h.08c-.17-1.38.27-2.71.14-4.1a13.44,13.44,0,0,0-.25-3V45.8c0-.07,0-.14,0-.21a2.33,2.33,0,0,0,0-1.43V42.64a7.64,7.64,0,0,0,0-4.24v-.2h3.81a3.76,3.76,0,0,1,2.44.77c.22.34.33.7.53,1l.08-.07c-.1.22.17.34.3.47s0,.12.05.18a.31.31,0,0,1-.09.11l0,0c-.1.1,0,.15.19.2a5.65,5.65,0,0,1,.12.92.34.34,0,0,1-.22.07c0-.1-.2.16-.32,0,0,.06,0,.35.21.32l.35.06Zm-.16,9,0,.12,0-.12Zm-.1.34s0,.06,0,.1,0-.08,0-.12Zm-.33.67a2.73,2.73,0,0,1-.6.67,1.06,1.06,0,0,1,.48-.56l.13-.11ZM106,.93h-1A4.18,4.18,0,0,1,106,.93Zm-1.44,0h-.3l.36,0Zm-2.1,0H99.69a8.58,8.58,0,0,1,2.77,0ZM99.2.93H99s0,0,0-.06Z"/><path id="Path_25" data-name="Path 25" class="cls-1" d="M117.85,22.09v0S117.84,22.05,117.85,22.09Z"/></g><g id="Group_52" data-name="Group 52"><path id="Path_26" data-name="Path 26" class="cls-1" d="M149.81,0l-.18.14.25-.09Z"/><path id="Path_27" data-name="Path 27" class="cls-1" d="M149.44.05c-.31-.22-.55.45-.76.31,0,0,0,.06.06.09Z"/><path id="Path_28" data-name="Path 28" class="cls-1" d="M148.47.31a.39.39,0,0,0-.45.16C148.12.33,148.53.51,148.47.31Z"/><path id="Path_29" data-name="Path 29" class="cls-1" d="M152.72,45.28V42.55c0-.17,0-.35,0-.53a13.69,13.69,0,0,0,0-3.56V34.7a45.39,45.39,0,0,0,0-10.42V7.81a17.45,17.45,0,0,0,.21-2.9l-.1.08a2.64,2.64,0,0,0-.12-1.47c0-.1,0-.2,0-.31a.67.67,0,0,1,.08-.3l0,.08c.07-.23-.14-.43-.35-.55h0a2.57,2.57,0,0,0-1-1.08.72.72,0,0,0-.24-.14L151,1.12c-.21-.07-.39-.13-.36-.35.28.06-.4-.3.26-.26-.18-.15-1.09-.17-1,.07a3.35,3.35,0,0,0-.15.35h-4V18.19c0-.83-.08-1.67-.11-2.52,0,.05.06.07.07.12a1.37,1.37,0,0,1-.13-.49s.07,0,.08.1c.25-.65-.15-1.92,0-2.33,0-.19-.13-.27-.2-.17-.06-2.43-.11-5-.3-7.51,0-.12.1-.14.18-.11a14.13,14.13,0,0,1-.23-2.16l0-1.09,0-1.71,2.76.07c.09-.1-.22-.11,0-.22a2.71,2.71,0,0,0-1,.06l-.23,0-.39,0a4,4,0,0,1-.84-.06l.08-.1c-.6,0-.4.08-.45.13a.94.94,0,0,1,0,.44c-.08.28-.13-.17-.13,0,0,.67,0,1.35,0,2a6.3,6.3,0,0,0,.17,1.44c-.22.23,0,1.05-.21,1.41.08.25.06.5.2.6-.11,3.42.1,6.91.08,10.41.42,1.64-.08,3.6.06,5.55a0,0,0,0,1,0,0h0a11.89,11.89,0,0,1,.1,2.31l.17.64c-.36,4.56-.1,9.21-.25,13.83-.1,5.26-.41,9.86.14,15,0,0-.06,0-.08-.1.08,1.48-.07,2.82,0,4.22h0a52,52,0,0,1,.15,5.3c0,.89,0,1.77,0,2.65l.05,1.29a1.77,1.77,0,0,0,.5,1.27,2.1,2.1,0,0,0,1.56.69c.57,0,1.12,0,1.7,0l3.66,0c0-2-.07-4.15-.1-6.22h.08c-.17-3.43.27-6.74.13-10.17C153.1,50.36,152.82,47.81,152.72,45.28Zm-7-5.16V41A3,3,0,0,1,145.68,40.12Zm0,1.21v.25c0-.1,0-.2,0-.3Zm0,1.78v2.34a6.14,6.14,0,0,1,0-2.34Zm0,2.75v.19h-.06Z"/><path id="Path_30" data-name="Path 30" class="cls-1" d="M145.59,15.4v0S145.6,15.44,145.59,15.4Z"/></g><g id="Group_55" data-name="Group 55"><path id="Path_31" data-name="Path 31" class="cls-1" d="M205.57,6c-.39.88-1.46,1.85-3.71,1.85h-5.48a1.81,1.81,0,0,0-1.76,1.65V69.06h-5c-1.66,0-1.95-1-1.95-1.46V7.84h-9.87V3.07A2.16,2.16,0,0,1,180,.93h28Z"/><g id="Group_54" data-name="Group 54"><path id="Path_32" data-name="Path 32" class="cls-1" d="M205.57,6c-.39.88-1.46,1.85-3.71,1.85h-5.48a1.81,1.81,0,0,0-1.76,1.65V69.06h-5c-1.66,0-1.95-1-1.95-1.46V7.84h-9.87V3.07A2.16,2.16,0,0,1,180,.93h28Z"/><g id="Group_53" data-name="Group 53"><path id="Path_33" data-name="Path 33" class="cls-1" d="M206.37,6.36l.09-.06,0-.27Z"/><path id="Path_34" data-name="Path 34" class="cls-1" d="M206.74,4.83s-.07,0-.11,0l0,1C207,5.57,206.49,5,206.74,4.83Z"/><path id="Path_35" data-name="Path 35" class="cls-1" d="M206.89,4.61A.54.54,0,0,0,207,4C207.07,4.19,206.68,4.6,206.89,4.61Z"/><path id="Path_36" data-name="Path 36" class="cls-1" d="M180.75.4h.11A.2.2,0,0,0,180.75.4Z"/><path id="Path_37" data-name="Path 37" class="cls-1" d="M177.91,7l.15,0A11.28,11.28,0,0,1,178,4.7l0-1.22a3.3,3.3,0,0,1,.11-1.13v.1a2.1,2.1,0,0,1,2.16-1.35L183.18,1l5.89-.2c-.07,0-.09.05-.15.07a1.91,1.91,0,0,1,.62-.13c.06,0-.06.07-.13.08.85.24,2.49-.15,3,0,.24,0,.34-.13.21-.2,3.14-.07,6.5-.11,9.7-.3.16,0,.18.1.14.18a24.58,24.58,0,0,1,2.7-.23l1.43,0h2.28l-1.72,3.52c.05.14.22-.21.2.08a4.07,4.07,0,0,0,.48-1.16c.09-.27.19-.54.3-.8a10.54,10.54,0,0,1,.5-.94l0,.12c.5-.94-.11-.21.23-.85l-.2,0c-.32-.09.28-.13.09-.14a28.2,28.2,0,0,0-4.86.2c-.29-.22-1.35,0-1.82-.22-.33.09-.65.07-.78.21C197,.19,192.43.4,187.91.39c-2.11.41-4.65-.08-7.16.06,0,0,0,0,0,0l-.68.07a3.18,3.18,0,0,0-.87.16,2.84,2.84,0,0,0-1.43,1.12,2.35,2.35,0,0,0-.17,1c-.12.92-.11,1.71-.16,2.58l0,1.28,0,1.71,9.84,0,0,2.39c-.1,6.76-.41,12.68.14,19.27,0,0-.06,0-.08-.13.09,1.9-.06,3.63,0,5.42h0c.35,4.44,0,9.24.33,13.52,0,5.21,0,11.1.1,16.61h-.08c.05.84,0,1.66.07,2.51a1.44,1.44,0,0,0,.77,1,2.78,2.78,0,0,0,1.24.28l2.48.08,2.75.06V67.49l0-1.58c.19-4.53-.48-9.32-.23-13.88.41-2.83-.46-6.54,0-9.19.64-5.46.23-10.74-.15-16.19.22-5-.36-10,.1-14.92a11.78,11.78,0,0,1-.07-1.78,2,2,0,0,1,.75-1.67,1.54,1.54,0,0,1,.85-.33A7.5,7.5,0,0,1,197,8c.64.05,1.28.06,1.92.05l-.09-.1c.93.31,2.06-.44,2.64,0l-.1,0c.5.24,1.12-.57,1.42-.35l.06-.12c.55-.14.09.12.53.07.16-.07,0-.21.35-.27.12.22.46.06.75-.15s.53-.46.74-.3c-.26.26.56-.28,0,.4a1.8,1.8,0,0,0,.53-.6c.16-.28.2-.56.08-.55-.19-.18-.22-.6-.63-.16l.1.18c-.25.08-.16.08-.3.06-.46.54-.74.36-1.16.5h0c-.19.34-.7.37-1,.38l-.1-.08c-.18-.16-.76.48-.58.12-1.52.11-3.42.09-5.2.1a2.62,2.62,0,0,1-.74.07c-.35,0-.56.13-.3.2a1.55,1.55,0,0,0-1.38.45,2.3,2.3,0,0,0-.7,1.36.14.14,0,0,1,0-.16,1.36,1.36,0,0,0-.15.47,1.22,1.22,0,0,0,0,.27,1.8,1.8,0,0,0,.09.45,1.19,1.19,0,0,1-.09,1c.32.14-.11,1.63.28,2.14-.08.11-.14.15-.2.11,0,1.61-.13,3.4-.14,4.76.28,1.17-.13,2.83.26,3.84a15.52,15.52,0,0,0-.09,3.34l-.05-.12a19.11,19.11,0,0,0,.3,3.85c-.38.39-.3.95-.43,1.52.18.87.13,2.64.29,4-.18.2.07,1.1-.18,1.17a59.38,59.38,0,0,1-.06,12.36v-.06c.14.52.44,1.12.63,1.64,0,.06-.07.05-.07-.06.05.73-.2,1.41-.15,2.14,0,0,0,0-.09-.12a20.55,20.55,0,0,0,0,2.22l-.07,0,.09.52c-.08,0-.21,0-.18-.31,0,2.42,0,4.86.08,7.33.06,2.31.13,4.63.19,7l-1.74,0h-2.21l.23-.08c-.41,0-.85.11-1.2.11,0,0,.07,0,.12-.07-.7-.12-1.15-.42-1.2-1,0-.8-.09-1.6-.07-2.38,0,0,.12.25.17,0-.23-1.15.3-1.84-.18-2.42a.09.09,0,0,1,.12,0,.08.08,0,0,1,.05.07c-.16-3.19-.15-6.46-.07-9.67-.43-2.68,0-5.67-.39-8.45l.09,0c-.3-3.6,0-7.42,0-11.14,0-1.55-.07-2.6-.07-4.15l.1,0c-.4-2.62.37-5.51-.08-8.24l.15.19c-.23-.43.08-1.66-.31-1.49l.12-.49c-.51-1.85.23-3.37-.1-5.65l.09.15a6.48,6.48,0,0,1,0-1.76c0,.07,0,0,.06.18a10.1,10.1,0,0,0,.15-2.2l0-1.14-.07-1.25c-.6,0-1.13.06-1.62,0l.23-.17c-1,.2-2.75,0-4,.11l.08-.08-.65.11,0-.16c-.68,0-1.34,0-2,0l-1.85.09Z"/><path id="Path_38" data-name="Path 38" class="cls-1" d="M189.41.84h0C189.35.85,189.37.85,189.41.84Z"/><path id="Path_39" data-name="Path 39" class="cls-1" d="M203.75,6.75l.16,0S203.8,6.74,203.75,6.75Z"/></g></g></g><g id="Group_56" data-name="Group 56"><path id="Path_40" data-name="Path 40" class="cls-1" d="M284.7,48.29h0s0,0,0-.05Z"/><path id="Path_41" data-name="Path 41" class="cls-1" d="M266.77,7.1a12.87,12.87,0,0,0,.11-2.4l0-1.22A2.51,2.51,0,0,1,267,2.24l-.09.1A2.36,2.36,0,0,1,269.46.75l2.93.08,2.76.1h22l-2.26,4.88c.1,0,.16.12.11.42l-.21,0c0,.27,0,.18.05.32-.53.7-.51.94-1.05,1.38,0,0,0,0,0,0a7.08,7.08,0,0,0-1.36.4l-.12.12c-.19.25-1-.29-.73,0-1.69-.06-3.47-.08-5.28-.08a2.93,2.93,0,0,0-.72-.07c-.18,0-.32,0-.2-.15a4.6,4.6,0,0,0-.55.62,1.93,1.93,0,0,0-.26.69,0,0,0,0,0,.06,0h0c0,.14.07,0,.08.17a.82.82,0,0,1,0,.27,1.64,1.64,0,0,1-.09.44,1.17,1.17,0,0,0,.09,1c-.33.14.1,1.63-.28,2.13.07.12.14.15.2.11,0,1.62.13,3.4.14,4.77-.29,1.17.13,2.83-.27,3.83a14.37,14.37,0,0,1,.09,3.34l.05-.11a18.4,18.4,0,0,1-.29,3.85c.38.38.3.95.43,1.52-.18.87-.13,2.64-.29,4,.18.2-.07,1.1.18,1.17a60.07,60.07,0,0,0,0,12.36c-.14.51-.43,1.08-.61,1.59,0,.05.07.05.07-.07-.05.73.2,1.42.15,2.15,0,0,0,0,.08-.13a20.4,20.4,0,0,1,0,2.22l.07.05-.1.51c.09,0,.21,0,.19-.31,0,2.42,0,4.87-.08,7.33,0,1.24-.07,2.47-.1,3.71l-.05,1.86,0,2.33-2.67,0h-2.21l.24.08c-.42,0-.82-.07-1.3-.17,0,0,.06.07.13.1a2.27,2.27,0,0,1-1.4-.45,1.79,1.79,0,0,1-.67-1.44c0-.81.09-1.61.07-2.38,0,0-.12.24-.17,0,.23-1.14-.3-1.84.18-2.41a.09.09,0,0,0-.12-.05.12.12,0,0,0-.05.07c.16-3.18.15-6.46.07-9.67.44-2.67.05-5.67.39-8.44h-.09c.3-3.6,0-7.41,0-11.14,0-1.55.07-2.6.08-4.15l-.11,0c.41-2.62-.37-5.5.08-8.24l-.15.19c.22-.4,0-1.48.25-1.49v-.24l-.06-.24c0-.1,0-.2.06-.3v-3a12.82,12.82,0,0,1,0-2v-.32l-.05.09c0-.18,0-.37.05-.56V12.26a.37.37,0,0,0,0-.11c0,.07,0,0-.06.18a10.23,10.23,0,0,1-.15-2.21c0-.37,0-.75.05-1.14l.07-1c-.42,0-.9-.05-1.41-.05l.22.17c-1-.2-2.75,0-4-.1l.08.08L271,7.92l0,.16c-.68,0-1.34,0-2,0L266.91,8l0-1A1,1,0,0,0,266.77,7.1ZM294,7a3.28,3.28,0,0,1-.38.27l.07,0A1.66,1.66,0,0,0,294,7Zm-2,.92.1.1c.61-.08.05-.13.49-.28.17,0,.13.2.46,0,0-.18.16-.29.4-.4a4.88,4.88,0,0,1-2.12.52c.27.12.52.23.66.06Zm-1.73,0h-.4A1.34,1.34,0,0,0,290.32,7.84Zm-6.43,3.89A11.73,11.73,0,0,0,284,10a2,2,0,0,1,.47-1.65,1.91,1.91,0,0,0-.61,1.2V29.21c.06-.86.12-1.7.18-2.57-.22-5,.36-10-.11-14.91Zm-.05,31.11c0-.08,0-.16,0-.23v4.84a22.2,22.2,0,0,0,0-4.61Zm0,9.87v3.51C283.86,55,283.87,53.87,283.82,52.71Z"/><path id="Path_42" data-name="Path 42" class="cls-1" d="M293.76,8s-.14.1-.2.13A1.37,1.37,0,0,0,293.76,8Z"/></g><g id="Group_57" data-name="Group 57"><path id="Path_43" data-name="Path 43" class="cls-2" d="M239.05,70.32a.45.45,0,0,1,0,.16A.16.16,0,0,0,239.05,70.32Z"/><path id="Path_44" data-name="Path 44" class="cls-2" d="M237.06,69.83v0S237.09,69.84,237.06,69.83Z"/><path id="Path_45" data-name="Path 45" class="cls-2" d="M239,70.48l0,0Z"/><path id="Path_46" data-name="Path 46" class="cls-2" d="M240.35,60.29c.08,0-.1-.13-.18-.11S240.27,60.3,240.35,60.29Z"/><path id="Path_47" data-name="Path 47" class="cls-2" d="M240.26,61c-.14,0,0,.37,0,.38C240.47,61.73,240.43,60.92,240.26,61Z"/><path id="Path_48" data-name="Path 48" class="cls-2" d="M240.18,61.77c-.08,0,.1.12.18.11S240.26,61.75,240.18,61.77Z"/><path id="Path_49" data-name="Path 49" class="cls-2" d="M240.28,62.69c.05,0-.1-.09-.17-.07S240.21,62.71,240.28,62.69Z"/><path id="Path_50" data-name="Path 50" class="cls-2" d="M240,63.47c-.32.07.18.18.19.17S240,63.47,240,63.47Z"/><path id="Path_51" data-name="Path 51" class="cls-2" d="M239.94,64.07s.1.09.18.07S240,64.05,239.94,64.07Z"/><path id="Path_52" data-name="Path 52" class="cls-2" d="M240.16,64.57s-.1-.09-.17-.07S240.08,64.58,240.16,64.57Z"/><path id="Path_53" data-name="Path 53" class="cls-2" d="M239.88,65.06s0,.09,0,.11C240,65.49,240.09,65,239.88,65.06Z"/><path id="Path_54" data-name="Path 54" class="cls-2" d="M239.8,65.77c-.09,0,.1.12.17.1S239.88,65.75,239.8,65.77Z"/><path id="Path_56" data-name="Path 56" class="cls-2" d="M239.9,66.69s-.1-.09-.17-.07S239.82,66.7,239.9,66.69Z"/><path id="Path_57" data-name="Path 57" class="cls-2" d="M239.74,67.05h0Z"/><path id="Path_58" data-name="Path 58" class="cls-2" d="M239.73,68.1c-.09,0,.1.13.17.11S239.81,68.09,239.73,68.1Z"/><path id="Path_60" data-name="Path 60" class="cls-2" d="M239.21,69.41c.22,0-.36-.28-.2-.31C238.64,69.18,239.21,69.41,239.21,69.41Z"/><path id="Path_61" data-name="Path 61" class="cls-2" d="M239.29,71.64c.11,0-.1-.16-.18-.14S239.21,71.66,239.29,71.64Z"/><path id="Path_62" data-name="Path 62" class="cls-2" d="M239.13,71.71c-.32.07.18.18.19.18S239.13,71.71,239.13,71.71Z"/><path id="Path_63" data-name="Path 63" class="cls-2" d="M238.69,69.2c-.08,0,.1.13.18.11S238.77,69.19,238.69,69.2Z"/><path id="Path_64" data-name="Path 64" class="cls-2" d="M238.73,71.08c-.1,0,.1.16.18.14S238.82,71.06,238.73,71.08Z"/><path id="Path_66" data-name="Path 66" class="cls-2" d="M238.5,70.51s0,.09,0,.11C238.62,70.94,238.71,70.47,238.5,70.51Z"/><path id="Path_67" data-name="Path 67" class="cls-2" d="M238.62,73.31h0Z"/><path id="Path_68" data-name="Path 68" class="cls-2" d="M238.79,74.58c.3-.07-.27-.63-.24-.64C238.15,74,238.87,74.56,238.79,74.58Z"/><path id="Path_69" data-name="Path 69" class="cls-2" d="M238.3,73.17c.08,0-.1-.13-.18-.11S238.22,73.18,238.3,73.17Z"/><path id="Path_70" data-name="Path 70" class="cls-2" d="M238.32,73.34c.05,0-.1-.08-.17-.07S238.25,73.36,238.32,73.34Z"/><path id="Path_71" data-name="Path 71" class="cls-2" d="M237.76,71.23c-.06,0,0,.12,0,.14C237.89,71.79,238,71.18,237.76,71.23Z"/><path id="Path_72" data-name="Path 72" class="cls-2" d="M237.7,72.18c-.38,0-.12.18,0,.18S238,72.17,237.7,72.18Z"/><path id="Path_74" data-name="Path 74" class="cls-2" d="M237.48,71.65s.1.09.17.07S237.55,71.63,237.48,71.65Z"/><path id="Path_75" data-name="Path 75" class="cls-2" d="M237.28,71.33c-.11,0,.1.16.18.14S237.36,71.31,237.28,71.33Z"/><path id="Path_76" data-name="Path 76" class="cls-2" d="M237.2,72.15c-.11,0,.1.16.18.14S237.29,72.13,237.2,72.15Z"/><path id="Path_77" data-name="Path 77" class="cls-2" d="M237.1,72.71c-.09,0,.09.13.17.11S237.18,72.7,237.1,72.71Z"/><path id="Path_79" data-name="Path 79" class="cls-2" d="M236.5,73.25c-.36,0,.17.25.17.1S236.66,73.24,236.5,73.25Z"/><path id="Path_80" data-name="Path 80" class="cls-2" d="M236.64,73.07c.09,0-.18-.18-.18-.18C236.14,73,236.63,73.07,236.64,73.07Z"/><path id="Path_81" data-name="Path 81" class="cls-2" d="M236.52,73.64h0Z"/><path id="Path_82" data-name="Path 82" class="cls-2" d="M236.38,73.74c-.08,0,.1.13.18.11S236.47,73.72,236.38,73.74Z"/><path id="Path_83" data-name="Path 83" class="cls-2" d="M235.76,71c-.09,0,.09.12.17.1S235.84,71,235.76,71Z"/><path id="Path_85" data-name="Path 85" class="cls-2" d="M235.82,71.48h0Z"/><path id="Path_86" data-name="Path 86" class="cls-2" d="M235.06,66.18c-.05,0,.1.09.17.07S235.13,66.17,235.06,66.18Z"/><path id="Path_87" data-name="Path 87" class="cls-2" d="M235.09,66.46c-.06,0-.09.44.2.29S235.2,66.46,235.09,66.46Z"/><path id="Path_89" data-name="Path 89" class="cls-2" d="M235,67.07s-.17.35,0,.31S235.38,67.12,235,67.07Z"/><path id="Path_90" data-name="Path 90" class="cls-2" d="M235,67.45s-.24.09-.15.11C235.2,67.63,235.35,67.45,235,67.45Z"/><path id="Path_91" data-name="Path 91" class="cls-2" d="M235.07,67.77h0Z"/><path id="Path_94" data-name="Path 94" class="cls-2" d="M235.16,68.62s-.1-.09-.17-.07S235.08,68.64,235.16,68.62Z"/><path id="Path_95" data-name="Path 95" class="cls-2" d="M235.87,75s-.1-.09-.18-.07S235.79,75,235.87,75Z"/><path id="Path_96" data-name="Path 96" class="cls-2" d="M235,68.34s-.1-.09-.17-.07S234.89,68.36,235,68.34Z"/><path id="Path_97" data-name="Path 97" class="cls-2" d="M234.85,68.8c-.49.11.42.74.25.78C235.48,69.49,234.74,68.82,234.85,68.8Z"/><path id="Path_98" data-name="Path 98" class="cls-2" d="M234.63,21.29c-.41.08,0,.79,0,.79C234.82,22,234.45,21.32,234.63,21.29Z"/><path id="Path_99" data-name="Path 99" class="cls-2" d="M233.9,24.48c.54-.1.23-2.24.47-2.28C233.71,22.32,234.24,24.42,233.9,24.48Z"/><path id="Path_100" data-name="Path 100" class="cls-2" d="M233.7,24.59c-.09,0,0,.32.09.3S233.79,24.57,233.7,24.59Z"/><path id="Path_101" data-name="Path 101" class="cls-2" d="M233.56,25.09c-.06,0-.08.28-.09.33C233.36,26.22,233.76,25.05,233.56,25.09Z"/><path id="Path_102" data-name="Path 102" class="cls-2" d="M233.33,25.91c-.05,0,0,.23.11.22S233.42,25.89,233.33,25.91Z"/><path id="Path_103" data-name="Path 103" class="cls-2" d="M231.87,31.11c-.05,0,0,.23.11.22S232,31.09,231.87,31.11Z"/><path id="Path_105" data-name="Path 105" class="cls-2" d="M237.4,10.22s.55-1.43.58-1.44C237.63,8.84,237.33,10,237.4,10.22Z"/><path id="Path_106" data-name="Path 106" class="cls-2" d="M236.07,16.18c.05,0,0-.24-.11-.22S236,16.19,236.07,16.18Z"/><path id="Path_108" data-name="Path 108" class="cls-2" d="M235.63,17.12c-.06,0-.08.28-.09.33C235.43,18.25,235.83,17.08,235.63,17.12Z"/><path id="Path_110" data-name="Path 110" class="cls-2" d="M235.05,19.18c-.15,0-.25.88-.25.91C234.67,21,235.25,19.14,235.05,19.18Z"/><path id="Path_111" data-name="Path 111" class="cls-2" d="M231.18,33c-.3,1-.46,1.6-.7,2.47a9.9,9.9,0,0,0-.17,1.2c.4-.07.6-2.12.67-2.39s.49-2.44.52-2.44C231.32,31.84,231.26,32.68,231.18,33Z"/><path id="Path_112" data-name="Path 112" class="cls-2" d="M237.33,10.47c-.3,0-.3,1-.37,1.32s0,1.25-.19,1.28C237.38,13,237,10.52,237.33,10.47Z"/><path id="Path_114" data-name="Path 114" class="cls-2" d="M228.52,24.76c.1,0,0-.46,0-.46C228.12,24.36,228.51,24.76,228.52,24.76Z"/><path id="Path_118" data-name="Path 118" class="cls-2" d="M233.41,5.55c-.13,0-.28,1-.28,1C233,7.49,233.72,5.49,233.41,5.55Z"/><path id="Path_119" data-name="Path 119" class="cls-2" d="M233,7.74s0-.23-.11-.21S232.87,7.76,233,7.74Z"/><path id="Path_120" data-name="Path 120" class="cls-2" d="M232.76,7.86s-.07.21-.07.25C232.54,8.87,233,7.82,232.76,7.86Z"/><path id="Path_121" data-name="Path 121" class="cls-2" d="M232.47,9.48c.33-.06-.18-1,.12-1C232.06,8.54,232.62,9.45,232.47,9.48Z"/><path id="Path_122" data-name="Path 122" class="cls-2" d="M232,11.13c.09,0,0-.32-.09-.3S231.92,11.14,232,11.13Z"/><path id="Path_124" data-name="Path 124" class="cls-2" d="M231.52,12.86s0-.23-.11-.21S231.44,12.88,231.52,12.86Z"/><path id="Path_125" data-name="Path 125" class="cls-2" d="M231.4,13.27c.1,0,0-.31-.08-.3S231.31,13.29,231.4,13.27Z"/><path id="Path_127" data-name="Path 127" class="cls-2" d="M225.51,34.23c.05,0,0-.23-.11-.21S225.43,34.25,225.51,34.23Z"/><path id="Path_128" data-name="Path 128" class="cls-2" d="M225.37,34.72s0-.23-.11-.21S225.28,34.74,225.37,34.72Z"/><path id="Path_133" data-name="Path 133" class="cls-2" d="M216.81,53c.05,0,0-.23-.11-.22S216.73,53,216.81,53Z"/><path id="Path_134" data-name="Path 134" class="cls-2" d="M216.43,53.11c-.05,0,0,.23.11.21S216.52,53.09,216.43,53.11Z"/><path id="Path_135" data-name="Path 135" class="cls-2" d="M248,43.21a31,31,0,0,0-1.3-4c-.53-1.56-1.1-2.92-1.47-3.95-2.27-6.33-3.13-11.62-5.32-17.07-.74-1.85-.1.34.19,1.47a19.45,19.45,0,0,0,.65,2c.83,2.81,1.53,5.27,2.2,7.7.74,2.64,1.89,4.95,2.69,7.58.17.57.41,2.39.95,4C246.65,41.11,247.79,43.45,248,43.21Z"/><path id="Path_136" data-name="Path 136" class="cls-2" d="M239.1,15.6c0,.05.15.28.21.2S239.16,15.53,239.1,15.6Z"/><path id="Path_139" data-name="Path 139" class="cls-2" d="M248.52,44.73l.13.45C248.91,45.6,249.06,45.81,248.52,44.73Z"/><path id="Path_140" data-name="Path 140" class="cls-2" d="M239.42,4.31a1.43,1.43,0,0,1,.33.54C239.8,4.7,239.75,4.5,239.42,4.31Z"/><path id="Path_141" data-name="Path 141" class="cls-2" d="M242,12.15a.75.75,0,0,0,0-.21A.5.5,0,0,0,242,12.15Z"/><path id="Path_142" data-name="Path 142" class="cls-2" d="M238.34,9.69s.16.27.22.2S238.4,9.61,238.34,9.69Z"/><path id="Path_143" data-name="Path 143" class="cls-2" d="M242.29,24.58s-.16-.28-.22-.2S242.22,24.65,242.29,24.58Z"/><path id="Path_144" data-name="Path 144" class="cls-2" d="M240.49,17.15c.67.4-.06-.74-.34-.68C240.09,16.49,240.56,17.19,240.49,17.15Z"/><path id="Path_145" data-name="Path 145" class="cls-2" d="M240,16s.15.28.22.2S240.1,15.92,240,16Z"/><path id="Path_146" data-name="Path 146" class="cls-2" d="M240.14,15.71c.26-.32-.3-.57-.3-.56S240.14,15.71,240.14,15.71Z"/><path id="Path_147" data-name="Path 147" class="cls-2" d="M240,15c.06-.08-.18-.4-.25-.32S239.9,15.08,240,15Z"/><path id="Path_148" data-name="Path 148" class="cls-2" d="M243.1,27.93c0,.05.15.28.22.2S243.16,27.85,243.1,27.93Z"/><path id="Path_149" data-name="Path 149" class="cls-2" d="M243.23,27.77c.06-.08-.18-.4-.25-.32S243.16,27.85,243.23,27.77Z"/><path id="Path_150" data-name="Path 150" class="cls-2" d="M244.23,31.2s-.16-.27-.22-.2S244.17,31.28,244.23,31.2Z"/><path id="Path_151" data-name="Path 151" class="cls-2" d="M239.08,10.64c-.08.11.21.52.28.44S239.15,10.56,239.08,10.64Z"/><path id="Path_154" data-name="Path 154" class="cls-2" d="M238.36,6a.21.21,0,0,1,0,.16A.21.21,0,0,0,238.36,6Z"/><path id="Path_155" data-name="Path 155" class="cls-2" d="M245.5,35.07c.09-.11-.2-.52-.27-.44S245.43,35.15,245.5,35.07Z"/><path id="Path_156" data-name="Path 156" class="cls-2" d="M246,36.59c0-.05-.16-.28-.22-.2S246,36.67,246,36.59Z"/><path id="Path_158" data-name="Path 158" class="cls-2" d="M239.34,4.71s-.07-.31-.08-.35C238.93,3.29,239.18,4.92,239.34,4.71Z"/><path id="Path_159" data-name="Path 159" class="cls-2" d="M238.56,1.48s-.16-.27-.22-.2S238.5,1.56,238.56,1.48Z"/><path id="Path_161" data-name="Path 161" class="cls-2" d="M251.33,53.54c0,.05.16.28.22.21S251.4,53.47,251.33,53.54Z"/><path id="Path_162" data-name="Path 162" class="cls-2" d="M239.49,3.91s-.15-.27-.22-.2S239.43,4,239.49,3.91Z"/><path id="Path_163" data-name="Path 163" class="cls-2" d="M240.85,8.14c-.08.1.21.52.28.43S240.92,8.06,240.85,8.14Z"/><path id="Path_164" data-name="Path 164" class="cls-2" d="M241,7.86s-.08-.31-.09-.36C240.54,6.44,240.79,8.07,241,7.86Z"/><path id="Path_165" data-name="Path 165" class="cls-2" d="M242,11.53c.05-.06-.1-.41-.11-.48C241.48,9.61,241.84,11.74,242,11.53Z"/><path id="Path_167" data-name="Path 167" class="cls-2" d="M241.55,9.62s-.16-.28-.22-.2S241.49,9.69,241.55,9.62Z"/><path id="Path_168" data-name="Path 168" class="cls-2" d="M243.59,16c.26-.32-.3-.56-.3-.56S243.59,16,243.59,16Z"/><path id="Path_169" data-name="Path 169" class="cls-2" d="M243.36,15c.07-.08-.18-.4-.24-.32S243.3,15.08,243.36,15Z"/><path id="Path_170" data-name="Path 170" class="cls-2" d="M243,13.42l0,0Z"/><path id="Path_171" data-name="Path 171" class="cls-2" d="M244.23,18.6s.16.27.22.2S244.29,18.52,244.23,18.6Z"/><path id="Path_172" data-name="Path 172" class="cls-2" d="M244.09,18c-.07.08.18.4.24.31S244.15,17.91,244.09,18Z"/><path id="Path_173" data-name="Path 173" class="cls-2" d="M244,17.52c-.07.08.18.4.25.31S244,17.44,244,17.52Z"/><path id="Path_174" data-name="Path 174" class="cls-2" d="M244,17s-.07-.32-.08-.36C243.6,15.58,243.85,17.21,244,17Z"/><path id="Path_175" data-name="Path 175" class="cls-2" d="M245.33,21.75a5.82,5.82,0,0,0-.34-1.44C244.54,19,245.11,22,245.33,21.75Z"/><path id="Path_176" data-name="Path 176" class="cls-2" d="M245.54,22.58c-.33.4.46,1.39.65,2C246.42,24.22,245.41,22.74,245.54,22.58Z"/><path id="Path_177" data-name="Path 177" class="cls-2" d="M246.89,27.45c-.07.09.18.4.24.32S247,27.37,246.89,27.45Z"/><path id="Path_178" data-name="Path 178" class="cls-2" d="M247,27.17c.25-.31-.68-2.28-.8-2.59C245.84,25.06,247.27,26.82,247,27.17Z"/><path id="Path_179" data-name="Path 179" class="cls-2" d="M248.07,31c.11-.13-.3-1.27-.31-1.31C247.31,28.36,247.93,31.14,248.07,31Z"/><path id="Path_180" data-name="Path 180" class="cls-2" d="M248.67,32.72c.14.06-.34-1.33-.26-1.08C247.93,30.15,248.25,32.56,248.67,32.72Z"/><path id="Path_181" data-name="Path 181" class="cls-2" d="M249.15,34c.3-.37-.43-1-.42-1C248.55,33.18,249.28,33.83,249.15,34Z"/><path id="Path_182" data-name="Path 182" class="cls-2" d="M253.28,57.07c.8-.3,2.58-1,2.56-1,.85-.83.19-3.18-.24-4.52-1.15-3.52-3.1-7.38-4-10.28a22.69,22.69,0,0,0-.94-2.66c.21.47-.15.24-.26-.21s.32,0,.32-.09a13.09,13.09,0,0,0-1-2.55c-.5-1.44-.78-2-.39-.92.84,2.43-.75-1.64-.7-1.47-.42-1.26-1-3-1.34-4.11l-.26-.85a.78.78,0,0,0,.22,0l.16,0c.33-.54-.23-.27-.42-.07-1.22-4-2.93-9.92-4.12-13.77-.19-.63-.81-1.81-.94-2.34,0,.26,0,.66,0,.66-.44-.65-.36-1.74-.64-2.63-.37-1.19-1.08-4.1-1.6-5.33a.78.78,0,0,1-.28.34c.19-.2-.32-.33-.25-.22a7.54,7.54,0,0,1-.57-1.59v0c0-.23.08-.42.11-.59.05,0,.09.07.12,0s0-.18-.08-.29a1,1,0,0,0-.48-1.07c.11.09-.11.36-.24.28a.2.2,0,0,1-.1-.24s.05,0,.07,0-.18-.4-.25-.32a.11.11,0,0,0,0,.08c-.36-.1-1.37-.53-1.15-.52-.56,0,.28.46-.19.66.21-.09-.65-.47-.72-.49.13,0-.33.06-.52,0s-.31-.24-.47-.15,0,1,0,1.33c-.27,3.83-1.93,7-2.68,10.75-.39,1.93-1.39,3.68-1.76,5.64a76.38,76.38,0,0,1-3.62,12.87c-.75,2-1.1,4.16-1.9,6.14-1.68,4.15-3.6,9.19-6.06,13a18.32,18.32,0,0,0-2,3c-.07.22-.38,1.74.82,2,.2,0,0-.12.18,0s0,.14.29.18c.6.09.67.5,1.46.91a1.37,1.37,0,0,0,.5.13h0l.38.16h0c-.13,0-.58-.14-.71.18s.11.26.11.66c0,.21-.25.05-.11.66s.79.4,1.26.45a12.29,12.29,0,0,0,1.71.12c.57,0,1.16,0,1.6-.05s.43-.22.61-.35.12.21.22.16.14-.31.22-.33.5-.25.66-.19.11.36.22.32.31-.43.5-.5c.52-.22,1.17.14,1.32.12,0,0-.14-.11,0-.16a3.45,3.45,0,0,1,2.2-.07c.08,0,.13.29.22.33s.07-.31.11-.34.1.31.16.33c1.4.27,2.78.68,4,.88-.07.77.54,1.71.59,2.19.09.84-.08,1.87,0,2.62a1.17,1.17,0,0,1,.05.49c-.05.18-.48.23-.3.32s.51-.27.5,0c.53.19-.17.35,0,0-.35,0-.41.57-.4.82,0-.08.14.51.22.53s.27-.58.32-.14c.12,1.14-.05,2.76-.05,4.06,0,.27-.05.58.25.78.05,0,.45-.08.49-.07.42.08,0,.35,0,.49,0,.33-.42,1.33.34,1.59.3.1.33,0,.15-.18-.52-.14.17-.3,0,0,.53-.18-.19-.79-.11-1s.48-.14.13-.31c-.08,0-.41,0-.34-.11s.61-.08.64-.14-.33,0-.34-.11.43-.27.49-.43a.32.32,0,0,0,.32.32h0c-.22,0,.31-.39.3-.32,0-.08-.32-.11-.35-.17s.34-.54.24-.85c0-.1-.22-.3-.22-.5,0,1.08-.23-.25.13-.28-.09,0,.21.81.27.92a7.64,7.64,0,0,1,.12,2.61s.12.77.41.7-.19-1-.13-1.2-.25-1,0-1.41c.12-.2.18-.12.16-.11.38-.13.54,0,.58.09v-.1a2.19,2.19,0,0,1,.1.26c.11.63.17,0,.13-.36,0-.06-.11-.7-.24-.67a.17.17,0,0,0-.14.16.28.28,0,0,0-.19-.12c-.06,0,0,.75-.43.6s-.08-.7-.08-.78-.15-.54.26-.6c.21,0-.22.37.36.25.26-.06-.19-.22.12-.43.07,0,.28,0,.32-.11a.53.53,0,0,0-.24-.67c.19.12-.4.15-.49.11s0-.24.3-.25a2.29,2.29,0,0,0,.34.07c.2-.14-.09-.41-.07-.63.07-.61.2-1.48.26-2.13a1.7,1.7,0,0,1,.09-.74c.08-.14.17-.12.13-.28s-.2-.54-.09-.78c0,0,.3-.12.31-.18.07-.52-.13-1.08.16-1.56s-.3-.92,0-1.24c0,0,.29,0,.32-.1a1.12,1.12,0,0,0,.05-.31,12,12,0,0,0,4.18,0,5.18,5.18,0,0,1,.88,0c.15,0,.3-.31.45-.35a8.55,8.55,0,0,1,.88,0c1.15-.13,2.42-.09,3.53-.27s2,.21,2.86-.25c.15-.08-.09-.15.12-.33.41-.38.58.1.6-.35,0,.17-.25-.16-.22-.16-.26,0-.24,0-.44-.15s-.41-.08-.38-.15c.15-.41.24,0,.38,0a1.73,1.73,0,0,0,.78-.35C253.9,57.09,252.63,57.68,253.28,57.07ZM238.56,68c.08,0,.26.08.18.1S238.48,68.06,238.56,68ZM253,58.51c0,.08-.09.22-.11.17s.1-.21.11-.17Zm-1.25-2.59s-.16,0-.17,0c-.07-.21.66-.09.17,0Zm0-.5h0Zm.11,0c0-.09.16-.14.34-.16l.06.24c-.18,0-.34.46-.4-.08Zm.24.42s.11-.2.18-.27c0,.11.05.23.08.36-.12,0-.22,0-.26-.09s0,0,0-.1a.29.29,0,0,0,0,.09Zm-2.38-19.34c.06-.08.31.24.24.32s-.31-.24-.25-.32Zm0,11.09c.07-.08.37.33.28.44s-.36-.34-.28-.44Zm-.06-.24c-.06.08-.31-.23-.24-.32s.31.23.24.32Zm-.3-3.36s.12.32.09.36c-.17.21-.41-1.42-.09-.36Zm-1.29-1.83c.07-.08.31.24.25.32S248,42.25,248.07,42.17ZM247,36.86c-.06.08-.31-.23-.24-.32s.31.23.24.32Zm-.42-1c.07-.09.32.23.25.31s-.31-.24-.25-.32Zm-.65-2c.07-.08.31.24.25.32s-.32-.24-.25-.32Zm-.64-2v0h0Zm.1.49c.52,0,0,.69,0,0-.48.1,0-.54,0,0Zm-1.24-3.75c.06-.07.25.16.22.2S244.06,28.61,244.1,28.56ZM243,24.89s.72.67.42,1c.13-.17-.6-.82-.42-1Zm.13-.16c-.06.08-.31-.24-.24-.32s.31.24.24.32Zm-.39-.92c.07-.08.36.33.28.44s-.37-.33-.28-.44Zm-.09-.36C242.64,23.52,242.78,23.35,242.69,23.45Zm-.5-2.8s.56.24.3.56c0,0-.38-.47-.31-.55Zm.42,2.44c-.07.08-.32-.23-.25-.32s.31.24.24.32Zm-.66-2c-.1.14.9.92.51,1.4.22-.26-.74-1.1-.51-1.39Zm-.37-4.36c.06-.07.25.16.22.2s-.26-.15-.22-.19Zm-.32-1.31s-.37-.18-.25-.32.7.51.25.32Zm0,1.52s-.38-.47-.31-.56.56.24.31.56Zm-.19-.71ZM241,14.46c-.07.08-.32-.24-.25-.32s.31.24.24.32Zm-.19,1.32c-.06.08-.26-.15-.22-.2s.25.16.22.21Zm0-1.92c.09-.12-1.1-2.21-.8-2.6-.13.18,1.2,2.11.8,2.61Zm-.3.84C240.53,14.77,240.67,14.6,240.58,14.7Zm.25-2.48C240.77,12.29,240.91,12.11,240.83,12.22Zm-.12-.48C241.11,12.36,240.4,11.25,240.71,11.74Zm-.41-1.67s.33.83.23,1S239.91,9.15,240.3,10.07Zm-.36-.8c.06-.07.25.16.21.2s-.25-.15-.21-.2ZM238.7,4.74l0,0,0,0a2.79,2.79,0,0,0,.07.4.2.2,0,0,0-.11,0c-.06,0-.39,1.92-.54,2.53a3.25,3.25,0,0,1-.15.4,1.2,1.2,0,0,0-.06-.18c0-.11-.06-.18-.08-.24.15-.66.28-1.31.41-2a.79.79,0,0,1,.12.3,1.45,1.45,0,0,0-.1-.41l.24-1.27s.05,0,.07,0a.28.28,0,0,0,0-.18l.06-.34C238.65,4.31,238.68,4.56,238.7,4.74Zm-1.36-3.43C237.22,1.33,237.41,1.29,237.34,1.31Zm-8.45,37.94c.09,0,.16.2.11.21s-.16-.2-.11-.21Zm-8.14,19.4c0-.09.18-.28.22-.18s-.19.29-.22.18ZM222.41,55C222.39,54.91,222.45,55.09,222.41,55Zm1.77,0h0v0Zm.22,0c0-.08.18-.28.22-.17s-.18.28-.22.17Zm.71-.18C225.09,54.67,225.15,54.84,225.11,54.74Zm.45,0s-.16.05-.17,0c-.07-.21.66-.08.17,0Zm1.15-.2s-.77.19-.82,0,1.61-.16.83,0Zm.39-.17c0-.08.1-.22.11-.17s-.09.22-.11.17Zm.39,0C227.46,54.27,227.52,54.44,227.49,54.34Zm3.41.22c-.73-.13-2.43,0-3-.07,0,0-.1-.24-.15-.2.19-.41,1.93-.22,2.19-.19a5.75,5.75,0,0,1,1.77.44c.73.33-.54.07-.78,0Zm7.11,0C238,54.45,238.05,54.62,238,54.52Zm.22,0c0,.08,1-.55,1.16-.2,0-.14-1,.64-1.16.21Zm.22,12.5c-.22,0,0-.07,0-.07.24,0,.12.06,0,.07Zm-1.86,2.63c-.22,0,.09-.1.29-.14a.23.23,0,0,0-.14,0c.4,0,.31,0,.14,0,.11.07.12.22-.29.14Zm-.5,0c.36.07.25.32,0,.39s-.1-.4,0-.38Zm-.06-.53c.09,0,.26.09.18.11s-.26-.09-.18-.11Zm1-2.83c.08,0,.26.09.18.1s-.26-.08-.18-.1Zm-.18-.11c.07,0,.17-.1.16-.1.26,0,.25.19-.15.11Zm.3-.24s0,0,0,0,0,0,0,0-.28-.22,0-.25,0,.19,0,.26Zm-.27,1.94c0-.2-.19-.63.24-.78a8.69,8.69,0,0,0,0,1.35s.41.37,0,.14a.88.88,0,0,1-.24-.71Zm.37-1.13c-.29.13-.3-.18-.19-.18-.06,0,.45.06.19.18Zm-1.66-1.51s-.5-.11-.18-.18c0,0,.28.16.19.18Zm.77,5.47c-.63.1-.17-.26-.2-.38s-.33-.09-.35-.11.11-.17.33-.07c-.08,0,.51.52.23.57Zm.21.39C236.48,71.08,236.65,71,236.58,71.05Zm.14-.25c-.24,0-.12-.06,0-.07s0,.08,0,.08Zm.5-.37a.46.46,0,0,0-.23-.16s-.13,0-.17,0c-.2,0-.11,0,0,0H237a1.52,1.52,0,0,0,.06-.42c-.17.05-.9.1-.44,0h.16l.28,0c0-.67,0-1.7.14-.72,0,.15.21.29.2.35,0,.25-.16.66-.17,1Zm.28-6c-.07,0-.22-.06-.17-.07s.22.06.18.07Zm.39,3.53c-.07,0-.22-.06-.17-.07s.22.07.18.08Zm.5,0c-.08,0-.26-.08-.18-.1s.27.08.18.1Zm.07.64h0Zm0-1.2s-.08-.13,0-.14c.22,0,.14.57,0,.14Zm9-12.37c0-.08.1-.21.11-.17s-.09.21-.11.16Zm2.32,0Zm0,1.45c0-.09.14-.26.17-.17s-.14.25-.16.16Zm.34-1.49c0-.08.14-.26.16-.17s-.13.25-.16.16Zm.16,1.47C250.33,56.39,250.39,56.57,250.35,56.46Zm.06-1.64c0,.16.25-.16.22-.18-.38-.16-1,.1-1.6,0a5.59,5.59,0,0,0-2-.1c-.09,0,0,.35-.16.33s-.23-.26-.39-.31c-.84-.32-1.94.32-2.75.41a17.06,17.06,0,0,1-3.2-.24c-.21,0-1.65-.15-.56-.31.93-.14-.24-.29-.43-.31a3.25,3.25,0,0,0-1.77.21c-.36.14-.71-.1-1.1-.13-.62,0-1.22.26-1.82.22-2.21-.16-4.42-1.13-6.39-.8-1.15.19-2.42.25-3.58.43a16.45,16.45,0,0,1-2.22,0,11.16,11.16,0,0,0,1.16-1.57,17.56,17.56,0,0,0,1.87-3.63,6.75,6.75,0,0,1,.26-.84c0,.08.06.16.11.15s0-.23-.05-.29a2.35,2.35,0,0,1,.24-.37,2.53,2.53,0,0,0,.41-.86c0-.18-.22-.5-.15-.68s.93-.34.39-.77c0,.67-.56.11,0,0,.68-1,.69-2.2,1.06-3.17.06-.16.15.18.38-.15.1-.14,0-.34.14-.5a8.55,8.55,0,0,0,.49-1.73,2.33,2.33,0,0,1-.07.25,13.77,13.77,0,0,0,1.06-2.54c0-.11.2-.87,0-.71s-.64,1.8-.67,1.76a11.34,11.34,0,0,1,.6-2.14c.46-1.33,1.61-5,2.15-6.42.24-.66.46-1.34.66-2-.06.35-.1.64-.11.68a19.39,19.39,0,0,1-.49,2.36c.36-.07.57-2.07.65-2.31s.48-2.36.49-2.36-.08,0-.12.11c.83-3.33,1.37-6.77,2.45-9.62.45-1.19.67-3,1.16-4.75.43-1.53.77-2.85,1.05-4.14a1.6,1.6,0,0,0,.12.37c-.08.2-.13.37,0,.36a2.7,2.7,0,0,0,.27.39c.15-.18,0-.34-.1-.44.58-.27.07-.38.12-.49s.16-.57.16-.57c.08-.3.2-.7.29-1,0,.24.14.53.21.44s-.07-.32-.08-.36-.06-.19-.09-.25.32-.89.15-1.09c0-.06.07-.09.12,0,.4.7.08,1.6.18,2.12.3,1.67,1.24,4.35.87,3.6-.2-.4-.83-3.41-1.19-3.51a14.85,14.85,0,0,1,.48,2.67c.17.81.55,1.56.71,2.24a22.91,22.91,0,0,1,.26,2.48c.16,1.2.53,2.86,1,2.91-.15,0,.06-.46.08-.4.26.73-.15.41-.15.8a11.83,11.83,0,0,0,.38,1.56c.1.38.3,1.44.13,1.23-.41-.49-.28-1.29-.41-1.67s-.64-1.57-.61-1.12a10.8,10.8,0,0,0,.3,2c.31,1.14.88,2.63,1.34,4.11.89,2.92,1.87,6.35,2.89,9.18a35.14,35.14,0,0,1,1.67,4.78c0-.07-.25.2-.26.33a6.36,6.36,0,0,0,.29,1.2c.45,1.46,1.26,3.9,1.87,5.62.11.32.78,1.54.54,1.52s-.55-1-.71-1.62a4.86,4.86,0,0,0-.57-.85c-.15.18.44,1.27.6,1.75.56,1.79,1,2.88,1.61,4.55a13.47,13.47,0,0,0,.95,2.55c.28.21.62-.06.7.07.35.61.07,1,.19,1.48l0,.21a3.36,3.36,0,0,1-1,0c-.08,0-.64.19-.71-.15Zm.82,1.62c0-.09.14-.26.17-.18s-.14.26-.16.17Zm.22-.18c.1-.3.92,0,1,0h0c0,.09.05.18.07.26a.84.84,0,0,1-.38.08c-.06,0-.74-.24-.71-.31Z"/><path id="Path_184" data-name="Path 184" class="cls-2" d="M233.39,54c0,.06.19,0,.22,0C234.13,53.87,233.33,53.82,233.39,54Z"/><path id="Path_185" data-name="Path 185" class="cls-2" d="M234.21,54.14s.14-.09.11-.17S234.19,54.07,234.21,54.14Z"/><path id="Path_186" data-name="Path 186" class="cls-2" d="M235.54,53.94c-.12,0-1.15.07-1.1.2.12.36.9,0,1.16,0s1.1-.2,1.1-.2C236.58,53.56,235.88,53.93,235.54,53.94Z"/><path id="Path_187" data-name="Path 187" class="cls-2" d="M237,54.22c0,.14.59,0,.61,0C238.18,54.06,236.91,54,237,54.22Z"/><path id="Path_188" data-name="Path 188" class="cls-2" d="M240.55,54.61c0,.06.19,0,.22,0C241.29,54.48,240.49,54.43,240.55,54.61Z"/><path id="Path_189" data-name="Path 189" class="cls-2" d="M241.76,54.58c0,.1.25-.09.22-.17S241.73,54.49,241.76,54.58Z"/><path id="Path_190" data-name="Path 190" class="cls-2" d="M242.7,54.71c0,.11.25-.08.22-.17S242.67,54.63,242.7,54.71Z"/><path id="Path_191" data-name="Path 191" class="cls-2" d="M243.19,54.7s.15,0,.17,0C243.86,54.61,243.13,54.49,243.19,54.7Z"/><path id="Path_192" data-name="Path 192" class="cls-2" d="M243.58,54.69s.14-.09.11-.17S243.55,54.61,243.58,54.69Z"/><path id="Path_193" data-name="Path 193" class="cls-2" d="M243.75,54.68c0,.14.58,0,.6,0C245,54.52,243.69,54.5,243.75,54.68Z"/><path id="Path_194" data-name="Path 194" class="cls-2" d="M228.58,58.25v0Z"/><path id="Path_195" data-name="Path 195" class="cls-2" d="M225.21,58.68c0,.08.2-.09.17-.17S225.19,58.6,225.21,58.68Z"/></g><g id="Group_58" data-name="Group 58"><path id="Path_196" data-name="Path 196" class="cls-2" d="M52.89,21.63l0,.19A1.48,1.48,0,0,1,52.89,21.63Z"/><path id="Path_197" data-name="Path 197" class="cls-2" d="M44.76,54.07a.94.94,0,0,0,.1-.23A.94.94,0,0,0,44.76,54.07Z"/><path id="Path_198" data-name="Path 198" class="cls-2" d="M57.85,16.44s.07-.26.15-.54C58,15.32,58,15,57.85,16.44Z"/><path id="Path_199" data-name="Path 199" class="cls-2" d="M52.68,36.84s0-.37,0-.33S52.6,36.88,52.68,36.84Z"/><path id="Path_200" data-name="Path 200" class="cls-2" d="M52.51,37.4c.09,0,.08-.51,0-.47S52.41,37.45,52.51,37.4Z"/><path id="Path_201" data-name="Path 201" class="cls-2" d="M53.69,33.15c.05,0,0-.37-.06-.32S53.6,33.2,53.69,33.15Z"/><path id="Path_203" data-name="Path 203" class="cls-2" d="M54.77,28.72c.12-.06.13-.66,0-.61S54.67,28.77,54.77,28.72Z"/><path id="Path_204" data-name="Path 204" class="cls-2" d="M55.29,26.57c.05,0,0-.37-.06-.32S55.2,26.62,55.29,26.57Z"/><path id="Path_206" data-name="Path 206" class="cls-2" d="M42.56,65.54a1.47,1.47,0,0,0-.13.42C42.09,67.24,42.8,65.41,42.56,65.54Z"/><path id="Path_207" data-name="Path 207" class="cls-2" d="M42,65.22c-.12.06-.13.66,0,.61S42.13,65.17,42,65.22Z"/><path id="Path_209" data-name="Path 209" class="cls-2" d="M42.19,63.73s0,.37.05.32S42.28,63.68,42.19,63.73Z"/><path id="Path_210" data-name="Path 210" class="cls-2" d="M43.49,58.6c.12-.07.13-.66,0-.61S43.39,58.65,43.49,58.6Z"/><path id="Path_211" data-name="Path 211" class="cls-2" d="M43.26,58.83a1.69,1.69,0,0,0-.13.42C42.78,60.53,43.5,58.71,43.26,58.83Z"/><path id="Path_212" data-name="Path 212" class="cls-2" d="M44.48,54.44c-.07,0-.15.48-.17.56C43.83,56.72,44.73,54.32,44.48,54.44Z"/><path id="Path_214" data-name="Path 214" class="cls-2" d="M43.83,57c.05,0,0-.37,0-.32S43.74,57.05,43.83,57Z"/><path id="Path_215" data-name="Path 215" class="cls-2" d="M45.73,49c-.37.19-.09.75-.08.75S45.73,49,45.73,49Z"/><path id="Path_216" data-name="Path 216" class="cls-2" d="M45.39,50.57c.1,0,.08-.51,0-.47S45.29,50.62,45.39,50.57Z"/><path id="Path_217" data-name="Path 217" class="cls-2" d="M44.8,51.93h0l0,0Z"/><path id="Path_218" data-name="Path 218" class="cls-2" d="M46.7,45.9s0-.37-.06-.32S46.61,46,46.7,45.9Z"/><path id="Path_219" data-name="Path 219" class="cls-2" d="M46.48,46.6c.09-.05.08-.51,0-.46S46.38,46.65,46.48,46.6Z"/><path id="Path_220" data-name="Path 220" class="cls-2" d="M46.3,47.16c.1,0,.08-.51,0-.46S46.21,47.21,46.3,47.16Z"/><path id="Path_221" data-name="Path 221" class="cls-2" d="M46,47.68a1.47,1.47,0,0,0-.13.42C45.51,49.38,46.22,47.56,46,47.68Z"/><path id="Path_222" data-name="Path 222" class="cls-2" d="M47.6,42a9.93,9.93,0,0,0-.53,1.68C46.7,45.3,47.93,41.86,47.6,42Z"/><path id="Path_223" data-name="Path 223" class="cls-2" d="M48.52,38.62c-.37.25-.43,2.34-.61,2.43C48.37,40.81,48.32,39.35,48.52,38.62Z"/><path id="Path_224" data-name="Path 224" class="cls-2" d="M49.56,34.79c-.09.05-.08.51,0,.46S49.66,34.74,49.56,34.79Z"/><path id="Path_225" data-name="Path 225" class="cls-2" d="M49.34,35.49c-.36.19-.74,2.74-.82,3.13C49.05,38.31,48.94,35.7,49.34,35.49Z"/><path id="Path_226" data-name="Path 226" class="cls-2" d="M50.61,31a6.88,6.88,0,0,0-.48,1.54C49.75,34.09,50.82,30.86,50.61,31Z"/><path id="Path_227" data-name="Path 227" class="cls-2" d="M51.13,28.82c-.07-.13-.48,1.56-.4,1.26C50.27,31.89,51.35,29.21,51.13,28.82Z"/><path id="Path_228" data-name="Path 228" class="cls-2" d="M51.47,27.23c-.42.22-.25,1.3-.25,1.31C51.47,28.41,51.28,27.33,51.47,27.23Z"/><path id="Path_230" data-name="Path 230" class="cls-2" d="M67.23,41.5s-.08-.37-.1-.43C66.78,40.09,67.1,41.65,67.23,41.5Z"/><path id="Path_231" data-name="Path 231" class="cls-2" d="M65.8,34.49c.1-.12-.28-1.14-.29-1.18C65.1,32.16,65.67,34.64,65.8,34.49Z"/><path id="Path_232" data-name="Path 232" class="cls-2" d="M64.52,27.44c0-.05-.09-.37-.11-.43C64.06,26,64.38,27.6,64.52,27.44Z"/><path id="Path_233" data-name="Path 233" class="cls-2" d="M63.93,25.09c.08-.09-.19-.46-.25-.39S63.87,25.17,63.93,25.09Z"/><path id="Path_234" data-name="Path 234" class="cls-2" d="M63.63,23.24c.08-.09-.19-.46-.25-.39S63.56,23.32,63.63,23.24Z"/><path id="Path_235" data-name="Path 235" class="cls-2" d="M63.39,22.28s-.07-.28-.08-.32C63,21,63.23,22.46,63.39,22.28Z"/><path id="Path_236" data-name="Path 236" class="cls-2" d="M63,21.36s.15.24.2.18S63.06,21.29,63,21.36Z"/><path id="Path_237" data-name="Path 237" class="cls-2" d="M63.12,21.22c.1-.12-.28-1.14-.29-1.18C62.42,18.89,63,21.37,63.12,21.22Z"/><path id="Path_239" data-name="Path 239" class="cls-2" d="M75.09,56.36c.06-.07-.17-.35-.23-.28S75,56.43,75.09,56.36Z"/><path id="Path_240" data-name="Path 240" class="cls-2" d="M78.1,67.77l-.82-.18v0a2,2,0,0,0-.43,0c.08,0,.22.11.08.15a.84.84,0,0,1-.52,0c.11-.06.06-.33.31-.39s.16.48.64.08,0-1.62-.18-2.56-.36-2.08-.67-3.35c-.28-1.1-.53-2.25-.77-3.1a3.55,3.55,0,0,0-.59-1.1c-.1-.18.13-.28,0-.46s-.33-.21-.4-.36a5.34,5.34,0,0,1-.46-1.25c0-.25.27-.28.19-.5s-.53-.51-.68-.85a10.56,10.56,0,0,1-.49-2.6c0,.1,0,.3-.12.14a14.78,14.78,0,0,1-1.06-4.27c0-.17.2-.32.19-.5s-.31-.08-.35-.15.23-.26.21-.39c-.53-3.75-.81-7.42-1.52-10.49-.23-1-.36-1.72-.49-2.6-.2-1.33-.85-2.64-.9-3.63,0-.08.25-.19.21-.39a68.79,68.79,0,0,0-2.28-10.43c-.23-.63-.26-1.12-.43-1.71-.07-.28-.41-.51-.5-.78-.18-.53-.26-1.15-.42-1.71-.63-2.2-1.18-4.69-1.84-6.8-.59-1.88-.72-3.93-1.52-5.52-.14-.27-.09.22-.35-.14C61.65,1.15,62,.72,61.59.77c.15,0,0,.54,0,.46a2.23,2.23,0,0,1,.07.89c0,.17.11.82,0,.78-.43-.21-.12-.47-.19-.74a2.43,2.43,0,0,0-.13-.38,1.48,1.48,0,0,0,.08-.69A3.07,3.07,0,0,0,61,1c-.1-.18-.17-.3-.19-.29s0,.13,0,.26C60,.87,58.55.68,58.57.67c-1.09.4-1.89,3.2-2.3,4.82-1.07,4.29-1.73,9.36-2.64,12.88a32.72,32.72,0,0,0-.74,3.26c.1-.6.24-.16.07.37s-.26-.14-.28-.09A20.25,20.25,0,0,0,52,25.09c-.41,1.76-.53,2.53-.21,1.16.7-3-.34,2.11-.29,1.91-.37,1.53-.91,3.69-1.25,5q-.14.48-.27,1a.76.76,0,0,0-.18-.09l-.15,0c-.54.38,0,.4.28.3-.75,2.8-1.71,6.33-2.64,9.71a.12.12,0,0,0-.1,0s0,0,.06.11c-.66,2.42-1.3,4.76-1.8,6.7-.2.75-.38,2.31-.58,2.93l.35-.7a3.4,3.4,0,0,1-.06.46l0,0a.38.38,0,0,0,0,.15c-.2.77-.65,1.62-.87,2.46-.15.55-.39,1.4-.66,2.31a1.05,1.05,0,0,0-.18.54.25.25,0,0,0,0,.08c-.24.82-.47,1.66-.65,2.38h0c-.33,0-.11.12,0,.2v0c-.07,0-.24,0-.24,0a.58.58,0,0,0,.15.34c0,.12,0,.23-.07.34l-.23-.32a.26.26,0,0,0-.33,0c.05,0,0,.15,0,.14.14.21.28.42.38.61a1,1,0,0,0,.08.44.69.69,0,0,1,0-.32l.06.13.09.23h0c-.18.7-.05.47.06.14l.12.27c-.25,1-.63,2.14-.1.85.09-.24.17-.42.24-.58a13.1,13.1,0,0,0,1.14,1.81l0,.06a1.22,1.22,0,0,0-.68.13c-.19.18-.08.55-.19.58-.46.15-.64-.18-1-.21s-1.62-.19-1.75,0c0,0,.19,2.87.18,2.85.38.94,2,1,3,.94,2.5-.09,5.39-.8,7.45-.85a9.59,9.59,0,0,0,2-.16c-.48.14-.26-.17.09-.15s0,.29,0,.3A6.68,6.68,0,0,0,55,69.23c1-.07,1.47-.16.67-.11-1.73.11,1.21-.23,1.09-.23.9,0,2.16-.09,2.93-.1h.6a.65.65,0,0,0,0,.2.33.33,0,0,0,0,.14c.29.42.21-.13.12-.34,1.88,0,4.33,0,6.56,0l.12.13s0,.06,0,.08.06,0,.1,0a.89.89,0,0,0,.68.34c.64-.1-.07-.17.24-.46a.25.25,0,0,1,.12-.08l2,0c.44,0,1.33-.24,1.7-.22l-.43-.14c.51-.22,1.2.13,1.83.12.84,0,2.87.11,3.76,0a.78.78,0,0,1-.16-.33c.1.24.31-.26.17-.14C77.25,67.77,79.25,68,78.1,67.77ZM47.3,66.26a.58.58,0,0,0-.08-.1h0c.05,0,.11,0,.13,0S47.34,66.24,47.3,66.26ZM47,65.73a8.62,8.62,0,0,0-.32-1.1,20.1,20.1,0,0,0-1.22-2.46c-.06-.1-.12-.19-.17-.29A9.77,9.77,0,0,1,48,65.68l-1,.06Zm-1.78-.47s-.27.1-.22,0,.26-.09.22,0Zm7.55-27s0,0,0,0-.06.23-.09.18Zm.53-.06s-.07.05-.09,0,.34-.12.09,0ZM53.9,38s-.39.22-.43.09.82-.26.43-.09Zm.22-.34c0,.07,0,.2,0,.16s0-.2,0-.16Zm.16.12C54.26,37.67,54.32,37.82,54.28,37.73Zm5.58-.6Zm5.1-.36c0,.06,0,.2,0,.16s0-.21,0-.17Zm9.41,30.08.09-.09a.21.21,0,0,0,0,.1ZM62,65.35h.11a.21.21,0,0,1-.06.1s0-.07,0-.1ZM46.2,57a.52.52,0,0,0,.09-.38,1.11,1.11,0,0,1,.09.19l.15.37-.06.07C46.15,57.3,46.51,56.9,46.2,57Zm0-.56c-.09.13-.09.54,0,.57h0c.14,0-.18.3-.31.36a.09.09,0,0,1-.07,0c.12-.38.21-.77.3-1.14a2.53,2.53,0,0,0,.13.22Zm5.14,3.44c-.44-1.06-1.52-1.78-1.93-2.77-.3-.71-.52-2-1.24-2.23,0,0-.13.24-.05.21-.32.12-.77-.72-.84-.77-.39-.23-.24.14-.17.28.24.56,0,.31-.28-.15,0-.07-.11-.17-.18-.3.19-.46.41-.91.61-1.34l.05.07c.22.31.21.74.39,1.07.71,1.3,2.1,2.24,3,3.77a12.63,12.63,0,0,1,.57,1.17,1.3,1.3,0,0,1-.14-.26c.07-.05-.15,0-.15,0a2.91,2.91,0,0,0,.83,1.55c.18.51.36,1,.53,1.52-.31-.6-.68-1.21-1-1.87ZM47.62,49c.09,0,.1.3.05.33S47.57,49,47.62,49Zm.85.51h0c0-.1,0-.2,0-.29a.68.68,0,0,1,0,.14l0,.14Zm-.16.49a0,0,0,0,0,0,0v0s0,0,0,.06Zm-.18-1.15c0-.12.07-.24.11-.36l0,.11a.47.47,0,0,0,0,.1c-.09.1-.2.19-.2.15Zm-.13.42s0,.7-.08.75-.29-.56.08-.75Zm-.26.84h0l0,0Zm-1,2,.12.2c0,.07,0,.12,0,.14s-.09-.19-.07-.33Zm2-2.6a3.4,3.4,0,0,0-.26-.5.74.74,0,0,0-.1-.54s0,.14-.08.22l-.09-.22c.15-.34.27,0,.44-.37a6,6,0,0,0,.31-.93l.13.21c-.11.59-.22,1.35,0,1s.19-.42.27-.62l.45.71a2.56,2.56,0,0,0,0,.27c-.06.27-.09.48-.12.62l-.13,0c.06,0,.1.08.11.16s0,.06,0,.08a.14.14,0,0,1-.13.1c-.42,0,0-.55-.49-.46.14,0,0,.87-.2.31Zm19.4,16.4s0,0,0,0h0Zm.11-.87H68.2c-.14-.18-.5-.45-.59-.59s-.69-.67-.53-.86c-.16.19,1.17,1,1.2,1.46Zm-1-1.69c.09-.1-1.1-.74-.83-1.06,0,.06,1.06.81.84,1.06ZM63.67,56a45.19,45.19,0,0,1-1.89-5.5,70.85,70.85,0,0,0,2.8,6.53c1,2,1.84,4,2.79,6-1.2-2.31-2.55-4.59-3.7-7Zm-3.88,1s-.09-.2,0-.24S60,57.78,59.79,57.06Zm-.38-3.77c-.07.06-.24-.07-.17-.13s.23.07.17.13Zm2,6.91c-.5-.47,0-.73,0,0C61.88,60.66,61.33,60.92,61.38,60.2Zm-.46-.93c.14-.13.24.78,0,.25,0,0-.08-.2,0-.24Zm0-.18c-.09.08-.5-.67-.44-.8s.16.27.22.43.65,0,.22.37Zm-.54-3.47c-.11,0-.32-.07-.13-.25l.06.05ZM60,55.06s-.09-.2-.05-.24.25.78.05.25Zm.18,2.68c.5.37-.06.68,0,0-.47-.15.07-.66,0,0Zm1.5,1.37a5,5,0,0,1-.38-.92c0-.14-.17-.4-.12-.51.25.52.51,1,.77,1.56-.16-.15-.36-.31-.27-.13Zm.11.18a1.17,1.17,0,0,1-.08-.13l.08.14Zm-2.25-2.66s-.08-.2,0-.24.24.78,0,.24ZM61.22,65a.09.09,0,0,1,0-.12h0c-.05.05,0,.09.11.13ZM50.57,50.06c-.06-.15-.37-.26-.44-.32-.24-.25-.2-.34-.41-.4.06-.18.14-.42.22-.69l.73,1.07h-.06C50.68,49.71,50.73,50.5,50.57,50.06Zm.83.24c-.47-.71-.9-1.43-1.31-2.15,0-.16.1-.32.14-.48.66,1,1.34,2,1.91,2.8.09.12.18.48.33.57s.8.28.4-.24c-.52-.16.19-.4,0,0,.85.52,1.05,1.7,1.72,2.4.24.24.47.06.23-.19a4.49,4.49,0,0,1-.7-1.17c-.18-.41.32-.1.47.15s.21.81.62.94-.21-.4-.33-.57-.5-1.23,0-.68c.15.16.37.51.6.81.2.58.42,1.16.66,1.73l-.15,0c0,.12-.15.53-.09.5-.2.1-.47-.6-.72-.13s-.49,0-.61,0c-.91-1.21-2.35-2.3-3-3.56a2,2,0,0,0-.1-.21l.06.08c.61.83.26,0-.11-.59Zm.26-5.69a22.06,22.06,0,0,1,1.27,2.15A16.4,16.4,0,0,1,55,51.12c.08.25.17.5.25.76-.3-.61-.55-1.32-.93-2-.83-1.41-1.72-3.09-2.67-4.43-.25-.36-.44-.68-.63-1l.08-.3a2.35,2.35,0,0,1,.53.41Zm1.08,5.75c0,.06-.3,0-.26,0S52.78,50.3,52.74,50.36ZM50.8,44.08l0-.09.06,0ZM61.46,64.67c.1-.09-.86-.13-.56-.38-.06,0,.8.17.56.38Zm-.84-1.09c-1.5-1-1.73-2.8-2.21-4.4.12.24.23.48.35.71a8,8,0,0,0,.76,1.93,11,11,0,0,1,1.1,1.76c.1.12.2.2.31.32.5.58-.54-.06-.31-.32ZM50.53,41.71h0S50.44,41.75,50.53,41.71ZM49.81,47h0c-.09.05,0,0,0,0l.21.33c0,.16-.07.34-.1.51l-.37-.64.14-.39Zm9.62,14.5A4.34,4.34,0,0,1,59,60.36a5.2,5.2,0,0,0,1,1.74c.19.16-.15-.42.09-.36s.05.57.27.73.13-.33.25-.3c.31.1,0,.46.41.68.08-.62-.16-.88-.26-1.46-.32.06-.12-.37-.23-.5-.3-.16-.32-.6-.46-.92-.39-.86.6.72.46.92.32-.06.12.37.23.5.72.66.88,2.24,1.72,3s.28-.41.13-.91c-.2-.69-.69-1-.78-1.9-.14-1.37.94,2.37,1.14.58.1-.94-.68-1.12-.67-2.08,0-.49,0,0,.18.18l.1.08c.79,1.55,1.6,3.1,2.39,4.66-1.05,0-2,0-3,0-.75-1.17-1.75-2.23-2.49-3.47Zm3.25.17c.06-.06.24.06.17.12s-.23-.06-.17-.12ZM68.23,66c.06,0,.07-.06,0-.08h0c0-.09-.17-.84.15-.33.45.74.31.11.15-.28l0,0c.11.22.22.45.32.69-.09.14,0,.18.07.17l0,0a.89.89,0,0,0-.45.15,3.18,3.18,0,0,1-.24-.37Zm.85.6c0,.05,0,.1.07.14s-.2.13-.29,0l.22-.09ZM65,55.26c0,.16.44.22.19.44.07.08.12.12.18.2.34.45-.32.17-.18-.2,0-.16-.44-.22-.19-.44C64.41,54.89,65.06,54.72,65,55.26ZM61.71,41.64c0,.22,0,.29-.26,0l0,0Zm1,7.71c.45,1.17.93,2.34,1.46,3.65.1.25.22,1,.25,1C64,54.05,64,53.12,64,53c-.53-1.3-1-2.59-1.44-3.88l.14.18Zm1.61,4.71c-.1.11.53.09.4.23S64.07,54.3,64.3,54.06Zm.16.41c.13-.13.6.47.24.27,0,0-.32-.18-.24-.27Zm1.36,2.45c.4.5-.32.17-.2-.23-.07-.08-.12-.12-.18-.2-.34-.45.32-.17.18.2.06.08.13.14.2.23Zm.15.62c-.06-.06-.23-.14-.17-.2s.68.67.18.2Zm-2.11-6c-.19-.48-.38-1-.58-1.44a19.83,19.83,0,0,1,2,2.86c1.52,2.85,2.42,6.28,3.85,9.05a10.41,10.41,0,0,1,.52,1.13A128.88,128.88,0,0,1,63.86,51.56ZM66,45c.25.21.78.41.89.55l0,0a.06.06,0,0,1,0,.07l0,0c.07.13.15.25.23.38a1.34,1.34,0,0,1,.3.48c.33.53.66,1.06,1,1.59l.15.76c-.35-.7-.69-1.38-1-2,0-.12-.1-.24-.15-.34l-.3-.48a.66.66,0,0,0-.31-.16c.16,0,.43.94.61,1.25l.68,1.2-.79-1C66.9,46.55,66.44,45.79,66,45Zm8.91,20.91h0C74.75,65.69,74.68,65.58,74.89,65.94Zm-.16.64a.12.12,0,0,1,.12-.07c.17,0,.22.46.28.5l-.35-.07c0-.11,0-.24,0-.36ZM70,51.38c-.16-.33-.33-.67-.5-1-.09-.16-.18-.32-.28-.48s-.09-.42-.12-.62A19.81,19.81,0,0,1,70,51.09l.06.28Zm-1.52-6.72c0-.79.08-.33.18.3l-.18-.31Zm-2.14-6.77,0,.12s0,0,0,0a.24.24,0,0,1,0-.14Zm0-1.26s0,.06,0,0a.19.19,0,0,1,0-.13Zm.48,3.71a1.43,1.43,0,0,1,.41-.09c.18,1.09.32,2.18.47,3.26a19.83,19.83,0,0,1-1.65-2.86.16.16,0,0,1,0-.07,4.45,4.45,0,0,0,.81-.24Zm-2.49.92s.05,0,.07-.11a5.53,5.53,0,0,1,.46.82c.2.48.43,1,.68,1.43-.2-.2-.69-.41-.65-.44-.3.28.79.57.7.66a.11.11,0,0,0,0-.07l.4.7c-.21-.2-.68-.4-.64-.43-.3.28.79.57.7.66a.11.11,0,0,0,0-.07c.17.28.34.57.52.85-.34-.24-.87-.48-.77-.58a.2.2,0,0,0-.06.13c-.69-1.14-1.38-2.28-2-3.43,0,0,0,0,.06,0a.44.44,0,0,1,.24-.07,3.26,3.26,0,0,0,.26.53c.24.3.08-.13,0-.18l-.26-.35Zm-.81.25c.17.33.34.66.53,1H64c.08,0,.24,1,0,.43-.08-.21-.43-.4-.51-.49-.37-.46-.22-.53-.74-.68.12,0,.24.44,0,.43s-.23-.31-.3-.51a3.35,3.35,0,0,0,1.09-.16Zm-1.3.15c0,.29,0,.8-.25.22a1.6,1.6,0,0,0-.1-.23l.36,0ZM61,41.31s.07.27.12.27l.26,0a4.78,4.78,0,0,1,.27.75s0,0,0,.08a.11.11,0,0,0,0-.08s-.24.11-.43.28c0,.1,0,.26-.2.24l0,0c-.18.17-.27.25,0,0-.32-.14-.38-1-.7-1.36.28-.07.54-.28.75-.17Zm-1-4.2c0,.07.48-.57.58-.27,0-.13-.45.64-.58.26Zm-.41,4.35c.09.44.7.79.61,1.41,0,.15-.4.47-.4.62a5.82,5.82,0,0,0,1.17,2.59,15.65,15.65,0,0,1,.58,1.48l.16.29a105.18,105.18,0,0,0,7.5,17.05c-.51-.89-1.08-1.74-1.52-2.53a131.32,131.32,0,0,1-6.17-13.76c-.18-.45-.44-.89-.61-1.37s-.17-1.24-.78-1.56l.34,1c-.24-.48-.56-1-.52-.76s.07.34.11.5l.28.91c.43,1.18,1,2.34,1.44,3.55a51.8,51.8,0,0,0,2.15,5.76c.65,1.36,1.44,2.64,2,4,.16.28.31.49.49.8.82,1.41-.68-.45-.49-.8-2.66-3.48-3.43-7.88-5-11.82-.2-.51-.38-1-.55-1.54-.1-.3-.2-.61-.28-.91s-.2-.7-.31-1.05l.1.11c.27.37.22.18.11,0,.07.05.17.1.17.16.26-.2-.14-.24-.14-.37-.06.05-.09.08-.09.12s-.13-.16-.18-.11l-.13-.46a1.57,1.57,0,0,1,.1.13l.15.18a.54.54,0,0,0,.16.14c.1-.28-.09-.33-.16-.27-.08-.15-.21-.34-.28-.27-.05-.16-.1-.32-.14-.47,0,.05.1.12.11.14.45.62,0-.37-.13-.22v0l-.15-.45a1.8,1.8,0,0,0,.18.2c.39.37-.12-.56-.26-.43,0-.13-.09-.26-.14-.39.19.1.42.16.37.21.13-.14-.25-.27-.45-.4-.11-.29-.24-.58-.37-.85.11.16.25.33.26.34.47.55-.22-.84-.4-.64v0l-.26-.46h0a3.76,3.76,0,0,0,1.11.08Zm-3.45-3.77a10.83,10.83,0,0,0-1.61.15s-.08-.2-.1-.17c.05-.38,1-.33,1.14-.33a2.15,2.15,0,0,1,1,.27c.42.24-.28.1-.41.08Zm-.94,3.05v.07l.09.32-.11-.08-.23-.13A.72.72,0,0,1,55.17,40.74ZM50.46,42.2l-.12.09c0-.08,0-.14.06-.16s0,0,.05.07Zm-1.2,4,0-.06.12.2a3.65,3.65,0,0,0-.14.35l-.1-.16c0-.12.07-.23.1-.33Zm-2.65,6.41a5.3,5.3,0,0,0-.22,1.05,1.3,1.3,0,0,0-.18-.23c.1-.41.23-.73.41-.82Zm-.82,3.12Zm-.13.42c0,.16-.15.59-.3,1.12l-.09,0c.28-1,.46-1.68.39-1.16Zm.85,9.59c0-.12.08-.19.22-.07l.05.05Zm4.21-.17s0-.11.13-.2c-.15.14,0,.12.2.08a2.2,2.2,0,0,0-.32.12Zm.48-.21s.1-.12.1-.12a.14.14,0,0,1,.12.09l-.26.08c.08,0,.11,0,0,0Zm.92-.2h0a1,1,0,0,1,0-.24,1,1,0,0,0,.05-.46c-.12-.84.29.41.55.31s0-1,0-1.08.19-.07.16-.32l-.06-.31a12.16,12.16,0,0,0,.53,1.15,7.75,7.75,0,0,1,.44,1,9.53,9.53,0,0,0-1.51,0l-.18,0Zm9.72.61c0-.11,0-.3.18-.14.32.33.25-.09.16-.25l0-.06c1,0,2,0,2.95,0l.17.35L64,65.79l-2.12,0Zm7,1.2s.05,0,.06,0a.1.1,0,0,1,0,.07Zm1-.74c0-.12-.1-.24-.16-.36h0l.2.37Zm2.19.93h0l0,0Zm1.44-.07h.17s0,.05,0,.08h-.26l.08-.08Zm.72,0h.07l0,.07h-.11s0,0,0-.07Zm.15.07v-.07h.1c0,.07.1.09.2,0h0l0,.08h-.35Zm.43-.07.37,0,.06.14c-.14,0-.28,0-.42,0Zm.93-.09c0-.26,0-.44,0-.57h0a3.27,3.27,0,0,0,.14.62s0,0,0,.06h0a1.09,1.09,0,0,0,.17.34l-.33-.16c0-.1,0-.21,0-.31Zm1.1-2.4c.06-.08.33.3.25.39s-.33-.3-.25-.4ZM76,60.21v0l0,0ZM65.48,32c.06-.07-1-1.9-.7-2.21C64.68,29.88,65.8,31.58,65.48,32ZM62.28,2.3c0-.06.23.14.2.18S62.25,2.34,62.28,2.3ZM61.92,9c-.06.07-.28-.22-.22-.29s.29.21.23.29Zm-.36,4.72c.06-.07.23.14.2.18S61.53,13.71,61.56,13.67Zm-1-8.24s0,0,0,0c-.1-.3-.15-.83.06-.16,0,0,.11.29.08.32l0,0C60.61,5.54,60.58,5.4,60.52,5.43ZM60.1,7.94l.12-.44c.08.31.12.63,0,.72C60.28,8.17,60.19,8,60.1,7.94Zm0-2.74h0a1.87,1.87,0,0,1,.15-.32C60.28,5,60.28,5.09,60.08,5.2Zm.16,3.13c.06-.07.28.22.22.29s-.29-.22-.23-.29Zm.34-4.09.06-.16c0-.07.06-.18.11-.32a4.78,4.78,0,0,1,.22.67A7.82,7.82,0,0,1,61,5.88c-.26-.1-.38-1.13-.45-1.64ZM61,6c.06-.07.29.21.23.29S61,6.06,61,6Zm.12-3.53,0-.16C61.24,2.44,61.23,2.51,61.16,2.46ZM58.55,12.2c.1,0,.09.55,0,.61s-.09-.55,0-.61Zm-.12.89c.1-.05.11.41,0,.46s-.11-.41,0-.46Zm-1.62,3.65a1.87,1.87,0,0,1,.13-.42c.25-.13-.47,1.7-.13.42Zm0,2.14c.09-.05.1.41,0,.46S56.67,18.93,56.77,18.88Zm-2.08,6.58c.1-.05.11.42,0,.46S54.6,25.51,54.69,25.46Zm-.26.84c.09-.05.1.42,0,.46s-.11-.41,0-.45Zm-.61,2.43c.1-.05.11.41,0,.46s-.11-.41,0-.46Zm-.42,2.33c.42.16-.32.54,0,0C53,30.76,53.79,30.37,53.4,31.06Zm-.17.56h0ZM54,30a59,59,0,0,1,1.38-5.88c0,.08.31-.07.37-.19a9.06,9.06,0,0,0,.44-1.4c.47-1.77,1.2-4.74,1.69-6.86.09-.39.26-2,.43-1.87S58.2,15.18,58,15.9a9.4,9.4,0,0,0,0,1.19c.22-.11.37-1.56.52-2.14.56-2.17.85-3.53,1.29-5.6.08-.37.17-.73.26-1.07.14.73.51,1.68.7,2.65a24.49,24.49,0,0,0,.84,4c.07.17.32,0,.37.25s-.13.5-.11.82c.1,1.71,1.17,3.7,1.62,5.27s.86,4.16,1.25,6.26c.07.41.61,3.23,0,1.14-.54-1.78-.15.53-.08.92a13.77,13.77,0,0,0,1,3.39A10.73,10.73,0,0,1,66,35.13a12.09,12.09,0,0,0,.32,1.18l-.21.07c-.2-.6-.43-1.28-.42-1.29-.16.19,0,.78.25,1.35l-.2,0c-.38,0-.84-.18-1.09.05,0,0,0,.32,0,.31s-.15-.21-.24-.25c-.48-.23-1,.43-1.41.57a5.76,5.76,0,0,1-1.71,0c-.11,0-.89,0-.33-.24s-.16-.25-.27-.25a1.09,1.09,0,0,0-.9.32c-.18.15-.39,0-.6,0s-.62.32-.94.33c-1.18,0-2.46-.69-3.46-.25-.55.24-1.17.38-1.73.61l.63-2.22c.9-3.15,1.31-6.17,2.15-9.34.18-.68,1-2.7,1.46-4.62,0-.25.48-3.3.21-3.17a47.78,47.78,0,0,0-1.22,4.85c-.46,1.91-.78,3.63-1.07,4.9-.8,3.53-1.71,6.69-2.58,9.72-.15,0-.32,0-.5.06.71-2.63,1.45-5.36,2-7.81Zm-1.65-6.21c.09-.05.1.42,0,.47s-.11-.42,0-.47Zm-.16,11.49c.08-.05.1.3.05.32s-.11-.29-.06-.32ZM45,56.9s.2-1,.36-1.12S44.75,58.06,45,56.9Zm-2.38,5.65a.83.83,0,0,1,.27-.12l0,0c-.18.15.15.54.1.29a1.12,1.12,0,0,1,0,.41A5.2,5.2,0,0,0,42.58,62.55Zm1.53,3c-.36-.64-.69-1.3-1-2l.1-.24h0s0,0,0,0l.06-.13a22.1,22.1,0,0,0,1.4,2.28c.05.07,0,.29.14.32s.62,0,.39-.24c-.4,0,.26-.31,0,0a.61.61,0,0,1,.4.32l-.24,0h0c.06-.07-.21,0-.26,0h0c-.31,0-.61,0-.87,0a1.31,1.31,0,0,0-.16-.43Zm2.9.8s0-.08.09-.11l.07.08,0,0c-.08,0-.17,0-.2,0Zm.5-.12c0-.08.21-.21.25-.13s-.21.21-.25.13Zm.42-.12a.16.16,0,0,1,.13-.11s0,0,0,.05a.57.57,0,0,1,0,.14c-.12,0-.2,0-.18-.08Zm3,.2c0-.08.21-.21.25-.14s-.21.22-.25.14Zm2.93-.4a2.88,2.88,0,0,0-.83-.06l-2,.07v0c.66,0,1.86-.14,2.37-.16l.61,0,.21.55-.16,0s-.08-.27-.16-.3Zm.41,3.31c0-.08.22-.21.26-.14s-.21.22-.25.14Zm8.61-2.75h-.12a.06.06,0,0,1-.06,0s0,0,0,0h0a.24.24,0,0,1-.08-.09c.08.15.65-.31.75-.1a1.21,1.21,0,0,1-.47.23Zm.56-.08c0-.08.22-.21.26-.13s-.21.21-.25.13Zm.34,0c-.05-.09.28-.23.33-.13s-.28.23-.33.13Zm.83-.1c0-.08.22-.21.26-.13s-.21.21-.25.13Zm.42,0c.07.13.28,0,.5,0a.83.83,0,0,0,.07.13c-.22.1-.45.15-.57-.08Zm6.17,1a.5.5,0,0,0,.13-.19l.27-.05.2.2a1.67,1.67,0,0,1-.59,0Zm.8.21C72,67.45,72.06,67.62,72,67.52Zm1.5.1-.21,0,0-.16c.3,0,.55.08.19.14Zm.42,0s0,0,0,0H74s0-.05.06-.12,0,0,0,0-.14.18-.16.14Z"/><path id="Path_241" data-name="Path 241" class="cls-2" d="M77.41,68.32a.73.73,0,0,1-.41.15C77.09,68.55,77.23,68.56,77.41,68.32Z"/><path id="Path_242" data-name="Path 242" class="cls-2" d="M72,68.56a.23.23,0,0,0-.14,0Z"/><path id="Path_243" data-name="Path 243" class="cls-2" d="M63.72,65.63s.21-.07.17-.14S63.68,65.55,63.72,65.63Z"/><path id="Path_244" data-name="Path 244" class="cls-2" d="M77.6,67.59c0,.08.29-.06.25-.13S77.56,67.51,77.6,67.59Z"/><path id="Path_245" data-name="Path 245" class="cls-2" d="M78.6,67.66s.22,0,.25,0C79.6,67.66,78.5,67.46,78.6,67.66Z"/><path id="Path_247" data-name="Path 247" class="cls-2" d="M79.77,67.73c0-.08-.3,0-.26.13S79.81,67.81,79.77,67.73Z"/><path id="Path_248" data-name="Path 248" class="cls-2" d="M77.17,68.16s.22,0,.25,0C78.17,68.16,77.07,68,77.17,68.16Z"/><path id="Path_249" data-name="Path 249" class="cls-2" d="M78.5,68.24c0,.1.38,0,.34-.12S78.46,68.17,78.5,68.24Z"/><path id="Path_250" data-name="Path 250" class="cls-2" d="M79.42,68.31s.2-.07.17-.14S79.38,68.23,79.42,68.31Z"/><path id="Path_252" data-name="Path 252" class="cls-2" d="M43.18,66.06s-.21.06-.17.13S43.22,66.13,43.18,66.06Z"/><path id="Path_253" data-name="Path 253" class="cls-2" d="M77.66,68.49s.21-.07.17-.14S77.62,68.42,77.66,68.49Z"/><path id="Path_254" data-name="Path 254" class="cls-2" d="M74.32,68.71c.05.1.37,0,.33-.12S74.28,68.63,74.32,68.71Z"/><path id="Path_255" data-name="Path 255" class="cls-2" d="M74.82,68.75s.21,0,.25,0C75.82,68.76,74.71,68.55,74.82,68.75Z"/><path id="Path_256" data-name="Path 256" class="cls-2" d="M72.23,68.73s.28,0,.33,0C73.58,68.75,72.13,68.52,72.23,68.73Z"/><path id="Path_258" data-name="Path 258" class="cls-2" d="M73.56,68.81s.21-.06.17-.14S73.53,68.74,73.56,68.81Z"/><path id="Path_259" data-name="Path 259" class="cls-2" d="M69.05,69c.16.31.43-.11.42-.12S69.05,69,69.05,69Z"/><path id="Path_260" data-name="Path 260" class="cls-2" d="M69.72,69c0,.08.29,0,.25-.13S69.68,68.93,69.72,69Z"/><path id="Path_262" data-name="Path 262" class="cls-2" d="M68.3,69.06s.22,0,.25,0C69.3,69.07,68.19,68.86,68.3,69.06Z"/><path id="Path_263" data-name="Path 263" class="cls-2" d="M65,69c.06.11,1,.07,1,.07C66.89,69,64.82,68.72,65,69Z"/><path id="Path_264" data-name="Path 264" class="cls-2" d="M63,69c.19.29,1.35-.2,1.42-.06C64.18,68.57,63.39,69,63,69Z"/><path id="Path_265" data-name="Path 265" class="cls-2" d="M60.71,69c0,.08.29,0,.25-.13S60.67,68.93,60.71,69Z"/><path id="Path_266" data-name="Path 266" class="cls-2" d="M61.12,69c.16.3,1.62,0,1.84,0C62.72,68.58,61.3,69.37,61.12,69Z"/><path id="Path_267" data-name="Path 267" class="cls-2" d="M58.45,69c.07.12.89.06.92.06C60.29,69,58.37,68.84,58.45,69Z"/><path id="Path_268" data-name="Path 268" class="cls-2" d="M57.2,69.07c-.06.11.93.05.75.05C59,69.1,57.39,68.75,57.2,69.07Z"/><path id="Path_269" data-name="Path 269" class="cls-2" d="M56.28,69.16c.18.35.75-.1.75-.1C56.93,68.86,56.36,69.32,56.28,69.16Z"/><path id="Path_270" data-name="Path 270" class="cls-2" d="M57.14,36.91v0Z"/><path id="Path_271" data-name="Path 271" class="cls-2" d="M57.35,37s.1,0,.12,0C57.73,36.82,57.3,36.84,57.35,37Z"/><path id="Path_272" data-name="Path 272" class="cls-2" d="M57.84,36.9s-.06.09,0,.16S57.87,37,57.84,36.9Z"/><path id="Path_273" data-name="Path 273" class="cls-2" d="M58.53,36.92c.09,0,.56-.26.56-.25-.1-.3-.43.08-.61.11s-.6.15-.56.26C58,37.35,58.4,37,58.53,36.92Z"/><path id="Path_274" data-name="Path 274" class="cls-2" d="M59.59,36.87c.3-.17-.37-.1-.32.06S59.58,36.88,59.59,36.87Z"/><path id="Path_275" data-name="Path 275" class="cls-2" d="M61.32,37c.26-.15-.17-.14-.12,0S61.3,37,61.32,37Z"/><path id="Path_276" data-name="Path 276" class="cls-2" d="M61.93,36.73c0-.09-.12.1-.1.17S62,36.81,61.93,36.73Z"/><path id="Path_277" data-name="Path 277" class="cls-2" d="M62.45,36.79c0-.1-.13.09-.1.17S62.47,36.86,62.45,36.79Z"/><path id="Path_278" data-name="Path 278" class="cls-2" d="M62.7,36.89c.25-.11-.15-.17-.09,0C62.62,36.94,62.69,36.9,62.7,36.89Z"/><path id="Path_279" data-name="Path 279" class="cls-2" d="M62.81,36.87s.06-.09,0-.16S62.79,36.8,62.81,36.87Z"/><path id="Path_280" data-name="Path 280" class="cls-2" d="M62.9,36.85c0,.12.31-.05.32-.06C63.52,36.61,62.85,36.69,62.9,36.85Z"/><path id="Path_281" data-name="Path 281" class="cls-2" d="M42.28,62.14s0,0,0,0Z"/><path id="Path_282" data-name="Path 282" class="cls-2" d="M50.35,57.73c0-.06-.54-.73-.6-.67-.26.25.38.6.48.75s.64.64.6.67C51.09,58.23,50.5,58,50.35,57.73Z"/><path id="Path_283" data-name="Path 283" class="cls-2" d="M45.1,53.6a.35.35,0,0,1,.06-.14C45,53.61,45,53.64,45.1,53.6Z"/><path id="Path_284" data-name="Path 284" class="cls-2" d="M52.57,64.84s-.12,0-.17,0S52.52,64.89,52.57,64.84Z"/><path id="Path_285" data-name="Path 285" class="cls-2" d="M52.47,65c-.06,0,.13.07.19,0S52.52,64.89,52.47,65Z"/><path id="Path_286" data-name="Path 286" class="cls-2" d="M60.9,42.85h0l.25-.22a.17.17,0,0,0,0-.07Z"/><path id="Path_287" data-name="Path 287" class="cls-2" d="M53.24,51.4c0-.09-.28-.12-.32,0S53.21,51.46,53.24,51.4Z"/><path id="Path_290" data-name="Path 290" class="cls-2" d="M56,54.2s0,0,0,0S56,54.2,56,54.2Z"/><path id="Path_291" data-name="Path 291" class="cls-2" d="M63,62.06s0,.21.05.24C63.28,62.84,63.18,61.93,63,62.06Z"/><path id="Path_294" data-name="Path 294" class="cls-2" d="M62.65,63.28l0,0h0Z"/><path id="Path_295" data-name="Path 295" class="cls-2" d="M61.29,63c-.25.23.19.25.19.24S61.29,63,61.29,63Z"/><path id="Path_296" data-name="Path 296" class="cls-2" d="M61.47,64h0C61.4,64,61.46,64,61.47,64Z"/><path id="Path_298" data-name="Path 298" class="cls-2" d="M61.23,63.47c-.08.08.11.25.18.19S61.29,63.41,61.23,63.47Z"/><path id="Path_300" data-name="Path 300" class="cls-2" d="M58.36,41.44c-.2.24.3.21.3.2S58.36,41.44,58.36,41.44Z"/><path id="Path_301" data-name="Path 301" class="cls-2" d="M59.93,44.82c.07-.07-.2-.12-.25-.07S59.88,44.87,59.93,44.82Z"/><path id="Path_302" data-name="Path 302" class="cls-2" d="M64.42,42.06c-.28.27.83.61.73.7C65.38,42.54,64.37,42.11,64.42,42.06Z"/></g></g><g id="Group_62" data-name="Group 62"><g id="Group_60" data-name="Group 60"><path id="Path_303" data-name="Path 303" class="cls-1" d="M146.88,110.47V95a.23.23,0,0,1,.2-.23h.46a.21.21,0,0,1,.23.2v15.46a.21.21,0,0,1-.2.23h-.46a.23.23,0,0,1-.23-.21Z"/><path id="Path_304" data-name="Path 304" class="cls-1" d="M156.25,95.94a.85.85,0,0,1,.89-.81h0a.83.83,0,0,1,.89.77v0a.84.84,0,0,1-.82.87h-.07a.86.86,0,0,1-.91-.81Zm.45,14.53V99.53a.23.23,0,0,1,.21-.23h.46a.22.22,0,0,1,.22.21v11a.21.21,0,0,1-.2.23h-.46a.23.23,0,0,1-.23-.21v0Z"/><path id="Path_305" data-name="Path 305" class="cls-1" d="M168,98.51v.7c0,.05,0,.08.09.09h2.76a.21.21,0,0,1,.22.2v.39a.21.21,0,0,1-.2.23h-2.78a.11.11,0,0,0-.09.1v10.26a.23.23,0,0,1-.21.23h-.45a.22.22,0,0,1-.23-.21V100.21a.11.11,0,0,0-.09-.09h-1.48a.21.21,0,0,1-.23-.2v-.39a.21.21,0,0,1,.2-.23H167a.11.11,0,0,0,.09-.09v-.72c0-2.43.68-3.68,3.28-3.68h.55a.21.21,0,0,1,.22.2v.37a.2.2,0,0,1-.2.22s0,0,0,0h-.5C168.42,95.6,168,96.63,168,98.51Z"/><path id="Path_306" data-name="Path 306" class="cls-1" d="M184.94,108.06a.2.2,0,0,1,.23-.15l.05,0,.3.09a.21.21,0,0,1,.17.24.43.43,0,0,1,0,0,4.17,4.17,0,0,1-4.06,2.57,4,4,0,0,1-4.1-2.93,11.89,11.89,0,0,1-.25-3,13.14,13.14,0,0,1,.18-2.8,4,4,0,0,1,4.15-3.06,4,4,0,0,1,4.21,3.3,11,11,0,0,1,.13,2.56.22.22,0,0,1-.19.25h-7.51a.08.08,0,0,0-.09.07v0a10.59,10.59,0,0,0,.11,2.18,3.22,3.22,0,0,0,3.4,2.59A3.38,3.38,0,0,0,184.94,108.06Zm-6.67-5.6a12.77,12.77,0,0,0-.12,2,.08.08,0,0,0,.08.09H185s.08,0,.09-.07v0a10.16,10.16,0,0,0-.12-1.91,3.21,3.21,0,0,0-3.35-2.58,3.16,3.16,0,0,0-3.32,2.54Z"/></g><g id="Group_61" data-name="Group 61"><path id="Path_307" data-name="Path 307" class="cls-2" d="M122,105.46c.87-.57.72-.52.24-.27s-1.31.74-1.81,1a15.22,15.22,0,0,1-2,.93,7.4,7.4,0,0,1-2.42.44h-.42l-.18,0,.2,0a12.43,12.43,0,0,0,1.72-.21,6.45,6.45,0,0,0,1.54-.5c.13-.07.16-.1.06-.08l-.75.18c-.44.09-.83.18-1.21.23l-.28,0-.28,0-.27,0-.28,0-.28,0H115l-.27,0a2.07,2.07,0,0,1-1.1-.45l-.19-.16-.07-.08.09.08a2.07,2.07,0,0,0,.62.38l0,0a.35.35,0,0,0,.12,0l.15,0h.27a.06.06,0,0,0,.06,0l-.16,0,.14,0h.39l.48,0a7,7,0,0,0,.79-.07c-.24,0-.24,0-.12,0a11.38,11.38,0,0,0,1.52-.31l.24-.07.24-.08a4.69,4.69,0,0,0,.45-.18c.14-.06.27-.11.38-.17l.28-.14.16-.09.54-.3c-.06,0-.5.26-1,.49a8.87,8.87,0,0,1-1.38.52l-.35.08-.17,0-.18,0-.35.06-.36,0-.36,0-.35,0h-.7a2.16,2.16,0,0,1-1.1-.4,3.07,3.07,0,0,1-.83-.93,3.32,3.32,0,0,1-.41-2.44,2.62,2.62,0,0,1,.54-1.08,3.24,3.24,0,0,1,1-.75l.15-.07.07,0,.08,0,.3-.11c.1,0,.22-.06.32-.09l.16,0,.17,0,.33-.06.34,0,.17,0h.52a7.9,7.9,0,0,1,2.69.43l.16.06.16.07.31.13c.2.1.41.19.61.31a8.76,8.76,0,0,1,1.14.77,13.18,13.18,0,0,1,1.06.92c.35.32.69.66,1,1s.75.8.86.93,0,0-.63-.61c-.37-.39-.74-.77-1.1-1.12a13.57,13.57,0,0,0-1.13-1c-.19-.16-.38-.3-.58-.44s-.4-.27-.61-.39l-.32-.17-.32-.16-.33-.14-.16-.07-.17-.05-.34-.12-.35-.08-.17-.05-.18,0-.35-.06a8.87,8.87,0,0,0-1.46-.07,6.39,6.39,0,0,0-1.44.19l-.34.09-.33.13a2.73,2.73,0,0,0-.61.32,1.76,1.76,0,0,0-.3.24l-.08.07-.08.09-.07.08a.47.47,0,0,0-.06.09l-.12.16-.07.14,0,.1,0,0,0,0,0-.07.06-.09,0-.06,0-.06.11-.13.14-.15a1.07,1.07,0,0,1,.16-.14l.19-.15.44-.26.48-.2.06,0,.07,0,.13,0,.23-.06.4-.08h.1l.09,0h.19a2.34,2.34,0,0,1,.38,0l.38,0H117a7.51,7.51,0,0,1,1.5.19l.36.09.36.12.17.06.17.07a3.49,3.49,0,0,1,.34.15,7.89,7.89,0,0,1,1.29.75,16.67,16.67,0,0,1,2.3,2.06c.74.75,1.48,1.54,2.32,2.27a10.28,10.28,0,0,0,1.24.93,8,8,0,0,0,1.45.75l.2.08.2.06.4.13c.27.07.54.12.82.17a8.4,8.4,0,0,0,1.66.08l.43,0,.21,0,.21,0,.21,0,.21-.05.41-.12a5.38,5.38,0,0,0,1.54-.8,4.62,4.62,0,0,0,1.77-2.82,4.36,4.36,0,0,0-.08-2,4.58,4.58,0,0,0-1-1.79,5.33,5.33,0,0,0-1.58-1.21l-.22-.11-.22-.09-.22-.09-.11,0-.11,0-.45-.14-.45-.09-.19,0-.2,0-.41,0h-.86a7.13,7.13,0,0,0-1.51.32,9.36,9.36,0,0,0-1.43.59,13.89,13.89,0,0,0-1.43.86l-.82.59a6.66,6.66,0,0,0-.66.53c-.08.12.21.22.24.61,0,.14-.23.48-.2.54a1,1,0,0,0,.42.09,3,3,0,0,0,.43,0c-.23.07.63-.32.5-.25.66-.35,1.31-.83,2-1.28a11.47,11.47,0,0,1,1.06-.64,4.45,4.45,0,0,1,1.12-.42l.14,0h.14l.14,0h.62l.16,0,.32,0,.31,0,.15,0,.16,0,.3.09a4.55,4.55,0,0,1,1.12.57,3.27,3.27,0,0,1,1.29,1.87,3.09,3.09,0,0,1-1.12,3.13,3.79,3.79,0,0,1-1.1.6,2.8,2.8,0,0,1-.31.09l-.15,0-.16,0-.32,0-.33,0-.32,0h-.33l-.33,0a1.66,1.66,0,0,1-.32,0l-.32-.05-.32-.07c-.2,0-.41-.11-.61-.18a6.25,6.25,0,0,1-1.14-.54c-.18-.1-.36-.22-.54-.34l-.26-.19-.13-.1L127,106a21.21,21.21,0,0,1-2-1.84c-.64-.65-1.29-1.33-2-2l-.27-.23-.29-.23c-.18-.16-.39-.29-.58-.44a11,11,0,0,0-1.28-.75c-.22-.11-.46-.2-.69-.3a3.59,3.59,0,0,0-.35-.12,2.53,2.53,0,0,0-.36-.12,9.08,9.08,0,0,0-1.47-.28l-.37,0-.37,0h-.73c-.13,0-.25,0-.37,0l-.38,0-.18,0-.19,0-.37.07-.37.1-.18,0-.19.06-.36.14-.35.17a4.54,4.54,0,0,0-1.27,1,3.9,3.9,0,0,0-.77,1.43,4.21,4.21,0,0,0-.14,1.58,4.69,4.69,0,0,0,1.4,2.9,3.65,3.65,0,0,0,1.31.79,2.37,2.37,0,0,0,.36.09l.36,0h.62c.26,0,0,0-.28,0l-.11,0h-.12l-.2,0c-.1,0-.14,0,0,0a3,3,0,0,1,.39,0h.49c.18,0,.36,0,.54,0l.26,0,.23,0c.31-.06.16-.07,0-.06s-.46,0-.36,0l.2,0,.2,0,.41,0,.47-.06c.19,0,.38-.1.57-.16-.62.1-1.12.15-1.64.2l-.39,0h-1.1l-.27,0a.65.65,0,0,1-.24,0,3.59,3.59,0,0,1-.35-.12l-.19-.1-.17-.1-.16-.11-.14-.09a2.76,2.76,0,0,1-.87-.83,4.35,4.35,0,0,1-.59-1.18,3.58,3.58,0,0,1-.14-.54c0-.1,0-.11,0-.06s0,.16.08.31a4.93,4.93,0,0,0,.19.54,4.56,4.56,0,0,0,.72,1.17,4.89,4.89,0,0,0,.39.4l.22.19a.85.85,0,0,1,.22.09l.14.09.17.09a1.51,1.51,0,0,0,.18.09l.19.08a2.11,2.11,0,0,0,.36.09h.44l.44,0h.23l.24,0,.48,0a9.55,9.55,0,0,0,2-.41,10.09,10.09,0,0,0,2-.87C120.91,106.14,121.46,105.79,122,105.46Zm-6.81,1.64s0,0,.17,0h.42c.26,0,.4,0-.19,0A2.71,2.71,0,0,1,115.15,107.1Zm-1-.15s.21,0,.23,0,0,0-.1,0a.43.43,0,0,1-.14,0Zm-.61-.35s0,0,.09,0l.08.06,0,0s0,0-.1,0A.47.47,0,0,1,113.52,106.6Zm3.44.6s.05,0,.15-.06a1,1,0,0,1,.24,0s0,0-.15.07a1,1,0,0,1-.24,0Zm-4.58-2c0-.07,0-.07,0,0s.07.13.11.23.22.42.23.46a.56.56,0,0,1,0-.08.79.79,0,0,1-.11-.19.75.75,0,0,1-.07-.12l-.07-.13-.06-.13,0-.12-.07-.19s0-.06,0,0a.75.75,0,0,0,0,.16l.06.18.1.24a3.7,3.7,0,0,1-.31-1.39.48.48,0,0,1,0-.17v-.16a1.45,1.45,0,0,1,0-.3.28.28,0,0,1,0-.13l0-.12,0-.11,0-.09a3.1,3.1,0,0,1,.28-.58,1.43,1.43,0,0,1,.3-.35s0,0,0,.07l-.06.08-.08.1-.17.25-.12.23a3.22,3.22,0,0,0-.17.68l0,.24v.44a2.45,2.45,0,0,0,0,.27l0,.16a1.48,1.48,0,0,0,0,.19c0,.15.07.3.11.45Zm.59,1.5a3.47,3.47,0,0,1-.32-.34l-.11-.15s-.05-.09-.07-.12l-.1-.18s0-.06,0-.07l0,0,.11.17.08.12.1.15c.07.11.17.23.28.37a2.86,2.86,0,0,0,.36.29l.14.11.13.08c.14.1.22.13.22.15s-.1,0-.25-.11l-.13-.08-.14-.11a2.57,2.57,0,0,1-.33-.33Zm4.8-5.93h-.31a2,2,0,0,1-.35,0h.07a.83.83,0,0,1,.59,0Zm-5.84,3.91s0,.06.06.2a.43.43,0,0,1,0,.11l0,.12a1.68,1.68,0,0,0,.07.24c0,.09.06.18.08.26a.2.2,0,0,1,0-.08l0-.13,0-.09,0-.1a2.38,2.38,0,0,1-.07-.27,2,2,0,0,1,0-.26Zm14.44,2.47a1.54,1.54,0,0,1-.33-.25,7.48,7.48,0,0,1-.68-.61c-.42-.42-.7-.73-.15-.19l.18.17.38.34.2.18.18.16a1.34,1.34,0,0,1,.21.2ZM119.05,101s0,0,0,0l-.16,0-.22-.06-.24-.06c-.29-.06-.44-.12.16,0A4.74,4.74,0,0,1,119.05,101Zm-7.14,2.3a1.43,1.43,0,0,0,0,.46.81.81,0,0,1,0,.22.66.66,0,0,1-.06.27s0-.09,0-.26a2.81,2.81,0,0,1,0-.65,1.13,1.13,0,0,1,0-.18l0-.18c0-.12.08-.23.11-.33a2.68,2.68,0,0,1,.12-.24.83.83,0,0,1,.08-.12c0-.06,0,0,0,0s-.07.14-.13.26l0,.09,0,.1-.08.2a3,3,0,0,0-.09.35Zm1.28-2a1.12,1.12,0,0,1,.2-.18l.2-.12a1.06,1.06,0,0,1,.25-.09s0,0-.09.08l-.22.11-.16.09-.18.11a6.2,6.2,0,0,0-.5.48c-.12.11-.17.18-.18.18s0-.07.12-.2l.09-.1.12-.11A2.22,2.22,0,0,1,113.19,101.28Zm9.24,1.68c0,.06-.3-.18-.33-.24s.31.19.33.25Zm-7.11-2.52c.05,0-.07,0-.24.06l-.13,0-.15,0-.28.06-.22.06-.07,0a2.26,2.26,0,0,1,.56-.17,2.45,2.45,0,0,1,.53-.09Zm1.09-.1a5.36,5.36,0,0,1-.7,0h-.27a3.15,3.15,0,0,1,.43-.05h.54Z"/><path id="Path_308" data-name="Path 308" class="cls-2" d="M113.74,106.43c0-.05.25.17.46.26a.38.38,0,0,0,.13.06l0,0-.07,0-.09,0-.14-.07-.07,0-.11-.07Z"/><path id="Path_309" data-name="Path 309" class="cls-2" d="M113.08,105.71s.19.26.36.44a2.09,2.09,0,0,1,.14.17l-.06,0-.08-.07-.11-.12-.06-.07a.76.76,0,0,0-.08-.11l-.08-.12Z"/><path id="Path_310" data-name="Path 310" class="cls-2" d="M112.67,104.79c0-.07.09.26.17.47a1.34,1.34,0,0,1,.07.18l0-.07c0-.09-.07-.17-.1-.25A2,2,0,0,1,112.67,104.79Z"/><path id="Path_311" data-name="Path 311" class="cls-2" d="M112.55,103.69s0,0,0,.17a.61.61,0,0,0,0,.19v.2c0,.26,0,.4,0-.12v-.23A1.49,1.49,0,0,1,112.55,103.69Z"/><path id="Path_312" data-name="Path 312" class="cls-2" d="M112.75,102.86s0,0,0,0a.53.53,0,0,0,0,.11s0,.1-.06.15a1.54,1.54,0,0,0,0,.17c0,.1-.05.18-.06.17a.25.25,0,0,1,0-.08l.06-.25.06-.16A.38.38,0,0,1,112.75,102.86Z"/><path id="Path_313" data-name="Path 313" class="cls-2" d="M118,106.91a3.77,3.77,0,0,1,.64-.23c.29-.1.45-.15-.13.08A4.91,4.91,0,0,1,118,106.91Z"/><path id="Path_314" data-name="Path 314" class="cls-2" d="M120.1,106.08a2.41,2.41,0,0,1,.66-.38C120.83,105.69,120.68,105.82,120.1,106.08Z"/><path id="Path_315" data-name="Path 315" class="cls-2" d="M120.1,106.08a3.12,3.12,0,0,1-.95.47A5.59,5.59,0,0,1,120.1,106.08Z"/><path id="Path_317" data-name="Path 317" class="cls-2" d="M118.39,107.42l.31-.13a3,3,0,0,1,.36-.14l-.07,0-.16.1A.93.93,0,0,1,118.39,107.42Z"/><path id="Path_319" data-name="Path 319" class="cls-2" d="M117.84,107.66c-.52,0-.6,0-.5,0l.7-.13.21,0,.18,0,.2,0s0,0-.14.06l-.26.08Z"/><path id="Path_320" data-name="Path 320" class="cls-2" d="M119.33,107.14s.07-.06.2-.12a1.48,1.48,0,0,1,.31-.15s-.07.07-.19.14A1.27,1.27,0,0,1,119.33,107.14Z"/></g></g></svg>