<svg id="Layer_1" data-name="Layer 1" xmlns="http://www.w3.org/2000/svg" viewBox="0 0 189.12 70.88"><defs><style>.cls-1,.cls-2{fill:#eff7f3;}.cls-2{fill-rule:evenodd;}</style></defs><title>habitat-logo-white</title><path class="cls-1" d="M13.41,0l-.24.09L13.5,0Z"/><path class="cls-1" d="M12.93,0c-.41-.14-.71.29-1,.19,0,0,0,.05.07.06Z"/><path class="cls-1" d="M11.46.27c.14,0,.26,0,.22-.07a.87.87,0,0,0-.23,0l-.25,0a1.14,1.14,0,0,0-.26.09A1.52,1.52,0,0,1,11.46.27Z"/><path class="cls-1" d="M15.47,36.78c0-1.58-.1-3.16-.16-4.76V10.62c.07-1.23.16-2.5.13-3.76L15.38,7a7.05,7.05,0,0,0-.07-1.89v-.4a.9.9,0,0,1,.08-.36l0,.1a1.46,1.46,0,0,0-.1-.8V2.33a2.26,2.26,0,0,0-.15-.72A1.41,1.41,0,0,0,15,1.29a1.58,1.58,0,0,0-.36-.37c-.13-.11-.22-.19-.19-.29.33.17-.49-.38.32-.05A1.7,1.7,0,0,0,14,.28c-.31,0-.56,0-.51.09s-.17.15-.19.22H10.83V19.75H6.47a1.53,1.53,0,0,1-1.25-.4,1.74,1.74,0,0,0,1.37.36l1.5,0c-.07,0-.09,0-.15.05a2.57,2.57,0,0,1,.62-.08c.06,0-.06,0-.13.05a5.66,5.66,0,0,0,1.16,0l1.17,0a2.82,2.82,0,0,1,0-.58c0-.24-.08-.34-.13-.21,0-3.16-.07-6.54-.19-9.75,0-.16.07-.18.12-.14-.12-1.37-.16-2.77-.16-4.19s0-3.06.05-4.58h0s0,0-.09,0,0,.24-.08-.08h0c0,.36,0,.84,0,1.13s0,.41.05.61a4.82,4.82,0,0,1,0,1.2L10.32,3c0,.6.16.12.08.74-.06.24-.08-.06-.09.05,0,1.26,0,2.53.12,3.79-.13.3,0,1.36-.13,1.83a2.6,2.6,0,0,0,.13.78c0,1.58,0,3.18,0,4.78s0,3,.05,4.47l-3.54,0a2.08,2.08,0,0,1-1.45-.13c-.34-.28-.32-.9-.3-1.5,0-1.22.09-2.49,0-3.75,0,0,0,0,0,0a27.44,27.44,0,0,1-.07-3l-.11-.83c.06-1.58.1-3.18.11-4.78L5.21.3H2.83a6.7,6.7,0,0,0-1.1,0A1.83,1.83,0,0,0,.67.93,1.93,1.93,0,0,0,.17,2a10.14,10.14,0,0,0,0,1.08l0,2.09C.05,12-.15,18,.2,24.64c0,0,0,.05-.05-.13.06,1.92,0,3.67,0,5.48h0c.22,4.49,0,9.32.21,13.66v.59H5c0-1.92,0-3.92,0-5.93s0-4-.06-5.94H5C5,31,5,29.63,5,28.26s.06-2.63.08-4l2.35,0H9.89a1,1,0,0,1,.76,1.11c0,.58,0,1.16,0,1.75,0,1.17.07,2.34.1,3.52,0,.93.05,1.86.07,2.78v3.55c0,.23,0,.46,0,.69a27.21,27.21,0,0,0-.05,3.13c0,.48,0,1,.07,1.47v1.81h3.06l1.5.09c0-.65,0-1.3.07-1.94l0-1.84C15.51,39.23,15.5,38,15.47,36.78ZM5.21,19.34a1,1,0,0,1-.15-.26A1.35,1.35,0,0,0,5.21,19.34ZM5,18.9,5,19ZM.44,6.77v1.1A6.73,6.73,0,0,1,.44,6.77Zm0,1.58v.33l0-.4Zm0,2.3v3A15.54,15.54,0,0,1,.44,10.65Zm0,3.59v.24h0Z"/><path class="cls-1" d="M8.43,19.7h0C8.37,19.71,8.39,19.71,8.43,19.7Z"/><path class="cls-1" d="M69.92,26.91l0,0L70,27Z"/><path class="cls-1" d="M70.11,27.22h0L69.92,27C69.78,27.11,70.21,27.17,70.11,27.22Z"/><path class="cls-1" d="M70.08,27.27c0,.07.06.1.1.12S70.21,27.26,70.08,27.27Z"/><path class="cls-1" d="M69.92,7.31l0,0,.09,0Z"/><path class="cls-1" d="M70.11,7.62h0l-.24-.18C69.78,7.51,70.21,7.57,70.11,7.62Z"/><path class="cls-1" d="M70.08,7.67c0,.07.06.1.1.12S70.21,7.66,70.08,7.67Z"/><path class="cls-1" d="M75.45,25.69a2.17,2.17,0,0,1,.07.24l0-.08A.86.86,0,0,0,75.45,25.69Z"/><path class="cls-1" d="M75.2,24.94s0,0,0,0a4.93,4.93,0,0,1,.34.54C75.6,25.23,75.14,25.12,75.2,24.94Z"/><path class="cls-1" d="M75,24.45c.11,0,.1.4.2.32A.35.35,0,0,0,75,24.45Z"/><path class="cls-1" d="M75.18,25.92A2.53,2.53,0,0,0,75,25.8a3.66,3.66,0,0,0-2.54-3.43A3.75,3.75,0,0,0,75,18.82V12c0,.63.05,1.26.07,1.9,0,0,0-.05,0-.08a.9.9,0,0,1,.08.36s0,0,0-.08c-.15.5.1,1.46,0,1.77,0,.14.08.2.13.12,0,.91,0,1.86.06,2.82a4.34,4.34,0,0,1-1,2.83c-.08.07-.12.05-.14,0l-.31.36-.18.15-.06.06a.87.87,0,0,1-.23.16.77.77,0,0,1,.25.1.09.09,0,0,1,.06,0l.09.06a3,3,0,0,1,.34.28A4,4,0,0,1,75,24.29c.09,0,0-.2.12-.06-.16-.59-.64-.87-.92-1.32h.1c-.27-.3-.17.06-.42-.27-.1-.13.08,0,0-.08l-.15-.1,0,0,0,0-.11,0s0,0,0-.12h.09a1.51,1.51,0,0,0,.26-.18,4,4,0,0,1,.51-.41c.11-.2.23-.37.21-.49a4.3,4.3,0,0,0,.71-2c0-.75,0-1.33,0-2,0-1.31-.06-2.63,0-4-.27-1.23,0-2.72,0-4.18h0a10.13,10.13,0,0,1-.06-1.74l-.11-.49a6.17,6.17,0,0,0-.24-2.63,5.57,5.57,0,0,0-1.45-2.29A5.8,5.8,0,0,0,71.07.54,10.09,10.09,0,0,0,68.39.27L64.8.19l-1.74,0H60.9c0,.49,0,1,0,1.48s0,.69,0,1.05c0,.7.08,1.41.14,2.14,0,0,0,0-.05-.08.05,1.12,0,2.13,0,3.18h0c.22,2.6,0,5.42.2,7.93,0,3.05,0,6.5.07,9.74h-.05c.11,2.58-.17,5.08-.09,7.67-.08,1.85.1,3.77.16,5.67V41c0,.13,0,.27,0,.4a11.92,11.92,0,0,0,0,2.67v.09h2.76a32.26,32.26,0,0,0,4.61.18A6.77,6.77,0,0,0,71.06,44a4.35,4.35,0,0,0,.75-.37A5.55,5.55,0,0,0,75,38.67v-6.3a16.09,16.09,0,0,0,.13-2.19l-.06.06a2.4,2.4,0,0,0-.07-1.1v-.23a.35.35,0,0,1,.08-.22l0,.06c.07-.15,0-.31-.1-.47V26.61c0-.1.05-.17.14-.17,0,.19.14-.3.2.13C75.34,26.44,75.33,25.86,75.18,25.92ZM69.56,5.45c.16.19.27.4.42.56l0,0c0,.15.15.2.24.27a.36.36,0,0,0,0,.09.21.21,0,0,1-.06.1h0c0,.06,0,.08.14.11a3.7,3.7,0,0,1,.1.58.24.24,0,0,1-.14.05c0-.06-.13.1-.2,0a.15.15,0,0,0,.06.19h.08l.22,0v5.47c0-.21,0-.43-.07-.65l0,0s-.1-.08-.09-.12a0,0,0,0,1,0,0c.16-.17-.1-.49,0-.6a.11.11,0,0,0-.13,0h0a18,18,0,0,0-.19-1.93s.06,0,.11,0a3.26,3.26,0,0,1-.11-1.67c-.06,0-.07.06-.13,0-.09.18.16.33,0,.49l-.07,0c0,.12.16,0,.08.15s-.08,0-.08,0a1.39,1.39,0,0,0,.12.75c-.14.06,0,.27-.14.36.06.07,0,.13.13.16-.07.87.06,1.77,0,2.67.27.42,0,.93,0,1.42h0a1.12,1.12,0,0,1,.07.6l.11.16c-.24,1.16,0,2.39-.18,3.53a2,2,0,0,1-.72,1.4,3.88,3.88,0,0,1-1.54.57s0,0,0-.05c-.38.05-.72,0-1.08,0v0a4.5,4.5,0,0,1-.51.08l-.37,0a5.79,5.79,0,0,0-.1-1.44c0-1,0-2.21-.07-3.31h0c-.11-.88.17-1.74.08-2.62a9,9,0,0,0-.15-1.93v-.7a.71.71,0,0,1,0-.14,1.42,1.42,0,0,0,0-.91v-1a3.63,3.63,0,0,0,.18-1.5,6.76,6.76,0,0,0-.1-.77c0-.14,0-.27-.08-.42V5.07h2.43A2.52,2.52,0,0,1,69.56,5.45Zm.18,14.31h.06a.08.08,0,0,0,0,0s0,0,0,0Zm.13-.1a.66.66,0,0,1,.25-.38l.06-.07a2,2,0,0,1-.3.46Zm.51-1.05a.33.33,0,0,1,0-.13c0,.05,0,.09,0,.14Zm0,.13v0Zm-.76,20.59s0,0,0,0h0Zm.89-6.89c0-.22-.06-.43-.07-.65l0,0s-.09-.08-.08-.13,0,0,0,0c.16-.17-.1-.5,0-.6a.09.09,0,0,0-.12-.05h0a14,14,0,0,0-.19-1.94.16.16,0,0,1,.12,0,3.27,3.27,0,0,1-.11-1.67c-.06,0-.07,0-.14,0-.08.18.16.33.05.49l-.07,0c0,.12.16,0,.08.15s-.08,0-.09,0a1.51,1.51,0,0,0,.13.75c-.14.06,0,.27-.14.36,0,.07,0,.13.13.16-.07.88.06,1.78,0,2.68.27.42,0,.93,0,1.43h0a1.22,1.22,0,0,1,.07.6l.11.16c-.24,1.16,0,2.41-.18,3.53A1.7,1.7,0,0,1,69.29,39a5.87,5.87,0,0,1-1.63.48s0,0,0,0c-.38,0-.72,0-1.08,0v0a3.76,3.76,0,0,1-.66.1,6.68,6.68,0,0,0-.11-1.67c0-1,0-2.22-.06-3.32h0c-.11-.89.17-1.74.08-2.62A9,9,0,0,0,65.75,30v-.7a.66.66,0,0,1,0-.14,1.45,1.45,0,0,0,0-.92v-1a5,5,0,0,0,0-2.71v-.12h2.42a2.38,2.38,0,0,1,1.56.49c.14.22.21.45.34.64l.05,0c-.07.14.11.21.19.3l0,.11-.06.07h0c-.06.06,0,.09.13.12a4,4,0,0,1,.07.59.24.24,0,0,1-.14.05c0-.06-.13.1-.2,0,0,0,0,.22.14.2a2.07,2.07,0,0,0,.22,0Zm-.1,5.72a.24.24,0,0,0,0,.08.24.24,0,0,1,0-.08Zm-.07.22s0,0,0,.06v-.06Zm-.21.43a1.92,1.92,0,0,1-.38.43.63.63,0,0,1,.3-.36l.09-.07ZM67.47.59h-.64A3.42,3.42,0,0,1,67.47.59Zm-.91,0h-.19l.23,0Zm-1.34,0H63.45A5.84,5.84,0,0,1,65.22.59Zm-2.08,0H63v0Z"/><path class="cls-1" d="M75,14.12h0Z"/><path class="cls-1" d="M95.36,0l-.12.09L95.4,0Z"/><path class="cls-1" d="M95.12,0c-.2-.14-.35.29-.48.19s0,.05,0,.06Z"/><path class="cls-1" d="M94.51.2a.24.24,0,0,0-.29.1C94.28.21,94.54.33,94.51.2Z"/><path class="cls-1" d="M97.21,29V27.2c0-.11,0-.23,0-.34a8.63,8.63,0,0,0,0-2.27V22.18a29.66,29.66,0,0,0,0-6.66V5a11.64,11.64,0,0,0,.13-1.86l-.06,0a1.67,1.67,0,0,0-.08-.94,1.5,1.5,0,0,0,0-.2.41.41,0,0,1,0-.19l0,0c0-.15-.09-.27-.22-.35h0a1.62,1.62,0,0,0-.61-.69.31.31,0,0,0-.15-.08A.44.44,0,0,0,96.1.72c-.13,0-.25-.09-.23-.23.18,0-.26-.19.16-.17-.11-.09-.69-.1-.63,0s-.08.15-.09.22H92.73v11c0-.53,0-1.07-.07-1.61,0,0,0,0,0,.07a.8.8,0,0,1-.09-.31s0,0,.06.07c.15-.42-.1-1.23,0-1.5,0-.11-.08-.17-.13-.1,0-1.55-.07-3.21-.19-4.8,0-.07.06-.09.11-.07A10.59,10.59,0,0,1,92.34,2V.21l1.76,0c.05-.06-.14-.07,0-.14a1.9,1.9,0,0,0-.63,0l-.15,0-.25,0a3.08,3.08,0,0,1-.53,0l0-.06c-.38,0-.25,0-.29.08a.53.53,0,0,1,0,.28c0,.17-.08-.11-.09,0,0,.42,0,.86,0,1.29a3.56,3.56,0,0,0,.11.92c-.14.14,0,.67-.14.9,0,.16,0,.32.13.38-.07,2.19.06,4.42,0,6.66.27,1,0,2.3,0,3.54h0a7.34,7.34,0,0,1,.07,1.48l.11.41c-.23,2.91-.07,5.89-.17,8.84a74.7,74.7,0,0,0,.1,9.58s0,0,0-.06c0,.94,0,1.8,0,2.69h0a32,32,0,0,1,.1,3.39c0,.57,0,1.14,0,1.69l0,.83a1.12,1.12,0,0,0,.31.81,1.33,1.33,0,0,0,1,.44c.37,0,.72,0,1.09,0H97.3c0-1.29,0-2.66-.07-4h0c-.11-2.19.17-4.31.09-6.5C97.45,32.19,97.27,30.56,97.21,29Zm-4.48-3.3v.54a1.69,1.69,0,0,1,0-.55Zm0,.77v.17a1.38,1.38,0,0,0,0-.2Zm0,1.14v1.5a3.79,3.79,0,0,1,0-1.5Zm0,1.76v.12h0Z"/><path class="cls-1" d="M92.67,9.85h0S92.68,9.87,92.67,9.85Z"/><path class="cls-1" d="M130.85,3.83A2.35,2.35,0,0,1,128.49,5H125a1.15,1.15,0,0,0-1.12,1.06V44.15h-3.17c-1.06,0-1.25-.63-1.25-.94V5h-6.28V2A1.39,1.39,0,0,1,114.55.59h17.79Z"/><path class="cls-1" d="M130.85,3.83A2.35,2.35,0,0,1,128.49,5H125a1.15,1.15,0,0,0-1.12,1.06V44.15h-3.17c-1.06,0-1.25-.63-1.25-.94V5h-6.28V2A1.39,1.39,0,0,1,114.55.59h17.79Z"/><path class="cls-1" d="M131.36,4.06l0,0,0-.17Z"/><path class="cls-1" d="M131.6,3.09s0,0-.08,0v.63C131.74,3.56,131.44,3.21,131.6,3.09Z"/><path class="cls-1" d="M131.69,3a.35.35,0,0,0,.06-.38C131.8,2.68,131.55,2.94,131.69,3Z"/><path class="cls-1" d="M115.05.26h0Z"/><path class="cls-1" d="M113.24,4.45l.09,0A8.22,8.22,0,0,1,113.26,3l0-.77a2.55,2.55,0,0,1,.07-.73v.07a1.33,1.33,0,0,1,1.38-.86l1.86,0,3.74-.14s0,0-.09,0a1.1,1.1,0,0,1,.4-.08s0,0-.08.05c.54.15,1.58-.1,1.92,0,.15,0,.22-.08.13-.13,2,0,4.14-.07,6.18-.19.1,0,.11.06.09.12A16.44,16.44,0,0,1,130.6.21l.91,0H133l-1.09,2.25c0,.09.14-.14.13,0a2.5,2.5,0,0,0,.3-.74c.06-.18.12-.35.19-.51s.2-.41.32-.61l0,.08c.32-.6-.07-.13.15-.54l-.13,0c-.2,0,.18-.08.06-.08a17.68,17.68,0,0,0-3.09.12c-.19-.14-.87,0-1.17-.14-.21.06-.41,0-.5.14-2.81-.08-5.68.06-8.56,0a40.22,40.22,0,0,1-4.56,0,0,0,0,0,1,0,0l-.43,0a2.13,2.13,0,0,0-.56.1,1.82,1.82,0,0,0-.91.71,1.83,1.83,0,0,0-.11.61c-.07.59-.07,1.1-.1,1.65l0,.82,0,1.1h6.27l0,1.54a120.36,120.36,0,0,0,.09,12.31s0,0,0-.08c.06,1.21,0,2.32,0,3.47h0c.22,2.83,0,5.9.21,8.64,0,3.33,0,7.1.06,10.62h-.05c0,.54,0,1.06,0,1.6a1,1,0,0,0,.49.65,1.82,1.82,0,0,0,.79.18l1.58.05,1.75,0V43.14l0-1c.13-2.9-.3-6-.14-8.87.26-1.81-.3-4.18,0-5.88a54.23,54.23,0,0,0-.1-10.35c.15-3.21-.22-6.42.07-9.54a7.08,7.08,0,0,1,0-1.13,1.24,1.24,0,0,1,.47-1.07,1.09,1.09,0,0,1,.54-.21l.6,0q.61,0,1.23,0l-.06-.06c.59.2,1.31-.28,1.68,0h-.06c.32.15.71-.36.9-.22l0-.08c.35-.09.06.08.34,0,.1,0,0-.13.22-.17.08.14.29,0,.48-.1s.33-.29.47-.19c-.17.17.36-.17,0,.26a1,1,0,0,0,.34-.38c.1-.18.13-.36,0-.35s-.14-.39-.4-.1a.41.41,0,0,1,.07.11c-.16,0-.1,0-.19,0-.29.34-.47.23-.74.31h0c-.12.22-.45.24-.61.25l-.08,0c-.11-.11-.49.3-.37.07-1,.07-2.17.06-3.3.07a2.61,2.61,0,0,1-.48,0c-.22,0-.35.08-.19.12a1,1,0,0,0-.88.29,1.5,1.5,0,0,0-.45.87.11.11,0,0,1,0-.11.8.8,0,0,0-.09.3,1,1,0,0,0,0,.17,2.93,2.93,0,0,0,.05.29.73.73,0,0,1-.05.63c.21.09-.07,1,.18,1.37,0,.07-.09.09-.13.07,0,1-.08,2.17-.09,3,.19.75-.08,1.81.17,2.45a9.58,9.58,0,0,0-.06,2.14l0-.07a12.75,12.75,0,0,0,.19,2.46c-.24.24-.19.6-.27,1,.11.56.08,1.69.18,2.54-.11.13.05.7-.11.75a37.93,37.93,0,0,1,0,7.9v0c.09.33.29.71.4,1.05,0,0,0,0,0,0,0,.47-.13.9-.1,1.37,0,0,0,0,0-.08a11.21,11.21,0,0,0,0,1.42l-.05,0,.06.33s-.13,0-.11-.2c0,1.54,0,3.11,0,4.68l.12,4.46-1.11,0h-1.41l.15-.06c-.26,0-.54.07-.76.08a.07.07,0,0,1,.07,0c-.44-.09-.73-.27-.76-.63s-.06-1-.05-1.52c0,0,.08.15.11,0-.14-.73.19-1.17-.11-1.54a0,0,0,0,1,.07,0s0,0,0,0c-.1-2-.09-4.13,0-6.19-.28-1.71,0-3.62-.25-5.4h.06c-.19-2.3,0-4.74,0-7.12,0-1,0-1.66,0-2.65l.07,0c-.26-1.67.23-3.52-.06-5.26l.1.12c-.15-.27,0-1.06-.2-.95l.07-.31c-.32-1.19.15-2.16-.06-3.62l.06.1a4.2,4.2,0,0,1,0-1.12s0,0,0,.12a6.74,6.74,0,0,0,.1-1.42l0-.72,0-.8-1,0,.14-.11c-.62.13-1.75,0-2.56.07l.05,0-.41.07v-.1c-.43,0-.86,0-1.28,0l-1.18,0Z"/><path class="cls-1" d="M120.56.54h0Z"/><path class="cls-1" d="M129.69,4.31l.1,0S129.72,4.3,129.69,4.31Z"/><path class="cls-1" d="M181.22,30.87h0s0,0,0,0Z"/><path class="cls-1" d="M169.8,4.54A8.78,8.78,0,0,0,169.87,3l0-.77a1.77,1.77,0,0,1,.12-.79l-.05.05a1.5,1.5,0,0,1,1.6-1l1.86.05,1.76.06h14l-1.44,3.12c.06,0,.1.08.07.27l-.14,0c0,.18,0,.12,0,.21-.34.44-.33.6-.67.88,0,0,0,0,0,0a4.44,4.44,0,0,0-.86.25l-.08.08c-.12.16-.65-.18-.47,0-1.07,0-2.2,0-3.36,0a1.38,1.38,0,0,0-.45,0c-.12,0-.21,0-.13-.09a2.23,2.23,0,0,0-.35.4,1.11,1.11,0,0,0-.16.44,0,0,0,0,0,0,0h0c0,.09,0,0,0,.11a.88.88,0,0,1,0,.17,1.27,1.27,0,0,1-.06.28.72.72,0,0,0,.06.64c-.21.09.06,1-.18,1.36,0,.08.08.1.12.07,0,1,.08,2.18.09,3.05-.18.75.08,1.81-.17,2.45a9.58,9.58,0,0,1,.06,2.14l0-.08A11.9,11.9,0,0,1,181,18.7c.24.25.2.61.27,1-.11.56-.08,1.68-.18,2.54.11.13,0,.7.12.75a38.63,38.63,0,0,0,0,7.9c-.09.32-.28.69-.39,1,0,0,0,0,0-.05,0,.47.13.9.1,1.37,0,0,0,0,.05-.08a11.21,11.21,0,0,1,0,1.42l0,0-.06.33c.05,0,.13,0,.11-.2,0,1.55,0,3.11-.05,4.69L181,41.77,181,43l0,1.48h-3.1l.15,0c-.27,0-.52,0-.83-.12,0,0,0,0,.09.07a1.48,1.48,0,0,1-.89-.29,1.16,1.16,0,0,1-.43-.92c0-.52.06-1,.05-1.52,0,0-.08.15-.11,0,.15-.73-.19-1.18.11-1.54a.05.05,0,0,0-.07,0,.05.05,0,0,0,0,0c.1-2,.09-4.13,0-6.19.28-1.71,0-3.62.25-5.4h-.06c.19-2.3,0-4.74,0-7.12,0-1,0-1.66,0-2.66l-.06,0c.26-1.67-.24-3.52.05-5.27l-.09.13c.13-.26,0-.95.15-1v-.15l0-.16,0-.18V10.29a8.69,8.69,0,0,1,0-1.25V8.83l0,.06,0-.36V7.76s0,0,0,.12a6.09,6.09,0,0,1-.1-1.41l0-.73.05-.67c-.27,0-.58,0-.9,0l.15.11c-.62-.13-1.75,0-2.57-.07l0,0-.41-.07v.1c-.43,0-.85,0-1.27,0l-1.33,0V4.45Zm17.34-.09a1.46,1.46,0,0,1-.24.17l0,0a.52.52,0,0,0,.19-.14ZM185.89,5l.06.06c.39,0,0-.08.32-.18.1,0,.08.13.29,0,0-.11.1-.18.25-.26a3,3,0,0,1-1.34.34c.17.08.33.15.42,0ZM184.8,5h0ZM180.7,7.5a7.24,7.24,0,0,0,0-1.14,1.29,1.29,0,0,1,.3-1.05,1.25,1.25,0,0,0-.39.76v12.6l.12-1.64c-.14-3.21.23-6.42-.07-9.53Zm0,19.88c0-.05,0-.1,0-.15v3.1a13.22,13.22,0,0,0,0-2.95Zm0,6.32v2.24c0-.75,0-1.5,0-2.24Z"/><path class="cls-1" d="M187,5.09s-.08.07-.13.09A.6.6,0,0,0,187,5.09Z"/><path class="cls-2" d="M152.16,45a.3.3,0,0,1,0,.1A.12.12,0,0,0,152.16,45Z"/><path class="cls-2" d="M150.89,44.64h0S150.91,44.65,150.89,44.64Z"/><path class="cls-2" d="M152.14,45.05s0,0,0,0S152.14,45.06,152.14,45.05Z"/><path class="cls-2" d="M153,38.54s-.06-.08-.12-.07S152.93,38.55,153,38.54Z"/><path class="cls-2" d="M152.93,39c-.09,0,0,.24,0,.24C153.06,39.46,153,38.94,152.93,39Z"/><path class="cls-2" d="M152.88,39.49s.06.07.11.06S152.93,39.47,152.88,39.49Z"/><path class="cls-2" d="M152.94,40.07s-.06,0-.11,0S152.89,40.08,152.94,40.07Z"/><path class="cls-2" d="M152.79,40.57c-.2,0,.11.11.11.11S152.79,40.57,152.79,40.57Z"/><path class="cls-2" d="M152.72,41s.07,0,.11,0S152.77,41,152.72,41Z"/><path class="cls-2" d="M152.86,41.27s-.06-.05-.11,0S152.82,41.28,152.86,41.27Z"/><path class="cls-2" d="M152.69,41.59s0,.06,0,.07C152.76,41.86,152.82,41.56,152.69,41.59Z"/><path class="cls-2" d="M152.63,42s.06.08.11.07S152.68,42,152.63,42Z"/><path class="cls-2" d="M152.7,42.63s-.06-.06-.11,0S152.65,42.64,152.7,42.63Z"/><path class="cls-2" d="M152.59,43.53c-.06,0,.06.08.11.07S152.64,43.52,152.59,43.53Z"/><path class="cls-2" d="M152.26,44.37c.14,0-.23-.18-.13-.2C151.9,44.22,152.26,44.37,152.26,44.37Z"/><path class="cls-2" d="M152.31,45.8c.07,0-.06-.1-.11-.09S152.26,45.81,152.31,45.8Z"/><path class="cls-2" d="M152.21,45.84c-.2,0,.11.11.12.11S152.21,45.84,152.21,45.84Z"/><path class="cls-2" d="M151.93,44.24c-.05,0,.06.08.11.07S152,44.22,151.93,44.24Z"/><path class="cls-2" d="M152,45.44c-.07,0,.06.1.11.09S152,45.42,152,45.44Z"/><path class="cls-2" d="M151.81,45.08s0,.05,0,.06C151.88,45.35,151.94,45,151.81,45.08Z"/><path class="cls-2" d="M152,47.67c.19,0-.17-.4-.15-.4C151.59,47.32,152,47.66,152,47.67Z"/><path class="cls-2" d="M151.68,46.77c.06,0-.06-.08-.11-.07S151.63,46.78,151.68,46.77Z"/><path class="cls-2" d="M151.7,46.88s-.07-.05-.11,0S151.65,46.9,151.7,46.88Z"/><path class="cls-2" d="M151.34,45.53s0,.08,0,.09C151.42,45.89,151.47,45.5,151.34,45.53Z"/><path class="cls-2" d="M151.3,46.14c-.24,0-.08.11,0,.11S151.49,46.13,151.3,46.14Z"/><path class="cls-2" d="M151.16,45.8s.06.06.11.05S151.2,45.79,151.16,45.8Z"/><path class="cls-2" d="M151,45.6c-.07,0,.06.1.11.09S151.08,45.59,151,45.6Z"/><path class="cls-2" d="M151,46.12c-.07,0,.06.1.12.09S151,46.11,151,46.12Z"/><path class="cls-2" d="M150.91,46.48s.06.08.12.07S151,46.47,150.91,46.48Z"/><path class="cls-2" d="M150.53,46.83c-.22,0,.11.16.11.06S150.64,46.82,150.53,46.83Z"/><path class="cls-2" d="M150.62,46.71c.06,0-.11-.11-.11-.11C150.3,46.64,150.62,46.71,150.62,46.71Z"/><path class="cls-2" d="M150.46,47.14c-.05,0,.06.08.12.07S150.51,47.13,150.46,47.14Z"/><path class="cls-2" d="M150.06,45.4c-.05,0,.06.08.11.07S150.11,45.39,150.06,45.4Z"/><path class="cls-2" d="M150.1,45.69h0Z"/><path class="cls-2" d="M149.62,42.31s.06,0,.11,0S149.66,42.29,149.62,42.31Z"/><path class="cls-2" d="M149.64,42.49s-.06.27.12.18S149.7,42.49,149.64,42.49Z"/><path class="cls-2" d="M149.57,42.87s-.1.23,0,.2S149.82,42.9,149.57,42.87Z"/><path class="cls-2" d="M149.6,43.12s-.15.06-.1.07S149.8,43.12,149.6,43.12Z"/><path class="cls-2" d="M149.68,43.87s-.06-.06-.11,0S149.63,43.88,149.68,43.87Z"/><path class="cls-2" d="M150.13,48s-.06-.06-.11-.05S150.08,48,150.13,48Z"/><path class="cls-2" d="M149.56,43.68s-.06,0-.11,0S149.51,43.7,149.56,43.68Z"/><path class="cls-2" d="M149.48,44c-.31.07.27.47.16.5C149.89,44.42,149.41,44,149.48,44Z"/><path class="cls-2" d="M149.35,13.61c-.27.05,0,.51,0,.51C149.47,14.09,149.23,13.63,149.35,13.61Z"/><path class="cls-2" d="M148.88,15.65c.35-.07.14-1.43.3-1.46C148.76,14.27,149.09,15.61,148.88,15.65Z"/><path class="cls-2" d="M148.75,15.72c-.06,0,0,.2.06.19S148.81,15.71,148.75,15.72Z"/><path class="cls-2" d="M148.66,16s0,.18,0,.21C148.53,16.76,148.79,16,148.66,16Z"/><path class="cls-2" d="M148.52,16.56s0,.15.07.14S148.57,16.55,148.52,16.56Z"/><path class="cls-2" d="M147.59,19.89s0,.15.07.14S147.64,19.88,147.59,19.89Z"/><path class="cls-2" d="M151.11,6.53s.35-.91.37-.92C151.25,5.65,151.07,6.39,151.11,6.53Z"/><path class="cls-2" d="M150.26,10.35s0-.15-.07-.14S150.21,10.35,150.26,10.35Z"/><path class="cls-2" d="M150,10.94s0,.18-.06.21C149.85,11.67,150.11,10.92,150,10.94Z"/><path class="cls-2" d="M149.61,12.26c-.09,0-.15.56-.16.58C149.37,13.45,149.74,12.24,149.61,12.26Z"/><path class="cls-2" d="M147.15,21.07c-.19.67-.3,1-.45,1.58a6.76,6.76,0,0,0-.1.77c.25,0,.38-1.35.43-1.53s.3-1.56.32-1.56S147.2,20.89,147.15,21.07Z"/><path class="cls-2" d="M151.07,6.69c-.19,0-.19.67-.24.84s0,.8-.12.83C151.09,8.29,150.85,6.73,151.07,6.69Z"/><path class="cls-2" d="M145.45,15.82c.07,0,0-.3,0-.3C145.2,15.57,145.45,15.82,145.45,15.82Z"/><path class="cls-2" d="M148.56,3.55c-.08,0-.17.61-.18.63C148.3,4.79,148.76,3.51,148.56,3.55Z"/><path class="cls-2" d="M148.28,5s0-.15-.07-.14S148.23,5,148.28,5Z"/><path class="cls-2" d="M148.15,5s0,.14,0,.16C148,5.67,148.3,5,148.15,5Z"/><path class="cls-2" d="M148,6.06c.21,0-.11-.63.08-.67C147.71,5.46,148.07,6,148,6.06Z"/><path class="cls-2" d="M147.68,7.11c.06,0,0-.2-.06-.19S147.62,7.12,147.68,7.11Z"/><path class="cls-2" d="M147.37,8.22s0-.15-.07-.14S147.31,8.23,147.37,8.22Z"/><path class="cls-2" d="M147.29,8.48c.06,0,0-.2,0-.19S147.23,8.49,147.29,8.48Z"/><path class="cls-2" d="M143.54,21.88s0-.14-.07-.13S143.49,21.89,143.54,21.88Z"/><path class="cls-2" d="M143.45,22.2s0-.15-.07-.14S143.4,22.21,143.45,22.2Z"/><path class="cls-2" d="M138,33.86s0-.15-.07-.14S138,33.87,138,33.86Z"/><path class="cls-2" d="M137.76,34s0,.15.07.14S137.82,33.94,137.76,34Z"/><path class="cls-2" d="M157.84,27.62a17.65,17.65,0,0,0-.83-2.55c-.33-1-.7-1.86-.93-2.52-1.44-4.05-2-7.43-3.39-10.92-.47-1.18-.06.22.12.95.12.43.26.86.42,1.27.53,1.8,1,3.37,1.4,4.93s1.2,3.16,1.71,4.84c.11.36.26,1.52.6,2.53C157,26.28,157.72,27.77,157.84,27.62Z"/><path class="cls-2" d="M152.19,10s.1.18.13.13S152.23,9.92,152.19,10Z"/><path class="cls-2" d="M158.18,28.59a2.78,2.78,0,0,1,.09.29C158.43,29.15,158.53,29.28,158.18,28.59Z"/><path class="cls-2" d="M152.39,2.76a.75.75,0,0,1,.21.34C152.63,3,152.61,2.88,152.39,2.76Z"/><path class="cls-2" d="M154,7.77a.61.61,0,0,0,0-.14A.34.34,0,0,0,154,7.77Z"/><path class="cls-2" d="M151.71,6.19s.1.18.14.13S151.75,6.14,151.71,6.19Z"/><path class="cls-2" d="M154.22,15.71s-.1-.17-.14-.13S154.18,15.76,154.22,15.71Z"/><path class="cls-2" d="M153.07,11c.43.26,0-.47-.21-.43S153.12,11,153.07,11Z"/><path class="cls-2" d="M152.79,10.22s.1.18.14.13S152.83,10.17,152.79,10.22Z"/><path class="cls-2" d="M152.85,10c.17-.2-.19-.36-.19-.35S152.85,10,152.85,10Z"/><path class="cls-2" d="M152.74,9.58c0-.05-.11-.25-.16-.2S152.7,9.64,152.74,9.58Z"/><path class="cls-2" d="M154.73,17.85s.1.18.14.13S154.77,17.81,154.73,17.85Z"/><path class="cls-2" d="M154.82,17.75c0-.05-.12-.25-.16-.2S154.78,17.8,154.82,17.75Z"/><path class="cls-2" d="M155.45,20s-.1-.18-.13-.13S155.41,20,155.45,20Z"/><path class="cls-2" d="M152.18,6.8c-.06.07.13.33.17.28S152.22,6.75,152.18,6.8Z"/><path class="cls-2" d="M151.72,3.81a.22.22,0,0,1,0,.11A.14.14,0,0,0,151.72,3.81Z"/><path class="cls-2" d="M156.26,22.42c.06-.07-.13-.34-.17-.28S156.22,22.47,156.26,22.42Z"/><path class="cls-2" d="M156.61,23.39s-.1-.18-.14-.13S156.57,23.44,156.61,23.39Z"/><path class="cls-2" d="M152.35,3s0-.2-.06-.23C152.09,2.1,152.24,3.15,152.35,3Z"/><path class="cls-2" d="M151.85,1s-.1-.18-.14-.13S151.81,1,151.85,1Z"/><path class="cls-2" d="M160,34.23s.1.17.14.12S160,34.18,160,34.23Z"/><path class="cls-2" d="M152.44,2.5s-.1-.17-.14-.13S152.4,2.55,152.44,2.5Z"/><path class="cls-2" d="M153.31,5.2c-.06.07.13.34.17.28S153.35,5.15,153.31,5.2Z"/><path class="cls-2" d="M153.37,5s-.05-.2-.05-.23C153.11,4.12,153.26,5.16,153.37,5Z"/><path class="cls-2" d="M154,7.37s-.06-.26-.07-.3C153.71,6.15,153.94,7.51,154,7.37Z"/><path class="cls-2" d="M153.75,6.15s-.1-.18-.14-.13S153.71,6.2,153.75,6.15Z"/><path class="cls-2" d="M155.05,10.2c.17-.2-.19-.36-.19-.35S155.05,10.2,155.05,10.2Z"/><path class="cls-2" d="M154.9,9.59c0-.05-.11-.26-.15-.2S154.86,9.64,154.9,9.59Z"/><path class="cls-2" d="M154.68,8.58s0,0,0,0Z"/><path class="cls-2" d="M155.46,11.89s.1.17.13.12S155.5,11.84,155.46,11.89Z"/><path class="cls-2" d="M155.37,11.5c-.05.06.11.26.15.2S155.41,11.45,155.37,11.5Z"/><path class="cls-2" d="M155.29,11.2c0,.05.12.25.16.2S155.33,11.15,155.29,11.2Z"/><path class="cls-2" d="M155.32,10.86s0-.2-.06-.23C155.06,10,155.21,11,155.32,10.86Z"/><path class="cls-2" d="M156.16,13.9a4.25,4.25,0,0,0-.22-.92C155.65,12.15,156,14.08,156.16,13.9Z"/><path class="cls-2" d="M156.29,14.43c-.21.26.3.89.41,1.28C156.85,15.48,156.21,14.53,156.29,14.43Z"/><path class="cls-2" d="M157.14,17.55c0,.05.12.25.16.2S157.18,17.5,157.14,17.55Z"/><path class="cls-2" d="M157.21,17.37c.16-.2-.43-1.46-.51-1.66C156.47,16,157.39,17.15,157.21,17.37Z"/><path class="cls-2" d="M157.9,19.79c.07-.08-.19-.81-.2-.84C157.41,18.13,157.81,19.91,157.9,19.79Z"/><path class="cls-2" d="M158.28,20.92c.09,0-.22-.86-.17-.69C157.81,19.27,158,20.81,158.28,20.92Z"/><path class="cls-2" d="M158.58,21.73c.19-.23-.26-.66-.26-.66S158.67,21.63,158.58,21.73Z"/><path class="cls-2" d="M161.21,36.49l1.64-.65c.53-.53.12-2-.16-2.89-.73-2.25-2-4.72-2.56-6.58a13.08,13.08,0,0,0-.6-1.69c.14.3-.09.15-.16-.14s.2,0,.2-.05a8.4,8.4,0,0,0-.61-1.63c-.32-.92-.5-1.3-.25-.59.54,1.55-.47-1.05-.44-.94-.27-.8-.64-1.94-.85-2.63,0-.17-.11-.35-.16-.54l.13,0,.1,0c.21-.35-.14-.17-.26,0-.78-2.57-1.87-6.35-2.62-8.81-.13-.4-.52-1.15-.6-1.49,0,.16,0,.42,0,.42a7,7,0,0,1-.4-1.68c-.24-.76-.69-2.63-1-3.4a.46.46,0,0,1-.18.21c.12-.13-.2-.21-.16-.14a4.5,4.5,0,0,1-.36-1v0c0-.15,0-.27.07-.38s.06.05.08,0,0-.11-.05-.18a.64.64,0,0,0-.3-.68c.07,0-.08.23-.16.18a.14.14,0,0,1-.06-.16s0,0,0,0-.11-.25-.15-.2a0,0,0,0,0,0,.05c-.23-.06-.88-.33-.74-.33-.35,0,.18.3-.12.43.14-.06-.41-.3-.46-.32s-.21,0-.33,0-.2-.15-.3-.09,0,.66,0,.85c-.17,2.44-1.22,4.47-1.7,6.87-.25,1.23-.89,2.35-1.12,3.61a49,49,0,0,1-2.31,8.22c-.47,1.28-.7,2.66-1.2,3.93a51.8,51.8,0,0,1-3.86,8.31,11.58,11.58,0,0,0-1.31,1.94c0,.14-.24,1.11.53,1.26.12,0,0-.07.11,0s0,.09.19.11c.38.06.42.32.92.58a.72.72,0,0,0,.32.08h0l.24.1h0c-.08,0-.37-.09-.45.12s.07.16.07.42-.16,0-.07.42.5.26.8.29a8,8,0,0,0,1.09.07c.36,0,.74,0,1,0s.27-.14.38-.22.08.13.14.1.1-.2.15-.21.31-.16.42-.12.07.23.14.21.2-.28.31-.33c.33-.14.75.09.84.08s-.09-.07,0-.1a2.17,2.17,0,0,1,1.4,0c.05,0,.08.18.14.2s0-.2.07-.21.06.2.1.21c.9.17,1.77.44,2.57.56,0,.5.34,1.09.37,1.4.05.54-.05,1.19,0,1.67a.88.88,0,0,1,0,.32c0,.11-.3.14-.19.2s.32-.17.32,0c.33.12-.11.22,0,0-.23,0-.27.36-.26.52,0,0,.09.33.14.34s.17-.37.2-.09c.08.73,0,1.77,0,2.6,0,.17,0,.37.16.5a1.54,1.54,0,0,0,.31,0c.27.06,0,.23,0,.32s-.27.85.22,1c.19.06.21,0,.09-.12-.33-.09.11-.19,0,0,.34-.11-.12-.5-.07-.63s.31-.1.09-.2c-.05,0-.26,0-.22-.07s.39-.05.41-.09-.22,0-.22-.07.27-.17.31-.28a.21.21,0,0,0,.21.21h0c-.14,0,.2-.25.19-.2s-.2-.07-.23-.11.22-.35.15-.54-.13-.2-.14-.32c0,.69-.14-.16.09-.18-.06,0,.13.52.17.59a4.93,4.93,0,0,1,.08,1.67s.07.49.26.45-.12-.66-.09-.77-.15-.62,0-.9c.07-.13.11-.07.1-.07.24-.08.34,0,.37.06v-.06a1.65,1.65,0,0,0,.07.16c.06.4.1,0,.08-.23,0,0-.07-.44-.16-.43a.13.13,0,0,0-.09.1.15.15,0,0,0-.11-.08s0,.48-.28.39,0-.45,0-.5-.1-.34.17-.38-.14.23.22.15c.17,0-.12-.13.08-.27,0,0,.18,0,.2-.07a.34.34,0,0,0-.15-.43c.12.08-.25.1-.31.07s0-.15.19-.16a1.74,1.74,0,0,0,.22.05c.12-.09-.06-.26-.05-.41,0-.39.13-.94.17-1.35a1.1,1.1,0,0,1,0-.48c.05-.09.11-.08.09-.18s-.13-.35-.06-.5.2-.08.2-.11c0-.34-.08-.69.1-1s-.19-.59,0-.8c0,0,.19,0,.2-.06a.75.75,0,0,0,0-.2,7.72,7.72,0,0,0,2.67,0,3.46,3.46,0,0,1,.56,0c.09,0,.19-.2.28-.21a3.5,3.5,0,0,1,.56,0c.73-.08,1.54-.06,2.25-.17s1.27.13,1.82-.16c.1,0-.06-.1.07-.21s.37.06.39-.23c0,.1-.17-.1-.14-.1-.17,0-.16,0-.28-.1s-.26,0-.25-.1c.1-.26.16,0,.25,0a1.11,1.11,0,0,0,.49-.23C161.61,36.49,160.8,36.87,161.21,36.49Zm-9.36,7c.05,0,.16.06.11.07s-.17-.06-.11-.07Zm9.22-6.08c0,.05-.06.13-.07.1s.06-.13.07-.11Zm-.8-1.66s-.1,0-.1,0,.41,0,.1,0Zm0-.32h0Zm.07,0s.1-.08.22-.1l0,.15c-.11,0-.21.3-.25,0Zm.15.27s.07-.13.11-.17l.06.23c-.08,0-.15,0-.17-.06s0,0,0-.06a.13.13,0,0,0,0,.06ZM159,23.34c0-.05.2.15.16.2s-.2-.15-.16-.2Zm0,7.09c.05-.06.23.21.18.28s-.23-.22-.18-.28Zm0-.16c0,.06-.2-.15-.16-.2s.2.15.15.2Zm-.2-2.14s.08.2.06.23-.27-.91-.06-.23ZM157.9,27c0-.05.2.15.16.2s-.2-.15-.16-.2Zm-.71-3.4c0,.05-.2-.15-.16-.2s.2.15.16.2Zm-.27-.66c0-.06.2.15.16.2s-.2-.15-.16-.2Zm-.41-1.28c0-.05.2.15.15.2s-.2-.14-.15-.2Zm-.41-1.28h0Zm.06.31c.34,0,0,.44,0,0-.3.07,0-.34,0,0Zm-.79-2.4c0-.05.16.1.14.13s-.16-.09-.14-.12Zm-.67-2.34s.45.43.26.66C155.05,16.47,154.58,16.05,154.7,15.91Zm.08-.1s-.2-.15-.16-.2S154.82,15.75,154.78,15.81Zm-.25-.59c.05-.05.23.22.18.28s-.23-.21-.18-.28Zm-.05-.23Zm-.33-1.78s.36.15.2.35c0,0-.24-.3-.2-.36Zm.27,1.55c0,.06-.2-.15-.15-.2s.19.15.15.2ZM154,13.49c-.07.08.57.59.32.89.14-.17-.48-.71-.32-.89Zm-.24-2.79s.16.1.14.13-.17-.1-.14-.13Zm-.2-.84s-.23-.11-.16-.2.44.32.15.2Zm0,1s-.24-.3-.2-.35.36.15.19.35Zm-.17-1.58c0,.05-.2-.15-.16-.2s.2.14.16.2Zm-.12.84c0,.05-.16-.1-.14-.12s.16.09.14.12Zm0-1.22c.06-.08-.7-1.42-.51-1.66-.09.1.76,1.34.5,1.65Zm-.2.53S153.19,9.34,153.13,9.4Zm.16-1.58Zm-.07-.31C153.47,7.91,153,7.2,153.22,7.51ZM153,6.44s.21.53.15.61-.4-1.2-.16-.61Zm-.23-.51s.16.1.14.13-.17-.1-.15-.13ZM151.94,3h0a2.34,2.34,0,0,0,0,.26.08.08,0,0,0-.07,0s-.25,1.22-.34,1.61a2,2,0,0,1-.1.26.32.32,0,0,0,0-.11,1,1,0,0,0-.05-.16c.09-.42.18-.84.26-1.27a.77.77,0,0,1,.08.19.84.84,0,0,0-.07-.26l.15-.81h0s0-.07,0-.11a2.07,2.07,0,0,0,0-.22c0,.34.06.51.07.62ZM151.07.84Zm-5.38,24.25c.06,0,.1.13.07.13s-.1-.13-.07-.13Zm-5.18,12.4c0-.06.12-.18.14-.11s-.12.18-.14.11Zm2.18-2.38h0v0Zm.14,0s.12-.18.14-.11-.11.18-.14.11Zm.74-.12s-.1,0-.11,0,.43-.06.11,0Zm.74-.13s-.5.12-.53,0,1-.11.53,0Zm.24-.11s.06-.14.07-.11-.06.13-.07.1Zm.25,0S144.82,34.81,144.8,34.74Zm2.17.15a18.36,18.36,0,0,0-1.93,0s-.06-.15-.09-.13c.12-.26,1.23-.14,1.39-.12a3.55,3.55,0,0,1,1.12.28c.47.21-.33,0-.49,0Zm4.67,0s.66-.36.74-.13c0-.1-.65.4-.74.12Zm.14,8c-.15,0,0-.05,0-.05s.08,0,0,0Zm-1.19,1.67c-.14,0,.06-.06.19-.08l-.09,0c.25,0,.2,0,.09,0,.07,0,.07.13-.19.08Zm-.31,0c.22,0,.15.2,0,.25s-.06-.26,0-.26Zm0-.34s.16.06.11.07-.16-.06-.11-.07Zm.64-1.81c.05,0,.16.06.11.07s-.16-.06-.11-.08Zm-.11-.07s.1-.06.1-.06c.16,0,.16.11-.1.06Zm.18-.15s0,0,0,0v0s-.18-.14,0-.16,0,.11,0,.16Zm-.17,1.24c0-.13-.12-.4.16-.5a4.93,4.93,0,0,0,0,.86s.26.24,0,.09-.16-.31-.16-.46Zm.24-.72c-.18.08-.19-.12-.12-.12s.29,0,.12.11Zm-1.05-1s-.33-.07-.12-.11c0,0,.17.09.12.1Zm.49,3.5c-.4.06-.11-.17-.14-.25s-.21-.06-.21-.07.07-.11.2,0c-.05,0,.33.33.15.35Zm.22.09c-.16,0-.08,0,0-.05s0,0,0,0ZM151,45s-.06-.07-.15-.1a.11.11,0,0,1-.1,0c-.13,0-.07,0,0,0h.1a.84.84,0,0,0,0-.27c-.1,0-.58.06-.28,0h.28c0-.42,0-1.09.09-.46,0,.1.13.19.13.23s-.11.41-.11.61Zm.18-3.81c-.05,0-.14,0-.11,0s.13,0,.11,0Zm.24,2.26s-.13,0-.11,0,.14,0,.11,0Zm.32,0c-.05,0-.16-.06-.11-.07s.16.05.11.06Zm0,.4h0s0,0,0,0Zm0-.76s0-.09,0-.1.09.36,0,.09Zm5.73-7.91c0-.05.06-.14.07-.11s-.06.13-.07.1Zm1.51.9c0-.06.08-.17.1-.11s-.09.15-.1.1Zm.21-1s.09-.16.1-.1-.08.15-.1.1Zm.1,1Zm0-1.05c0,.1.16-.1.14-.11-.24-.1-.64.06-1,0a3.35,3.35,0,0,0-1.3-.07c-.06,0,0,.22-.11.21s-.14-.16-.24-.2c-.54-.2-1.24.21-1.76.27a11.49,11.49,0,0,1-2-.15c-.13,0-1-.1-.35-.2s-.15-.19-.28-.2a2,2,0,0,0-1.12.13c-.23.09-.46-.06-.7-.08-.4,0-.78.16-1.16.14-1.41-.1-2.82-.72-4.07-.51-.73.12-1.54.16-2.28.28a11.06,11.06,0,0,1-1.41,0,6.63,6.63,0,0,0,.74-1,11.05,11.05,0,0,0,1.19-2.32,4.64,4.64,0,0,1,.16-.53c0,.05,0,.1.07.09s0-.15,0-.18a2.52,2.52,0,0,1,.15-.24,1.66,1.66,0,0,0,.27-.55c0-.12-.14-.32-.1-.43s.59-.22.24-.5c0,.43-.35.07,0,0a7.83,7.83,0,0,0,.68-2c0-.1.09.12.24-.1s0-.21.09-.31a5.39,5.39,0,0,0,.31-1.11c0,.05,0,.11,0,.16a8.6,8.6,0,0,0,.67-1.63c0-.07.13-.55,0-.45s-.4,1.15-.43,1.13a8,8,0,0,1,.39-1.37c.29-.85,1-3.2,1.37-4.1.15-.42.3-.86.42-1.3,0,.22-.06.4-.07.43a11.27,11.27,0,0,1-.32,1.51c.24-.05.37-1.32.42-1.48s.31-1.51.31-1.51,0,0-.07.07a59.36,59.36,0,0,1,1.56-6.14c.28-.76.42-1.9.74-3,.27-1,.48-1.82.67-2.65a1.09,1.09,0,0,0,.07.24c0,.13-.08.23,0,.23a2.2,2.2,0,0,0,.17.25c.1-.12,0-.22-.06-.28.37-.18,0-.25.07-.31s.1-.37.1-.37c.05-.19.13-.45.19-.65,0,.15.09.34.14.28s-.05-.2-.06-.23L151.92,4c0-.11.2-.57.09-.7s0-.06.08,0c.25.44,0,1,.11,1.35.19,1.07.79,2.78.55,2.3-.12-.25-.52-2.17-.75-2.24a9.87,9.87,0,0,1,.3,1.71c.11.52.35,1,.45,1.43a13.86,13.86,0,0,1,.16,1.58c.1.77.34,1.83.67,1.86-.1,0,0-.29,0-.25.16.46-.1.26-.1.51a8.56,8.56,0,0,0,.24,1c.06.25.19.92.09.79-.26-.31-.18-.82-.26-1.07s-.41-1-.39-.71a6.63,6.63,0,0,0,.19,1.25c.2.73.56,1.68.85,2.63.58,1.87,1.19,4.06,1.85,5.86a24.07,24.07,0,0,1,1.06,3.06c0-.05-.16.13-.17.21a4.13,4.13,0,0,0,.19.77c.29.93.8,2.49,1.19,3.6.07.2.5,1,.34,1s-.35-.64-.45-1a3.17,3.17,0,0,0-.36-.54c-.1.11.28.81.38,1.12.36,1.14.62,1.84,1,2.9a8.74,8.74,0,0,0,.61,1.64c.18.13.39,0,.44,0,.23.39.05.63.12.95l0,.13a2.09,2.09,0,0,1-.66,0c-.05,0-.41.11-.45-.11Zm.52,1s.09-.16.11-.11-.09.16-.11.1Zm.14-.11c.07-.2.58,0,.63,0h0a1.54,1.54,0,0,1,.05.17.69.69,0,0,1-.24.05S160,36,160.05,36Z"/><path class="cls-2" d="M148.55,34.52s.13,0,.14,0C149,34.44,148.51,34.41,148.55,34.52Z"/><path class="cls-2" d="M149.08,34.61s.09-.06.07-.11S149.06,34.56,149.08,34.61Z"/><path class="cls-2" d="M149.92,34.48c-.07,0-.73,0-.7.13s.58,0,.74,0,.7-.12.7-.12C150.59,34.24,150.14,34.47,149.92,34.48Z"/><path class="cls-2" d="M150.83,34.66c0,.09.38,0,.39,0C151.61,34.56,150.79,34.55,150.83,34.66Z"/><path class="cls-2" d="M153.11,34.91s.12,0,.14,0C153.58,34.82,153.07,34.8,153.11,34.91Z"/><path class="cls-2" d="M153.89,34.89c0,.07.15-.06.14-.11S153.87,34.83,153.89,34.89Z"/><path class="cls-2" d="M154.48,35c0,.07.16,0,.14-.11S154.46,34.92,154.48,35Z"/><path class="cls-2" d="M154.8,35s.09,0,.1,0C155.22,34.91,154.75,34.83,154.8,35Z"/><path class="cls-2" d="M155,35s.09-.06.07-.11S155,34.91,155,35Z"/><path class="cls-2" d="M155.15,35c0,.08.37,0,.38,0C155.92,34.85,155.11,34.84,155.15,35Z"/><path class="cls-2" d="M145.49,37.24v0Z"/><path class="cls-2" d="M143.35,37.51c0,.05.12,0,.11-.11S143.33,37.46,143.35,37.51Z"/><path class="cls-2" d="M33.66,13.83s0,.07,0,.12S33.66,13.87,33.66,13.83Z"/><path class="cls-2" d="M28.49,34.56a.52.52,0,0,0,.07-.15A1,1,0,0,0,28.49,34.56Z"/><path class="cls-2" d="M36.82,10.51a2.39,2.39,0,0,1,.1-.35C36.94,9.79,36.94,9.6,36.82,10.51Z"/><path class="cls-2" d="M33.53,23.55s0-.24,0-.21S33.48,23.58,33.53,23.55Z"/><path class="cls-2" d="M33.42,23.91c.06,0,.06-.33,0-.3S33.36,23.94,33.42,23.91Z"/><path class="cls-2" d="M34.17,21.19s0-.23,0-.21S34.12,21.22,34.17,21.19Z"/><path class="cls-2" d="M34.86,18.36c.08,0,.08-.42,0-.39S34.8,18.39,34.86,18.36Z"/><path class="cls-2" d="M35.19,17s0-.24,0-.21S35.14,17,35.19,17Z"/><path class="cls-2" d="M27.09,41.89a.92.92,0,0,0-.08.27C26.79,43,27.24,41.82,27.09,41.89Z"/><path class="cls-2" d="M26.76,41.69c-.08,0-.09.42,0,.39S26.82,41.66,26.76,41.69Z"/><path class="cls-2" d="M26.86,40.74s0,.24,0,.21S26.91,40.71,26.86,40.74Z"/><path class="cls-2" d="M27.68,37.46c.08,0,.09-.42,0-.39S27.62,37.49,27.68,37.46Z"/><path class="cls-2" d="M27.53,37.61a1.07,1.07,0,0,0-.08.27C27.23,38.69,27.69,37.53,27.53,37.61Z"/><path class="cls-2" d="M28.31,34.8a1.17,1.17,0,0,0-.11.36C27.9,36.26,28.47,34.72,28.31,34.8Z"/><path class="cls-2" d="M27.9,36.44s0-.23,0-.2S27.84,36.47,27.9,36.44Z"/><path class="cls-2" d="M29.11,31.31c-.24.13-.06.48-.05.48S29.11,31.31,29.11,31.31Z"/><path class="cls-2" d="M28.89,32.33c.06,0,.05-.33,0-.3S28.83,32.36,28.89,32.33Z"/><path class="cls-2" d="M28.52,33.19h0Z"/><path class="cls-2" d="M29.72,29.34s0-.23,0-.2S29.67,29.37,29.72,29.34Z"/><path class="cls-2" d="M29.58,29.79c.06,0,.06-.33,0-.3S29.52,29.82,29.58,29.79Z"/><path class="cls-2" d="M29.47,30.15c.06,0,.06-.33,0-.3S29.41,30.18,29.47,30.15Z"/><path class="cls-2" d="M29.27,30.48a1.07,1.07,0,0,0-.09.27C29,31.57,29.42,30.4,29.27,30.48Z"/><path class="cls-2" d="M30.3,26.87A5.53,5.53,0,0,0,30,27.94C29.72,29,30.51,26.76,30.3,26.87Z"/><path class="cls-2" d="M30.88,24.69c-.23.16-.27,1.49-.38,1.55C30.79,26.09,30.75,25.16,30.88,24.69Z"/><path class="cls-2" d="M31.55,22.24c-.06,0-.05.33,0,.3S31.61,22.21,31.55,22.24Z"/><path class="cls-2" d="M31.41,22.69c-.24.12-.48,1.75-.53,2C31.22,24.49,31.15,22.82,31.41,22.69Z"/><path class="cls-2" d="M32.22,19.79a3.92,3.92,0,0,0-.31,1C31.67,21.79,32.35,19.73,32.22,19.79Z"/><path class="cls-2" d="M32.55,18.42c0-.08-.3,1-.26.81C32,20.39,32.69,18.67,32.55,18.42Z"/><path class="cls-2" d="M32.76,17.41c-.27.14-.16.83-.16.83C32.76,18.16,32.64,17.47,32.76,17.41Z"/><path class="cls-2" d="M42.8,26.53s-.06-.24-.07-.28C42.51,25.63,42.71,26.63,42.8,26.53Z"/><path class="cls-2" d="M41.89,22.05c.06-.08-.18-.73-.19-.76C41.44,20.56,41.8,22.14,41.89,22.05Z"/><path class="cls-2" d="M41.06,17.54s-.05-.23-.07-.27C40.78,16.64,41,17.64,41.06,17.54Z"/><path class="cls-2" d="M40.69,16c.05-.06-.12-.3-.16-.25S40.65,16.09,40.69,16Z"/><path class="cls-2" d="M40.5,14.86c0-.06-.12-.3-.16-.25S40.46,14.9,40.5,14.86Z"/><path class="cls-2" d="M40.35,14.24s0-.18-.05-.2C40.11,13.43,40.25,14.36,40.35,14.24Z"/><path class="cls-2" d="M40.1,13.65s.09.16.13.11S40.14,13.61,40.1,13.65Z"/><path class="cls-2" d="M40.18,13.56c.06-.07-.18-.73-.19-.75C39.73,12.07,40.1,13.66,40.18,13.56Z"/><path class="cls-2" d="M47.79,36s-.1-.23-.14-.18S47.76,36.08,47.79,36Z"/><path class="cls-2" d="M49.71,43.32l-.52-.12h0s0,0,0,0a1.24,1.24,0,0,0-.27,0s.14.07,0,.1a.53.53,0,0,1-.33,0c.07,0,0-.22.19-.25s.1.3.4.05,0-1-.11-1.64-.23-1.33-.43-2.14-.33-1.44-.49-2a2.3,2.3,0,0,0-.37-.71c-.07-.11.08-.18,0-.3s-.22-.13-.25-.22a3,3,0,0,1-.3-.8c0-.16.17-.19.12-.32s-.33-.33-.43-.55a6.24,6.24,0,0,1-.31-1.66c0,.07,0,.2-.08.09a9.51,9.51,0,0,1-.68-2.73c0-.1.13-.2.12-.32s-.2,0-.22-.09.15-.16.14-.25c-.34-2.4-.52-4.74-1-6.7-.15-.63-.23-1.1-.32-1.66-.12-.85-.53-1.69-.57-2.32,0-.06.16-.12.13-.25a43.33,43.33,0,0,0-1.45-6.67c-.14-.4-.16-.71-.27-1.09-.05-.18-.26-.33-.32-.5-.11-.34-.16-.73-.27-1.09-.4-1.41-.75-3-1.17-4.35a25.25,25.25,0,0,0-1-3.53c-.09-.17-.06.14-.22-.09-.33-.46-.11-.74-.37-.7.1,0,0,.34,0,.3a1.5,1.5,0,0,1,0,.56c0,.1.07.52,0,.5-.27-.13-.07-.3-.11-.47L39,1.13A.91.91,0,0,0,39.09.7l-.27,0c-.06-.12-.11-.2-.12-.19a.45.45,0,0,0,0,.17L37.28.43c-.7.26-1.21,2.05-1.47,3.08-.68,2.74-1.1,6-1.68,8.23-.19.69-.35,1.39-.47,2.09.06-.38.15-.11,0,.24s-.16-.09-.18-.06a13.81,13.81,0,0,0-.43,2c-.27,1.13-.34,1.62-.14.74.45-1.9-.21,1.35-.18,1.22-.24,1-.58,2.36-.8,3.2l-.17.65a.45.45,0,0,0-.12-.06l-.09,0c-.34.24,0,.25.18.19-.47,1.78-1.09,4-1.68,6.2a.11.11,0,0,0-.07,0s0,0,.05.07c-.42,1.55-.83,3-1.15,4.28-.13.47-.24,1.48-.37,1.87.09-.17.22-.44.22-.45a1.54,1.54,0,0,1,0,.3h0a.17.17,0,0,0,0,.1c-.13.49-.41,1-.55,1.56-.1.36-.25.9-.42,1.48a.73.73,0,0,0-.12.35.11.11,0,0,0,0,.05c-.15.52-.3,1.06-.42,1.52h0c-.21,0-.07.08,0,.13v0s-.15,0-.15,0a.33.33,0,0,0,.09.21,2.07,2.07,0,0,0,0,.22l-.15-.2a.17.17,0,0,0-.2,0s0,.1,0,.09a3.44,3.44,0,0,1,.24.39.69.69,0,0,0,.05.28.67.67,0,0,1,0-.2l0,.08.06.15h0c-.11.45,0,.3,0,.08,0,.06.05.12.08.17-.16.65-.4,1.38-.07.55l.15-.37a10.75,10.75,0,0,0,.73,1.16l0,0a.71.71,0,0,0-.43.08c-.12.11,0,.35-.12.37-.29.09-.41-.12-.63-.14s-1-.12-1.12,0,.12,1.84.11,1.82c.24.6,1.3.63,1.9.6,1.6-.06,3.43-.51,4.74-.54a6.09,6.09,0,0,0,1.28-.1c-.31.09-.16-.11.06-.09s0,.18,0,.19A4.56,4.56,0,0,0,35,44.25c.66,0,.94-.1.43-.06-1.11.07.77-.15.69-.15C36.72,44,37.53,44,38,44h.38s0,.08,0,.13v.09c.19.27.14-.09.08-.22h4.17l.08.08s0,0,0,.05,0,0,.06,0a.6.6,0,0,0,.43.22c.41-.07,0-.11.15-.3l.08,0h1.25c.28,0,.84-.16,1.08-.14l-.28-.09c.32-.14.76.08,1.17.07a23.86,23.86,0,0,0,2.39,0,.55.55,0,0,1-.1-.22c.07.16.2-.16.11-.08C49.17,43.32,50.44,43.47,49.71,43.32Zm-19.6-1-.05-.07h0s.07,0,.08,0,0,0,0,.06ZM29.92,42a5.75,5.75,0,0,0-.2-.71,11.47,11.47,0,0,0-.78-1.57l-.11-.18A6.13,6.13,0,0,1,30.53,42l-.61,0Zm-1.13-.3s-.17.06-.14,0,.17-.06.14,0ZM33.6,24.47l0,0s0,.15-.06.11Zm.33,0s0,0,0,0,.21-.08,0,0Zm.38-.17s-.25.14-.28,0,.53-.16.27,0Zm.14-.22s0,.12,0,.1,0-.12,0-.1Zm.1.07S34.57,24.17,34.55,24.11Zm3.55-.38S38.12,23.79,38.1,23.73Zm3.24-.23s0,.12,0,.1,0-.12,0-.1Zm6,19.23.06-.06a.14.14,0,0,0,0,.06Zm-7.9-1h.07a.07.07,0,0,1,0,.06s0,0,0,0Zm-10-5.35a.51.51,0,0,0,.06-.25l.05.12.09.24,0,0C29.38,36.63,29.6,36.37,29.41,36.42Zm0-.36c0,.08,0,.35,0,.36h0c.09,0-.12.19-.2.23h-.05a6.54,6.54,0,0,0,.19-.73l.09.14Zm3.28,2.2c-.28-.68-1-1.13-1.23-1.77-.19-.45-.33-1.3-.79-1.42,0,0-.08.15,0,.13-.21.08-.49-.46-.54-.49-.24-.15-.15.09-.11.18.16.36,0,.2-.17-.1a1.39,1.39,0,0,1-.11-.19c.11-.3.25-.58.38-.85l0,0c.14.2.14.48.25.69.45.83,1.34,1.43,1.89,2.4q.2.38.36.75a.51.51,0,0,1-.09-.16s-.1,0-.1,0a1.85,1.85,0,0,0,.53,1c.11.32.22.65.34,1-.2-.4-.43-.78-.61-1.21Zm-2.37-7c.06,0,.07.19,0,.21s-.06-.2,0-.21Zm.54.33s0,0,0,0a1.16,1.16,0,0,0,0-.18s0,.06,0,.09,0,.05,0,.08Zm-.1.31v0h0s0,0,0,0Zm-.11-.73A1.55,1.55,0,0,1,30.7,31l0,.07,0,.06c-.06.06-.13.11-.12.09Zm-.09.27s0,.44-.05.47-.18-.36.06-.48Zm-.17.54h0Zm-.61,1.28.08.12s0,.08,0,.09-.06-.13,0-.22ZM31,31.63a1.41,1.41,0,0,0-.17-.32.42.42,0,0,0-.06-.34s0,.09,0,.14L30.71,31c.09-.22.17,0,.28-.24a4.1,4.1,0,0,0,.2-.59l.08.13c-.07.38-.14.86,0,.63s.13-.27.18-.4c.09.16.19.31.29.46a1,1,0,0,0,0,.17c0,.17-.06.3-.07.4h-.08s.06.05.07.1a.43.43,0,0,1,0,.05.11.11,0,0,1-.09.07c-.26,0,0-.36-.3-.3.08,0,0,.55-.13.19ZM43.39,42.11v0h0Zm.07-.55h-.05c-.08-.12-.32-.29-.37-.39s-.45-.42-.34-.54c-.11.12.74.64.76.93Zm-.63-1.09c.06-.06-.7-.47-.53-.68,0,0,.67.52.53.68Zm-2.3-4.65a29.19,29.19,0,0,1-1.2-3.52,45,45,0,0,0,1.78,4.17c.62,1.26,1.17,2.55,1.78,3.83-.77-1.48-1.63-2.94-2.36-4.48Zm-2.47.66s-.06-.13,0-.16S38.18,36.93,38.06,36.48Zm-.24-2.41s-.15,0-.11-.09.15.05.11.09Zm1.25,4.41c-.32-.3,0-.46,0,0,.32.29,0,.46,0,0Zm-.29-.59c.09-.08.15.5,0,.16,0,0-.06-.13,0-.16Zm0-.12s-.32-.42-.28-.51.1.17.14.28S39,37.52,38.76,37.77Zm-.34-2.22c-.07,0-.2,0-.08-.15l0,0Zm-.21-.35s-.06-.13,0-.16.15.5,0,.16Zm.11,1.71c.32.24,0,.43,0,0-.3-.09,0-.42,0,0Zm1,.88A4.35,4.35,0,0,1,39,37.2c0-.09-.1-.26-.07-.33.16.34.32.67.49,1-.1-.1-.23-.2-.18-.08Zm.07.11-.06-.08a.56.56,0,0,0,.05.08Zm-1.43-1.7s-.06-.12,0-.15.15.49,0,.15Zm1,5.34a.05.05,0,0,1,0-.08h0s0,0,.07.08ZM32.19,32c0-.1-.23-.17-.28-.21s-.12-.22-.26-.25c0-.11.09-.27.14-.44.15.23.31.45.47.68h0s.08.51,0,.22Zm.53.15c-.3-.45-.57-.91-.83-1.37,0-.1.06-.21.09-.31.42.65.85,1.29,1.21,1.79.06.08.12.3.21.36s.51.18.25-.15c-.33-.1.13-.25,0,0,.55.33.67,1.09,1.1,1.53.16.16.3,0,.15-.11a3,3,0,0,1-.44-.76c-.12-.26.2-.06.3.1s.13.52.39.6-.14-.25-.21-.36-.32-.79,0-.44c.09.1.23.33.38.52.13.37.27.74.41,1.1l-.09,0c0,.08-.09.34,0,.32-.13.07-.3-.38-.46-.08s-.32,0-.39,0a22,22,0,0,1-1.93-2.27l-.06-.14,0,.06c.38.53.15,0-.08-.38Zm.16-3.63a12.63,12.63,0,0,1,.81,1.37A10.11,10.11,0,0,1,35,32.68c0,.16.1.32.16.48-.19-.38-.35-.84-.59-1.25-.53-.9-1.1-2-1.7-2.83-.16-.23-.29-.44-.4-.63l0-.19a1.64,1.64,0,0,1,.33.26Zm.7,3.67c0,.05-.2,0-.18,0s.19,0,.17,0Zm-1.24-4,0-.05,0,0Zm6.78,13.16c.07-.06-.54-.08-.36-.24,0,0,.51.11.36.24Zm-.53-.69c-1-.67-1.1-1.79-1.41-2.81.08.15.15.3.22.45a5,5,0,0,0,.49,1.23,6.88,6.88,0,0,1,.7,1.13c.06.07.13.12.2.2.31.37-.35,0-.2-.2Zm-6.43-14h0S32.11,26.69,32.16,26.66Zm-.46,3.39h0l.14.21c0,.11-.05.22-.07.33l-.23-.41.09-.24Zm6.13,9.27a2.69,2.69,0,0,1-.28-.73,3.35,3.35,0,0,0,.61,1.11c.12.1-.1-.27.05-.23s0,.37.18.47.08-.22.16-.19,0,.29.26.43c0-.4-.1-.56-.17-.93-.2,0-.07-.24-.15-.32s-.2-.38-.29-.59c-.24-.55.39.46.29.59.21,0,.08.23.15.32.46.42.56,1.43,1.1,1.92s.18-.26.09-.58-.44-.63-.5-1.21c-.09-.88.6,1.51.72.37.06-.6-.43-.72-.42-1.33,0-.32,0,0,.11.12l.06.05c.5,1,1,2,1.52,3l-1.9,0c-.49-.76-1.12-1.43-1.59-2.23Zm2.07.11s.14,0,.1.08-.14,0-.1-.08Zm3.53,2.76s0,0,0,0h0c0-.06-.1-.54.1-.21s.2.07.1-.18v0a4.68,4.68,0,0,1,.2.45c-.05.09,0,.11,0,.1v0a.52.52,0,0,0-.29.09,2.72,2.72,0,0,1-.15-.25Zm.54.39,0,.09s-.13.08-.18,0l.14-.07Zm-2.63-7.26c0,.1.28.14.13.28l.11.13c.21.29-.2.1-.11-.13s-.28-.14-.13-.28C41,35.09,41.41,35,41.34,35.32Zm-2.06-8.7c0,.14,0,.19-.17,0v0Zm.62,4.92c.29.75.59,1.5.93,2.34.07.16.15.62.16.61-.24.06-.24-.54-.26-.59-.33-.83-.61-1.65-.92-2.48l.09.12Zm1,3c-.07.07.34.06.25.15s-.4,0-.25-.15Zm.1.26c.08-.08.38.3.15.18,0,0-.2-.12-.15-.18Zm.86,1.57c.25.32-.2.11-.13-.15a1.5,1.5,0,0,1-.11-.13c-.21-.28.2-.1.11.13l.14.15Zm.1.4s-.14-.1-.11-.13.44.42.11.12ZM40.65,33c-.13-.31-.25-.61-.37-.92a12.43,12.43,0,0,1,1.24,1.82c1,1.83,1.54,4,2.46,5.79q.18.36.33.72A78.38,78.38,0,0,1,40.65,33ZM42,28.79c.16.13.5.26.57.35h0a0,0,0,0,1,0,.05l0,0,.15.24a1,1,0,0,1,.19.31c.21.34.42.68.62,1,0,.16.07.32.1.48-.22-.45-.44-.88-.62-1.28a1.47,1.47,0,0,0-.1-.22c-.06-.1-.13-.2-.19-.31a.54.54,0,0,0-.2-.1c.1,0,.27.6.39.8s.3.52.43.77l-.5-.63c-.28-.49-.57-1-.86-1.47Zm5.67,13.36h0c-.08-.16-.12-.23,0,0Zm-.1.41a.07.07,0,0,1,.07,0c.11,0,.14.29.18.32l-.22,0,0-.24Zm-3-9.72-.32-.64-.18-.3c0-.14,0-.27-.08-.4a10.09,10.09,0,0,1,.53,1.16,1.16,1.16,0,0,1,0,.18Zm-1-4.29c0-.5,0-.21.12.19Zm-1.37-4.33,0,.07s0,0,0,0A.19.19,0,0,1,42.23,24.22Zm0-.8s0,0,0,0a.25.25,0,0,1,0-.08Zm.3,2.37a1.1,1.1,0,0,1,.26-.06c.12.69.21,1.39.3,2.08a15.63,15.63,0,0,1-1-1.82l0,0a3.28,3.28,0,0,0,.51-.15ZM41,26.38s0,0,.05-.07a4.49,4.49,0,0,1,.29.53,9.34,9.34,0,0,0,.43.91c-.12-.13-.44-.26-.41-.28-.19.18.5.37.44.42a.08.08,0,0,0,0-.05c.08.15.17.3.26.45-.14-.12-.44-.25-.41-.27-.19.18.5.37.44.42a0,0,0,0,0,0,0l.33.54c-.21-.15-.55-.3-.48-.37a.1.1,0,0,0,0,.09c-.44-.73-.88-1.46-1.28-2.2l0,0a.28.28,0,0,1,.15,0,2.06,2.06,0,0,0,.17.33c.15.2,0-.08,0-.11l-.16-.23Zm-.52.16c.11.21.22.42.34.63h0c.05,0,.16.67,0,.28,0-.14-.27-.26-.32-.32-.24-.29-.14-.34-.48-.43.08,0,.16.28,0,.27s-.15-.2-.2-.33a2,2,0,0,0,.69-.1Zm-.82.1c0,.18,0,.51-.16.14l-.06-.15h.22Zm-.84-.23s0,.18.08.18H39a3.06,3.06,0,0,1,.17.48s0,0,0,.05a0,0,0,0,0,0-.05s-.15.07-.27.18,0,.17-.13.15h0c-.12.11-.17.16,0,0-.21-.1-.25-.62-.45-.88.18-.05.34-.18.48-.11Zm-.63-2.69s.31-.37.38-.17C38.52,23.47,38.25,24,38.17,23.72Zm-.26,2.78c.06.29.44.51.39.9,0,.1-.25.3-.25.4a3.74,3.74,0,0,0,.74,1.65c.18.29.22.65.37.94a1.18,1.18,0,0,0,.11.19A65.59,65.59,0,0,0,44,41.48c-.33-.57-.69-1.11-1-1.62a83.23,83.23,0,0,1-3.93-8.79c-.12-.29-.28-.57-.39-.88s-.11-.79-.5-1c.08.23.15.45.22.67-.15-.3-.36-.62-.33-.48s0,.21.07.31l.18.59c.27.75.65,1.5.91,2.26a34,34,0,0,0,1.37,3.69c.42.87.92,1.68,1.26,2.59.1.18.2.31.31.51.52.9-.43-.28-.31-.51-1.7-2.23-2.18-5-3.19-7.56-.13-.32-.24-.65-.35-1s-.13-.39-.18-.59-.13-.45-.2-.67l.07.08c.17.23.14.11.07,0,0,0,.1.06.1.1.17-.12-.08-.15-.08-.24s-.06.06-.06.08S38,28.93,38,29l-.09-.29a.8.8,0,0,1,.06.08l.1.12a.39.39,0,0,0,.1.08c.07-.17-.05-.21-.1-.17s-.13-.21-.17-.17l-.09-.3.07.09c.29.4,0-.24-.09-.14h0L37.7,28a1.42,1.42,0,0,0,.12.13c.25.23-.09-.36-.17-.28l-.09-.25c.12.07.27.1.24.14s-.17-.18-.29-.26a5.38,5.38,0,0,0-.24-.55,1.91,1.91,0,0,0,.17.22c.3.35-.14-.54-.25-.41v0a2.75,2.75,0,0,0-.17-.29h0a2.08,2.08,0,0,0,.7.06Zm-2.2-2.41a7,7,0,0,0-1,.1s0-.13-.06-.11c0-.24.63-.21.72-.21A1.47,1.47,0,0,1,36,24c.27.15-.17.06-.26.05ZM35.11,26v.05l.06.2a.18.18,0,0,0-.07-.05L35,26.15a.59.59,0,0,1,.17-.1Zm-3,.93L32,27a.12.12,0,0,1,0-.1s0,0,0,0Zm-.76,2.58,0,0,.08.12a1.09,1.09,0,0,0-.09.23.61.61,0,0,1-.07-.1q0-.12.06-.21Zm-1.68,4.1a3.16,3.16,0,0,0-.14.68.79.79,0,0,0-.12-.15.92.92,0,0,1,.26-.53Zm-.52,2Zm-.09.27a6.75,6.75,0,0,1-.19.71l-.06,0C29,36,29.11,35.59,29.06,35.92ZM29.6,42c0-.07.06-.12.15,0l0,0Zm2.69-.1s0-.07.08-.13c-.1.09,0,.08.12,0l-.2.08Zm.3-.13s.06-.08.06-.08a.08.08,0,0,1,.08.06l-.16,0s.06,0,0,0Zm.58-.13h0v-.15a.63.63,0,0,0,0-.3c-.08-.53.18.27.35.2s0-.66,0-.69.12,0,.1-.2,0-.13,0-.2c.11.25.22.5.34.74a4.91,4.91,0,0,1,.28.62,5.14,5.14,0,0,0-1,0l-.11,0Zm6.19.39c0-.08,0-.19.12-.09s.16-.06.1-.16l0,0c.63,0,1.25,0,1.87,0l.11.22-.83,0Zm4.48.77s0,0,0,0a.08.08,0,0,1,0,0Zm.64-.48c0-.07-.07-.15-.1-.23h0l.12.24Zm1.39.59h0v0Zm.92,0h.11a.43.43,0,0,1,0,.05h-.16a.12.12,0,0,1,0-.05Zm.46,0h0v0h-.07a.09.09,0,0,0,0,0Zm.1,0v0h.06s.07.06.12,0h0v0Zm.27,0h.23a.36.36,0,0,1,0,.09l-.27,0Zm.59-.05c0-.17,0-.29,0-.37h0a2.59,2.59,0,0,0,.09.4.06.06,0,0,0,0,0h0s0,0,0,0a.94.94,0,0,0,.12.22,1.38,1.38,0,0,0-.22-.1,1.34,1.34,0,0,0,0-.2Zm.7-1.54s.21.19.16.25-.21-.19-.16-.25Zm-.51-2.85h0v0Zm-6.72-18c0-.05-.61-1.22-.45-1.41-.06.08.65,1.17.45,1.41Zm-2-19s.15.09.13.12S39.62,1.5,39.64,1.47Zm-.22,4.25s-.18-.14-.15-.18S39.46,5.67,39.42,5.72Zm-.24,3c0-.05.15.09.13.11S39.16,8.76,39.18,8.74Zm-.66-5.27v0c-.06-.2-.1-.53,0-.1,0,0,.07.18.05.2h0c0-.07,0-.16-.06-.14Zm-.26,1.61c0-.1.05-.19.07-.29.06.2.09.4,0,.47S38.31,5.14,38.26,5.08Zm0-1.75h0a1.36,1.36,0,0,1,.1-.21c0,.07,0,.14-.1.21Zm.1,2s.18.13.14.18-.18-.14-.14-.18Zm.22-2.62a1,1,0,0,0,0-.1s0-.11.07-.2a3,3,0,0,1,.14.42,4.82,4.82,0,0,1,0,.93C38.68,3.69,38.6,3,38.56,2.71Zm.3,1.12c0-.05.18.14.14.18s-.18-.13-.15-.18Zm.08-2.26,0-.1c0,.09,0,.13,0,.1ZM37.27,7.8c.06,0,.06.35,0,.39S37.19,7.84,37.27,7.8Zm-.08.57c.06,0,.07.26,0,.3S37.13,8.4,37.19,8.37Zm-1,2.33a1.38,1.38,0,0,1,.08-.27C36.4,10.35,35.94,11.52,36.16,10.7Zm0,1.37c.06,0,.07.26,0,.3s-.07-.27,0-.3Zm-1.32,4.21c.06,0,.07.26,0,.3S34.75,16.31,34.81,16.28Zm-.16.54c.06,0,.06.26,0,.3s-.06-.27,0-.3Zm-.39,1.55c.06,0,.07.26,0,.3S34.2,18.4,34.26,18.37ZM34,19.86c.27.1-.2.34,0,0C33.75,19.66,34.24,19.41,34,19.86Zm-.11.35h0Zm.52-1a36.66,36.66,0,0,1,.88-3.76c0,.05.2,0,.23-.12a6.21,6.21,0,0,0,.28-.9c.3-1.13.77-3,1.08-4.39.05-.25.16-1.3.27-1.19s-.09.86-.23,1.32a6.43,6.43,0,0,0,0,.76,6.52,6.52,0,0,0,.33-1.37c.35-1.39.54-2.25.82-3.58.05-.23.1-.46.16-.68.09.47.33,1.08.45,1.69a14.62,14.62,0,0,0,.53,2.55c0,.11.21,0,.24.16s-.08.32-.07.52a18,18,0,0,0,1,3.37c.31,1.08.55,2.66.79,4,0,.26.4,2.06,0,.73-.35-1.14-.1.34,0,.59a8.63,8.63,0,0,0,.63,2.16A6.52,6.52,0,0,1,42,22.45c.06.25.12.5.2.75l-.13.05c-.12-.38-.27-.83-.27-.83s0,.5.16.87l-.13,0c-.24,0-.54-.11-.69,0s0,.2,0,.2-.1-.14-.16-.16c-.3-.14-.62.27-.9.36a3.62,3.62,0,0,1-1.09,0c-.07,0-.56,0-.21-.16s-.1-.15-.17-.16a.68.68,0,0,0-.57.21c-.12.1-.25,0-.38,0s-.4.21-.6.21c-.75,0-1.57-.44-2.2-.16-.35.16-.75.25-1.1.4.13-.48.26-1,.4-1.43.57-2,.83-3.94,1.37-6,.11-.44.63-1.73.92-3,0-.16.31-2.11.14-2a29.9,29.9,0,0,0-.78,3.1c-.29,1.22-.5,2.32-.68,3.13-.51,2.26-1.08,4.28-1.64,6.21l-.31,0c.46-1.67.92-3.42,1.27-5Zm-1-4c.06,0,.06.26,0,.3s-.07-.27,0-.3Zm-.1,7.34s.06.19,0,.21-.07-.19,0-.21Zm-4.63,13.8s.13-.67.23-.72-.37,1.47-.23.72ZM27.11,40a.51.51,0,0,1,.17-.07h0c-.11.09.1.34.07.19a1.07,1.07,0,0,1,0,.25A3.73,3.73,0,0,0,27.1,40Zm1,1.89c-.23-.41-.43-.82-.62-1.25l.06-.15h0a.36.36,0,0,0,0-.09,15.36,15.36,0,0,0,.89,1.46s0,.19.09.2.39,0,.25-.16c-.25,0,.17-.2,0,0a.49.49,0,0,1,.26.21l-.16,0h0s-.14,0-.17,0h0a5.53,5.53,0,0,1-.56,0,.74.74,0,0,0-.1-.27Zm1.85.51s0,0,.05-.07l.05.06,0,0c-.06,0-.12,0-.14,0Zm.32-.07c0-.05.13-.13.16-.08s-.14.13-.17.09Zm.27-.08a.11.11,0,0,1,.08-.07s0,0,0,0,0,0,0,.08-.13,0-.12,0Zm1.9.13s.14-.13.17-.08-.14.14-.17.08Zm1.87-.26a2.36,2.36,0,0,0-.53,0c-.35,0-.81,0-1.29,0v0c.42,0,1.19-.09,1.51-.1l.39,0c0,.12.09.24.13.35h-.1s-.06-.17-.11-.19Zm.26,2.12s.14-.14.16-.09-.14.14-.16.09ZM40,42.46h-.12s0,0,0,0h0a.1.1,0,0,1,0-.06c0,.1.41-.2.48-.06a.73.73,0,0,1-.31.14Zm.36-.05s.13-.13.16-.08-.14.14-.16.09Zm.21,0s.18-.15.22-.08-.19.15-.22.08Zm.53-.06s.14-.14.17-.09-.14.14-.17.09Zm.27,0c0,.08.18,0,.32,0l0,.08c-.14.06-.29.09-.37,0Zm3.93.63a.25.25,0,0,0,.08-.12l.17,0a1.59,1.59,0,0,0,.13.13,1.25,1.25,0,0,1-.38,0Zm.51.14Zm1,.06h-.14a.44.44,0,0,1,0-.1c.18,0,.34.06.11.09Zm.26,0v0h0s0,0,0-.07h0c0,.05-.1.12-.11.09Z"/><path class="cls-2" d="M49.27,43.67a.4.4,0,0,1-.26.1C49.07,43.82,49.16,43.83,49.27,43.67Z"/><path class="cls-2" d="M45.82,43.83l-.09,0Z"/><path class="cls-2" d="M40.56,42s.13,0,.1-.09S40.53,41.9,40.56,42Z"/><path class="cls-2" d="M49.39,43.2s.19,0,.17-.08S49.37,43.15,49.39,43.2Z"/><path class="cls-2" d="M50,43.25s.14,0,.16,0C50.67,43.25,50,43.12,50,43.25Z"/><path class="cls-2" d="M50.77,43.3s-.18,0-.16.08S50.8,43.35,50.77,43.3Z"/><path class="cls-2" d="M49.12,43.57s.14,0,.16,0C49.76,43.57,49.05,43.44,49.12,43.57Z"/><path class="cls-2" d="M50,43.62c0,.07.24,0,.21-.08S49.94,43.57,50,43.62Z"/><path class="cls-2" d="M50.55,43.66s.13,0,.11-.08S50.53,43.62,50.55,43.66Z"/><path class="cls-2" d="M27.48,42.23s-.13,0-.1.08S27.51,42.27,27.48,42.23Z"/><path class="cls-2" d="M49.43,43.78s.13,0,.11-.09S49.41,43.73,49.43,43.78Z"/><path class="cls-2" d="M47.3,43.93c0,.06.25,0,.22-.09S47.28,43.87,47.3,43.93Z"/><path class="cls-2" d="M47.62,44s.14,0,.16,0C48.26,44,47.56,43.82,47.62,44Z"/><path class="cls-2" d="M46,43.93s.18,0,.21,0C46.83,44,45.91,43.8,46,43.93Z"/><path class="cls-2" d="M46.83,44s.13,0,.1-.09S46.8,43.94,46.83,44Z"/><path class="cls-2" d="M44,44.08c.1.2.27-.07.27-.07S44,44.08,44,44.08Z"/><path class="cls-2" d="M44.38,44.11s.18,0,.16-.08S44.35,44.06,44.38,44.11Z"/><path class="cls-2" d="M43.47,44.15s.14,0,.16,0C44.11,44.15,43.41,44,43.47,44.15Z"/><path class="cls-2" d="M41.35,44.1c0,.07.62,0,.64,0C42.58,44.11,41.26,43.93,41.35,44.1Z"/><path class="cls-2" d="M40.07,44.11c.13.19.86-.13.91,0C40.85,43.83,40.35,44.11,40.07,44.11Z"/><path class="cls-2" d="M38.64,44.11s.19,0,.16-.08S38.62,44.06,38.64,44.11Z"/><path class="cls-2" d="M38.91,44.13c.1.2,1,0,1.16,0C39.92,43.84,39,44.35,38.91,44.13Z"/><path class="cls-2" d="M37.21,44.11c0,.08.56,0,.58,0C38.38,44.12,37.15,44,37.21,44.11Z"/><path class="cls-2" d="M36.41,44.15c0,.07.59,0,.48,0C37.56,44.17,36.53,44,36.41,44.15Z"/><path class="cls-2" d="M35.82,44.21c.12.22.48-.06.48-.06S35.88,44.31,35.82,44.21Z"/><path class="cls-2" d="M36.37,23.59h0S36.37,23.58,36.37,23.59Z"/><path class="cls-2" d="M36.5,23.65s.07,0,.08,0C36.75,23.54,36.47,23.55,36.5,23.65Z"/><path class="cls-2" d="M36.82,23.59s0,.06,0,.1S36.83,23.63,36.82,23.59Z"/><path class="cls-2" d="M37.25,23.6a3.36,3.36,0,0,0,.36-.16c-.06-.19-.27,0-.39.07s-.38.1-.35.17S37.17,23.62,37.25,23.6Z"/><path class="cls-2" d="M37.93,23.57c.19-.11-.24-.06-.2,0S37.92,23.57,37.93,23.57Z"/><path class="cls-2" d="M39,23.65c.17-.1-.1-.09-.07,0S39,23.66,39,23.65Z"/><path class="cls-2" d="M39.42,23.48c0-.06-.07.06-.06.11S39.44,23.53,39.42,23.48Z"/><path class="cls-2" d="M39.75,23.51c0-.06-.08.06-.06.11S39.76,23.56,39.75,23.51Z"/><path class="cls-2" d="M39.91,23.58c.16-.07-.1-.11-.06,0S39.9,23.58,39.91,23.58Z"/><path class="cls-2" d="M40,23.57s0-.06,0-.1S40,23.52,40,23.57Z"/><path class="cls-2" d="M40,23.56c0,.07.2,0,.2,0C40.43,23.4,40,23.46,40,23.56Z"/><path class="cls-2" d="M26.91,39.72l0,0Z"/><path class="cls-2" d="M32.05,36.91s-.35-.47-.38-.44.24.39.3.48.41.41.38.43C32.52,37.22,32.14,37,32.05,36.91Z"/><path class="cls-2" d="M28.71,34.26a.16.16,0,0,1,0-.09C28.63,34.27,28.65,34.29,28.71,34.26Z"/><path class="cls-2" d="M33.46,41.45s-.07,0-.11,0S33.43,41.48,33.46,41.45Z"/><path class="cls-2" d="M33.39,41.52s.09,0,.13,0S33.43,41.48,33.39,41.52Z"/><path class="cls-2" d="M38.76,27.39h0l.16-.14V27.2Z"/><path class="cls-2" d="M33.89,32.85c0-.05-.18-.07-.2,0S33.87,32.9,33.89,32.85Z"/><path class="cls-2" d="M35.64,34.65s0,0,0,0Z"/><path class="cls-2" d="M40.13,39.67s0,.13,0,.15C40.28,40.17,40.22,39.59,40.13,39.67Z"/><path class="cls-2" d="M39.88,40.45l0,0h0Z"/><path class="cls-2" d="M39,40.26c-.16.15.12.16.13.16S39,40.26,39,40.26Z"/><path class="cls-2" d="M39.13,40.88h0Z"/><path class="cls-2" d="M39,40.57s.08.16.12.12S39,40.53,39,40.57Z"/><path class="cls-2" d="M37.14,26.49c-.12.15.19.14.2.13S37.15,26.49,37.14,26.49Z"/><path class="cls-2" d="M38.15,28.65s-.13-.08-.16,0S38.11,28.69,38.15,28.65Z"/><path class="cls-2" d="M41,26.88c-.18.18.52.39.46.45C41.62,27.19,41,26.92,41,26.88Z"/><path class="cls-1" d="M93.49,70.62V60.75a.13.13,0,0,1,.13-.14h.29a.14.14,0,0,1,.15.12v9.89a.13.13,0,0,1-.13.14h-.29a.14.14,0,0,1-.15-.13Z"/><path class="cls-1" d="M99.45,61.33a.55.55,0,0,1,.57-.52h0a.53.53,0,0,1,.57.49v0a.53.53,0,0,1-.52.55h0a.55.55,0,0,1-.58-.52Zm.29,9.29v-7a.14.14,0,0,1,.13-.14h.29a.13.13,0,0,1,.15.13h0v7a.13.13,0,0,1-.13.14h-.29a.14.14,0,0,1-.15-.13Z"/><path class="cls-1" d="M106.93,63v.45a.06.06,0,0,0,0,.06h1.76a.13.13,0,0,1,.14.13h0v.24a.13.13,0,0,1-.12.14H107a.06.06,0,0,0,0,.06v6.56a.14.14,0,0,1-.13.14h-.29a.13.13,0,0,1-.15-.13h0V64.06a.06.06,0,0,0-.06-.06h-.94a.13.13,0,0,1-.14-.13s0,0,0,0v-.24a.13.13,0,0,1,.12-.14h1a.06.06,0,0,0,.06-.06V63c0-1.56.44-2.35,2.09-2.35h.35a.13.13,0,0,1,.14.12V61a.13.13,0,0,1-.12.14h-.34C107.2,61.11,106.93,61.77,106.93,63Z"/><path class="cls-1" d="M117.72,69.08a.12.12,0,0,1,.14-.1h0l.19.06a.13.13,0,0,1,.11.16,0,0,0,0,1,0,0,2.65,2.65,0,0,1-2.58,1.64A2.59,2.59,0,0,1,113,69a7.63,7.63,0,0,1-.16-1.9,8.25,8.25,0,0,1,.12-1.79,2.58,2.58,0,0,1,2.64-2,2.55,2.55,0,0,1,2.68,2.1,7.49,7.49,0,0,1,.09,1.64.15.15,0,0,1-.13.16h-4.78a0,0,0,0,0,0,0h0a6.45,6.45,0,0,0,.08,1.39,2,2,0,0,0,2.16,1.66A2.17,2.17,0,0,0,117.72,69.08Zm-4.25-3.59a7.55,7.55,0,0,0-.07,1.25.05.05,0,0,0,0,.06h4.28a.06.06,0,0,0,.06,0h0a6.29,6.29,0,0,0-.07-1.22,2.06,2.06,0,0,0-2.13-1.65A2,2,0,0,0,113.47,65.49Z"/><path class="cls-2" d="M77.63,67.41c.55-.36.46-.33.15-.17l-1.15.65a10,10,0,0,1-1.28.6,4.71,4.71,0,0,1-1.54.27h-.25a8.1,8.1,0,0,0,1.09-.13,4.19,4.19,0,0,0,1-.33c.08,0,.1-.06,0,0l-.48.12c-.26.06-.53.11-.77.14l-.18,0-.18,0-.17,0H73a1.44,1.44,0,0,1-.7-.29l-.12-.11,0,0s0,0,.06,0a1.24,1.24,0,0,0,.39.25h0l.07,0,.09,0H73l-.1,0h.64a2.73,2.73,0,0,0,.5,0c-.15,0-.15,0-.07,0a6.3,6.3,0,0,0,1-.2l.16,0,.15-.06.29-.11.24-.11.18-.09c-.15.08,0,0,.1-.06l.34-.19s-.32.17-.64.32a7.2,7.2,0,0,1-.88.33l-.22.05-.11,0-.12,0-.22,0-.23,0-.22,0h-.68a1.29,1.29,0,0,1-.7-.25A2.11,2.11,0,0,1,71.59,66a1.6,1.6,0,0,1,.34-.69,2.11,2.11,0,0,1,.63-.48l.09,0,0,0,0,0,.2-.07.2-.06.1,0h.11l.21,0,.22,0h.44a5,5,0,0,1,1.71.27l.1,0,.1,0,.2.09a2.75,2.75,0,0,1,.38.2,5.17,5.17,0,0,1,.73.49c.23.18.46.38.68.58s.43.43.65.65.48.51.55.6,0,0-.4-.4l-.7-.71c-.23-.23-.47-.44-.72-.65l-.37-.28-.39-.25-.2-.11-.2-.1-.21-.09-.1,0-.11,0-.21-.07-.22,0-.11,0-.11,0-.23,0a4.83,4.83,0,0,0-.93,0,4,4,0,0,0-.91.11L73,64.7l-.21.08a2.42,2.42,0,0,0-.39.21l-.19.15,0,0,0,.06,0,0,0,0-.07.1-.05.1,0,.06v0s0,0,0,0l0,0a.21.21,0,0,0,0-.06l0,0,0,0,.07-.08a.38.38,0,0,1,.09-.09.47.47,0,0,1,.1-.1l.12-.09a2.61,2.61,0,0,1,.28-.17l.31-.13H73l.08,0,.15,0,.26,0,.06,0h.18l.24,0h.48a5,5,0,0,1,1,.12l.23.06.23.08.11,0,.11,0,.22.09a5.73,5.73,0,0,1,.82.49,12.17,12.17,0,0,1,1.46,1.32c.47.48.94,1,1.48,1.46a6.47,6.47,0,0,0,.78.6,4.51,4.51,0,0,0,.93.47l.12.05.13,0,.25.08a4.94,4.94,0,0,0,.53.1,4.69,4.69,0,0,0,1.06.06l.27,0,.13,0,.13,0,.14,0,.13,0,.26-.07a3.57,3.57,0,0,0,1-.51,3.22,3.22,0,0,0,.74-.82,3.13,3.13,0,0,0,.38-1,2.92,2.92,0,0,0,0-1.28,3.07,3.07,0,0,0-.61-1.14,3.27,3.27,0,0,0-1-.77l-.14-.07-.14-.06L85,63.8l-.07,0-.08,0-.28-.08-.28-.06-.13,0H84l-.27,0H83.2a4.43,4.43,0,0,0-1,.2,5.63,5.63,0,0,0-.91.38,7.58,7.58,0,0,0-.91.55c-.1.07-.33.22-.53.37a2.74,2.74,0,0,0-.41.34c0,.08.13.14.14.39,0,.09-.14.31-.12.35a.63.63,0,0,0,.27.06l.27,0c-.15,0,.4-.2.32-.17.42-.22.83-.53,1.27-.82a7.58,7.58,0,0,1,.68-.4,2.89,2.89,0,0,1,.71-.27l.09,0h.67l.2,0,.2,0h.1l.1,0,.2.06a2.79,2.79,0,0,1,.71.36,2.29,2.29,0,0,1,.55.57,2,2,0,0,1,.27.63,2,2,0,0,1-.71,2,2.64,2.64,0,0,1-.7.38l-.2.06-.1,0-.1,0-.2,0-.21,0h-.41l-.21,0-.21,0-.2,0-.2,0a2.85,2.85,0,0,1-.39-.11,4.74,4.74,0,0,1-.72-.34L81.2,68,81,67.88,81,67.81l-.08-.06a15.29,15.29,0,0,1-1.24-1.17c-.41-.42-.82-.86-1.28-1.26l-.18-.15L78,65l-.37-.28a6.07,6.07,0,0,0-.82-.48,4,4,0,0,0-.43-.19.9.9,0,0,0-.23-.08l-.22-.08a7.42,7.42,0,0,0-.94-.18l-.23,0h-.94l-.24,0h-.13l-.12,0-.23,0-.24.06-.12,0-.11,0-.23.08-.23.11a2.76,2.76,0,0,0-.8.64,2.24,2.24,0,0,0-.49.91,2.47,2.47,0,0,0-.09,1,3,3,0,0,0,.89,1.85,2.08,2.08,0,0,0,.83.5,1,1,0,0,0,.23.06.91.91,0,0,0,.23,0h.4c.17,0,0,0-.18,0H72.9c-.07,0-.09,0,0,0h.56c.11,0,.23,0,.34,0h.16l.15,0c.2,0,.1,0,0,0a1.25,1.25,0,0,1-.24,0L74,69l.12,0,.26,0,.3,0a1.89,1.89,0,0,0,.36-.1c-.39.07-.71.1-1,.13H73a.51.51,0,0,1-.17,0h-.16l-.22-.08-.11-.06-.12-.06-.1-.07-.09-.06a2,2,0,0,1-.55-.53,2.68,2.68,0,0,1-.37-.76A2.14,2.14,0,0,1,71,67c0-.06,0-.07,0,0s0,.1,0,.2a2,2,0,0,0,.12.34,2.61,2.61,0,0,0,.46.75,3,3,0,0,0,.25.25l.14.13.14.06.09,0,.1.06.12.06.12,0,.22.05h.86l.31,0a6,6,0,0,0,1.31-.27,7.3,7.3,0,0,0,1.25-.55C77,67.85,77.31,67.62,77.63,67.41ZM73.3,68.47s0,0,.1,0h.27c.16,0,.25,0-.13,0H73.3Zm-.66-.1s.14,0,.15,0,0,0-.06,0a.16.16,0,0,1-.09,0Zm-.38-.22s0,0,.06,0l.05,0a0,0,0,0,1,0,0s0,0-.06,0l-.07,0Zm2.18.38s0,0,.1,0a.45.45,0,0,1,.16,0l-.1,0a.41.41,0,0,1-.16,0Zm-2.91-1.32s0,0,0,0l.07.15a3,3,0,0,1,.14.3l0-.05-.07-.13,0-.07,0-.09,0-.08,0-.08,0-.12s0,0,0,0l0,.1,0,.11.07.16a2.31,2.31,0,0,1-.2-.89v-.21a1.08,1.08,0,0,1,0-.19.29.29,0,0,1,0-.09l0-.07,0-.07,0-.06a1.41,1.41,0,0,1,.18-.37.79.79,0,0,1,.18-.22s0,0,0,0l0,.05,0,.07-.11.16-.07.15a1.94,1.94,0,0,0-.11.43l0,.15v.14a.33.33,0,0,0,0,.14,1.09,1.09,0,0,0,0,.18v.1a.52.52,0,0,0,0,.11A2.45,2.45,0,0,0,71.53,67.21Zm.37,1a2,2,0,0,1-.19-.22l-.07-.09a.41.41,0,0,1,0-.09.64.64,0,0,1-.06-.11s0,0,0,0l0,0a.46.46,0,0,0,.07.1l0,.08.06.1.18.23a1.77,1.77,0,0,0,.23.19l.09.07.08,0c.09.06.14.08.14.1s-.06,0-.16-.07l-.08-.05-.09-.07-.21-.21ZM75,64.39h-.38l.11,0A.5.5,0,0,1,75,64.39Zm-3.72,2.5s0,0,0,.12a.64.64,0,0,0,0,.07l0,.08s0,.11,0,.15l.06.17a.13.13,0,0,1,0,0l0-.08,0-.06,0-.07s0-.1,0-.17a.88.88,0,0,1,0-.16Zm9.19,1.57s-.08,0-.21-.15l-.43-.39c-.27-.27-.44-.47-.09-.13l.11.11.24.22.13.11.12.1.13.13Zm-4.65-3.9h0l-.1,0-.14,0-.15,0c-.18,0-.28-.07.1,0a1.92,1.92,0,0,1,.32.09ZM71.24,66a.7.7,0,0,0,0,.29.33.33,0,0,1,0,.14.58.58,0,0,1,0,.18s0-.06,0-.17a1.84,1.84,0,0,1,0-.41.5.5,0,0,1,0-.12l0-.12c0-.07,0-.14.07-.2a1.26,1.26,0,0,1,.07-.16.56.56,0,0,0,0-.08s0,0,0,0l-.09.17,0,0,0,.06,0,.13C71.27,65.88,71.25,66,71.24,66Zm.81-1.28a.47.47,0,0,1,.13-.11l.12-.08a.52.52,0,0,1,.16-.06s0,0-.06.05l-.14.07-.1.06-.12.07c-.14.12-.24.23-.32.31s-.1.11-.11.11,0,0,.08-.12a.13.13,0,0,1,.06-.07l.07-.07.22-.16Zm5.88,1.08s-.19-.11-.21-.15S77.91,65.78,77.93,65.82Zm-4.52-1.61s0,0-.16,0h-.08l-.1,0-.18,0a.42.42,0,0,0-.13,0h-.05a1.4,1.4,0,0,1,.35-.1,1.43,1.43,0,0,1,.34-.06Zm.69-.07a3.42,3.42,0,0,1-.45,0h-.17a1.24,1.24,0,0,1,.27,0h.18a.49.49,0,0,1,.17,0Z"/><path class="cls-2" d="M72.4,68s.16.11.29.17l.08,0,0,0h0l-.06,0-.08,0-.05,0-.07,0A.28.28,0,0,1,72.4,68Z"/><path class="cls-2" d="M72,67.58a2.85,2.85,0,0,1,.22.28.41.41,0,0,1,.09.1l0,0-.06,0s0,0-.06-.08l0,0L72,67.69l0-.07A.08.08,0,0,1,72,67.58Z"/><path class="cls-2" d="M71.71,67s.06.16.11.3a.54.54,0,0,1,.05.11s0,0,0,0l-.07-.16A.83.83,0,0,1,71.71,67Z"/><path class="cls-2" d="M71.64,66.28s0,0,0,.11v.25c0,.17,0,.26,0-.08a.63.63,0,0,1,0-.14A.66.66,0,0,1,71.64,66.28Z"/><path class="cls-2" d="M71.77,65.75s0,0,0,0a.25.25,0,0,1,0,.07.42.42,0,0,1,0,.1l0,.11c0,.06,0,.12,0,.11a0,0,0,0,1,0-.05.73.73,0,0,1,0-.16l0-.1A.41.41,0,0,1,71.77,65.75Z"/><path class="cls-2" d="M75.11,68.34a2.74,2.74,0,0,1,.4-.15c.19-.06.29-.09-.08,0A2.33,2.33,0,0,1,75.11,68.34Z"/><path class="cls-2" d="M76.45,67.81a1.58,1.58,0,0,1,.42-.24S76.82,67.64,76.45,67.81Z"/><path class="cls-2" d="M76.44,67.81a1.69,1.69,0,0,1-.6.3A3.36,3.36,0,0,1,76.44,67.81Z"/><path class="cls-2" d="M75.36,68.67l.2-.08a1,1,0,0,1,.22-.09l0,0-.1.06A.54.54,0,0,1,75.36,68.67Z"/><path class="cls-2" d="M75,68.82c-.33,0-.39,0-.32,0l.45-.09.13,0,.11,0,.13,0-.09,0-.16.05Z"/><path class="cls-2" d="M76,68.49s0,0,.13-.08a.72.72,0,0,1,.2-.09s0,0-.12.08A1,1,0,0,1,76,68.49Z"/></svg>