<svg id="Layer_1" data-name="Layer 1" xmlns="http://www.w3.org/2000/svg" viewBox="0 0 140.94 22"><defs><style>.cls-1{fill:#cccdc4;}</style></defs><title>Social-Sprites</title><path class="cls-1" d="M9.19,3.67h2.33V0H8a4.73,4.73,0,0,0-3.6,1.77s-1,.9-1,3.53h0V8.05H0v3.89H3.46V22h4V11.94h3.43l.48-3.89H7.44V5.3h0A1.61,1.61,0,0,1,9,3.66Z"/><path class="cls-1" d="M49.19,1.44H41.88A5.87,5.87,0,0,0,36,7.31h0v7.32a5.88,5.88,0,0,0,5.88,5.88h7.31a5.88,5.88,0,0,0,5.88-5.88V7.31a5.87,5.87,0,0,0-5.88-5.87Zm4.05,12.49a4.75,4.75,0,0,1-4.75,4.75H42.58a4.75,4.75,0,0,1-4.75-4.75h0V8a4.75,4.75,0,0,1,4.75-4.74h5.91A4.75,4.75,0,0,1,53.24,8Z"/><path class="cls-1" d="M45.79,6a5,5,0,1,0,5,5h0a5,5,0,0,0-5-5Zm0,8a3,3,0,1,1,3-3h0a3,3,0,0,1-3,3Z"/><path class="cls-1" d="M51.74,5.9a1.28,1.28,0,1,1-1.28-1.27A1.28,1.28,0,0,1,51.74,5.9Z"/><path class="cls-1" d="M79.3,7.94h3.8v12.2H79.3Zm1.9-6.07A2.2,2.2,0,1,1,79,4.07h0a2.21,2.21,0,0,1,2.2-2.2"/><path class="cls-1" d="M85.47,7.94h3.64V9.61h0a4,4,0,0,1,3.59-2c3.85,0,4.55,2.53,4.55,5.82v6.7H93.51V14.21c0-1.41,0-3.24-2-3.24s-2.28,1.55-2.28,3.14v6H85.47Z"/><path class="cls-1" d="M127.27,19.08A11.56,11.56,0,0,0,138.91,7.6V7.44c0-.17,0-.35,0-.53a8.19,8.19,0,0,0,2-2.11,8.36,8.36,0,0,1-2.35.64,4.07,4.07,0,0,0,1.8-2.26,8.28,8.28,0,0,1-2.6,1A4.09,4.09,0,0,0,130.72,7a3.71,3.71,0,0,0,.1.94,11.65,11.65,0,0,1-8.44-4.28,4.1,4.1,0,0,0,1.27,5.46,4,4,0,0,1-1.85-.51v.05a4.08,4.08,0,0,0,3.28,4,4,4,0,0,1-1.08.15,4,4,0,0,1-.77-.08,4.09,4.09,0,0,0,3.82,2.84A8.15,8.15,0,0,1,122,17.3a7.88,7.88,0,0,1-1-.05,11.6,11.6,0,0,0,6.27,1.84"/></svg>