<svg id="Layer_1" data-name="Layer 1" xmlns="http://www.w3.org/2000/svg" viewBox="0 0 19.94 16.21"><defs><style>.cls-1{fill:#cccdc4;}</style></defs><title>twitter</title><path class="cls-1" d="M6.27,16.2A11.57,11.57,0,0,0,17.92,4.72V4.56a4.52,4.52,0,0,0,0-.52,8.39,8.39,0,0,0,2-2.12,8.21,8.21,0,0,1-2.34.64A4.13,4.13,0,0,0,19.4.3a8.47,8.47,0,0,1-2.6,1,4.1,4.1,0,0,0-7.08,2.8,4.23,4.23,0,0,0,.1.94A11.61,11.61,0,0,1,1.39.75,4.09,4.09,0,0,0,2.65,6.21,4,4,0,0,1,.8,5.7v0a4.08,4.08,0,0,0,3.28,4A3.91,3.91,0,0,1,3,9.91a4.11,4.11,0,0,1-.77-.08,4.1,4.1,0,0,0,3.83,2.84A8.23,8.23,0,0,1,1,14.43a7.89,7.89,0,0,1-1-.06,11.62,11.62,0,0,0,6.27,1.84"/></svg>